%FSLAX23Y23*%
%MOIN*%
%SFA1B1*%

%IPPOS*%
%ADD14R,0.069020X0.031620*%
%ADD15C,0.086740*%
%ADD16R,0.086740X0.086740*%
%ADD17C,0.080000*%
%ADD18R,0.080000X0.080000*%
%ADD19R,0.067370X0.067370*%
%ADD20C,0.067370*%
%ADD21O,0.068000X0.128000*%
%ADD22R,0.063120X0.063120*%
%ADD23C,0.063120*%
%ADD24R,0.061150X0.061150*%
%ADD25C,0.061150*%
%ADD26R,0.063120X0.063120*%
%ADD27C,0.072960*%
%ADD28C,0.085950*%
%ADD29O,0.069020X0.031620*%
%ADD30C,0.061020*%
%ADD31R,0.061020X0.061020*%
%ADD32R,0.061150X0.061150*%
%ADD33C,0.061470*%
%ADD34C,0.107480*%
%ADD35R,0.107480X0.107480*%
%ADD36C,0.058000*%
%LNpcb2-1*%
%LPD*%
G54D14*
X7007Y1102D03*
G54D15*
X5377Y2800D03*
Y2900D03*
Y3000D03*
Y3100D03*
Y3200D03*
Y3500D03*
Y3600D03*
Y4000D03*
Y4100D03*
X6377Y2800D03*
Y3000D03*
Y3100D03*
Y3600D03*
Y3700D03*
Y3900D03*
X5377Y4200D03*
Y3900D03*
Y3800D03*
Y3700D03*
Y3400D03*
Y3300D03*
X6377Y2900D03*
Y3200D03*
Y3300D03*
Y3400D03*
Y3500D03*
Y3800D03*
Y4000D03*
Y4100D03*
G54D16*
X6377Y4200D03*
G54D17*
X3818Y1377D03*
X4645D03*
Y1968D03*
G54D18*
X3818Y1968D03*
G54D19*
X4468Y3570D03*
X6781Y3809D03*
Y2785D03*
G54D20*
X4665Y3570D03*
X4263Y2413D03*
X4870D03*
X6604Y4064D03*
Y3809D03*
X6781Y4064D03*
X6604Y3041D03*
Y2785D03*
X6781Y3041D03*
G54D21*
X4165Y4760D03*
X3865Y4530D03*
G54D22*
X5299Y1181D03*
X4566Y4448D03*
G54D23*
X5094Y1181D03*
X5196D03*
X5218Y4566D03*
X5118D03*
X5318D03*
X5096Y3070D03*
X4566Y2519D03*
Y4645D03*
X5590Y2283D03*
X5790D03*
X5690D03*
X5096Y2204D03*
X5196D03*
X5690Y2519D03*
X5984Y3070D03*
X4280D03*
G54D24*
X5196Y1830D03*
X6614Y3287D03*
X6771D03*
X5118Y3444D03*
G54D25*
X5196Y1476D03*
X6614Y3641D03*
X6771D03*
X6791Y2519D03*
X5118Y3799D03*
X6082Y3307D03*
Y3543D03*
Y3779D03*
G54D26*
X5018Y4566D03*
X5196Y3070D03*
X4666Y2519D03*
X5890Y2283D03*
X5296Y2204D03*
X5590Y2519D03*
X6084Y3070D03*
X4380D03*
G54D27*
X6299Y1814D03*
Y2122D03*
G54D28*
X3700Y2549D03*
Y3435D03*
G54D29*
X7007Y4803D03*
X3307D03*
Y1102D03*
X7007D03*
G54D30*
X4167Y4015D03*
G54D31*
X4966Y4015D03*
G54D32*
X6437Y2519D03*
X5728Y3307D03*
Y3543D03*
Y3779D03*
G54D33*
X6690Y1810D03*
Y2109D03*
G54D34*
X3489Y4376D03*
G54D35*
X3489Y4126D03*
G54D36*
X6205Y3084D03*
X5040Y2282D03*
X6197Y2457D03*
X5823Y3466D03*
X5881Y3859D03*
M02*