%FSLAX23Y23*%
%MOIN*%
%SFA1B1*%

%IPPOS*%
%ADD12C,0.010000*%
%ADD30C,0.061020*%
%ADD31R,0.061020X0.061020*%
%ADD34C,0.107480*%
%ADD35R,0.107480X0.107480*%
%ADD37C,0.031500*%
%ADD38C,0.043310*%
%ADD39C,0.023620*%
%ADD40C,0.078740*%
%ADD41R,0.078740X0.078740*%
%ADD42C,0.072000*%
%ADD43R,0.072000X0.072000*%
%ADD44R,0.059370X0.059370*%
%ADD45C,0.059370*%
%ADD46O,0.060000X0.120000*%
%ADD47R,0.055120X0.055120*%
%ADD48C,0.055120*%
%ADD49R,0.053150X0.053150*%
%ADD50C,0.053150*%
%ADD51R,0.055120X0.055120*%
%ADD52C,0.064960*%
%ADD53C,0.077950*%
%ADD54R,0.053150X0.053150*%
%ADD55C,0.053470*%
%ADD56C,0.050000*%
%ADD57C,0.006000*%
%ADD58O,0.061020X0.023620*%
%LNpcb2-1*%
%LPD*%
G36*
X7086Y1028D02*
X7080Y1027D01*
X7075Y1024*
X7075Y1023*
X3239*
X3239Y1024*
X3234Y1027*
X3232Y1028*
X3232Y1029*
X3229Y1034*
X3228Y1034*
Y4856*
X3234Y4857*
X3239Y4861*
X3242Y4866*
X3243Y4871*
X3242Y4876*
X3245Y4881*
X7086*
Y1028*
G37*
%LNpcb2-2*%
%LPC*%
G36*
X7014Y4872D02*
X7001D01*
X6987Y4869*
X6975Y4864*
X6963Y4856*
X6954Y4847*
X6946Y4835*
X6941Y4823*
X6938Y4809*
Y4796*
X6941Y4783*
X6946Y4770*
X6954Y4759*
X6963Y4749*
X6975Y4741*
X6987Y4736*
X7001Y4734*
X7014*
X7028Y4736*
X7040Y4741*
X7051Y4749*
X7061Y4759*
X7069Y4770*
X7074Y4783*
X7076Y4796*
Y4809*
X7074Y4823*
X7069Y4835*
X7061Y4847*
X7051Y4856*
X7040Y4864*
X7028Y4869*
X7014Y4872*
G37*
G36*
X3313D02*
X3300D01*
X3286Y4869*
X3274Y4864*
X3263Y4856*
X3253Y4847*
X3245Y4835*
X3240Y4823*
X3238Y4809*
Y4796*
X3240Y4783*
X3245Y4770*
X3253Y4759*
X3263Y4749*
X3274Y4741*
X3286Y4736*
X3300Y4734*
X3313*
X3327Y4736*
X3339Y4741*
X3351Y4749*
X3360Y4759*
X3368Y4770*
X3373Y4783*
X3376Y4796*
Y4809*
X3373Y4823*
X3368Y4835*
X3360Y4847*
X3351Y4856*
X3339Y4864*
X3327Y4869*
X3313Y4872*
G37*
G36*
X5223Y4604D02*
X5213D01*
X5203Y4601*
X5195Y4596*
X5188Y4589*
X5183Y4581*
X5180Y4571*
Y4561*
X5183Y4552*
X5188Y4543*
X5195Y4536*
X5203Y4531*
X5213Y4529*
X5223*
X5232Y4531*
X5241Y4536*
X5248Y4543*
X5253Y4552*
X5255Y4561*
Y4571*
X5253Y4581*
X5248Y4589*
X5241Y4596*
X5232Y4601*
X5223Y4604*
G37*
G36*
X5123D02*
X5113D01*
X5103Y4601*
X5095Y4596*
X5088Y4589*
X5083Y4581*
X5080Y4571*
Y4561*
X5083Y4552*
X5088Y4543*
X5095Y4536*
X5103Y4531*
X5113Y4529*
X5123*
X5132Y4531*
X5141Y4536*
X5148Y4543*
X5153Y4552*
X5155Y4561*
Y4571*
X5153Y4581*
X5148Y4589*
X5141Y4596*
X5132Y4601*
X5123Y4604*
G37*
G36*
X4571Y4683D02*
X4561D01*
X4552Y4680*
X4543Y4675*
X4536Y4668*
X4531Y4660*
X4529Y4650*
Y4640*
X4531Y4631*
X4536Y4622*
X4543Y4615*
X4552Y4610*
X4558Y4609*
X4623Y4544*
X4629Y4539*
X4637Y4536*
X4645Y4535*
X4980*
Y4529*
X5055*
Y4604*
X4980*
Y4598*
X4658*
X4603Y4654*
X4601Y4660*
X4596Y4668*
X4589Y4675*
X4581Y4680*
X4571Y4683*
G37*
G36*
X3865Y4601D02*
X3855Y4599D01*
X3845Y4595*
X3837Y4589*
X3830Y4580*
X3826Y4571*
X3825Y4560*
Y4500*
X3826Y4490*
X3830Y4480*
X3833Y4476*
Y4462*
X3780Y4408*
X3544*
X3539Y4417*
X3530Y4426*
X3519Y4433*
X3508Y4438*
X3495Y4440*
X3483*
X3470Y4438*
X3459Y4433*
X3448Y4426*
X3440Y4417*
X3433Y4407*
X3428Y4395*
X3425Y4383*
Y4370*
X3428Y4358*
X3433Y4346*
X3440Y4336*
X3448Y4327*
X3459Y4320*
X3470Y4315*
X3483Y4313*
X3495*
X3508Y4315*
X3519Y4320*
X3530Y4327*
X3539Y4336*
X3544Y4345*
X3793*
X3801Y4346*
X3809Y4349*
X3816Y4354*
X3888Y4426*
X3893Y4433*
X3896Y4440*
X3897Y4449*
Y4476*
X3900Y4480*
X3904Y4490*
X3906Y4500*
Y4560*
X3904Y4571*
X3900Y4580*
X3894Y4589*
X3885Y4595*
X3876Y4599*
X3865Y4601*
G37*
G36*
X3553Y4190D02*
X3425D01*
Y4063*
X3553*
Y4190*
G37*
G36*
X6786Y4104D02*
X6776D01*
X6766Y4101*
X6757Y4096*
X6749Y4089*
X6744Y4080*
X6741Y4070*
Y4059*
X6744Y4049*
X6749Y4040*
X6757Y4033*
X6766Y4027*
X6776Y4025*
X6786*
X6796Y4027*
X6805Y4033*
X6813Y4040*
X6818Y4049*
X6821Y4059*
Y4070*
X6818Y4080*
X6813Y4089*
X6805Y4096*
X6796Y4101*
X6786Y4104*
G37*
G36*
X5196Y4835D02*
X4566D01*
X4558Y4833*
X4550Y4830*
X4544Y4825*
X4386Y4668*
X4381Y4661*
X4378Y4653*
X4377Y4645*
Y4409*
X4378Y4401*
X4381Y4393*
X4386Y4386*
X4525Y4248*
X4531Y4243*
X4539Y4240*
X4547Y4239*
X4886*
X5013Y4112*
Y3986*
X5012Y3985*
X5007Y3988*
Y4056*
X4926*
Y4047*
X4344*
X4197Y4194*
Y4706*
X4200Y4710*
X4204Y4720*
X4206Y4730*
Y4790*
X4204Y4801*
X4200Y4810*
X4194Y4819*
X4185Y4825*
X4176Y4829*
X4165Y4831*
X4155Y4829*
X4145Y4825*
X4137Y4819*
X4130Y4810*
X4126Y4801*
X4125Y4790*
Y4730*
X4126Y4720*
X4130Y4710*
X4133Y4706*
Y4180*
X4134Y4172*
X4138Y4164*
X4143Y4158*
X4308Y3993*
X4314Y3988*
X4322Y3984*
X4330Y3983*
X4926*
Y3975*
X4998*
X5000Y3970*
X4814Y3784*
X4300*
X4291Y3783*
X4284Y3780*
X4277Y3775*
X3914Y3412*
X3909Y3405*
X3906Y3398*
X3905Y3390*
Y2855*
X3906Y2847*
X3909Y2840*
X3914Y2833*
X4486Y2260*
X4493Y2255*
X4501Y2252*
X4509Y2251*
X4826*
X4835Y2252*
X4842Y2255*
X4849Y2260*
X4997Y2409*
X5270*
X5323Y2356*
X5323Y2353*
X5326Y2346*
X5331Y2339*
X5338Y2334*
X5346Y2331*
X5354Y2330*
X6414*
X6422Y2331*
X6430Y2334*
X6437Y2339*
X6442Y2346*
X6445Y2353*
X6445Y2356*
X6465Y2375*
X6467Y2376*
X6475Y2379*
X6482Y2384*
X6487Y2391*
X6490Y2398*
X6490Y2399*
X6498Y2406*
X6510*
X6518Y2407*
X6526Y2411*
X6532Y2416*
X6558Y2441*
X6563Y2448*
X6566Y2455*
X6567Y2464*
Y2598*
X6566Y2606*
X6563Y2614*
X6561Y2616*
Y2773*
X6566Y2773*
X6567Y2770*
X6572Y2761*
X6579Y2753*
X6589Y2748*
X6596Y2746*
X6604Y2738*
Y2674*
X6605Y2666*
X6608Y2658*
X6613Y2652*
X6709Y2556*
X6707Y2551*
X6692*
X6684Y2550*
X6676Y2547*
X6670Y2542*
X6443Y2315*
X6141*
X6133Y2314*
X6125Y2311*
X6119Y2306*
X5971Y2157*
X5764*
X5722Y2199*
Y2263*
X5725Y2268*
X5728Y2278*
Y2288*
X5725Y2297*
X5720Y2306*
X5713Y2313*
X5705Y2318*
X5695Y2321*
X5685*
X5676Y2318*
X5667Y2313*
X5660Y2306*
X5655Y2297*
X5652Y2288*
Y2278*
X5655Y2268*
X5658Y2263*
Y2236*
X5334*
Y2242*
X5322*
Y2258*
X5321Y2266*
X5318Y2274*
X5313Y2280*
X5306Y2285*
X5299Y2288*
X5296Y2289*
X5227Y2358*
X5221Y2362*
X5215Y2365*
X5208Y2366*
X5202Y2365*
X5195Y2362*
X5195Y2362*
X5017*
X5008Y2360*
X5001Y2355*
X4882Y2236*
X4881Y2236*
X4485*
X4303Y2418*
X4300Y2428*
X4295Y2437*
X4288Y2445*
X4279Y2450*
X4269Y2453*
X4258*
X4248Y2450*
X4239Y2445*
X4232Y2437*
X4226Y2428*
X4224Y2418*
Y2408*
X4226Y2398*
X4232Y2389*
X4239Y2381*
X4248Y2376*
X4258Y2373*
X4449Y2182*
X4456Y2177*
X4464Y2173*
X4472Y2172*
X4881*
X4890Y2173*
X4897Y2177*
X4904Y2182*
X4909Y2188*
X4912Y2196*
X4913Y2204*
X4913Y2205*
X5001Y2292*
X5005Y2290*
X5005Y2287*
Y2284*
X4942Y2221*
X4938Y2216*
X4935Y2210*
X4934Y2203*
Y2144*
X4932Y2141*
X4929Y2134*
X4928Y2125*
X4929Y2117*
X4932Y2110*
X4938Y2103*
X4944Y2098*
X4952Y2095*
X4960Y2094*
X5026*
X5095Y2024*
X5102Y2019*
X5109Y2016*
X5118Y2015*
X6062*
X6071Y2016*
X6078Y2019*
X6085Y2024*
X6233Y2172*
X6771*
X6779Y2173*
X6787Y2177*
X6794Y2182*
X6951Y2339*
X6956Y2346*
X6959Y2353*
X6961Y2362*
Y3124*
X6959Y3132*
X6956Y3140*
X6951Y3146*
X6926Y3172*
X6919Y3177*
X6912Y3180*
X6903Y3181*
X6590*
X6567Y3204*
Y3375*
X6566Y3383*
X6563Y3391*
X6558Y3397*
X6532Y3423*
X6526Y3428*
X6518Y3431*
X6510Y3432*
X6415*
X6408Y3440*
X6397Y3446*
X6391Y3448*
Y3453*
X6397Y3454*
X6408Y3461*
X6417Y3470*
X6423Y3481*
X6427Y3494*
Y3507*
X6423Y3519*
X6417Y3531*
X6408Y3540*
X6397Y3546*
X6391Y3548*
Y3553*
X6397Y3554*
X6408Y3561*
X6417Y3570*
X6423Y3581*
X6427Y3594*
Y3607*
X6423Y3619*
X6417Y3631*
X6408Y3640*
X6397Y3646*
X6391Y3648*
Y3653*
X6397Y3654*
X6408Y3661*
X6417Y3670*
X6423Y3681*
X6427Y3694*
Y3707*
X6423Y3719*
X6417Y3731*
X6408Y3740*
X6397Y3746*
X6391Y3748*
Y3753*
X6397Y3754*
X6408Y3761*
X6417Y3770*
X6423Y3781*
X6427Y3794*
Y3807*
X6423Y3819*
X6417Y3831*
X6408Y3840*
X6397Y3846*
X6391Y3848*
Y3853*
X6397Y3854*
X6408Y3861*
X6417Y3870*
X6423Y3881*
X6427Y3894*
Y3907*
X6423Y3919*
X6417Y3931*
X6408Y3940*
X6397Y3946*
X6391Y3948*
Y3953*
X6397Y3954*
X6408Y3961*
X6417Y3970*
X6423Y3981*
X6427Y3994*
Y4007*
X6423Y4019*
X6417Y4031*
X6408Y4040*
X6397Y4046*
X6391Y4048*
Y4053*
X6397Y4054*
X6408Y4061*
X6415Y4068*
X6437*
X6463Y4042*
X6470Y4037*
X6477Y4034*
X6486Y4033*
X6580*
X6589Y4027*
X6599Y4025*
X6609*
X6619Y4027*
X6628Y4033*
X6636Y4040*
X6641Y4049*
X6644Y4059*
Y4070*
X6641Y4080*
X6636Y4089*
X6628Y4096*
X6619Y4101*
X6609Y4104*
X6599*
X6589Y4101*
X6580Y4096*
X6499*
X6472Y4123*
X6466Y4128*
X6458Y4131*
X6450Y4132*
X6415*
X6408Y4140*
X6401Y4144*
X6400Y4150*
X6401Y4151*
X6427*
Y4168*
X6573*
X6660Y4081*
Y3366*
X6662Y3357*
X6665Y3350*
X6670Y3343*
X6689Y3323*
X6688Y3319*
X6650*
Y3323*
X6577*
Y3250*
X6650*
Y3255*
X6735*
Y3250*
X6808*
Y3323*
X6780*
X6724Y3379*
Y4094*
X6723Y4102*
X6720Y4110*
X6715Y4117*
X6609Y4223*
X6602Y4228*
X6594Y4231*
X6586Y4232*
X6427*
Y4250*
X6328*
Y4151*
X6354*
X6355Y4150*
X6354Y4144*
X6347Y4140*
X6338Y4131*
X6331Y4119*
X6328Y4107*
Y4094*
X6331Y4081*
X6338Y4070*
X6347Y4061*
X6358Y4054*
X6364Y4053*
Y4048*
X6358Y4046*
X6347Y4040*
X6338Y4031*
X6331Y4019*
X6328Y4007*
Y3994*
X6331Y3981*
X6338Y3970*
X6347Y3961*
X6358Y3954*
X6364Y3953*
Y3948*
X6358Y3946*
X6347Y3940*
X6338Y3931*
X6331Y3919*
X6328Y3907*
Y3894*
X6331Y3881*
X6338Y3870*
X6347Y3861*
X6358Y3854*
X6364Y3853*
Y3848*
X6358Y3846*
X6347Y3840*
X6338Y3831*
X6331Y3819*
X6328Y3807*
Y3794*
X6331Y3781*
X6338Y3770*
X6347Y3761*
X6358Y3754*
X6364Y3753*
Y3748*
X6358Y3746*
X6347Y3740*
X6338Y3731*
X6331Y3719*
X6328Y3707*
Y3694*
X6331Y3681*
X6338Y3670*
X6347Y3661*
X6358Y3654*
X6364Y3653*
Y3648*
X6358Y3646*
X6347Y3640*
X6338Y3631*
X6331Y3619*
X6328Y3607*
Y3594*
X6331Y3581*
X6338Y3570*
X6347Y3561*
X6358Y3554*
X6364Y3553*
Y3548*
X6358Y3546*
X6347Y3540*
X6338Y3531*
X6331Y3519*
X6328Y3507*
Y3494*
X6331Y3481*
X6338Y3470*
X6347Y3461*
X6358Y3454*
X6364Y3453*
Y3448*
X6358Y3446*
X6347Y3440*
X6338Y3431*
X6331Y3419*
X6328Y3407*
Y3394*
X6331Y3381*
X6338Y3370*
X6347Y3361*
X6358Y3354*
X6364Y3353*
Y3348*
X6358Y3346*
X6347Y3340*
X6338Y3331*
X6335Y3325*
X6325*
X6317Y3324*
X6309Y3321*
X6302Y3316*
X6297Y3309*
X6294Y3302*
X6294Y3299*
X6280Y3286*
X6276Y3280*
X6274Y3274*
X6273Y3267*
Y3011*
X5903Y2641*
X4855*
X4418Y3078*
Y3108*
X4343*
Y3033*
X4373*
X4819Y2587*
X4825Y2582*
X4833Y2578*
X4841Y2577*
X5916*
X5925Y2578*
X5932Y2582*
X5939Y2587*
X6321Y2969*
X6326Y2976*
X6327Y2978*
X6333Y2979*
X6338Y2970*
X6347Y2961*
X6358Y2954*
X6364Y2953*
Y2948*
X6358Y2946*
X6347Y2940*
X6338Y2931*
X6331Y2919*
X6328Y2907*
Y2894*
X6331Y2881*
X6338Y2870*
X6347Y2861*
X6358Y2854*
X6364Y2853*
Y2848*
X6358Y2846*
X6347Y2840*
X6338Y2831*
X6331Y2819*
X6328Y2807*
Y2794*
X6331Y2781*
X6338Y2770*
X6347Y2761*
X6358Y2754*
X6371Y2751*
X6384*
X6397Y2754*
X6408Y2761*
X6417Y2770*
X6423Y2781*
X6427Y2794*
Y2807*
X6423Y2819*
X6417Y2831*
X6408Y2840*
X6397Y2846*
X6391Y2848*
Y2853*
X6397Y2854*
X6408Y2861*
X6417Y2870*
X6423Y2881*
X6427Y2894*
Y2907*
X6423Y2919*
X6417Y2931*
X6408Y2940*
X6397Y2946*
X6391Y2948*
Y2953*
X6397Y2954*
X6408Y2961*
X6417Y2970*
X6423Y2981*
X6427Y2994*
Y3007*
X6423Y3019*
X6417Y3031*
X6408Y3040*
X6397Y3046*
X6391Y3048*
Y3053*
X6397Y3054*
X6408Y3061*
X6417Y3070*
X6423Y3081*
X6427Y3094*
Y3107*
X6423Y3119*
X6417Y3131*
X6408Y3140*
X6397Y3146*
X6391Y3148*
Y3153*
X6397Y3154*
X6408Y3161*
X6417Y3170*
X6418Y3173*
X6424*
X6464Y3133*
Y3031*
X6465Y3023*
X6468Y3015*
X6473Y3008*
X6480Y3003*
X6487Y3000*
X6490Y3000*
X6509Y2981*
Y2616*
X6507Y2614*
X6504Y2606*
X6503Y2598*
Y2477*
X6496Y2470*
X6484*
X6476Y2469*
X6469Y2466*
X6462Y2461*
X6437Y2435*
X6431Y2429*
X6428Y2421*
X6427Y2413*
Y2411*
X6409Y2394*
X5359*
X5306Y2446*
X5306Y2449*
X5303Y2456*
X5298Y2463*
X5291Y2468*
X5283Y2471*
X5275Y2472*
X4984*
X4976Y2471*
X4968Y2468*
X4961Y2463*
X4914Y2416*
X4909Y2418*
Y2418*
X4907Y2428*
X4901Y2437*
X4894Y2445*
X4885Y2450*
X4875Y2453*
X4864*
X4854Y2450*
X4845Y2445*
X4838Y2437*
X4833Y2428*
X4830Y2418*
Y2408*
X4833Y2398*
X4838Y2389*
X4845Y2381*
X4854Y2376*
X4864Y2373*
X4865*
X4867Y2369*
X4813Y2315*
X4522*
X3968Y2869*
Y3376*
X4313Y3721*
X4828*
X4836Y3722*
X4843Y3725*
X4850Y3730*
X5061Y3941*
X5067Y3948*
X5070Y3956*
X5071Y3964*
X5070Y3972*
X5067Y3980*
X5065Y3982*
Y4113*
X5067Y4115*
X5070Y4123*
X5071Y4131*
X5070Y4139*
X5067Y4147*
X5061Y4154*
X4922Y4293*
X4915Y4298*
X4908Y4301*
X4900Y4302*
X4561*
X4441Y4422*
Y4632*
X4580Y4771*
X5183*
X5286Y4668*
Y4586*
X5283Y4581*
X5280Y4571*
Y4561*
X5283Y4552*
X5288Y4543*
X5295Y4536*
X5303Y4531*
X5313Y4529*
X5323*
X5332Y4531*
X5341Y4536*
X5348Y4543*
X5353Y4552*
X5355Y4561*
Y4571*
X5353Y4581*
X5350Y4586*
Y4681*
X5348Y4690*
X5345Y4697*
X5340Y4704*
X5219Y4825*
X5212Y4830*
X5205Y4833*
X5196Y4835*
G37*
G36*
X4172Y4056D02*
X4161D01*
X4151Y4053*
X4142Y4048*
X4134Y4040*
X4129Y4031*
X4126Y4021*
Y4010*
X4129Y4000*
X4134Y3990*
X4142Y3983*
X4151Y3978*
X4161Y3975*
X4172*
X4182Y3978*
X4192Y3983*
X4199Y3990*
X4205Y4000*
X4207Y4010*
Y4021*
X4205Y4031*
X4199Y4040*
X4192Y4048*
X4182Y4053*
X4172Y4056*
G37*
G36*
X6821Y3848D02*
X6741D01*
Y3769*
X6821*
Y3848*
G37*
G36*
X6609D02*
X6599D01*
X6589Y3846*
X6579Y3840*
X6572Y3833*
X6567Y3824*
X6564Y3814*
Y3803*
X6567Y3793*
X6572Y3784*
X6579Y3777*
X6589Y3772*
X6599Y3769*
X6609*
X6619Y3772*
X6628Y3777*
X6636Y3784*
X6641Y3793*
X6644Y3803*
Y3814*
X6641Y3824*
X6636Y3833*
X6628Y3840*
X6619Y3846*
X6609Y3848*
G37*
G36*
X5621Y4331D02*
X5244D01*
X5236Y4330*
X5228Y4327*
X5222Y4322*
X5174Y4274*
X5169Y4267*
X5166Y4260*
X5164Y4251*
Y3891*
X5108Y3834*
X5103Y3833*
X5095Y3828*
X5088Y3821*
X5084Y3813*
X5081Y3804*
Y3794*
X5084Y3785*
X5088Y3776*
X5095Y3769*
X5103Y3765*
X5113Y3762*
X5122*
X5132Y3765*
X5140Y3769*
X5147Y3776*
X5152Y3785*
X5153Y3789*
X5219Y3855*
X5224Y3861*
X5227Y3869*
X5228Y3877*
Y4238*
X5258Y4268*
X5608*
X6050Y3825*
Y3797*
X6048Y3793*
X6046Y3784*
Y3774*
X6048Y3765*
X6053Y3757*
X6060Y3750*
X6068Y3745*
X6077Y3742*
X6087*
X6096Y3745*
X6105Y3750*
X6111Y3757*
X6116Y3765*
X6119Y3774*
Y3784*
X6116Y3793*
X6114Y3797*
Y3838*
X6113Y3846*
X6110Y3854*
X6105Y3861*
X5643Y4322*
X5637Y4327*
X5629Y4330*
X5621Y4331*
G37*
G36*
X5764Y3816D02*
X5691D01*
Y3742*
X5764*
Y3816*
G37*
G36*
X4604Y4486D02*
X4529D01*
Y4411*
X4604*
Y4416*
X4994*
X5086Y4325*
Y3950*
X5016Y3880*
X5011Y3874*
X5008Y3866*
X5007Y3858*
Y3761*
X5008Y3753*
X5011Y3745*
X5016Y3738*
X5077Y3678*
X5084Y3673*
X5091Y3669*
X5100Y3668*
X5196*
X5205Y3669*
X5212Y3673*
X5219Y3678*
X5298Y3756*
X5303Y3763*
X5306Y3771*
X5307Y3779*
Y4155*
X5320Y4168*
X5340*
X5347Y4161*
X5358Y4154*
X5364Y4153*
Y4148*
X5358Y4146*
X5347Y4140*
X5338Y4131*
X5331Y4119*
X5328Y4107*
Y4094*
X5331Y4081*
X5338Y4070*
X5347Y4061*
X5358Y4054*
X5364Y4053*
Y4048*
X5358Y4046*
X5347Y4040*
X5338Y4031*
X5331Y4019*
X5328Y4007*
Y3994*
X5331Y3981*
X5338Y3970*
X5347Y3961*
X5358Y3954*
X5364Y3953*
Y3948*
X5358Y3946*
X5347Y3940*
X5338Y3931*
X5331Y3919*
X5328Y3907*
Y3894*
X5331Y3881*
X5338Y3870*
X5347Y3861*
X5358Y3854*
X5364Y3853*
Y3848*
X5358Y3846*
X5347Y3840*
X5338Y3831*
X5331Y3819*
X5328Y3807*
Y3794*
X5331Y3781*
X5338Y3770*
X5347Y3761*
X5358Y3754*
X5364Y3753*
Y3748*
X5358Y3746*
X5347Y3740*
X5338Y3731*
X5331Y3719*
X5328Y3707*
Y3694*
X5331Y3681*
X5338Y3670*
X5347Y3661*
X5358Y3654*
X5364Y3653*
Y3648*
X5358Y3646*
X5347Y3640*
X5338Y3631*
X5331Y3619*
X5328Y3607*
Y3594*
X5331Y3581*
X5338Y3570*
X5347Y3561*
X5358Y3554*
X5364Y3553*
Y3548*
X5358Y3546*
X5347Y3540*
X5338Y3531*
X5331Y3519*
X5328Y3507*
Y3494*
X5331Y3481*
X5338Y3470*
X5347Y3461*
X5358Y3454*
X5364Y3453*
Y3448*
X5358Y3446*
X5347Y3440*
X5338Y3431*
X5331Y3419*
X5328Y3407*
Y3394*
X5331Y3381*
X5338Y3370*
X5347Y3361*
X5358Y3354*
X5364Y3353*
Y3348*
X5358Y3346*
X5347Y3340*
X5338Y3331*
X5331Y3319*
X5328Y3307*
Y3294*
X5331Y3281*
X5338Y3270*
X5347Y3261*
X5358Y3254*
X5364Y3253*
Y3248*
X5358Y3246*
X5347Y3240*
X5338Y3231*
X5331Y3219*
X5328Y3207*
Y3194*
X5331Y3181*
X5338Y3170*
X5347Y3161*
X5358Y3154*
X5364Y3153*
Y3148*
X5358Y3146*
X5347Y3140*
X5338Y3131*
X5331Y3119*
X5328Y3107*
Y3094*
X5331Y3081*
X5338Y3070*
X5347Y3061*
X5358Y3054*
X5364Y3053*
Y3048*
X5358Y3046*
X5347Y3040*
X5338Y3031*
X5331Y3019*
X5328Y3007*
Y2994*
X5331Y2981*
X5338Y2970*
X5347Y2961*
X5358Y2954*
X5364Y2953*
Y2948*
X5358Y2946*
X5347Y2940*
X5338Y2931*
X5331Y2919*
X5328Y2907*
Y2894*
X5331Y2881*
X5338Y2870*
X5347Y2861*
X5358Y2854*
X5364Y2853*
Y2848*
X5358Y2846*
X5347Y2840*
X5338Y2831*
X5331Y2819*
X5328Y2807*
Y2794*
X5331Y2781*
X5338Y2770*
X5347Y2761*
X5358Y2754*
X5371Y2751*
X5384*
X5397Y2754*
X5408Y2761*
X5417Y2770*
X5423Y2781*
X5427Y2794*
Y2807*
X5423Y2819*
X5417Y2831*
X5408Y2840*
X5397Y2846*
X5391Y2848*
Y2853*
X5397Y2854*
X5408Y2861*
X5417Y2870*
X5423Y2881*
X5427Y2894*
Y2907*
X5423Y2919*
X5417Y2931*
X5408Y2940*
X5397Y2946*
X5391Y2948*
Y2953*
X5397Y2954*
X5408Y2961*
X5417Y2970*
X5423Y2981*
X5427Y2994*
Y3007*
X5423Y3019*
X5417Y3031*
X5408Y3040*
X5397Y3046*
X5391Y3048*
Y3053*
X5397Y3054*
X5408Y3061*
X5417Y3070*
X5423Y3081*
X5427Y3094*
Y3107*
X5423Y3119*
X5417Y3131*
X5408Y3140*
X5397Y3146*
X5391Y3148*
Y3153*
X5397Y3154*
X5408Y3161*
X5417Y3170*
X5423Y3181*
X5427Y3194*
Y3207*
X5423Y3219*
X5417Y3231*
X5408Y3240*
X5397Y3246*
X5391Y3248*
Y3253*
X5397Y3254*
X5408Y3261*
X5415Y3268*
X5505*
X5513Y3269*
X5521Y3273*
X5528Y3278*
X5570Y3321*
X5575Y3327*
X5579Y3335*
X5580Y3343*
Y3489*
X5760Y3668*
X6141*
X6149Y3669*
X6157Y3673*
X6164Y3678*
X6243Y3756*
X6248Y3763*
X6251Y3771*
X6252Y3779*
Y4266*
X6259Y4273*
X6705*
X6849Y4129*
Y3764*
X6761Y3676*
X6757Y3675*
X6749Y3671*
X6742Y3664*
X6737Y3655*
X6735Y3646*
Y3636*
X6737Y3627*
X6742Y3619*
X6749Y3612*
X6757Y3607*
X6766Y3605*
X6776*
X6785Y3607*
X6794Y3612*
X6800Y3619*
X6805Y3627*
X6806Y3631*
X6903Y3728*
X6908Y3735*
X6912Y3743*
X6913Y3751*
Y4142*
X6912Y4150*
X6908Y4158*
X6903Y4164*
X6741Y4327*
X6734Y4332*
X6726Y4335*
X6718Y4336*
X6245*
X6237Y4335*
X6229Y4332*
X6223Y4327*
X6197Y4302*
X6192Y4295*
X6189Y4287*
X6188Y4279*
Y3792*
X6128Y3732*
X5746*
X5738Y3731*
X5730Y3728*
X5724Y3723*
X5525Y3524*
X5520Y3518*
X5517Y3510*
X5516Y3502*
Y3356*
X5492Y3332*
X5415*
X5408Y3340*
X5397Y3346*
X5391Y3348*
Y3353*
X5397Y3354*
X5408Y3361*
X5415Y3368*
X5448*
X5456Y3369*
X5463Y3373*
X5470Y3378*
X5499Y3407*
X5504Y3413*
X5507Y3421*
X5508Y3429*
Y3722*
X5613Y3827*
X5866*
X5867Y3826*
X5876Y3824*
X5885*
X5894Y3826*
X5902Y3830*
X5909Y3837*
X5913Y3845*
X5916Y3854*
Y3863*
X5913Y3872*
X5909Y3880*
X5902Y3887*
X5894Y3891*
X5885Y3894*
X5876*
X5867Y3891*
X5866Y3890*
X5600*
X5591Y3889*
X5584Y3886*
X5577Y3881*
X5454Y3758*
X5449Y3751*
X5446Y3744*
X5445Y3736*
Y3442*
X5434Y3432*
X5415*
X5408Y3440*
X5397Y3446*
X5391Y3448*
Y3453*
X5397Y3454*
X5408Y3461*
X5417Y3470*
X5423Y3481*
X5427Y3494*
Y3507*
X5423Y3519*
X5417Y3531*
X5408Y3540*
X5397Y3546*
X5391Y3548*
Y3553*
X5397Y3554*
X5408Y3561*
X5417Y3570*
X5423Y3581*
X5427Y3594*
Y3607*
X5423Y3619*
X5417Y3631*
X5408Y3640*
X5397Y3646*
X5391Y3648*
Y3653*
X5397Y3654*
X5408Y3661*
X5417Y3670*
X5423Y3681*
X5427Y3694*
Y3707*
X5423Y3719*
X5417Y3731*
X5408Y3740*
X5397Y3746*
X5391Y3748*
Y3753*
X5397Y3754*
X5408Y3761*
X5417Y3770*
X5423Y3781*
X5427Y3794*
Y3807*
X5423Y3819*
X5417Y3831*
X5408Y3840*
X5397Y3846*
X5391Y3848*
Y3853*
X5397Y3854*
X5408Y3861*
X5417Y3870*
X5423Y3881*
X5427Y3894*
Y3907*
X5423Y3919*
X5417Y3931*
X5408Y3940*
X5397Y3946*
X5391Y3948*
Y3953*
X5397Y3954*
X5408Y3961*
X5417Y3970*
X5423Y3981*
X5427Y3994*
Y4007*
X5423Y4019*
X5417Y4031*
X5408Y4040*
X5397Y4046*
X5391Y4048*
Y4053*
X5397Y4054*
X5408Y4061*
X5417Y4070*
X5423Y4081*
X5427Y4094*
Y4107*
X5423Y4119*
X5417Y4131*
X5408Y4140*
X5397Y4146*
X5391Y4148*
Y4153*
X5397Y4154*
X5408Y4161*
X5417Y4170*
X5423Y4181*
X5427Y4194*
Y4207*
X5423Y4219*
X5417Y4231*
X5408Y4240*
X5397Y4246*
X5384Y4250*
X5371*
X5358Y4246*
X5347Y4240*
X5340Y4232*
X5307*
X5298Y4231*
X5291Y4228*
X5284Y4223*
X5253Y4191*
X5247Y4185*
X5244Y4177*
X5243Y4169*
Y3792*
X5183Y3732*
X5113*
X5071Y3774*
Y3845*
X5140Y3914*
X5145Y3921*
X5148Y3928*
X5150Y3937*
Y4338*
X5148Y4346*
X5145Y4354*
X5140Y4360*
X5030Y4471*
X5023Y4476*
X5015Y4479*
X5007Y4480*
X4604*
Y4486*
G37*
G36*
X6618Y3678D02*
X6609D01*
X6600Y3675*
X6591Y3671*
X6584Y3664*
X6580Y3655*
X6577Y3646*
Y3636*
X6580Y3627*
X6584Y3619*
X6591Y3612*
X6600Y3607*
X6609Y3605*
X6618*
X6628Y3607*
X6636Y3612*
X6643Y3619*
X6648Y3627*
X6650Y3636*
Y3646*
X6648Y3655*
X6643Y3664*
X6636Y3671*
X6628Y3675*
X6618Y3678*
G37*
G36*
X4670Y3610D02*
X4660D01*
X4650Y3607*
X4640Y3602*
X4633Y3595*
X4628Y3586*
X4625Y3576*
Y3565*
X4628Y3555*
X4633Y3546*
X4640Y3539*
X4650Y3533*
X4660Y3531*
X4670*
X4680Y3533*
X4689Y3539*
X4697Y3546*
X4702Y3555*
X4705Y3565*
Y3576*
X4702Y3586*
X4697Y3595*
X4689Y3602*
X4680Y3607*
X4670Y3610*
G37*
G36*
X4508D02*
X4428D01*
Y3531*
X4508*
Y3610*
G37*
G36*
X6087Y3579D02*
X6077D01*
X6068Y3577*
X6060Y3572*
X6053Y3565*
X6048Y3557*
X6046Y3548*
Y3538*
X6048Y3529*
X6053Y3520*
X6060Y3514*
X6068Y3509*
X6077Y3506*
X6087*
X6096Y3509*
X6105Y3514*
X6111Y3520*
X6116Y3529*
X6119Y3538*
Y3548*
X6116Y3557*
X6111Y3565*
X6105Y3572*
X6096Y3577*
X6087Y3579*
G37*
G36*
X5154Y3481D02*
X5081D01*
Y3476*
X4365*
X4357Y3475*
X4349Y3472*
X4343Y3467*
X4071Y3196*
X4066Y3189*
X4063Y3181*
X4062Y3173*
Y2992*
X4063Y2983*
X4066Y2976*
X4071Y2969*
X4530Y2511*
X4531Y2505*
X4536Y2496*
X4543Y2489*
X4552Y2484*
X4561Y2482*
X4571*
X4581Y2484*
X4589Y2489*
X4596Y2496*
X4601Y2505*
X4604Y2514*
Y2524*
X4601Y2534*
X4596Y2542*
X4589Y2549*
X4581Y2554*
X4575Y2556*
X4126Y3005*
Y3160*
X4379Y3412*
X5081*
Y3408*
X5154*
Y3481*
G37*
G36*
X3707Y3484D02*
X3694D01*
X3681Y3480*
X3670Y3474*
X3661Y3465*
X3655Y3453*
X3651Y3441*
Y3428*
X3655Y3416*
X3661Y3404*
X3670Y3395*
X3681Y3389*
X3694Y3386*
X3707*
X3719Y3389*
X3730Y3395*
X3739Y3404*
X3746Y3416*
X3749Y3428*
Y3441*
X3746Y3453*
X3739Y3465*
X3730Y3474*
X3719Y3480*
X3707Y3484*
G37*
G36*
X6087Y3343D02*
X6077D01*
X6068Y3341*
X6060Y3336*
X6053Y3329*
X6048Y3321*
X6046Y3311*
Y3302*
X6048Y3292*
X6053Y3284*
X6060Y3277*
X6068Y3273*
X6077Y3270*
X6087*
X6096Y3273*
X6105Y3277*
X6111Y3284*
X6116Y3292*
X6119Y3302*
Y3311*
X6116Y3321*
X6111Y3329*
X6105Y3336*
X6096Y3341*
X6087Y3343*
G37*
G36*
X5827Y3501D02*
X5818D01*
X5809Y3498*
X5801Y3494*
X5794Y3487*
X5790Y3479*
X5788Y3470*
Y3461*
X5790Y3452*
X5791Y3451*
Y3389*
X5792Y3381*
X5795Y3373*
X5800Y3367*
X6040Y3127*
X6047Y3121*
X6054Y3118*
X6062Y3117*
X6126*
X6172Y3071*
X6172Y3070*
X6176Y3062*
X6183Y3055*
X6191Y3051*
X6200Y3049*
X6209*
X6218Y3051*
X6226Y3055*
X6233Y3062*
X6237Y3070*
X6240Y3079*
Y3088*
X6237Y3097*
X6233Y3105*
X6226Y3112*
X6218Y3116*
X6217Y3116*
X6161Y3172*
X6155Y3177*
X6147Y3180*
X6139Y3181*
X6076*
X5854Y3402*
Y3451*
X5855Y3452*
X5858Y3461*
Y3470*
X5855Y3479*
X5851Y3487*
X5844Y3494*
X5836Y3498*
X5827Y3501*
G37*
G36*
X6121Y3108D02*
X6046D01*
Y3033*
X6121*
Y3108*
G37*
G36*
X5764Y3579D02*
X5691D01*
Y3543*
X5650Y3502*
X5646Y3497*
X5644Y3490*
X5643Y3484*
Y3367*
X5585Y3308*
X5582Y3308*
X5574Y3305*
X5567Y3300*
X5562Y3293*
X5559Y3285*
X5558Y3277*
Y2847*
X5442Y2731*
X5336*
X5128Y2939*
Y3051*
X5131Y3056*
X5134Y3065*
Y3075*
X5131Y3085*
X5126Y3093*
X5119Y3100*
X5111Y3105*
X5101Y3108*
X5091*
X5082Y3105*
X5073Y3100*
X5066Y3093*
X5061Y3085*
X5059Y3075*
Y3065*
X5061Y3056*
X5064Y3051*
Y2934*
X5066Y2926*
X5069Y2918*
X5074Y2912*
X5080Y2907*
X5088Y2903*
X5091Y2903*
X5300Y2694*
X5300Y2691*
X5303Y2684*
X5308Y2677*
X5315Y2672*
X5323Y2669*
X5331Y2668*
X5455*
X5464Y2669*
X5471Y2672*
X5478Y2677*
X5613Y2812*
X5618Y2818*
X5621Y2826*
X5622Y2834*
Y3272*
X5686Y3337*
X5691Y3335*
Y3270*
X5719*
X5907Y3082*
X5914Y3077*
X5922Y3074*
X5930Y3073*
X5936*
X5947Y3062*
X5949Y3056*
X5954Y3047*
X5961Y3040*
X5969Y3035*
X5979Y3033*
X5989*
X5998Y3035*
X6007Y3040*
X6014Y3047*
X6019Y3056*
X6021Y3065*
Y3075*
X6019Y3085*
X6014Y3093*
X6007Y3100*
X5998Y3105*
X5992Y3107*
X5972Y3127*
X5965Y3132*
X5958Y3135*
X5950Y3137*
X5943*
X5764Y3315*
Y3343*
X5696*
X5693Y3347*
X5694Y3349*
X5695Y3356*
Y3473*
X5728Y3506*
X5764*
Y3579*
G37*
G36*
X5234Y3108D02*
X5159D01*
Y3033*
X5234*
Y3108*
G37*
G36*
X4285D02*
X4275D01*
X4266Y3105*
X4257Y3100*
X4250Y3093*
X4245Y3085*
X4243Y3075*
Y3065*
X4245Y3056*
X4250Y3047*
X4257Y3040*
X4266Y3035*
X4275Y3033*
X4285*
X4295Y3035*
X4303Y3040*
X4310Y3047*
X4315Y3056*
X4318Y3065*
Y3075*
X4315Y3085*
X4310Y3093*
X4303Y3100*
X4295Y3105*
X4285Y3108*
G37*
G36*
X3707Y2598D02*
X3694D01*
X3681Y2594*
X3670Y2588*
X3661Y2579*
X3655Y2568*
X3651Y2555*
Y2542*
X3655Y2530*
X3661Y2519*
X3670Y2510*
X3681Y2503*
X3694Y2500*
X3707*
X3719Y2503*
X3730Y2510*
X3739Y2519*
X3746Y2530*
X3749Y2542*
Y2555*
X3746Y2568*
X3739Y2579*
X3730Y2588*
X3719Y2594*
X3707Y2598*
G37*
G36*
X6358Y2630D02*
X6220D01*
X6212Y2629*
X6204Y2626*
X6197Y2621*
X6128Y2551*
X5710*
X5705Y2554*
X5695Y2557*
X5685*
X5676Y2554*
X5667Y2549*
X5660Y2542*
X5655Y2534*
X5652Y2524*
Y2514*
X5655Y2505*
X5660Y2496*
X5667Y2489*
X5676Y2484*
X5685Y2482*
X5695*
X5705Y2484*
X5710Y2487*
X6141*
X6149Y2488*
X6157Y2492*
X6164Y2497*
X6233Y2566*
X6345*
X6400Y2511*
Y2483*
X6473*
Y2556*
X6445*
X6380Y2621*
X6374Y2626*
X6366Y2629*
X6358Y2630*
G37*
G36*
X5628Y2557D02*
X5552D01*
Y2482*
X5628*
Y2557*
G37*
G36*
X4704D02*
X4629D01*
Y2482*
X4704*
Y2487*
X5436*
X5505Y2418*
X5512Y2413*
X5519Y2410*
X5528Y2409*
X5536Y2410*
X5544Y2413*
X5546Y2414*
X6160*
X6163Y2413*
X6170Y2410*
X6179Y2409*
X6187Y2410*
X6195Y2413*
X6201Y2418*
X6207Y2423*
X6210Y2424*
X6218Y2429*
X6225Y2435*
X6230Y2443*
X6232Y2452*
Y2461*
X6230Y2470*
X6225Y2478*
X6218Y2485*
X6210Y2490*
X6201Y2492*
X6192*
X6183Y2490*
X6175Y2485*
X6169Y2478*
X6165Y2472*
X6159Y2466*
X5547*
X5471Y2542*
X5465Y2547*
X5457Y2550*
X5449Y2551*
X4704*
Y2557*
G37*
G36*
X5928Y2321D02*
X5852D01*
Y2245*
X5928*
Y2321*
G37*
G36*
X5795D02*
X5785D01*
X5776Y2318*
X5767Y2313*
X5760Y2306*
X5755Y2297*
X5752Y2288*
Y2278*
X5755Y2268*
X5760Y2260*
X5767Y2253*
X5776Y2248*
X5785Y2245*
X5795*
X5805Y2248*
X5813Y2253*
X5820Y2260*
X5825Y2268*
X5828Y2278*
Y2288*
X5825Y2297*
X5820Y2306*
X5813Y2313*
X5805Y2318*
X5795Y2321*
G37*
G36*
X5595D02*
X5585D01*
X5576Y2318*
X5567Y2313*
X5560Y2306*
X5555Y2297*
X5552Y2288*
Y2278*
X5555Y2268*
X5560Y2260*
X5567Y2253*
X5576Y2248*
X5585Y2245*
X5595*
X5605Y2248*
X5613Y2253*
X5620Y2260*
X5625Y2268*
X5628Y2278*
Y2288*
X5625Y2297*
X5620Y2306*
X5613Y2313*
X5605Y2318*
X5595Y2321*
G37*
G36*
X6304Y2164D02*
X6293D01*
X6282Y2161*
X6273Y2156*
X6265Y2148*
X6259Y2138*
X6256Y2127*
Y2116*
X6259Y2105*
X6265Y2095*
X6273Y2088*
X6282Y2082*
X6293Y2079*
X6304*
X6315Y2082*
X6325Y2088*
X6327Y2090*
X6658*
X6660Y2087*
X6667Y2080*
X6675Y2075*
X6685Y2072*
X6694*
X6704Y2075*
X6712Y2080*
X6719Y2087*
X6724Y2095*
X6726Y2104*
Y2114*
X6724Y2123*
X6719Y2132*
X6712Y2139*
X6704Y2143*
X6695Y2146*
X6690Y2149*
X6683Y2152*
X6674Y2153*
X6327*
X6325Y2156*
X6315Y2161*
X6304Y2164*
G37*
G36*
X4651Y2014D02*
X4639D01*
X4627Y2011*
X4617Y2005*
X4608Y1996*
X4602Y1986*
X4599Y1974*
Y1962*
X4602Y1950*
X4608Y1940*
X4617Y1931*
X4627Y1925*
X4639Y1922*
X4651*
X4663Y1925*
X4673Y1931*
X4682Y1940*
X4688Y1950*
X4691Y1962*
Y1974*
X4688Y1986*
X4682Y1996*
X4673Y2005*
X4663Y2011*
X4651Y2014*
G37*
G36*
X3864D02*
X3772D01*
Y1922*
X3864*
Y2014*
G37*
G36*
X5233Y1867D02*
X5160D01*
Y1794*
X5233*
Y1867*
G37*
G36*
X6304Y1857D02*
X6293D01*
X6282Y1854*
X6273Y1848*
X6265Y1841*
X6259Y1831*
X6256Y1820*
Y1809*
X6259Y1798*
X6265Y1788*
X6273Y1780*
X6282Y1775*
X6293Y1772*
X6304*
X6315Y1775*
X6325Y1780*
X6327Y1783*
X6480*
X6480Y1782*
X6488Y1779*
X6496Y1778*
X6671*
X6675Y1776*
X6685Y1773*
X6694*
X6704Y1776*
X6712Y1781*
X6719Y1787*
X6724Y1796*
X6726Y1805*
Y1815*
X6724Y1824*
X6719Y1832*
X6712Y1839*
X6704Y1844*
X6694Y1847*
X6685*
X6675Y1844*
X6671Y1842*
X6508*
X6507Y1842*
X6500Y1845*
X6492Y1846*
X6327*
X6325Y1848*
X6315Y1854*
X6304Y1857*
G37*
G36*
X5201Y1512D02*
X5192D01*
X5182Y1510*
X5174Y1505*
X5167Y1498*
X5162Y1490*
X5160Y1481*
Y1471*
X5162Y1462*
X5167Y1453*
X5174Y1447*
X5182Y1442*
X5192Y1439*
X5201*
X5210Y1442*
X5219Y1447*
X5226Y1453*
X5230Y1462*
X5233Y1471*
Y1481*
X5230Y1490*
X5226Y1498*
X5219Y1505*
X5210Y1510*
X5201Y1512*
G37*
G36*
X4651Y1423D02*
X4639D01*
X4627Y1420*
X4617Y1414*
X4608Y1405*
X4602Y1395*
X4599Y1383*
Y1371*
X4602Y1359*
X4608Y1349*
X4617Y1340*
X4627Y1334*
X4639Y1331*
X4651*
X4663Y1334*
X4673Y1340*
X4682Y1349*
X4688Y1359*
X4691Y1371*
Y1383*
X4688Y1395*
X4682Y1405*
X4673Y1414*
X4663Y1420*
X4651Y1423*
G37*
G36*
X3824D02*
X3812D01*
X3800Y1420*
X3790Y1414*
X3781Y1405*
X3775Y1395*
X3772Y1383*
Y1371*
X3775Y1359*
X3781Y1349*
X3790Y1340*
X3800Y1334*
X3812Y1331*
X3824*
X3836Y1334*
X3846Y1340*
X3855Y1349*
X3861Y1359*
X3864Y1371*
Y1383*
X3861Y1395*
X3855Y1405*
X3846Y1414*
X3836Y1420*
X3824Y1423*
G37*
G36*
X5336Y1218D02*
X5261D01*
Y1143*
X5336*
Y1218*
G37*
G36*
X5201D02*
X5191D01*
X5182Y1216*
X5173Y1211*
X5166Y1204*
X5161Y1195*
X5159Y1186*
Y1176*
X5161Y1166*
X5166Y1158*
X5173Y1151*
X5182Y1146*
X5191Y1143*
X5201*
X5211Y1146*
X5219Y1151*
X5226Y1158*
X5231Y1166*
X5234Y1176*
Y1186*
X5231Y1195*
X5226Y1204*
X5219Y1211*
X5211Y1216*
X5201Y1218*
G37*
G36*
X5099D02*
X5089D01*
X5079Y1216*
X5071Y1211*
X5064Y1204*
X5059Y1195*
X5056Y1186*
Y1176*
X5059Y1166*
X5064Y1158*
X5071Y1151*
X5079Y1146*
X5089Y1143*
X5099*
X5108Y1146*
X5117Y1151*
X5124Y1158*
X5129Y1166*
X5132Y1176*
Y1186*
X5129Y1195*
X5124Y1204*
X5117Y1211*
X5108Y1216*
X5099Y1218*
G37*
G36*
X7014Y1171D02*
X7001D01*
X6987Y1168*
X6975Y1163*
X6963Y1156*
X6954Y1146*
X6946Y1135*
X6941Y1122*
X6938Y1109*
Y1095*
X6941Y1082*
X6946Y1069*
X6954Y1058*
X6963Y1048*
X6975Y1041*
X6987Y1035*
X7001Y1033*
X7014*
X7028Y1035*
X7040Y1041*
X7051Y1048*
X7061Y1058*
X7069Y1069*
X7074Y1082*
X7076Y1095*
Y1109*
X7074Y1122*
X7069Y1135*
X7061Y1146*
X7051Y1156*
X7040Y1163*
X7028Y1168*
X7014Y1171*
G37*
G36*
X3313D02*
X3300D01*
X3286Y1168*
X3274Y1163*
X3263Y1156*
X3253Y1146*
X3245Y1135*
X3240Y1122*
X3238Y1109*
Y1095*
X3240Y1082*
X3245Y1069*
X3253Y1058*
X3263Y1048*
X3274Y1041*
X3286Y1035*
X3300Y1033*
X3313*
X3327Y1035*
X3339Y1041*
X3351Y1048*
X3360Y1058*
X3368Y1069*
X3373Y1082*
X3376Y1095*
Y1109*
X3373Y1122*
X3368Y1135*
X3360Y1146*
X3351Y1156*
X3339Y1163*
X3327Y1168*
X3313Y1171*
G37*
%LNpcb2-3*%
%LPD*%
G36*
X6503Y3362D02*
Y3191D01*
X6504Y3183*
X6507Y3175*
X6510Y3172*
X6506Y3168*
X6504Y3169*
X6501Y3169*
X6454Y3217*
X6448Y3221*
X6442Y3224*
X6435Y3224*
X6421*
X6417Y3231*
X6408Y3240*
X6397Y3246*
X6391Y3248*
Y3253*
X6397Y3254*
X6408Y3261*
X6417Y3270*
X6423Y3281*
X6427Y3294*
Y3307*
X6423Y3319*
X6417Y3331*
X6408Y3340*
X6397Y3346*
X6391Y3348*
Y3353*
X6397Y3354*
X6408Y3361*
X6415Y3368*
X6496*
X6503Y3362*
G37*
G36*
X6554Y3127D02*
X6561Y3121D01*
X6568Y3118*
X6577Y3117*
X6890*
X6897Y3111*
Y2375*
X6758Y2236*
X6220*
X6212Y2235*
X6204Y2232*
X6197Y2227*
X6049Y2079*
X5131*
X5061Y2148*
X5055Y2153*
X5047Y2156*
X5039Y2157*
X4986*
Y2192*
X5041Y2247*
X5044*
X5053Y2250*
X5061Y2254*
X5068Y2261*
X5072Y2269*
X5075Y2278*
Y2287*
X5072Y2296*
X5068Y2304*
X5061Y2310*
X5057Y2312*
X5059Y2317*
X5194*
X5259Y2253*
Y2210*
X5259Y2208*
Y2167*
X5334*
Y2172*
X5661*
X5662Y2170*
X5667Y2163*
X5728Y2103*
X5734Y2098*
X5742Y2095*
X5750Y2094*
X5984*
X5992Y2095*
X6000Y2098*
X6006Y2103*
X6154Y2251*
X6456*
X6464Y2252*
X6472Y2255*
X6479Y2260*
X6706Y2487*
X6773*
X6777Y2485*
X6786Y2483*
X6796*
X6805Y2485*
X6813Y2490*
X6820Y2497*
X6825Y2505*
X6827Y2514*
Y2524*
X6825Y2533*
X6820Y2542*
X6813Y2548*
X6805Y2553*
X6801Y2554*
X6668Y2687*
Y2752*
X6667Y2760*
X6663Y2768*
X6658Y2774*
X6644Y2789*
Y2790*
X6641Y2800*
X6636Y2809*
X6628Y2817*
X6619Y2822*
X6609Y2825*
X6599*
X6589Y2822*
X6579Y2817*
X6572Y2809*
X6567Y2800*
X6566Y2797*
X6561Y2797*
Y2992*
X6560Y2998*
X6557Y3005*
X6553Y3010*
X6527Y3036*
Y3138*
X6526Y3146*
X6526Y3148*
X6530Y3151*
X6554Y3127*
G37*
%LNpcb2-4*%
%LPC*%
G36*
X6786Y3081D02*
X6776D01*
X6766Y3078*
X6757Y3073*
X6749Y3065*
X6744Y3056*
X6741Y3046*
Y3036*
X6744Y3026*
X6749Y3016*
X6757Y3009*
X6766Y3004*
X6776Y3001*
X6786*
X6796Y3004*
X6805Y3009*
X6813Y3016*
X6818Y3026*
X6821Y3036*
Y3046*
X6818Y3056*
X6813Y3065*
X6805Y3073*
X6796Y3078*
X6786Y3081*
G37*
G36*
X6609D02*
X6599D01*
X6589Y3078*
X6579Y3073*
X6572Y3065*
X6567Y3056*
X6564Y3046*
Y3036*
X6567Y3026*
X6572Y3016*
X6579Y3009*
X6589Y3004*
X6599Y3001*
X6609*
X6619Y3004*
X6628Y3009*
X6636Y3016*
X6641Y3026*
X6644Y3036*
Y3046*
X6641Y3056*
X6636Y3065*
X6628Y3073*
X6619Y3078*
X6609Y3081*
G37*
G36*
X6821Y2825D02*
X6741D01*
Y2745*
X6821*
Y2825*
G37*
G36*
X5201Y2242D02*
X5191D01*
X5182Y2239*
X5173Y2234*
X5166Y2227*
X5161Y2219*
X5159Y2209*
Y2199*
X5161Y2190*
X5166Y2181*
X5173Y2174*
X5182Y2169*
X5191Y2167*
X5201*
X5211Y2169*
X5219Y2174*
X5226Y2181*
X5231Y2190*
X5234Y2199*
Y2209*
X5231Y2219*
X5226Y2227*
X5219Y2234*
X5211Y2239*
X5201Y2242*
G37*
G36*
X5101D02*
X5091D01*
X5082Y2239*
X5073Y2234*
X5066Y2227*
X5061Y2219*
X5059Y2209*
Y2199*
X5061Y2190*
X5066Y2181*
X5073Y2174*
X5082Y2169*
X5091Y2167*
X5101*
X5111Y2169*
X5119Y2174*
X5126Y2181*
X5131Y2190*
X5134Y2199*
Y2209*
X5131Y2219*
X5126Y2227*
X5119Y2234*
X5111Y2239*
X5101Y2242*
G37*
%LNpcb2-5*%
%LPD*%
G54D12*
X3050Y1083D02*
X3070Y1023D01*
X3090Y1083*
X3070Y4871D02*
X3090Y4811D01*
X3050D02*
X3070Y4871D01*
Y1023D02*
Y2780D01*
Y3082D02*
Y4871D01*
X3060Y1023D02*
X3218D01*
X3060Y4871D02*
X3228D01*
Y866D02*
X3288Y886D01*
X3228Y866D02*
X3288Y846D01*
X7026D02*
X7086Y866D01*
X7026Y886D02*
X7086Y866D01*
X3228D02*
X4990D01*
X5292D02*
X7086D01*
X3228Y856D02*
Y1013D01*
X7086Y856D02*
Y1013D01*
G54D30*
X4167Y4015D03*
G54D31*
X4966Y4015D03*
G54D34*
X3489Y4376D03*
G54D35*
X3489Y4126D03*
G54D37*
X5669Y3356D02*
Y3484D01*
X5590Y3277D02*
X5669Y3356D01*
X4960Y2203D02*
X5040Y2282D01*
X4960Y2125D02*
Y2203D01*
X6414Y2362D02*
X6459Y2407D01*
X6535Y2598D02*
Y2992D01*
X6496Y3031D02*
X6535Y2992D01*
X6377Y3200D02*
X6379Y3198D01*
X6435D02*
X6496Y3138D01*
X6379Y3198D02*
X6435D01*
X6299Y2992D02*
Y3267D01*
X6325Y3294*
X5669Y3484D02*
X5728Y3543D01*
X5096Y2934D02*
X5331Y2700D01*
X5275Y2440D02*
X5354Y2362D01*
X5528Y2440D02*
X6179D01*
X5208Y2340D02*
X5290Y2258D01*
X5039Y3964D02*
Y4131D01*
G54D38*
X6903Y3149D02*
X6929Y3124D01*
Y2362D02*
Y3124D01*
X6577Y3149D02*
X6903D01*
X6771Y2204D02*
X6929Y2362D01*
X5590Y2834D02*
Y3277D01*
X5296Y2204D02*
X5690D01*
Y2186D02*
Y2283D01*
X5750Y2125D02*
X5984D01*
X5690Y2186D02*
X5750Y2125D01*
X4960D02*
X5039D01*
X6220Y2598D02*
X6358D01*
X6437Y2519*
X6141D02*
X6220Y2598D01*
X5690Y2519D02*
X6141D01*
X5690D02*
D01*
X4841Y2609D02*
X5916D01*
X4380Y3070D02*
X4841Y2609D01*
X5916D02*
X6299Y2992D01*
X6459Y2407D02*
Y2413D01*
X6510Y2438D02*
X6535Y2464D01*
Y2598*
X6459Y2413D02*
X6484Y2438D01*
X6510*
X6496Y3031D02*
Y3138D01*
X6771Y3641D02*
X6881Y3751D01*
X6718Y4305D02*
X6881Y4142D01*
Y3751D02*
Y4142D01*
X6245Y4305D02*
X6718D01*
X6139Y3149D02*
X6203Y3085D01*
X6062Y3149D02*
X6139D01*
X5823Y3389D02*
X6062Y3149D01*
X5823Y3389D02*
Y3466D01*
X5455Y2700D02*
X5590Y2834D01*
X5505Y3300D02*
X5548Y3343D01*
Y3502*
X5746Y3700*
X5331Y2700D02*
X5455D01*
X5096Y2934D02*
Y3070D01*
X6220Y2204D02*
X6771D01*
X6604Y2783D02*
Y2785D01*
X6636Y2674D02*
X6791Y2519D01*
X6636Y2674D02*
Y2752D01*
X6604Y2783D02*
X6636Y2752D01*
X5118Y2047D02*
X6062D01*
X5039Y2125D02*
X5118Y2047D01*
X4472Y2204D02*
X4881D01*
X4509Y2283D02*
X4826D01*
X4984Y2440*
X5275*
X5354Y2362D02*
X6414D01*
X4566Y4803D02*
X5196D01*
X5318Y4566D02*
Y4681D01*
X5196Y4803D02*
X5318Y4681D01*
X6486Y4064D02*
X6604D01*
X6377Y4100D02*
X6450D01*
X6486Y4064*
X6179Y2440D02*
X6195Y2457D01*
X6197*
X3937Y2855D02*
X4509Y2283D01*
X5290Y2210D02*
X5296Y2204D01*
X5290Y2210D02*
Y2258D01*
X5449Y2519D02*
X5528Y2440D01*
X6535Y3191D02*
Y3375D01*
Y3191D02*
X6577Y3149D01*
X6220Y3779D02*
Y4279D01*
X6141Y3700D02*
X6220Y3779D01*
X5746Y3700D02*
X6141D01*
X6377Y3400D02*
X6510D01*
X6535Y3375*
X6141Y2283D02*
X6456D01*
X5984Y2125D02*
X6141Y2283D01*
X6062Y2047D02*
X6220Y2204D01*
X5039Y3858D02*
X5118Y3937D01*
X5039Y3761D02*
X5100Y3700D01*
X5039Y3761D02*
Y3858D01*
X4409Y4645D02*
X4566Y4803D01*
X4409Y4409D02*
Y4645D01*
X6325Y3294D02*
X6371D01*
X6377Y3300*
X5377D02*
X5505D01*
X5477Y3429D02*
Y3736D01*
X5448Y3400D02*
X5477Y3429D01*
X5377Y3400D02*
X5448D01*
X6220Y4279D02*
X6245Y4305D01*
X5244Y4300D02*
X5621D01*
X6082Y3779D02*
Y3838D01*
X5621Y4300D02*
X6082Y3838D01*
X4263Y2413D02*
X4472Y2204D01*
X6456Y2283D02*
X6692Y2519D01*
X6791*
X6299Y2122D02*
X6674D01*
X6687Y2109*
X6690*
X3937Y3390D02*
X4300Y3753D01*
X3937Y2855D02*
Y3390D01*
X4094Y2992D02*
Y3173D01*
Y2992D02*
X4566Y2519D01*
X4094Y3173D02*
X4365Y3444D01*
X4900Y4271D02*
X5039Y4131D01*
X4828Y3753D02*
X5039Y3964D01*
X5118Y3937D02*
Y4338D01*
X5007Y4448D02*
X5118Y4338D01*
X5100Y3700D02*
X5196D01*
X5275Y3779*
Y4169*
X4666Y2519D02*
X5449D01*
X4300Y3753D02*
X4828D01*
X4547Y4271D02*
X4900D01*
X4409Y4409D02*
X4547Y4271D01*
X4165Y4180D02*
Y4760D01*
Y4180D02*
X4330Y4015D01*
X4966*
X6614Y3287D02*
X6771D01*
X6692Y3366D02*
X6771Y3287D01*
X6692Y3366D02*
Y4094D01*
X6586Y4200D02*
X6692Y4094D01*
X6377Y4200D02*
X6586D01*
X4566Y4448D02*
X5007D01*
X5275Y4169D02*
X5307Y4200D01*
X5377*
X5196Y4251D02*
X5244Y4300D01*
X5196Y3877D02*
Y4251D01*
X5118Y3799D02*
X5196Y3877D01*
X4645Y4566D02*
X5018D01*
X4566Y4645D02*
X4645Y4566D01*
X6299Y1814D02*
X6492D01*
X6496Y1810*
X6690*
X5728Y3307D02*
X5930Y3105D01*
X5950*
X5984Y3070*
X4365Y3444D02*
X5118D01*
X5477Y3736D02*
X5600Y3859D01*
X5881*
X3489Y4376D02*
X3793D01*
X3865Y4449*
Y4530*
G54D39*
X4881Y2204D02*
X5017Y2340D01*
X5208*
G54D40*
X5377Y2800D03*
Y2900D03*
Y3000D03*
Y3100D03*
Y3200D03*
Y3500D03*
Y3600D03*
Y4000D03*
Y4100D03*
X6377Y2800D03*
Y3000D03*
Y3100D03*
Y3600D03*
Y3700D03*
Y3900D03*
X5377Y4200D03*
Y3900D03*
Y3800D03*
Y3700D03*
Y3400D03*
Y3300D03*
X6377Y2900D03*
Y3200D03*
Y3300D03*
Y3400D03*
Y3500D03*
Y3800D03*
Y4000D03*
Y4100D03*
G54D41*
X6377Y4200D03*
G54D42*
X3818Y1377D03*
X4645D03*
Y1968D03*
G54D43*
X3818Y1968D03*
G54D44*
X4468Y3570D03*
X6781Y3809D03*
Y2785D03*
G54D45*
X4665Y3570D03*
X4263Y2413D03*
X4870D03*
X6604Y4064D03*
Y3809D03*
X6781Y4064D03*
X6604Y3041D03*
Y2785D03*
X6781Y3041D03*
G54D46*
X4165Y4760D03*
X3865Y4530D03*
G54D47*
X5299Y1181D03*
X4566Y4448D03*
G54D48*
X5094Y1181D03*
X5196D03*
X5218Y4566D03*
X5118D03*
X5318D03*
X5096Y3070D03*
X4566Y2519D03*
Y4645D03*
X5590Y2283D03*
X5790D03*
X5690D03*
X5096Y2204D03*
X5196D03*
X5690Y2519D03*
X5984Y3070D03*
X4280D03*
G54D49*
X5196Y1830D03*
X6614Y3287D03*
X6771D03*
X5118Y3444D03*
G54D50*
X5196Y1476D03*
X6614Y3641D03*
X6771D03*
X6791Y2519D03*
X5118Y3799D03*
X6082Y3307D03*
Y3543D03*
Y3779D03*
G54D51*
X5018Y4566D03*
X5196Y3070D03*
X4666Y2519D03*
X5890Y2283D03*
X5296Y2204D03*
X5590Y2519D03*
X6084Y3070D03*
X4380D03*
G54D52*
X6299Y1814D03*
Y2122D03*
G54D53*
X3700Y2549D03*
Y3435D03*
G54D54*
X6437Y2519D03*
X5728Y3307D03*
Y3543D03*
Y3779D03*
G54D55*
X6690Y1810D03*
Y2109D03*
G54D56*
X6205Y3084D03*
X5040Y2282D03*
X6197Y2457D03*
X5823Y3466D03*
X5881Y3859D03*
G54D57*
X3096Y2796D02*
X3106Y2806D01*
Y2826*
X3096Y2836*
X3056*
X3046Y2826*
Y2806*
X3056Y2796*
X3066*
X3076Y2806*
Y2836*
X3046Y2856D02*
Y2896D01*
X3056*
X3096Y2856*
X3106*
Y2916D02*
X3096D01*
Y2926*
X3106*
Y2916*
X3046Y2966D02*
Y3006D01*
X3056*
X3096Y2966*
X3106*
X3046Y3066D02*
Y3026D01*
X3076*
X3066Y3046*
Y3056*
X3076Y3066*
X3096*
X3106Y3056*
Y3036*
X3096Y3026*
X5006Y840D02*
X5016Y830D01*
X5036*
X5046Y840*
Y880*
X5036Y890*
X5016*
X5006Y880*
Y870*
X5016Y860*
X5046*
X5066Y880D02*
X5076Y890D01*
X5096*
X5106Y880*
Y870*
X5096Y860*
X5106Y850*
Y840*
X5096Y830*
X5076*
X5066Y840*
Y850*
X5076Y860*
X5066Y870*
Y880*
X5076Y860D02*
X5096D01*
X5126Y830D02*
Y840D01*
X5136*
Y830*
X5126*
X5176Y880D02*
X5186Y890D01*
X5206*
X5216Y880*
Y840*
X5206Y830*
X5186*
X5176Y840*
Y880*
X5236D02*
X5246Y890D01*
X5266*
X5276Y880*
Y840*
X5266Y830*
X5246*
X5236Y840*
Y880*
G54D58*
X7007Y4803D03*
X3307D03*
Y1102D03*
X7007D03*
M02*