%FSLAX23Y23*%
%MOIN*%
%SFA1B1*%

%IPPOS*%
%ADD11C,0.005000*%
%ADD65C,0.006670*%
%ADD66C,0.004000*%
%LNpcb2-1*%
%LPD*%
G54D11*
X5357Y2780D02*
Y2820D01*
X5397*
Y2780*
X5357*
Y2880D02*
Y2920D01*
X5397*
Y2880*
X5357*
Y2980D02*
Y3020D01*
X5397*
Y2980*
X5357*
Y3080D02*
Y3120D01*
X5397*
Y3080*
X5357*
Y3180D02*
Y3220D01*
X5397*
Y3180*
X5357*
Y3480D02*
Y3520D01*
X5397*
Y3480*
X5357*
Y3580D02*
Y3620D01*
X5397*
Y3580*
X5357*
Y3980D02*
Y4020D01*
X5397*
Y3980*
X5357*
Y4080D02*
Y4120D01*
X5397*
Y4080*
X5357*
X6357Y2780D02*
Y2820D01*
X6397*
Y2780*
X6357*
Y2980D02*
Y3020D01*
X6397*
Y2980*
X6357*
Y3080D02*
Y3120D01*
X6397*
Y3080*
X6357*
Y3580D02*
Y3620D01*
X6397*
Y3580*
X6357*
Y3680D02*
Y3720D01*
X6397*
Y3680*
X6357*
Y3880D02*
Y3920D01*
X6397*
Y3880*
X6357*
X5357Y4180D02*
Y4220D01*
X5397*
Y4180*
X5357*
Y3880D02*
Y3920D01*
X5397*
Y3880*
X5357*
Y3780D02*
Y3820D01*
X5397*
Y3780*
X5357*
Y3680D02*
Y3720D01*
X5397*
Y3680*
X5357*
Y3380D02*
Y3420D01*
X5397*
Y3380*
X5357*
Y3280D02*
Y3320D01*
X5397*
Y3280*
X5357*
X6357Y2880D02*
Y2920D01*
X6397*
Y2880*
X6357*
Y3180D02*
Y3220D01*
X6397*
Y3180*
X6357*
Y3280D02*
Y3320D01*
X6397*
Y3280*
X6357*
Y3380D02*
Y3420D01*
X6397*
Y3380*
X6357*
Y3480D02*
Y3520D01*
X6397*
Y3480*
X6357*
Y3780D02*
Y3820D01*
X6397*
Y3780*
X6357*
Y3980D02*
Y4020D01*
X6397*
Y3980*
X6357*
Y4080D02*
Y4120D01*
X6397*
Y4080*
X6357*
Y4180D02*
Y4220D01*
X6397*
Y4180*
X6357*
X4468Y3550D02*
X4448Y3590D01*
X4488*
X4468Y3550*
X4665D02*
X4645Y3590D01*
X4685*
X4665Y3550*
X4263Y2393D02*
X4243Y2433D01*
X4283*
X4263Y2393*
X4870D02*
X4850Y2433D01*
X4890*
X4870Y2393*
X4165Y4740D02*
X4175Y4750D01*
X4185*
X4175Y4760*
X4185Y4770*
X4175*
X4165Y4780*
X4155Y4770*
X4145*
X4155Y4760*
X4145Y4750*
X4155*
X4165Y4740*
X3865Y4510D02*
X3875Y4520D01*
X3885*
X3875Y4530*
X3885Y4540*
X3875*
X3865Y4550*
X3855Y4540*
X3845*
X3855Y4530*
X3845Y4520*
X3855*
X3865Y4510*
X5279Y1161D02*
X5289Y1181D01*
X5279Y1201*
X5299Y1191*
X5319Y1201*
X5309Y1181*
X5319Y1161*
X5299Y1171*
X5279Y1161*
X5074D02*
X5084Y1181D01*
X5074Y1201*
X5094Y1191*
X5114Y1201*
X5104Y1181*
X5114Y1161*
X5094Y1171*
X5074Y1161*
X5176D02*
X5186Y1181D01*
X5176Y1201*
X5196Y1191*
X5216Y1201*
X5206Y1181*
X5216Y1161*
X5196Y1171*
X5176Y1161*
X5186Y1820D02*
Y1810D01*
X5206*
Y1820*
X5216*
Y1840*
X5206*
Y1850*
X5186*
Y1840*
X5176*
Y1820*
X5186*
Y1466D02*
Y1456D01*
X5206*
Y1466*
X5216*
Y1486*
X5206*
Y1496*
X5186*
Y1486*
X5176*
Y1466*
X5186*
X5198Y4546D02*
X5208D01*
X5218Y4556*
X5228Y4546*
X5238*
Y4556*
X5228Y4566*
X5238Y4576*
Y4586*
X5228*
X5218Y4576*
X5208Y4586*
X5198*
Y4576*
X5208Y4566*
X5198Y4556*
Y4546*
X5098D02*
X5108D01*
X5118Y4556*
X5128Y4546*
X5138*
Y4556*
X5128Y4566*
X5138Y4576*
Y4586*
X5128*
X5118Y4576*
X5108Y4586*
X5098*
Y4576*
X5108Y4566*
X5098Y4556*
Y4546*
X4998D02*
X5008D01*
X5018Y4556*
X5028Y4546*
X5038*
Y4556*
X5028Y4566*
X5038Y4576*
Y4586*
X5028*
X5018Y4576*
X5008Y4586*
X4998*
Y4576*
X5008Y4566*
X4998Y4556*
Y4546*
X5298D02*
X5308D01*
X5318Y4556*
X5328Y4546*
X5338*
Y4556*
X5328Y4566*
X5338Y4576*
Y4586*
X5328*
X5318Y4576*
X5308Y4586*
X5298*
Y4576*
X5308Y4566*
X5298Y4556*
Y4546*
X6279Y1814D02*
X6299Y1834D01*
X6319Y1814*
X6299Y1794*
X6279Y1814*
Y2122D02*
X6299Y2142D01*
X6319Y2122*
X6299Y2102*
X6279Y2122*
X5176Y3050D02*
X5186Y3070D01*
X5176Y3090*
X5196Y3080*
X5216Y3090*
X5206Y3070*
X5216Y3050*
X5196Y3060*
X5176Y3050*
X5076D02*
X5086Y3070D01*
X5076Y3090*
X5096Y3080*
X5116Y3090*
X5106Y3070*
X5116Y3050*
X5096Y3060*
X5076Y3050*
X6604Y3631D02*
Y3621D01*
X6624*
Y3631*
X6634*
Y3651*
X6624*
Y3661*
X6604*
Y3651*
X6594*
Y3631*
X6604*
Y3277D02*
Y3267D01*
X6624*
Y3277*
X6634*
Y3297*
X6624*
Y3307*
X6604*
Y3297*
X6594*
Y3277*
X6604*
X4546Y2499D02*
X4556Y2519D01*
X4546Y2539*
X4566Y2529*
X4586Y2539*
X4576Y2519*
X4586Y2499*
X4566Y2509*
X4546Y2499*
X4646D02*
X4656Y2519D01*
X4646Y2539*
X4666Y2529*
X4686Y2539*
X4676Y2519*
X4686Y2499*
X4666Y2509*
X4646Y2499*
X3680Y2529D02*
Y2569D01*
X3720*
Y2529*
X3680*
X3688Y2537D02*
Y2561D01*
X3712*
Y2537*
X3688*
X3680Y3415D02*
Y3455D01*
X3720*
Y3415*
X3680*
X3688Y3423D02*
Y3447D01*
X3712*
Y3423*
X3688*
X4546Y4625D02*
X4556Y4645D01*
X4546Y4665*
X4566Y4655*
X4586Y4665*
X4576Y4645*
X4586Y4625*
X4566Y4635*
X4546Y4625*
Y4428D02*
X4556Y4448D01*
X4546Y4468*
X4566Y4458*
X4586Y4468*
X4576Y4448*
X4586Y4428*
X4566Y4438*
X4546Y4428*
X4167Y3995D02*
X4147Y4035D01*
X4187*
X4167Y3995*
X4966D02*
X4946Y4035D01*
X4986*
X4966Y3995*
X6604Y4044D02*
X6584Y4084D01*
X6624*
X6604Y4044*
Y3789D02*
X6584Y3829D01*
X6624*
X6604Y3789*
X6781Y4044D02*
X6761Y4084D01*
X6801*
X6781Y4044*
Y3789D02*
X6761Y3829D01*
X6801*
X6781Y3789*
X6604Y3021D02*
X6584Y3061D01*
X6624*
X6604Y3021*
Y2765D02*
X6584Y2805D01*
X6624*
X6604Y2765*
X6781Y3021D02*
X6761Y3061D01*
X6801*
X6781Y3021*
Y2765D02*
X6761Y2805D01*
X6801*
X6781Y2765*
X6761Y3631D02*
Y3621D01*
X6781*
Y3631*
X6791*
Y3651*
X6781*
Y3661*
X6761*
Y3651*
X6751*
Y3631*
X6761*
Y3277D02*
Y3267D01*
X6781*
Y3277*
X6791*
Y3297*
X6781*
Y3307*
X6761*
Y3297*
X6751*
Y3277*
X6761*
X6781Y2509D02*
Y2499D01*
X6801*
Y2509*
X6811*
Y2529*
X6801*
Y2539*
X6781*
Y2529*
X6771*
Y2509*
X6781*
X6427D02*
Y2499D01*
X6447*
Y2509*
X6457*
Y2529*
X6447*
Y2539*
X6427*
Y2529*
X6417*
Y2509*
X6427*
X5108Y3789D02*
Y3779D01*
X5128*
Y3789*
X5138*
Y3809*
X5128*
Y3819*
X5108*
Y3809*
X5098*
Y3789*
X5108*
Y3434D02*
Y3424D01*
X5128*
Y3434*
X5138*
Y3454*
X5128*
Y3464*
X5108*
Y3454*
X5098*
Y3434*
X5108*
X6072Y3297D02*
Y3287D01*
X6092*
Y3297*
X6102*
Y3317*
X6092*
Y3327*
X6072*
Y3317*
X6062*
Y3297*
X6072*
X5718D02*
Y3287D01*
X5738*
Y3297*
X5748*
Y3317*
X5738*
Y3327*
X5718*
Y3317*
X5708*
Y3297*
X5718*
X6072Y3533D02*
Y3523D01*
X6092*
Y3533*
X6102*
Y3553*
X6092*
Y3563*
X6072*
Y3553*
X6062*
Y3533*
X6072*
X5718D02*
Y3523D01*
X5738*
Y3533*
X5748*
Y3553*
X5738*
Y3563*
X5718*
Y3553*
X5708*
Y3533*
X5718*
X6072Y3769D02*
Y3759D01*
X6092*
Y3769*
X6102*
Y3789*
X6092*
Y3799*
X6072*
Y3789*
X6062*
Y3769*
X6072*
X5718D02*
Y3759D01*
X5738*
Y3769*
X5748*
Y3789*
X5738*
Y3799*
X5718*
Y3789*
X5708*
Y3769*
X5718*
X6680Y1800D02*
Y1790D01*
X6700*
Y1800*
X6710*
Y1820*
X6700*
Y1830*
X6680*
Y1820*
X6670*
Y1800*
X6680*
Y2099D02*
Y2089D01*
X6700*
Y2099*
X6710*
Y2119*
X6700*
Y2129*
X6680*
Y2119*
X6670*
Y2099*
X6680*
X5570Y2263D02*
X5580D01*
X5590Y2273*
X5600Y2263*
X5610*
Y2273*
X5600Y2283*
X5610Y2293*
Y2303*
X5600*
X5590Y2293*
X5580Y2303*
X5570*
Y2293*
X5580Y2283*
X5570Y2273*
Y2263*
X5870D02*
X5880D01*
X5890Y2273*
X5900Y2263*
X5910*
Y2273*
X5900Y2283*
X5910Y2293*
Y2303*
X5900*
X5890Y2293*
X5880Y2303*
X5870*
Y2293*
X5880Y2283*
X5870Y2273*
Y2263*
X5770D02*
X5780D01*
X5790Y2273*
X5800Y2263*
X5810*
Y2273*
X5800Y2283*
X5810Y2293*
Y2303*
X5800*
X5790Y2293*
X5780Y2303*
X5770*
Y2293*
X5780Y2283*
X5770Y2273*
Y2263*
X5670D02*
X5680D01*
X5690Y2273*
X5700Y2263*
X5710*
Y2273*
X5700Y2283*
X5710Y2293*
Y2303*
X5700*
X5690Y2293*
X5680Y2303*
X5670*
Y2293*
X5680Y2283*
X5670Y2273*
Y2263*
X3489Y4356D02*
X3469Y4396D01*
X3509*
X3489Y4356*
Y4364D02*
X3477Y4388D01*
X3501*
X3489Y4364*
Y4106D02*
X3469Y4146D01*
X3509*
X3489Y4106*
Y4114D02*
X3477Y4138D01*
X3501*
X3489Y4114*
X5076Y2184D02*
X5086D01*
X5096Y2194*
X5106Y2184*
X5116*
Y2194*
X5106Y2204*
X5116Y2214*
Y2224*
X5106*
X5096Y2214*
X5086Y2224*
X5076*
Y2214*
X5086Y2204*
X5076Y2194*
Y2184*
X5176D02*
X5186D01*
X5196Y2194*
X5206Y2184*
X5216*
Y2194*
X5206Y2204*
X5216Y2214*
Y2224*
X5206*
X5196Y2214*
X5186Y2224*
X5176*
Y2214*
X5186Y2204*
X5176Y2194*
Y2184*
X5276D02*
X5286D01*
X5296Y2194*
X5306Y2184*
X5316*
Y2194*
X5306Y2204*
X5316Y2214*
Y2224*
X5306*
X5296Y2214*
X5286Y2224*
X5276*
Y2214*
X5286Y2204*
X5276Y2194*
Y2184*
X5670Y2499D02*
X5680Y2519D01*
X5670Y2539*
X5690Y2529*
X5710Y2539*
X5700Y2519*
X5710Y2499*
X5690Y2509*
X5670Y2499*
X5570D02*
X5580Y2519D01*
X5570Y2539*
X5590Y2529*
X5610Y2539*
X5600Y2519*
X5610Y2499*
X5590Y2509*
X5570Y2499*
X6064Y3050D02*
X6074Y3070D01*
X6064Y3090*
X6084Y3080*
X6104Y3090*
X6094Y3070*
X6104Y3050*
X6084Y3060*
X6064Y3050*
X5964D02*
X5974Y3070D01*
X5964Y3090*
X5984Y3080*
X6004Y3090*
X5994Y3070*
X6004Y3050*
X5984Y3060*
X5964Y3050*
X4260D02*
X4270Y3070D01*
X4260Y3090*
X4280Y3080*
X4300Y3090*
X4290Y3070*
X4300Y3050*
X4280Y3060*
X4260Y3050*
X4360D02*
X4370Y3070D01*
X4360Y3090*
X4380Y3080*
X4400Y3090*
X4390Y3070*
X4400Y3050*
X4380Y3060*
X4360Y3050*
X6205Y3064D02*
X6215Y3074D01*
X6225*
X6215Y3084*
X6225Y3094*
X6215*
X6205Y3104*
X6195Y3094*
X6185*
X6195Y3084*
X6185Y3074*
X6195*
X6205Y3064*
Y3072D02*
X6211Y3078D01*
X6217*
X6211Y3084*
X6217Y3090*
X6211*
X6205Y3096*
X6199Y3090*
X6193*
X6199Y3084*
X6193Y3078*
X6199*
X6205Y3072*
X5040Y2262D02*
X5050Y2272D01*
X5060*
X5050Y2282*
X5060Y2292*
X5050*
X5040Y2302*
X5030Y2292*
X5020*
X5030Y2282*
X5020Y2272*
X5030*
X5040Y2262*
Y2270D02*
X5046Y2276D01*
X5052*
X5046Y2282*
X5052Y2288*
X5046*
X5040Y2294*
X5034Y2288*
X5028*
X5034Y2282*
X5028Y2276*
X5034*
X5040Y2270*
X6197Y2437D02*
X6207Y2447D01*
X6217*
X6207Y2457*
X6217Y2467*
X6207*
X6197Y2477*
X6187Y2467*
X6177*
X6187Y2457*
X6177Y2447*
X6187*
X6197Y2437*
Y2445D02*
X6203Y2451D01*
X6209*
X6203Y2457*
X6209Y2463*
X6203*
X6197Y2469*
X6191Y2463*
X6185*
X6191Y2457*
X6185Y2451*
X6191*
X6197Y2445*
X5823Y3446D02*
X5833Y3456D01*
X5843*
X5833Y3466*
X5843Y3476*
X5833*
X5823Y3486*
X5813Y3476*
X5803*
X5813Y3466*
X5803Y3456*
X5813*
X5823Y3446*
Y3454D02*
X5829Y3460D01*
X5835*
X5829Y3466*
X5835Y3472*
X5829*
X5823Y3478*
X5817Y3472*
X5811*
X5817Y3466*
X5811Y3460*
X5817*
X5823Y3454*
X5881Y3839D02*
X5891Y3849D01*
X5901*
X5891Y3859*
X5901Y3869*
X5891*
X5881Y3879*
X5871Y3869*
X5861*
X5871Y3859*
X5861Y3849*
X5871*
X5881Y3839*
Y3847D02*
X5887Y3853D01*
X5893*
X5887Y3859*
X5893Y3865*
X5887*
X5881Y3871*
X5875Y3865*
X5869*
X5875Y3859*
X5869Y3853*
X5875*
X5881Y3847*
G54D65*
X3838Y1377D02*
D01*
D01*
G75*
G03X3798I-20J0D01*
G74*G01*
D01*
G75*
G03X3838I20J0D01*
G74*G01*
X4665D02*
D01*
D01*
G75*
G03X4625I-20J0D01*
G74*G01*
D01*
G75*
G03X4665I20J0D01*
G74*G01*
X3838Y1968D02*
D01*
D01*
G75*
G03X3798I-20J0D01*
G74*G01*
D01*
G75*
G03X3838I20J0D01*
G74*G01*
X4665D02*
D01*
D01*
G75*
G03X4625I-20J0D01*
G74*G01*
D01*
G75*
G03X4665I20J0D01*
G74*G01*
X7027Y4803D02*
D01*
D01*
G75*
G03X6987I-20J0D01*
G74*G01*
D01*
G75*
G03X7027I20J0D01*
G74*G01*
X3327D02*
D01*
D01*
G75*
G03X3287I-20J0D01*
G74*G01*
D01*
G75*
G03X3327I20J0D01*
G74*G01*
Y1102D02*
D01*
D01*
G75*
G03X3287I-20J0D01*
G74*G01*
D01*
G75*
G03X3327I20J0D01*
G74*G01*
X7027D02*
D01*
D01*
G75*
G03X6987I-20J0D01*
G74*G01*
D01*
G75*
G03X7027I20J0D01*
G74*G01*
G54D66*
X7019Y4803D02*
D01*
D01*
G75*
G03X6995I-12J0D01*
G74*G01*
D01*
G75*
G03X7019I12J0D01*
G74*G01*
X3319D02*
D01*
D01*
G75*
G03X3295I-12J0D01*
G74*G01*
D01*
G75*
G03X3319I12J0D01*
G74*G01*
Y1102D02*
D01*
D01*
G75*
G03X3295I-12J0D01*
G74*G01*
D01*
G75*
G03X3319I12J0D01*
G74*G01*
X7019D02*
D01*
D01*
G75*
G03X6995I-12J0D01*
G74*G01*
D01*
G75*
G03X7019I12J0D01*
G74*G01*
M02*