%FSLAX23Y23*%
%MOIN*%
%SFA1B1*%

%IPPOS*%
%ADD63C,0.003940*%
%ADD64C,0.001970*%
%LNpcb2-1*%
%LPD*%
G54D63*
X5177Y1181D02*
X5216D01*
X5196Y1161D02*
Y1200D01*
X5177Y1653D02*
X5216D01*
X5196Y1633D02*
Y1673D01*
X6279Y1968D02*
X6318D01*
X6299Y1948D02*
Y1988D01*
X5127Y3070D02*
X5166D01*
X5146Y3051D02*
Y3090D01*
X6614Y3444D02*
Y3484D01*
X6594Y3464D02*
X6633D01*
X4616Y2500D02*
Y2539D01*
X4597Y2519D02*
X4636D01*
X4566Y4527D02*
Y4566D01*
X4547Y4547D02*
X4586D01*
X6771Y3444D02*
Y3484D01*
X6751Y3464D02*
X6791D01*
X6594Y2519D02*
X6633D01*
X6614Y2500D02*
Y2539D01*
X5118Y3602D02*
Y3641D01*
X5098Y3622D02*
X5137D01*
X5885Y3307D02*
X5925D01*
X5905Y3287D02*
Y3326D01*
X5885Y3543D02*
X5925D01*
X5905Y3523D02*
Y3562D01*
X5885Y3779D02*
X5925D01*
X5905Y3759D02*
Y3799D01*
X5640Y2500D02*
Y2539D01*
X5620Y2519D02*
X5660D01*
X6014Y3070D02*
X6053D01*
X6034Y3051D02*
Y3090D01*
X4330Y3051D02*
Y3090D01*
X4311Y3070D02*
X4350D01*
G54D64*
X5233Y3070D02*
D01*
D01*
G75*
G03X5060I-86J0D01*
G74*G01*
D01*
G75*
G03X5233I86J0D01*
G74*G01*
X4703Y2519D02*
D01*
D01*
G75*
G03X4530I-86J0D01*
G74*G01*
D01*
G75*
G03X4703I86J0D01*
G74*G01*
X4767Y4547D02*
D01*
D01*
G75*
G03X4366I-200J0D01*
G74*G01*
D01*
G75*
G03X4767I200J0D01*
G74*G01*
X6936Y1960D02*
D01*
D01*
G75*
G03X6443I-246J0D01*
G74*G01*
D01*
G75*
G03X6936I246J0D01*
G74*G01*
X5727Y2519D02*
D01*
D01*
G75*
G03X5553I-86J0D01*
G74*G01*
D01*
G75*
G03X5727I86J0D01*
G74*G01*
X6120Y3070D02*
D01*
D01*
G75*
G03X5947I-86J0D01*
G74*G01*
D01*
G75*
G03X6120I86J0D01*
G74*G01*
X4417D02*
D01*
D01*
G75*
G03X4244I-86J0D01*
G74*G01*
D01*
G75*
G03X4417I86J0D01*
G74*G01*
X5307Y4602D02*
X6450D01*
X5307Y2577D02*
Y4602D01*
Y2577D02*
X6450D01*
Y4602*
X4990Y1151D02*
Y2194D01*
X3474Y1151D02*
X4990D01*
X3474D02*
Y2194D01*
X4990*
X4970Y2312D02*
Y3671D01*
X4163Y2312D02*
X4970D01*
X4163D02*
Y3671D01*
X4970*
X5062Y1124D02*
Y1277D01*
X5330*
Y1124D02*
Y1277D01*
X5062Y1124D02*
X5330D01*
X5145Y1445D02*
X5248D01*
X5145D02*
Y1861D01*
X5248Y1445D02*
Y1861D01*
X5145D02*
X5248D01*
X4954Y4508D02*
Y4625D01*
Y4508D02*
X5381D01*
Y4625*
X4954D02*
X5381D01*
X6242Y2158D02*
X6356D01*
X6242Y1778D02*
Y2158D01*
Y1778D02*
X6356D01*
Y2158*
X6562Y3256D02*
X6665D01*
X6562D02*
Y3672D01*
X6665Y3256D02*
Y3672D01*
X6562D02*
X6665D01*
X3513Y3483D02*
X3887D01*
Y2500D02*
Y3483D01*
X3513Y2500D02*
X3887D01*
X3513D02*
Y3483D01*
X6564Y3769D02*
Y4104D01*
X6821*
Y3769D02*
Y4104D01*
X6564Y3769D02*
X6821D01*
X6564Y2745D02*
Y3080D01*
X6821*
Y2745D02*
Y3080D01*
X6564Y2745D02*
X6821D01*
X6720Y3256D02*
X6822D01*
X6720D02*
Y3672D01*
X6822Y3256D02*
Y3672D01*
X6720D02*
X6822D01*
X6406Y2468D02*
Y2570D01*
Y2468D02*
X6821D01*
X6406Y2570D02*
X6821D01*
Y2468D02*
Y2570D01*
X5066Y3414D02*
X5169D01*
Y3829*
X5066Y3414D02*
Y3829D01*
X5169*
X5697Y3255D02*
Y3358D01*
Y3255D02*
X6113D01*
X5697Y3358D02*
X6113D01*
Y3255D02*
Y3358D01*
X5697Y3492D02*
Y3594D01*
Y3492D02*
X6113D01*
X5697Y3594D02*
X6113D01*
Y3492D02*
Y3594D01*
X5697Y3728D02*
Y3830D01*
Y3728D02*
X6113D01*
X5697Y3830D02*
X6113D01*
Y3728D02*
Y3830D01*
X5526Y2342D02*
X5954D01*
X5526Y2224D02*
Y2342D01*
Y2224D02*
X5954D01*
Y2342*
X5360Y2145D02*
Y2263D01*
X5033D02*
X5360D01*
X5033Y2145D02*
Y2263D01*
Y2145D02*
X5360D01*
M02*