%FSLAX23Y23*%
%MOIN*%
%SFA1B1*%

%IPPOS*%
%ADD13R,0.061020X0.023620*%
%ADD30C,0.061020*%
%ADD31R,0.061020X0.061020*%
%ADD34C,0.107480*%
%ADD35R,0.107480X0.107480*%
%ADD37C,0.031500*%
%ADD38C,0.043310*%
%ADD39C,0.023620*%
%ADD40C,0.078740*%
%ADD41R,0.078740X0.078740*%
%ADD42C,0.072000*%
%ADD43R,0.072000X0.072000*%
%ADD44R,0.059370X0.059370*%
%ADD45C,0.059370*%
%ADD46O,0.060000X0.120000*%
%ADD47R,0.055120X0.055120*%
%ADD48C,0.055120*%
%ADD49R,0.053150X0.053150*%
%ADD50C,0.053150*%
%ADD51R,0.055120X0.055120*%
%ADD52C,0.064960*%
%ADD53C,0.077950*%
%ADD54R,0.053150X0.053150*%
%ADD55C,0.053470*%
%ADD56C,0.050000*%
%LNpcb2-1*%
%LPD*%
G36*
X7086Y1023D02*
X3228D01*
Y4881*
X7086*
Y1023*
G37*
%LNpcb2-2*%
%LPC*%
G36*
X7014Y4872D02*
X7001D01*
X6987Y4869*
X6975Y4864*
X6963Y4856*
X6954Y4847*
X6946Y4835*
X6941Y4823*
X6938Y4809*
Y4796*
X6941Y4783*
X6946Y4770*
X6954Y4759*
X6963Y4749*
X6975Y4741*
X6987Y4736*
X7001Y4734*
X7014*
X7028Y4736*
X7040Y4741*
X7051Y4749*
X7061Y4759*
X7069Y4770*
X7074Y4783*
X7076Y4796*
Y4809*
X7074Y4823*
X7069Y4835*
X7061Y4847*
X7051Y4856*
X7040Y4864*
X7028Y4869*
X7014Y4872*
G37*
G36*
X3313D02*
X3300D01*
X3286Y4869*
X3274Y4864*
X3263Y4856*
X3253Y4847*
X3245Y4835*
X3240Y4823*
X3238Y4809*
Y4796*
X3240Y4783*
X3245Y4770*
X3253Y4759*
X3263Y4749*
X3274Y4741*
X3286Y4736*
X3300Y4734*
X3313*
X3327Y4736*
X3339Y4741*
X3351Y4749*
X3360Y4759*
X3368Y4770*
X3373Y4783*
X3376Y4796*
Y4809*
X3373Y4823*
X3368Y4835*
X3360Y4847*
X3351Y4856*
X3339Y4864*
X3327Y4869*
X3313Y4872*
G37*
G36*
X4165Y4835D02*
X3883D01*
X3875Y4833*
X3867Y4830*
X3861Y4825*
X3678Y4642*
X3673Y4636*
X3669Y4628*
X3668Y4620*
Y4330*
X3669Y4322*
X3673Y4314*
X3678Y4308*
X3826Y4160*
Y2719*
X3704Y2598*
X3694*
X3681Y2594*
X3670Y2588*
X3661Y2579*
X3655Y2568*
X3651Y2555*
Y2542*
X3655Y2530*
X3661Y2519*
X3668Y2511*
Y2086*
X3669Y2078*
X3673Y2070*
X3678Y2063*
X3772Y1969*
Y1922*
X3864*
Y2014*
X3817*
X3732Y2099*
Y2511*
X3739Y2519*
X3746Y2530*
X3749Y2542*
Y2553*
X3880Y2684*
X3885Y2690*
X3889Y2698*
X3890Y2706*
Y4173*
X3889Y4181*
X3885Y4189*
X3880Y4195*
X3732Y4343*
Y4607*
X3896Y4771*
X4125*
Y4730*
X4126Y4720*
X4130Y4710*
X4137Y4702*
X4145Y4695*
X4155Y4691*
X4165Y4690*
X4176Y4691*
X4185Y4695*
X4194Y4702*
X4200Y4710*
X4204Y4720*
X4206Y4730*
Y4790*
X4204Y4801*
X4200Y4810*
X4194Y4819*
X4191Y4820*
X4188Y4825*
X4181Y4830*
X4174Y4833*
X4165Y4835*
G37*
G36*
X4571Y4683D02*
X4561D01*
X4552Y4680*
X4543Y4675*
X4536Y4668*
X4531Y4660*
X4529Y4650*
Y4640*
X4531Y4631*
X4536Y4622*
X4543Y4615*
X4552Y4610*
X4561Y4608*
X4571*
X4581Y4610*
X4589Y4615*
X4596Y4622*
X4601Y4631*
X4604Y4640*
Y4650*
X4601Y4660*
X4596Y4668*
X4589Y4675*
X4581Y4680*
X4571Y4683*
G37*
G36*
X5323Y4604D02*
X5313D01*
X5303Y4601*
X5295Y4596*
X5288Y4589*
X5283Y4581*
X5280Y4571*
Y4561*
X5283Y4552*
X5288Y4543*
X5295Y4536*
X5303Y4531*
X5313Y4529*
X5323*
X5332Y4531*
X5341Y4536*
X5348Y4543*
X5353Y4552*
X5355Y4561*
Y4571*
X5353Y4581*
X5348Y4589*
X5341Y4596*
X5332Y4601*
X5323Y4604*
G37*
G36*
X3495Y4440D02*
X3483D01*
X3470Y4438*
X3459Y4433*
X3448Y4426*
X3440Y4417*
X3433Y4407*
X3428Y4395*
X3425Y4383*
Y4370*
X3428Y4358*
X3433Y4346*
X3440Y4336*
X3448Y4327*
X3459Y4320*
X3470Y4315*
X3483Y4313*
X3495*
X3508Y4315*
X3519Y4320*
X3530Y4327*
X3539Y4336*
X3546Y4346*
X3550Y4358*
X3553Y4370*
Y4383*
X3550Y4395*
X3546Y4407*
X3539Y4417*
X3530Y4426*
X3519Y4433*
X3508Y4438*
X3495Y4440*
G37*
G36*
X5007Y4056D02*
X4926D01*
Y3975*
X5007*
Y4056*
G37*
G36*
X5347Y4756D02*
X4488D01*
X4479Y4755*
X4472Y4752*
X4465Y4746*
X4258Y4539*
X4253Y4532*
X4249Y4525*
X4248Y4516*
Y3090*
X4245Y3085*
X4243Y3075*
Y3065*
X4245Y3056*
X4250Y3047*
X4257Y3040*
X4266Y3035*
X4275Y3033*
X4285*
X4295Y3035*
X4303Y3040*
X4310Y3047*
X4315Y3056*
X4318Y3065*
Y3075*
X4315Y3085*
X4312Y3090*
Y4503*
X4501Y4692*
X5334*
X5702Y4324*
Y3816*
X5696*
Y4093*
X5695Y4100*
X5692Y4106*
X5688Y4112*
X5252Y4548*
Y4551*
X5253Y4552*
X5255Y4561*
Y4571*
X5253Y4581*
X5248Y4589*
X5241Y4596*
X5232Y4601*
X5223Y4604*
X5213*
X5203Y4601*
X5195Y4596*
X5188Y4589*
X5183Y4581*
X5180Y4571*
Y4561*
X5183Y4552*
X5188Y4543*
X5188Y4543*
Y4543*
X5189Y4535*
X5192Y4527*
X5197Y4520*
X5204Y4515*
X5212Y4512*
X5214Y4512*
X5644Y4082*
Y3739*
X5642Y3736*
X5639Y3729*
X5638Y3721*
X5639Y3712*
X5642Y3705*
X5647Y3698*
X5761Y3584*
X5759Y3579*
X5695*
Y3618*
X5694Y3625*
X5691Y3631*
X5687Y3637*
X5651Y3673*
X5650Y3676*
X5647Y3683*
X5642Y3690*
X5641Y3692*
X5634Y3697*
X5626Y3700*
X5624Y3700*
X5616Y3708*
Y3855*
X5618Y3857*
X5621Y3865*
X5622Y3873*
X5621Y3881*
X5618Y3889*
X5613Y3896*
X5585Y3923*
X5579Y3928*
X5571Y3931*
X5563Y3932*
X5415*
X5408Y3940*
X5397Y3946*
X5391Y3948*
Y3953*
X5397Y3954*
X5408Y3961*
X5417Y3970*
X5423Y3981*
X5427Y3994*
Y4007*
X5423Y4019*
X5417Y4031*
X5408Y4040*
X5397Y4046*
X5391Y4048*
Y4053*
X5397Y4054*
X5408Y4061*
X5417Y4070*
X5423Y4081*
X5427Y4094*
Y4107*
X5423Y4119*
X5417Y4131*
X5408Y4140*
X5397Y4146*
X5391Y4148*
Y4153*
X5397Y4154*
X5408Y4161*
X5417Y4170*
X5423Y4181*
X5427Y4194*
Y4207*
X5423Y4219*
X5417Y4231*
X5408Y4240*
X5397Y4246*
X5384Y4250*
X5371*
X5358Y4246*
X5347Y4240*
X5344Y4237*
X5335*
X5150Y4422*
Y4547*
X5153Y4552*
X5155Y4561*
Y4571*
X5153Y4581*
X5148Y4589*
X5141Y4596*
X5132Y4601*
X5123Y4604*
X5113*
X5103Y4601*
X5095Y4596*
X5088Y4589*
X5083Y4581*
X5080Y4571*
Y4561*
X5083Y4552*
X5086Y4547*
Y4409*
X5087Y4401*
X5090Y4393*
X5095Y4386*
X5299Y4183*
X5305Y4178*
X5313Y4174*
X5321Y4173*
X5336*
X5338Y4170*
X5347Y4161*
X5358Y4154*
X5364Y4153*
Y4148*
X5358Y4146*
X5347Y4140*
X5338Y4131*
X5331Y4119*
X5328Y4107*
Y4094*
X5331Y4081*
X5338Y4070*
X5347Y4061*
X5358Y4054*
X5364Y4053*
Y4048*
X5358Y4046*
X5347Y4040*
X5338Y4031*
X5331Y4019*
X5328Y4007*
Y3994*
X5331Y3981*
X5338Y3970*
X5347Y3961*
X5358Y3954*
X5364Y3953*
Y3948*
X5358Y3946*
X5347Y3940*
X5338Y3931*
X5331Y3919*
X5328Y3907*
Y3894*
X5331Y3881*
X5338Y3870*
X5347Y3861*
X5358Y3854*
X5364Y3853*
Y3848*
X5358Y3846*
X5347Y3840*
X5338Y3831*
X5331Y3819*
X5328Y3807*
Y3794*
X5331Y3781*
X5338Y3770*
X5347Y3761*
X5358Y3754*
X5364Y3753*
Y3748*
X5358Y3746*
X5347Y3740*
X5338Y3731*
X5331Y3719*
X5328Y3707*
Y3694*
X5331Y3681*
X5338Y3670*
X5347Y3661*
X5358Y3654*
X5364Y3653*
Y3648*
X5358Y3646*
X5347Y3640*
X5338Y3631*
X5331Y3619*
X5328Y3607*
Y3594*
X5331Y3581*
X5338Y3570*
X5347Y3561*
X5358Y3554*
X5364Y3553*
Y3548*
X5358Y3546*
X5347Y3540*
X5338Y3531*
X5331Y3519*
X5328Y3507*
Y3494*
X5331Y3481*
X5338Y3470*
X5347Y3461*
X5358Y3454*
X5364Y3453*
Y3448*
X5358Y3446*
X5347Y3440*
X5338Y3431*
X5331Y3419*
X5328Y3407*
Y3394*
X5331Y3381*
X5338Y3370*
X5347Y3361*
X5358Y3354*
X5364Y3353*
Y3348*
X5358Y3346*
X5347Y3340*
X5338Y3331*
X5331Y3319*
X5328Y3307*
Y3294*
X5331Y3281*
X5338Y3270*
X5347Y3261*
X5358Y3254*
X5364Y3253*
Y3248*
X5358Y3246*
X5347Y3240*
X5338Y3231*
X5331Y3219*
X5328Y3207*
Y3194*
X5331Y3181*
X5338Y3170*
X5347Y3161*
X5358Y3154*
X5364Y3153*
Y3148*
X5358Y3146*
X5347Y3140*
X5338Y3131*
X5331Y3119*
X5328Y3107*
Y3094*
X5331Y3081*
X5338Y3070*
X5347Y3061*
X5358Y3054*
X5364Y3053*
Y3048*
X5358Y3046*
X5347Y3040*
X5338Y3031*
X5331Y3019*
X5328Y3007*
Y2994*
X5331Y2981*
X5338Y2970*
X5347Y2961*
X5358Y2954*
X5364Y2953*
Y2948*
X5358Y2946*
X5347Y2940*
X5338Y2931*
X5331Y2919*
X5328Y2907*
Y2894*
X5331Y2881*
X5338Y2870*
X5347Y2861*
X5358Y2854*
X5364Y2853*
Y2848*
X5358Y2846*
X5347Y2840*
X5338Y2831*
X5331Y2819*
X5328Y2807*
Y2794*
X5331Y2781*
X5338Y2770*
X5347Y2761*
X5358Y2754*
X5371Y2751*
X5384*
X5397Y2754*
X5408Y2761*
X5417Y2770*
X5423Y2781*
X5427Y2794*
Y2807*
X5423Y2819*
X5417Y2831*
X5408Y2840*
X5397Y2846*
X5391Y2848*
Y2853*
X5397Y2854*
X5408Y2861*
X5417Y2870*
X5423Y2881*
X5427Y2894*
Y2907*
X5423Y2919*
X5417Y2931*
X5408Y2940*
X5397Y2946*
X5391Y2948*
Y2953*
X5397Y2954*
X5408Y2961*
X5417Y2970*
X5423Y2981*
X5427Y2994*
Y3007*
X5423Y3019*
X5417Y3031*
X5408Y3040*
X5397Y3046*
X5391Y3048*
Y3053*
X5397Y3054*
X5408Y3061*
X5417Y3070*
X5423Y3081*
X5427Y3094*
Y3107*
X5423Y3119*
X5417Y3131*
X5408Y3140*
X5397Y3146*
X5391Y3148*
Y3153*
X5397Y3154*
X5408Y3161*
X5417Y3170*
X5423Y3181*
X5427Y3194*
Y3207*
X5423Y3219*
X5417Y3231*
X5408Y3240*
X5397Y3246*
X5391Y3248*
Y3253*
X5397Y3254*
X5408Y3261*
X5417Y3270*
X5423Y3281*
X5427Y3294*
Y3307*
X5423Y3319*
X5417Y3331*
X5408Y3340*
X5397Y3346*
X5391Y3348*
Y3353*
X5397Y3354*
X5408Y3361*
X5417Y3370*
X5423Y3381*
X5427Y3394*
Y3407*
X5423Y3419*
X5417Y3431*
X5408Y3440*
X5397Y3446*
X5391Y3448*
Y3453*
X5397Y3454*
X5408Y3461*
X5417Y3470*
X5423Y3481*
X5427Y3494*
Y3507*
X5423Y3519*
X5417Y3531*
X5408Y3540*
X5397Y3546*
X5391Y3548*
Y3553*
X5397Y3554*
X5408Y3561*
X5417Y3570*
X5423Y3581*
X5427Y3594*
Y3607*
X5426Y3610*
X5430Y3612*
X5459Y3583*
Y2740*
X5427Y2708*
X5424Y2708*
X5417Y2704*
X5410Y2699*
X5174Y2463*
X5169Y2456*
X5166Y2449*
X5164Y2440*
Y2224*
X5161Y2219*
X5159Y2209*
Y2199*
X5161Y2190*
X5166Y2181*
X5173Y2174*
X5182Y2169*
X5191Y2167*
X5201*
X5211Y2169*
X5219Y2174*
X5226Y2181*
X5231Y2190*
X5234Y2199*
Y2209*
X5231Y2219*
X5228Y2224*
Y2427*
X5455Y2654*
X5460Y2661*
X5463Y2668*
X5464Y2671*
X5504Y2711*
X5508Y2716*
X5510Y2723*
X5511Y2729*
Y3584*
X5513Y3586*
X5516Y3594*
X5517Y3602*
X5516Y3611*
X5513Y3618*
X5508Y3625*
X5428Y3705*
X5427Y3706*
Y3707*
X5423Y3719*
X5417Y3731*
X5408Y3740*
X5397Y3746*
X5391Y3748*
Y3753*
X5397Y3754*
X5408Y3761*
X5409Y3762*
X5413*
X5522Y3653*
Y3627*
X5522Y3621*
X5525Y3614*
X5529Y3609*
X5564Y3574*
Y2696*
X5378Y2510*
X5373Y2503*
X5370Y2496*
X5369Y2487*
X5370Y2479*
X5373Y2471*
X5375Y2469*
Y2054*
X5188Y1867*
X5160*
Y1794*
X5233*
Y1822*
X5423Y2012*
X5428Y2019*
X5431Y2026*
X5433Y2035*
X5431Y2043*
X5428Y2050*
X5427Y2053*
Y2468*
X5613Y2654*
X5618Y2661*
X5621Y2668*
X5622Y2677*
X5621Y2685*
X5618Y2693*
X5616Y2695*
Y3585*
X5615Y3592*
X5613Y3598*
X5608Y3603*
X5573Y3638*
Y3664*
X5573Y3671*
X5573Y3671*
X5577Y3673*
X5587Y3663*
X5587Y3661*
X5590Y3653*
X5595Y3646*
X5597Y3645*
X5604Y3640*
X5611Y3637*
X5614Y3636*
X5643Y3607*
Y3125*
X5641Y3123*
X5638Y3115*
X5637Y3107*
X5638Y3099*
X5641Y3091*
X5646Y3085*
X5858Y2873*
Y2321*
X5852*
Y2245*
X5928*
Y2321*
X5922*
Y2886*
X5921Y2894*
X5918Y2902*
X5913Y2909*
X5695Y3126*
Y3270*
X5764*
Y3343*
X5695*
Y3506*
X5764*
Y3573*
X5769Y3576*
X5791Y3554*
Y3480*
X5790Y3479*
X5788Y3470*
Y3461*
X5790Y3452*
X5794Y3444*
X5801Y3437*
X5809Y3433*
X5818Y3431*
X5827*
X5836Y3433*
X5844Y3437*
X5851Y3444*
X5855Y3452*
X5858Y3461*
Y3470*
X5855Y3479*
X5854Y3480*
Y3568*
X5853Y3576*
X5850Y3584*
X5845Y3590*
X5698Y3737*
X5700Y3742*
X5764*
Y3816*
X5754*
Y4325*
X5755Y4327*
X5759Y4335*
X5760Y4343*
X5759Y4351*
X5755Y4359*
X5750Y4366*
X5370Y4746*
X5363Y4752*
X5355Y4755*
X5347Y4756*
G37*
G36*
X5055Y4604D02*
X4980D01*
Y4574*
X4938Y4532*
X4932Y4525*
X4929Y4517*
X4928Y4509*
Y4330*
X4929Y4322*
X4932Y4314*
X4938Y4308*
X5086Y4160*
Y3817*
X5084Y3813*
X5081Y3804*
Y3794*
X5084Y3785*
X5088Y3776*
X5095Y3769*
X5103Y3765*
X5113Y3762*
X5122*
X5132Y3765*
X5140Y3769*
X5147Y3776*
X5152Y3785*
X5154Y3794*
Y3804*
X5152Y3813*
X5150Y3817*
Y4173*
X5148Y4181*
X5145Y4189*
X5140Y4195*
X4992Y4343*
Y4496*
X5025Y4529*
X5055*
Y4604*
G37*
G36*
X6569Y4308D02*
X6299D01*
X6290Y4307*
X6283Y4304*
X6276Y4299*
X5868Y3891*
X5867Y3891*
X5859Y3887*
X5852Y3880*
X5848Y3872*
X5846Y3863*
Y3854*
X5848Y3845*
X5852Y3837*
X5859Y3830*
X5867Y3826*
X5876Y3824*
X5885*
X5894Y3826*
X5902Y3830*
X5909Y3837*
X5913Y3845*
X5913Y3846*
X6312Y4245*
X6328*
Y4151*
X6354*
X6355Y4150*
X6354Y4144*
X6347Y4140*
X6340Y4132*
X6315*
X6307Y4131*
X6299Y4128*
X6293Y4123*
X6060Y3890*
X6055Y3883*
X6051Y3875*
X6050Y3867*
Y3797*
X6048Y3793*
X6046Y3784*
Y3774*
X6048Y3765*
X6050Y3761*
Y3561*
X6048Y3557*
X6046Y3548*
Y3538*
X6048Y3529*
X6050Y3525*
Y3324*
X6048Y3321*
X6046Y3311*
Y3302*
X6048Y3292*
X6053Y3284*
X6060Y3277*
X6065Y3274*
X6063Y3269*
X6033*
X6024Y3268*
X6017Y3265*
X6010Y3260*
X5882Y3133*
X5877Y3126*
X5874Y3118*
X5873Y3110*
Y2992*
X5874Y2983*
X5877Y2976*
X5882Y2969*
X6031Y2821*
Y2440*
X6032Y2432*
X6035Y2424*
X6040Y2418*
X6197Y2260*
X6204Y2255*
X6212Y2252*
X6220Y2251*
X6285*
X6424Y2112*
Y2007*
X6418Y2000*
X5569*
X5537Y2032*
Y2421*
X5598Y2482*
X5628*
Y2557*
X5552*
Y2527*
X5489Y2463*
X5484Y2456*
X5480Y2449*
X5479Y2440*
X5480Y2432*
X5484Y2424*
X5485Y2422*
Y2031*
X5484Y2029*
X5480Y2021*
X5479Y2013*
X5480Y2004*
X5484Y1997*
X5489Y1990*
X5533Y1945*
X5540Y1940*
X5548Y1937*
X5556Y1936*
X6431*
X6439Y1937*
X6447Y1940*
X6453Y1945*
X6479Y1971*
X6484Y1977*
X6487Y1985*
X6488Y1993*
Y2125*
X6487Y2134*
X6484Y2141*
X6479Y2148*
X6321Y2306*
X6315Y2311*
X6307Y2314*
X6299Y2315*
X6233*
X6094Y2454*
Y2834*
X6093Y2842*
X6090Y2850*
X6085Y2857*
X5937Y3005*
Y3097*
X6046Y3206*
X6141*
X6149Y3207*
X6156Y3210*
X6163Y3215*
X6233Y3285*
X6238Y3292*
X6241Y3299*
X6242Y3308*
Y3864*
X6343Y3965*
X6347Y3961*
X6358Y3954*
X6364Y3953*
Y3948*
X6358Y3946*
X6347Y3940*
X6338Y3931*
X6331Y3919*
X6328Y3907*
Y3894*
X6331Y3881*
X6338Y3870*
X6347Y3861*
X6358Y3854*
X6364Y3853*
Y3848*
X6358Y3846*
X6347Y3840*
X6338Y3831*
X6331Y3819*
X6328Y3807*
Y3794*
X6331Y3781*
X6338Y3770*
X6347Y3761*
X6358Y3754*
X6364Y3753*
Y3748*
X6358Y3746*
X6347Y3740*
X6338Y3731*
X6331Y3719*
X6328Y3707*
Y3694*
X6331Y3681*
X6338Y3670*
X6347Y3661*
X6358Y3654*
X6364Y3653*
Y3648*
X6358Y3646*
X6347Y3640*
X6338Y3631*
X6331Y3619*
X6328Y3607*
Y3594*
X6331Y3581*
X6338Y3570*
X6347Y3561*
X6358Y3554*
X6364Y3553*
Y3548*
X6358Y3546*
X6347Y3540*
X6338Y3531*
X6331Y3519*
X6328Y3507*
Y3496*
X6320Y3488*
X6316Y3487*
X6308Y3484*
X6302Y3479*
X6276Y3454*
X6271Y3447*
X6268Y3439*
X6267Y3431*
X6268Y3423*
X6271Y3415*
X6273Y3413*
Y3305*
X6076Y3108*
X6046*
Y3033*
X6121*
Y3063*
X6321Y3263*
X6326Y3269*
X6329Y3276*
X6333Y3276*
X6334Y3276*
X6338Y3270*
X6347Y3261*
X6358Y3254*
X6364Y3253*
Y3248*
X6358Y3246*
X6347Y3240*
X6338Y3231*
X6331Y3219*
X6328Y3207*
Y3194*
X6331Y3181*
X6338Y3170*
X6347Y3161*
X6358Y3154*
X6364Y3153*
Y3148*
X6358Y3146*
X6347Y3140*
X6338Y3131*
X6331Y3119*
X6328Y3107*
Y3094*
X6331Y3081*
X6338Y3070*
X6347Y3061*
X6358Y3054*
X6364Y3053*
Y3048*
X6358Y3046*
X6347Y3040*
X6338Y3031*
X6331Y3019*
X6328Y3007*
Y2994*
X6331Y2981*
X6338Y2970*
X6347Y2961*
X6358Y2954*
X6364Y2953*
Y2948*
X6358Y2946*
X6347Y2940*
X6340Y2932*
X6313*
X6236Y3009*
Y3069*
X6237Y3070*
X6240Y3079*
Y3088*
X6237Y3097*
X6233Y3105*
X6226Y3112*
X6218Y3116*
X6209Y3119*
X6200*
X6191Y3116*
X6183Y3112*
X6176Y3105*
X6172Y3097*
X6170Y3088*
Y3079*
X6172Y3070*
X6173Y3069*
Y2995*
X6174Y2987*
X6177Y2979*
X6182Y2973*
X6277Y2878*
X6284Y2873*
X6291Y2869*
X6300Y2868*
X6340*
X6347Y2861*
X6358Y2854*
X6364Y2853*
Y2848*
X6358Y2846*
X6347Y2840*
X6338Y2831*
X6331Y2819*
X6328Y2807*
Y2794*
X6331Y2781*
X6338Y2770*
X6347Y2761*
X6358Y2754*
X6371Y2751*
X6384*
X6397Y2754*
X6408Y2761*
X6417Y2770*
X6423Y2781*
X6427Y2794*
Y2807*
X6423Y2819*
X6417Y2831*
X6408Y2840*
X6397Y2846*
X6391Y2848*
Y2853*
X6397Y2854*
X6408Y2861*
X6417Y2870*
X6423Y2881*
X6427Y2894*
Y2907*
X6423Y2919*
X6417Y2931*
X6408Y2940*
X6397Y2946*
X6391Y2948*
Y2953*
X6397Y2954*
X6408Y2961*
X6417Y2970*
X6423Y2981*
X6427Y2994*
Y3007*
X6423Y3019*
X6417Y3031*
X6408Y3040*
X6397Y3046*
X6391Y3048*
Y3053*
X6397Y3054*
X6408Y3061*
X6417Y3070*
X6423Y3081*
X6427Y3094*
Y3107*
X6423Y3119*
X6417Y3131*
X6408Y3140*
X6397Y3146*
X6391Y3148*
Y3153*
X6397Y3154*
X6408Y3161*
X6417Y3170*
X6423Y3181*
X6427Y3194*
Y3207*
X6423Y3219*
X6417Y3231*
X6408Y3240*
X6397Y3246*
X6391Y3248*
Y3253*
X6397Y3254*
X6408Y3261*
X6417Y3270*
X6423Y3281*
X6425Y3288*
X6430Y3287*
Y3228*
X6431Y3221*
X6434Y3215*
X6438Y3209*
X6470Y3178*
Y2806*
X6451Y2787*
X6448Y2786*
X6440Y2783*
X6434Y2778*
X6175Y2519*
X6170Y2513*
X6167Y2505*
X6166Y2497*
Y2473*
X6164Y2470*
X6162Y2461*
Y2452*
X6164Y2443*
X6169Y2435*
X6175Y2429*
X6183Y2424*
X6192Y2422*
X6201*
X6210Y2424*
X6218Y2429*
X6225Y2435*
X6230Y2443*
X6232Y2452*
Y2461*
X6230Y2470*
Y2484*
X6479Y2733*
X6484Y2739*
X6487Y2747*
X6487Y2750*
X6514Y2776*
X6518Y2782*
X6521Y2788*
X6522Y2795*
Y3188*
X6521Y3195*
X6518Y3201*
X6514Y3207*
X6482Y3239*
Y3761*
X6484Y3763*
X6487Y3771*
X6488Y3779*
X6487Y3787*
X6484Y3795*
X6479Y3802*
X6459Y3821*
X6453Y3826*
X6445Y3829*
X6437Y3830*
X6417*
X6417Y3831*
X6408Y3840*
X6397Y3846*
X6391Y3848*
Y3853*
X6397Y3854*
X6408Y3861*
X6417Y3870*
X6423Y3881*
X6427Y3894*
Y3907*
X6423Y3919*
X6417Y3931*
X6408Y3940*
X6397Y3946*
X6391Y3948*
Y3953*
X6397Y3954*
X6408Y3961*
X6417Y3970*
X6423Y3981*
X6427Y3994*
Y4007*
X6423Y4019*
X6417Y4031*
X6408Y4040*
X6397Y4046*
X6391Y4048*
Y4053*
X6397Y4054*
X6408Y4061*
X6417Y4070*
X6423Y4081*
X6427Y4094*
Y4107*
X6423Y4119*
X6417Y4131*
X6408Y4140*
X6401Y4144*
X6400Y4150*
X6401Y4151*
X6427*
Y4245*
X6556*
X6741Y4059*
X6744Y4049*
X6749Y4040*
Y3848*
X6741*
Y3814*
X6714Y3787*
X6604Y3676*
X6600Y3675*
X6592Y3671*
X6587Y3673*
Y3689*
X6629Y3732*
X6634Y3739*
X6636Y3747*
Y3766*
X6636Y3766*
X6639Y3772*
X6640Y3779*
X6639Y3786*
X6638Y3788*
X6641Y3793*
X6644Y3803*
Y3814*
X6641Y3824*
X6636Y3833*
Y4040*
X6641Y4049*
X6644Y4059*
Y4070*
X6641Y4080*
X6636Y4089*
X6628Y4096*
X6619Y4101*
X6609Y4104*
X6599*
X6589Y4101*
X6579Y4096*
X6572Y4089*
X6567Y4080*
X6564Y4070*
Y4059*
X6567Y4049*
X6572Y4040*
Y3833*
X6567Y3824*
X6564Y3814*
Y3803*
X6567Y3793*
X6572Y3784*
X6579Y3777*
X6586Y3773*
X6587Y3771*
X6591Y3765*
X6591Y3765*
Y3756*
X6555Y3720*
X6555Y3720*
X6548Y3717*
X6543Y3713*
X6539Y3708*
X6536Y3702*
X6535Y3695*
Y3250*
X6536Y3243*
X6539Y3237*
X6543Y3231*
X6550Y3224*
Y3186*
X6551Y3180*
X6554Y3173*
X6558Y3168*
X6588Y3138*
Y3077*
X6579Y3073*
X6572Y3065*
X6567Y3056*
X6564Y3046*
Y3036*
X6567Y3026*
X6572Y3017*
Y2809*
X6567Y2800*
X6564Y2790*
Y2780*
X6567Y2770*
X6572Y2761*
X6579Y2753*
X6589Y2748*
X6599Y2745*
X6609*
X6619Y2748*
X6628Y2753*
X6636Y2761*
X6641Y2770*
X6644Y2780*
Y2790*
X6641Y2800*
X6636Y2809*
Y3017*
X6641Y3026*
X6644Y3036*
Y3046*
X6641Y3056*
X6640Y3058*
Y3058*
Y3149*
X6639Y3156*
X6636Y3162*
X6632Y3167*
X6602Y3197*
Y3235*
X6602Y3241*
X6601Y3243*
X6604Y3248*
X6607Y3248*
X6658Y3198*
Y2127*
X6655Y2123*
X6653Y2114*
Y2104*
X6655Y2095*
X6660Y2087*
X6667Y2080*
X6675Y2075*
X6685Y2072*
X6694*
X6704Y2075*
X6712Y2080*
X6719Y2087*
X6724Y2095*
X6726Y2104*
Y2114*
X6724Y2123*
X6721Y2127*
Y3211*
X6720Y3219*
X6717Y3227*
X6712Y3234*
X6650Y3295*
Y3323*
X6587*
Y3609*
X6592Y3611*
X6600Y3607*
X6609Y3605*
X6618*
X6628Y3607*
X6636Y3612*
X6643Y3619*
X6648Y3627*
X6649Y3631*
X6759Y3741*
X6786Y3769*
X6821*
Y3848*
X6813*
Y4040*
X6818Y4049*
X6821Y4059*
Y4070*
X6818Y4080*
X6813Y4089*
X6805Y4096*
X6796Y4101*
X6787Y4104*
X6592Y4299*
X6585Y4304*
X6577Y4307*
X6569Y4308*
G37*
G36*
X5154Y3481D02*
X5081D01*
Y3408*
X5154*
Y3481*
G37*
G36*
X3553Y4190D02*
X3425D01*
Y4063*
X3457*
Y3646*
X3458Y3638*
X3461Y3630*
X3466Y3623*
X3651Y3438*
Y3428*
X3655Y3416*
X3661Y3404*
X3670Y3395*
X3681Y3389*
X3694Y3386*
X3707*
X3719Y3389*
X3730Y3395*
X3739Y3404*
X3746Y3416*
X3749Y3428*
Y3441*
X3746Y3453*
X3739Y3465*
X3730Y3474*
X3719Y3480*
X3707Y3484*
X3696*
X3521Y3659*
Y4063*
X3553*
Y4190*
G37*
G36*
X6808Y3323D02*
X6735D01*
Y3250*
X6808*
Y3323*
G37*
G36*
X5989Y3108D02*
X5979D01*
X5969Y3105*
X5961Y3100*
X5954Y3093*
X5949Y3085*
X5946Y3075*
Y3065*
X5949Y3056*
X5954Y3047*
X5961Y3040*
X5969Y3035*
X5979Y3033*
X5989*
X5998Y3035*
X6007Y3040*
X6014Y3047*
X6019Y3056*
X6021Y3065*
Y3075*
X6019Y3085*
X6014Y3093*
X6007Y3100*
X5998Y3105*
X5989Y3108*
G37*
G36*
X5101D02*
X5091D01*
X5082Y3105*
X5073Y3100*
X5066Y3093*
X5061Y3085*
X5059Y3075*
Y3065*
X5061Y3056*
X5066Y3047*
X5073Y3040*
X5082Y3035*
X5091Y3033*
X5101*
X5111Y3035*
X5119Y3040*
X5126Y3047*
X5131Y3056*
X5134Y3065*
Y3075*
X5131Y3085*
X5126Y3093*
X5119Y3100*
X5111Y3105*
X5101Y3108*
G37*
G36*
X4418D02*
X4343D01*
Y3033*
X4418*
Y3108*
G37*
G36*
X6776Y3678D02*
X6766D01*
X6757Y3675*
X6749Y3671*
X6742Y3664*
X6737Y3655*
X6735Y3646*
Y3636*
X6737Y3627*
X6742Y3619*
X6749Y3612*
X6757Y3607*
X6761Y3606*
X6818Y3549*
Y3123*
X6775Y3080*
X6766Y3078*
X6757Y3073*
X6749Y3065*
X6744Y3056*
X6741Y3046*
Y3036*
X6744Y3026*
X6749Y3017*
Y2825*
X6741*
Y2745*
X6821*
Y2825*
X6813*
Y3017*
X6818Y3026*
X6821Y3035*
X6872Y3087*
X6878Y3094*
X6881Y3101*
X6882Y3110*
Y3562*
X6881Y3571*
X6878Y3578*
X6872Y3585*
X6806Y3651*
X6805Y3655*
X6800Y3664*
X6794Y3671*
X6785Y3675*
X6776Y3678*
G37*
G36*
X6796Y2556D02*
X6786D01*
X6777Y2553*
X6768Y2548*
X6762Y2542*
X6757Y2533*
X6754Y2524*
Y2514*
X6757Y2505*
X6762Y2497*
X6768Y2490*
X6777Y2485*
X6786Y2483*
X6796*
X6805Y2485*
X6813Y2490*
X6820Y2497*
X6825Y2505*
X6827Y2514*
Y2524*
X6825Y2533*
X6820Y2542*
X6813Y2548*
X6805Y2553*
X6796Y2556*
G37*
G36*
X6473D02*
X6400D01*
Y2483*
X6473*
Y2556*
G37*
G36*
X5695Y2557D02*
X5685D01*
X5676Y2554*
X5667Y2549*
X5660Y2542*
X5655Y2534*
X5652Y2524*
Y2514*
X5655Y2505*
X5660Y2496*
X5667Y2489*
X5676Y2484*
X5685Y2482*
X5695*
X5705Y2484*
X5713Y2489*
X5720Y2496*
X5725Y2505*
X5728Y2514*
Y2524*
X5725Y2534*
X5720Y2542*
X5713Y2549*
X5705Y2554*
X5695Y2557*
G37*
G36*
X4571D02*
X4561D01*
X4552Y2554*
X4543Y2549*
X4536Y2542*
X4531Y2534*
X4529Y2524*
Y2514*
X4531Y2505*
X4536Y2496*
X4543Y2489*
X4552Y2484*
X4561Y2482*
X4571*
X4581Y2484*
X4589Y2489*
X4596Y2496*
X4601Y2505*
X4604Y2514*
Y2524*
X4601Y2534*
X4596Y2542*
X4589Y2549*
X4581Y2554*
X4571Y2557*
G37*
G36*
X4269Y2453D02*
X4258D01*
X4248Y2450*
X4239Y2445*
X4232Y2437*
X4226Y2428*
X4224Y2418*
Y2408*
X4226Y2398*
X4232Y2389*
X4239Y2381*
X4248Y2376*
X4258Y2373*
X4269*
X4279Y2376*
X4288Y2381*
X4295Y2389*
X4300Y2398*
X4303Y2408*
Y2418*
X4300Y2428*
X4295Y2437*
X4288Y2445*
X4279Y2450*
X4269Y2453*
G37*
G36*
X5695Y2321D02*
X5685D01*
X5676Y2318*
X5667Y2313*
X5660Y2306*
X5655Y2297*
X5652Y2288*
Y2278*
X5654Y2271*
X5650Y2268*
X5627Y2292*
X5625Y2297*
X5620Y2306*
X5613Y2313*
X5605Y2318*
X5595Y2321*
X5585*
X5576Y2318*
X5567Y2313*
X5560Y2306*
X5555Y2297*
X5552Y2288*
Y2278*
X5555Y2268*
X5560Y2260*
X5567Y2253*
X5576Y2248*
X5581Y2246*
X5729Y2099*
X5736Y2094*
X5743Y2091*
X5751Y2090*
X6271*
X6273Y2088*
X6282Y2082*
X6293Y2079*
X6304*
X6315Y2082*
X6325Y2088*
X6333Y2095*
X6338Y2105*
X6341Y2116*
Y2127*
X6338Y2138*
X6333Y2148*
X6325Y2156*
X6315Y2161*
X6304Y2164*
X6293*
X6282Y2161*
X6273Y2156*
X6271Y2153*
X5765*
X5675Y2243*
X5678Y2247*
X5685Y2245*
X5695*
X5705Y2248*
X5713Y2253*
X5720Y2260*
X5725Y2268*
X5728Y2278*
Y2288*
X5725Y2297*
X5720Y2306*
X5713Y2313*
X5705Y2318*
X5695Y2321*
G37*
G36*
X5234Y3108D02*
X5159D01*
Y3033*
X5164*
Y2926*
X5056Y2818*
X5051Y2811*
X5048Y2803*
X5047Y2795*
Y2408*
X5018Y2379*
X5013Y2372*
X5009Y2364*
X5008Y2356*
Y2298*
X5007Y2296*
X5005Y2287*
Y2278*
X5007Y2269*
X5012Y2261*
X5018Y2254*
X5026Y2250*
X5035Y2247*
X5044*
X5053Y2250*
X5061Y2254*
X5068Y2261*
X5072Y2269*
X5075Y2278*
Y2287*
X5072Y2296*
X5072Y2296*
Y2343*
X5101Y2372*
X5106Y2379*
X5109Y2386*
X5110Y2395*
Y2782*
X5219Y2890*
X5224Y2897*
X5227Y2905*
X5228Y2913*
Y3033*
X5234*
Y3108*
G37*
G36*
X5795Y2321D02*
X5785D01*
X5776Y2318*
X5767Y2313*
X5760Y2306*
X5755Y2297*
X5752Y2288*
Y2278*
X5755Y2268*
X5760Y2260*
X5767Y2253*
X5776Y2248*
X5785Y2245*
X5795*
X5805Y2248*
X5813Y2253*
X5820Y2260*
X5825Y2268*
X5828Y2278*
Y2288*
X5825Y2297*
X5820Y2306*
X5813Y2313*
X5805Y2318*
X5795Y2321*
G37*
G36*
X4604Y4486D02*
X4529D01*
Y4411*
X4559*
X4838Y4132*
Y2437*
X4833Y2428*
X4830Y2418*
Y2408*
X4833Y2398*
X4838Y2389*
X4845Y2381*
X4849Y2379*
Y2230*
X4851Y2221*
X4854Y2214*
X4859Y2207*
X4884Y2182*
X4891Y2177*
X4899Y2173*
X4907Y2172*
X5077*
X5082Y2169*
X5091Y2167*
X5101*
X5111Y2169*
X5119Y2174*
X5126Y2181*
X5131Y2190*
X5134Y2199*
Y2209*
X5131Y2219*
X5126Y2227*
X5119Y2234*
X5111Y2239*
X5101Y2242*
X5091*
X5082Y2239*
X5077Y2236*
X4920*
X4913Y2243*
Y2397*
X4912Y2405*
X4909Y2412*
Y2418*
X4907Y2428*
X4902Y2437*
Y4145*
X4900Y4153*
X4897Y4161*
X4892Y4168*
X4604Y4456*
Y4486*
G37*
G36*
X4670Y3610D02*
X4660D01*
X4650Y3607*
X4640Y3602*
X4633Y3595*
X4628Y3586*
X4625Y3576*
Y3565*
X4628Y3555*
X4633Y3546*
X4640Y3539*
X4650Y3533*
X4659Y3531*
X4694Y3496*
Y2557*
X4629*
Y2482*
X4689*
X4692Y2478*
X4692Y2477*
Y1989*
X4687Y1988*
X4682Y1996*
X4673Y2005*
X4663Y2011*
X4651Y2014*
X4644*
X4500Y2158*
Y3531*
X4508*
Y3610*
X4428*
Y3531*
X4436*
Y2145*
X4437Y2137*
X4440Y2129*
X4445Y2123*
X4599Y1969*
Y1962*
X4602Y1950*
X4608Y1940*
X4617Y1931*
X4627Y1925*
X4639Y1922*
X4651*
X4663Y1925*
X4673Y1931*
X4682Y1940*
X4687Y1948*
X4692Y1947*
Y1469*
X4646Y1423*
X4639*
X4627Y1420*
X4617Y1414*
X4608Y1405*
X4602Y1395*
X4599Y1383*
Y1371*
X4602Y1359*
X4608Y1349*
X4617Y1340*
X4627Y1334*
X4639Y1331*
X4651*
X4663Y1334*
X4673Y1340*
X4682Y1349*
X4688Y1359*
X4691Y1371*
Y1378*
X4746Y1433*
X4752Y1440*
X4755Y1447*
X4756Y1456*
Y2469*
X4756Y2470*
X4758Y2479*
Y3510*
X4756Y3518*
X4753Y3526*
X4748Y3532*
X4704Y3576*
X4702Y3586*
X4697Y3595*
X4689Y3602*
X4680Y3607*
X4670Y3610*
G37*
G36*
X6694Y1847D02*
X6685D01*
X6675Y1844*
X6667Y1839*
X6660Y1832*
X6655Y1824*
X6653Y1815*
Y1805*
X6655Y1796*
X6660Y1787*
X6667Y1781*
X6675Y1776*
X6685Y1773*
X6694*
X6704Y1776*
X6712Y1781*
X6719Y1787*
X6724Y1796*
X6726Y1805*
Y1815*
X6724Y1824*
X6719Y1832*
X6712Y1839*
X6704Y1844*
X6694Y1847*
G37*
G36*
X3865Y4601D02*
X3855Y4599D01*
X3845Y4595*
X3837Y4589*
X3830Y4580*
X3826Y4571*
X3825Y4560*
Y4500*
X3826Y4490*
X3830Y4480*
X3833Y4476*
Y4423*
X3834Y4415*
X3838Y4407*
X3843Y4401*
X4135Y4108*
Y4041*
X4134Y4040*
X4129Y4031*
X4126Y4021*
Y4020*
X3993Y3886*
X3988Y3880*
X3984Y3872*
X3983Y3864*
Y1587*
X3819Y1423*
X3812*
X3800Y1420*
X3790Y1414*
X3781Y1405*
X3775Y1395*
X3772Y1383*
Y1371*
X3775Y1359*
X3781Y1349*
X3790Y1340*
X3800Y1334*
X3812Y1331*
X3824*
X3836Y1334*
X3846Y1340*
X3855Y1349*
X3861Y1359*
X3864Y1371*
Y1378*
X4038Y1552*
X4043Y1558*
X4046Y1566*
X4047Y1574*
Y3850*
X4171Y3975*
X4172*
X4182Y3978*
X4192Y3983*
X4199Y3990*
X4205Y4000*
X4207Y4010*
Y4021*
X4205Y4031*
X4199Y4040*
X4199Y4041*
Y4122*
X4198Y4130*
X4194Y4137*
X4189Y4144*
X3897Y4436*
Y4476*
X3900Y4480*
X3904Y4490*
X3906Y4500*
Y4560*
X3904Y4571*
X3900Y4580*
X3894Y4589*
X3885Y4595*
X3876Y4599*
X3865Y4601*
G37*
G36*
X6304Y1857D02*
X6293D01*
X6282Y1854*
X6273Y1848*
X6265Y1841*
X6259Y1831*
X6256Y1820*
Y1817*
X5652Y1213*
X5336*
Y1218*
X5261*
Y1143*
X5336*
Y1149*
X5665*
X5673Y1150*
X5681Y1153*
X5687Y1158*
X6301Y1772*
X6304*
X6315Y1775*
X6325Y1780*
X6333Y1788*
X6338Y1798*
X6341Y1809*
Y1820*
X6338Y1831*
X6333Y1841*
X6325Y1848*
X6315Y1854*
X6304Y1857*
G37*
G36*
X5201Y1512D02*
X5192D01*
X5182Y1510*
X5174Y1505*
X5167Y1498*
X5162Y1490*
X5160Y1481*
Y1471*
X5162Y1462*
X5164Y1458*
Y1200*
X5161Y1195*
X5159Y1186*
Y1176*
X5161Y1166*
X5166Y1158*
X5173Y1151*
X5182Y1146*
X5191Y1143*
X5201*
X5211Y1146*
X5219Y1151*
X5226Y1158*
X5231Y1166*
X5234Y1176*
Y1186*
X5231Y1195*
X5228Y1200*
Y1458*
X5230Y1462*
X5233Y1471*
Y1481*
X5230Y1490*
X5226Y1498*
X5219Y1505*
X5210Y1510*
X5201Y1512*
G37*
G36*
X5334Y2242D02*
X5259D01*
Y2167*
X5263*
Y2159*
X5071Y1967*
X5066Y1960*
X5063Y1953*
X5062Y1944*
Y1200*
X5059Y1195*
X5056Y1186*
Y1176*
X5059Y1166*
X5064Y1158*
X5071Y1151*
X5079Y1146*
X5089Y1143*
X5099*
X5108Y1146*
X5117Y1151*
X5124Y1158*
X5129Y1166*
X5132Y1176*
Y1186*
X5129Y1195*
X5126Y1200*
Y1931*
X5317Y2123*
X5323Y2129*
X5326Y2137*
X5327Y2145*
Y2167*
X5334*
Y2242*
G37*
G36*
X7014Y1171D02*
X7001D01*
X6987Y1168*
X6975Y1163*
X6963Y1156*
X6954Y1146*
X6946Y1135*
X6941Y1122*
X6938Y1109*
Y1095*
X6941Y1082*
X6946Y1069*
X6954Y1058*
X6963Y1048*
X6975Y1041*
X6987Y1035*
X7001Y1033*
X7014*
X7028Y1035*
X7040Y1041*
X7051Y1048*
X7061Y1058*
X7069Y1069*
X7074Y1082*
X7076Y1095*
Y1109*
X7074Y1122*
X7069Y1135*
X7061Y1146*
X7051Y1156*
X7040Y1163*
X7028Y1168*
X7014Y1171*
G37*
G36*
X3313D02*
X3300D01*
X3286Y1168*
X3274Y1163*
X3263Y1156*
X3253Y1146*
X3245Y1135*
X3240Y1122*
X3238Y1109*
Y1095*
X3240Y1082*
X3245Y1069*
X3253Y1058*
X3263Y1048*
X3274Y1041*
X3286Y1035*
X3300Y1033*
X3313*
X3327Y1035*
X3339Y1041*
X3351Y1048*
X3360Y1058*
X3368Y1069*
X3373Y1082*
X3376Y1095*
Y1109*
X3373Y1122*
X3368Y1135*
X3360Y1146*
X3351Y1156*
X3339Y1163*
X3327Y1168*
X3313Y1171*
G37*
%LNpcb2-3*%
%LPD*%
G36*
X5564Y3854D02*
Y3697D01*
X5565Y3690*
X5565Y3690*
X5560Y3688*
X5449Y3799*
X5449Y3802*
X5446Y3809*
X5441Y3816*
X5434Y3821*
X5426Y3824*
X5420Y3825*
X5417Y3831*
X5408Y3840*
X5397Y3846*
X5391Y3848*
Y3853*
X5397Y3854*
X5408Y3861*
X5415Y3868*
X5549*
X5564Y3854*
G37*
G36*
X6347Y4061D02*
X6358Y4054D01*
X6364Y4053*
Y4048*
X6358Y4046*
X6347Y4040*
X6340Y4032*
X6334*
X6325Y4031*
X6318Y4028*
X6311Y4023*
X6188Y3900*
X6183Y3893*
X6180Y3886*
X6179Y3877*
Y3321*
X6127Y3269*
X6101*
X6100Y3274*
X6105Y3277*
X6111Y3284*
X6116Y3292*
X6119Y3302*
Y3311*
X6116Y3321*
X6114Y3324*
Y3525*
X6116Y3529*
X6119Y3538*
Y3548*
X6116Y3557*
X6114Y3561*
Y3761*
X6116Y3765*
X6119Y3774*
Y3784*
X6116Y3793*
X6114Y3797*
Y3854*
X6329Y4068*
X6340*
X6347Y4061*
G37*
G54D13*
X7007Y1102D03*
G54D30*
X4167Y4015D03*
G54D31*
X4966Y4015D03*
G54D34*
X3489Y4376D03*
G54D35*
X3489Y4126D03*
G54D37*
X6456Y2755D02*
X6496Y2795D01*
Y3188*
X6576Y3186D02*
Y3235D01*
X6604Y3048D02*
X6614Y3058D01*
X6561Y3250D02*
X6576Y3235D01*
Y3186D02*
X6614Y3149D01*
Y3058D02*
Y3149D01*
X6604Y3041D02*
Y3048D01*
X6456Y3228D02*
X6496Y3188D01*
X6456Y3228D02*
Y3779D01*
X6561Y3250D02*
Y3695D01*
X5511Y2013D02*
Y2440D01*
X5401Y2035D02*
Y2487D01*
X6299Y3285D02*
Y3431D01*
X5590Y3697D02*
X5618Y3669D01*
X5590Y3697D02*
Y3873D01*
Y2677D02*
Y3585D01*
X5548Y3627D02*
X5590Y3585D01*
X5548Y3627D02*
Y3664D01*
X5418Y3794D02*
X5548Y3664D01*
X5485Y2729D02*
Y3602D01*
X5433Y2677D02*
X5485Y2729D01*
X5620Y3667D02*
X5669Y3618D01*
Y3107D02*
Y3618D01*
X5433Y2677D02*
D01*
X5220Y4543D02*
X5670Y4093D01*
Y3721D02*
Y4093D01*
X6604Y3809D02*
X6609Y3803D01*
Y3784D02*
Y3803D01*
Y3784D02*
X6614Y3779D01*
X5728Y3779D02*
Y4343D01*
G54D38*
X6198Y2497D02*
X6456Y2755D01*
X6197Y2457D02*
X6198Y2458D01*
Y2497*
X6437Y3799D02*
X6456Y3779D01*
X6379Y3799D02*
X6437D01*
X6377Y3800D02*
X6379Y3799D01*
X6220Y2283D02*
X6299D01*
X6456Y2125*
X6062Y2440D02*
X6220Y2283D01*
X6456Y1993D02*
Y2125D01*
X5511Y2440D02*
X5590Y2519D01*
X5511Y2013D02*
X5556Y1968D01*
X5196Y1830D02*
X5401Y2035D01*
Y2487D02*
X5590Y2677D01*
X6084Y3070D02*
X6299Y3285D01*
Y3431D02*
X6324Y3456D01*
X6211Y3308D02*
Y3877D01*
X6141Y3238D02*
X6211Y3308D01*
Y3877D02*
X6334Y4000D01*
X6324Y3456D02*
X6334D01*
X5563Y3900D02*
X5590Y3873D01*
X5405Y3683D02*
X5485Y3602D01*
X5377Y3700D02*
X5387D01*
X5405Y3683*
X5405*
X5618Y3669D02*
X5620Y3667D01*
X5384Y3794D02*
X5418D01*
X5377Y3800D02*
X5384Y3794D01*
X5669Y3107D02*
X5890Y2886D01*
X5196Y2440D02*
X5433Y2677D01*
X5220Y4543D02*
Y4564D01*
X5218Y4566D02*
X5220Y4564D01*
X6205Y2995D02*
X6300Y2900D01*
X6205Y2995D02*
Y3084D01*
X5040Y2282D02*
X5040Y2283D01*
Y2356*
X4881Y2230D02*
Y2397D01*
Y2230D02*
X4907Y2204D01*
X5096*
X4870Y2409D02*
Y4145D01*
Y2409D02*
X4881Y2397D01*
X5040Y2356D02*
X5079Y2395D01*
Y2795*
X4724Y1456D02*
Y2477D01*
X4726Y2479*
Y3510*
X4665Y3570D02*
X4726Y3510D01*
X4645Y1377D02*
X4724Y1456D01*
X5556Y1968D02*
X6431D01*
X6456Y1993*
X6062Y2440D02*
Y2834D01*
X5905Y2992D02*
X6062Y2834D01*
X5905Y2992D02*
Y3110D01*
X6033Y3238*
X5295Y2203D02*
X5296Y2204D01*
X5094Y1181D02*
Y1944D01*
X5295Y2145*
Y2203*
X5196Y2913D02*
Y3070D01*
X5079Y2795D02*
X5196Y2913D01*
Y2204D02*
Y2440D01*
X5670Y3721D02*
X5823Y3568D01*
X4960Y4330D02*
X5118Y4173D01*
Y3799D02*
Y4173D01*
X4960Y4509D02*
X5018Y4566D01*
X4960Y4330D02*
Y4509D01*
X5118Y4409D02*
X5321Y4205D01*
X5373*
X5118Y4409D02*
Y4566D01*
X5373Y4205D02*
X5377Y4200D01*
X3883Y4803D02*
X4165D01*
X6033Y3238D02*
X6141D01*
X6334Y4000D02*
X6377D01*
X5823Y3466D02*
Y3568D01*
X6300Y2900D02*
X6377D01*
X5751Y2122D02*
X6299D01*
X5590Y2283D02*
X5751Y2122D01*
X6690Y2109D02*
Y3211D01*
X6614Y3287D02*
X6690Y3211D01*
X4566Y4448D02*
X4870Y4145D01*
X6604Y2785D02*
Y3041D01*
Y3809D02*
Y4064D01*
X6315Y4100D02*
X6377D01*
X6082Y3867D02*
X6315Y4100D01*
X6082Y3779D02*
Y3867D01*
Y3543D02*
Y3779D01*
Y3307D02*
Y3543D01*
X5299Y1181D02*
X5665D01*
X6299Y1814*
X4280Y3070D02*
Y4516D01*
X4488Y4724*
X5347*
X5728Y4343*
X6334Y3456D02*
X6377Y3500D01*
X5377Y3900D02*
X5563D01*
X5890Y2283D02*
Y2886D01*
X5196Y1181D02*
Y1476D01*
X6771Y3641D02*
X6850Y3562D01*
Y3110D02*
Y3562D01*
X6781Y3041D02*
X6850Y3110D01*
X6781Y2785D02*
Y3041D01*
X5881Y3859D02*
X6299Y4277D01*
X6569*
X6781Y4064*
Y3809D02*
Y4064D01*
X6737Y3764D02*
X6781Y3809D01*
X6614Y3641D02*
X6737Y3764D01*
X3489Y3646D02*
Y4126D01*
Y3646D02*
X3700Y3435D01*
Y2086D02*
Y2549D01*
Y2086D02*
X3818Y1968D01*
X3700Y2549D02*
X3858Y2706D01*
Y4173*
X3700Y4330D02*
X3858Y4173D01*
X3700Y4330D02*
Y4620D01*
X3883Y4803*
X4165Y4760D02*
Y4803D01*
X3865Y4423D02*
Y4530D01*
Y4423D02*
X4167Y4122D01*
Y4015D02*
Y4122D01*
X4015Y3864D02*
X4167Y4015D01*
X4015Y1574D02*
Y3864D01*
X3818Y1377D02*
X4015Y1574D01*
X4468Y2145D02*
X4645Y1968D01*
X4468Y2145D02*
Y3570D01*
G54D39*
X6614Y3747D02*
Y3779D01*
X6561Y3695D02*
X6614Y3747D01*
G54D40*
X5377Y2800D03*
Y2900D03*
Y3000D03*
Y3100D03*
Y3200D03*
Y3500D03*
Y3600D03*
Y4000D03*
Y4100D03*
X6377Y2800D03*
Y3000D03*
Y3100D03*
Y3600D03*
Y3700D03*
Y3900D03*
X5377Y4200D03*
Y3900D03*
Y3800D03*
Y3700D03*
Y3400D03*
Y3300D03*
X6377Y2900D03*
Y3200D03*
Y3300D03*
Y3400D03*
Y3500D03*
Y3800D03*
Y4000D03*
Y4100D03*
G54D41*
X6377Y4200D03*
G54D42*
X3818Y1377D03*
X4645D03*
Y1968D03*
G54D43*
X3818Y1968D03*
G54D44*
X4468Y3570D03*
X6781Y3809D03*
Y2785D03*
G54D45*
X4665Y3570D03*
X4263Y2413D03*
X4870D03*
X6604Y4064D03*
Y3809D03*
X6781Y4064D03*
X6604Y3041D03*
Y2785D03*
X6781Y3041D03*
G54D46*
X4165Y4760D03*
X3865Y4530D03*
G54D47*
X5299Y1181D03*
X4566Y4448D03*
G54D48*
X5094Y1181D03*
X5196D03*
X5218Y4566D03*
X5118D03*
X5318D03*
X5096Y3070D03*
X4566Y2519D03*
Y4645D03*
X5590Y2283D03*
X5790D03*
X5690D03*
X5096Y2204D03*
X5196D03*
X5690Y2519D03*
X5984Y3070D03*
X4280D03*
G54D49*
X5196Y1830D03*
X6614Y3287D03*
X6771D03*
X5118Y3444D03*
G54D50*
X5196Y1476D03*
X6614Y3641D03*
X6771D03*
X6791Y2519D03*
X5118Y3799D03*
X6082Y3307D03*
Y3543D03*
Y3779D03*
G54D51*
X5018Y4566D03*
X5196Y3070D03*
X4666Y2519D03*
X5890Y2283D03*
X5296Y2204D03*
X5590Y2519D03*
X6084Y3070D03*
X4380D03*
G54D52*
X6299Y1814D03*
Y2122D03*
G54D53*
X3700Y2549D03*
Y3435D03*
G54D54*
X6437Y2519D03*
X5728Y3307D03*
Y3543D03*
Y3779D03*
G54D55*
X6690Y1810D03*
Y2109D03*
G54D56*
X6205Y3084D03*
X5040Y2282D03*
X6197Y2457D03*
X5823Y3466D03*
X5881Y3859D03*
M02*