%FSLAX23Y23*%
%MOIN*%
%SFA1B1*%

%IPPOS*%
%ADD10C,0.007870*%
%ADD11C,0.005000*%
%ADD12C,0.010000*%
%ADD57C,0.006000*%
%ADD59C,0.009840*%
%ADD60C,0.118110*%
%ADD61C,0.002000*%
%ADD62C,0.005910*%
%LNpcb2-1*%
%LPD*%
G36*
X6632Y1698D02*
X6632D01*
Y1660*
X6632*
Y1652*
X6416*
Y1652*
X6414*
Y1652*
X6405*
Y1652*
X6403*
Y1652*
X6401*
Y1651*
X6401*
Y1651*
X6400*
Y1651*
X6400*
Y1651*
X6399*
Y1651*
X6399*
Y1650*
X6399*
Y1650*
X6398*
Y1650*
X6398*
Y1650*
X6398*
Y1650*
X6398*
Y1650*
X6398*
Y1649*
X6397*
Y1649*
X6397*
Y1649*
X6397*
Y1649*
X6397*
Y1649*
X6397*
Y1648*
X6396*
Y1648*
X6396*
Y1648*
X6396*
Y1648*
X6396*
Y1647*
X6396*
Y1647*
X6396*
Y1646*
X6395*
Y1646*
X6395*
Y1645*
X6395*
Y1558*
X6395*
Y1555*
X6395*
Y1553*
X6395*
Y1552*
X6395*
Y1552*
X6396*
Y1551*
X6396*
Y1551*
X6396*
Y1550*
X6396*
Y1550*
X6396*
Y1550*
X6396*
Y1550*
X6397*
Y1549*
X6397*
Y1549*
X6397*
Y1549*
X6397*
Y1549*
X6397*
Y1549*
X6398*
Y1548*
X6398*
Y1548*
X6398*
Y1548*
X6398*
Y1548*
X6398*
Y1548*
X6399*
Y1547*
X6399*
Y1547*
X6399*
Y1547*
X6400*
Y1547*
X6400*
Y1547*
X6401*
Y1547*
X6401*
Y1546*
X6402*
Y1546*
X6403*
Y1546*
X6406*
Y1546*
X6632*
Y1546*
X6633*
Y1508*
X6632*
Y1500*
X6403*
Y1500*
X6398*
Y1500*
X6396*
Y1500*
X6394*
Y1500*
X6392*
Y1501*
X6390*
Y1501*
X6389*
Y1501*
X6388*
Y1501*
X6387*
Y1501*
X6386*
Y1501*
X6385*
Y1502*
X6384*
Y1502*
X6383*
Y1502*
X6382*
Y1502*
X6381*
Y1502*
X6381*
Y1503*
X6380*
Y1503*
X6379*
Y1503*
X6379*
Y1503*
X6378*
Y1503*
X6377*
Y1503*
X6377*
Y1504*
X6376*
Y1504*
X6376*
Y1504*
X6375*
Y1504*
X6375*
Y1504*
X6374*
Y1505*
X6374*
Y1505*
X6373*
Y1505*
X6373*
Y1505*
X6372*
Y1505*
X6372*
Y1505*
X6371*
Y1506*
X6371*
Y1506*
X6371*
Y1506*
X6370*
Y1506*
X6370*
Y1506*
X6370*
Y1507*
X6369*
Y1507*
X6369*
Y1507*
X6368*
Y1507*
X6368*
Y1507*
X6368*
Y1508*
X6367*
Y1508*
X6367*
Y1508*
X6367*
Y1508*
X6366*
Y1508*
X6366*
Y1508*
X6366*
Y1509*
X6365*
Y1509*
X6365*
Y1509*
X6365*
Y1509*
X6365*
Y1509*
X6364*
Y1510*
X6364*
Y1510*
X6364*
Y1510*
X6363*
Y1510*
X6363*
Y1510*
X6363*
Y1510*
X6363*
Y1511*
X6363*
Y1511*
X6362*
Y1511*
X6362*
Y1511*
X6362*
Y1511*
X6361*
Y1512*
X6361*
Y1512*
X6361*
Y1512*
X6361*
Y1512*
X6361*
Y1512*
X6360*
Y1512*
X6360*
Y1513*
X6360*
Y1513*
X6360*
Y1513*
X6360*
Y1513*
X6359*
Y1513*
X6359*
Y1514*
X6359*
Y1514*
X6359*
Y1514*
X6359*
Y1514*
X6358*
Y1514*
X6358*
Y1514*
X6358*
Y1515*
X6358*
Y1515*
X6358*
Y1515*
X6357*
Y1515*
X6357*
Y1515*
X6357*
Y1516*
X6357*
Y1516*
X6357*
Y1516*
X6357*
Y1516*
X6356*
Y1516*
X6356*
Y1517*
X6356*
Y1517*
X6356*
Y1517*
X6356*
Y1517*
X6355*
Y1518*
X6355*
Y1518*
X6355*
Y1518*
X6355*
Y1518*
X6355*
Y1519*
X6354*
Y1519*
X6354*
Y1519*
X6354*
Y1519*
X6354*
Y1520*
X6354*
Y1520*
X6354*
Y1520*
X6353*
Y1520*
X6353*
Y1521*
X6353*
Y1521*
X6353*
Y1521*
X6353*
Y1522*
X6352*
Y1522*
X6352*
Y1522*
X6352*
Y1523*
X6352*
Y1523*
X6352*
Y1523*
X6352*
Y1523*
X6351*
Y1524*
X6351*
Y1524*
X6351*
Y1525*
X6351*
Y1525*
X6351*
Y1525*
X6350*
Y1526*
X6350*
Y1526*
X6350*
Y1527*
X6350*
Y1527*
X6350*
Y1527*
X6350*
Y1528*
X6349*
Y1528*
X6349*
Y1529*
X6349*
Y1529*
X6349*
Y1530*
X6349*
Y1531*
X6348*
Y1531*
X6348*
Y1532*
X6348*
Y1533*
X6348*
Y1533*
X6348*
Y1534*
X6348*
Y1535*
X6347*
Y1536*
X6347*
Y1537*
X6347*
Y1538*
X6347*
Y1539*
X6347*
Y1541*
X6346*
Y1543*
X6346*
Y1545*
X6346*
Y1551*
X6346*
Y1556*
X6346*
Y1639*
X6346*
Y1647*
X6346*
Y1653*
X6346*
Y1655*
X6346*
Y1657*
X6347*
Y1659*
X6347*
Y1660*
X6347*
Y1661*
X6347*
Y1662*
X6347*
Y1663*
X6348*
Y1664*
X6348*
Y1665*
X6348*
Y1665*
X6348*
Y1666*
X6348*
Y1667*
X6348*
Y1667*
X6349*
Y1668*
X6349*
Y1669*
X6349*
Y1669*
X6349*
Y1670*
X6349*
Y1670*
X6350*
Y1671*
X6350*
Y1671*
X6350*
Y1671*
X6350*
Y1672*
X6350*
Y1672*
X6350*
Y1673*
X6351*
Y1673*
X6351*
Y1673*
X6351*
Y1674*
X6351*
Y1674*
X6351*
Y1674*
X6352*
Y1675*
X6352*
Y1675*
X6352*
Y1676*
X6352*
Y1676*
X6352*
Y1676*
X6352*
Y1676*
X6353*
Y1677*
X6353*
Y1677*
X6353*
Y1677*
X6353*
Y1678*
X6353*
Y1678*
X6354*
Y1678*
X6354*
Y1678*
X6354*
Y1679*
X6354*
Y1679*
X6354*
Y1679*
X6354*
Y1679*
X6355*
Y1680*
X6355*
Y1680*
X6355*
Y1680*
X6355*
Y1680*
X6355*
Y1681*
X6356*
Y1681*
X6356*
Y1681*
X6356*
Y1681*
X6356*
Y1681*
X6356*
Y1682*
X6357*
Y1682*
X6357*
Y1682*
X6357*
Y1682*
X6357*
Y1683*
X6357*
Y1683*
X6357*
Y1683*
X6358*
Y1683*
X6358*
Y1683*
X6358*
Y1683*
X6358*
Y1684*
X6358*
Y1684*
X6359*
Y1684*
X6359*
Y1684*
X6359*
Y1684*
X6359*
Y1685*
X6359*
Y1685*
X6359*
Y1685*
X6360*
Y1685*
X6360*
Y1685*
X6360*
Y1685*
X6360*
Y1686*
X6361*
Y1686*
X6361*
Y1686*
X6361*
Y1686*
X6361*
Y1686*
X6361*
Y1687*
X6362*
Y1687*
X6362*
Y1687*
X6362*
Y1687*
X6363*
Y1687*
X6363*
Y1687*
X6363*
Y1688*
X6363*
Y1688*
X6363*
Y1688*
X6364*
Y1688*
X6364*
Y1688*
X6364*
Y1689*
X6365*
Y1689*
X6365*
Y1689*
X6365*
Y1689*
X6365*
Y1689*
X6366*
Y1689*
X6366*
Y1690*
X6366*
Y1690*
X6367*
Y1690*
X6367*
Y1690*
X6367*
Y1690*
X6368*
Y1691*
X6368*
Y1691*
X6368*
Y1691*
X6369*
Y1691*
X6369*
Y1691*
X6370*
Y1692*
X6370*
Y1692*
X6370*
Y1692*
X6371*
Y1692*
X6371*
Y1692*
X6372*
Y1692*
X6372*
Y1693*
X6372*
Y1693*
X6373*
Y1693*
X6373*
Y1693*
X6374*
Y1693*
X6374*
Y1694*
X6375*
Y1694*
X6375*
Y1694*
X6376*
Y1694*
X6376*
Y1694*
X6377*
Y1694*
X6378*
Y1695*
X6378*
Y1695*
X6379*
Y1695*
X6380*
Y1695*
X6380*
Y1695*
X6381*
Y1696*
X6382*
Y1696*
X6383*
Y1696*
X6383*
Y1696*
X6384*
Y1696*
X6385*
Y1696*
X6386*
Y1697*
X6387*
Y1697*
X6388*
Y1697*
X6390*
Y1697*
X6391*
Y1697*
X6393*
Y1698*
X6394*
Y1698*
X6397*
Y1698*
X6400*
Y1698*
X6405*
Y1698*
X6632*
Y1698*
G37*
G36*
X5594Y1601D02*
X5594D01*
Y1600*
X5626*
Y1599*
X5626*
Y1592*
X5626*
Y1597*
X5625*
Y1599*
X5615*
Y1599*
X5614*
Y1599*
X5594*
Y1586*
X5468*
Y1586*
X5468*
Y1619*
X5594*
Y1601*
G37*
G36*
X5626Y1591D02*
X5626D01*
Y1591*
X5626*
Y1591*
G37*
G36*
X5626Y1584D02*
X5626D01*
Y1584*
X5626*
Y1584*
X5626*
Y1576*
X5626*
Y1565*
X5626*
Y1564*
Y1564*
Y1561*
X5626*
Y1561*
X5626*
Y1560*
X5626*
Y1560*
X5627*
Y1560*
X5625*
Y1560*
X5625*
Y1561*
X5625*
Y1562*
X5625*
Y1589*
X5626*
Y1584*
G37*
G36*
X6019Y1500D02*
X5965D01*
Y1500*
X5962*
Y1500*
X5959*
Y1500*
X5957*
Y1500*
X5956*
Y1501*
X5954*
Y1501*
X5953*
Y1501*
X5952*
Y1501*
X5951*
Y1501*
X5950*
Y1501*
X5949*
Y1502*
X5948*
Y1502*
X5947*
Y1502*
X5947*
Y1502*
X5946*
Y1502*
X5945*
Y1503*
X5944*
Y1503*
X5944*
Y1503*
X5943*
Y1503*
X5942*
Y1503*
X5942*
Y1503*
X5941*
Y1504*
X5941*
Y1504*
X5940*
Y1504*
X5940*
Y1504*
X5939*
Y1504*
X5938*
Y1505*
X5938*
Y1505*
X5938*
Y1505*
X5937*
Y1505*
X5937*
Y1505*
X5936*
Y1505*
X5936*
Y1506*
X5935*
Y1506*
X5935*
Y1506*
X5934*
Y1506*
X5934*
Y1506*
X5934*
Y1507*
X5933*
Y1507*
X5933*
Y1507*
X5933*
Y1507*
X5932*
Y1507*
X5932*
Y1508*
X5932*
Y1508*
X5931*
Y1508*
X5931*
Y1508*
X5930*
Y1508*
X5930*
Y1508*
X5930*
Y1509*
X5929*
Y1509*
X5929*
Y1509*
X5929*
Y1509*
X5929*
Y1509*
X5928*
Y1510*
X5928*
Y1510*
X5928*
Y1510*
X5927*
Y1510*
X5927*
Y1510*
X5927*
Y1510*
X5926*
Y1511*
X5926*
Y1511*
X5926*
Y1511*
X5926*
Y1511*
X5925*
Y1511*
X5925*
Y1512*
X5925*
Y1512*
X5925*
Y1512*
X5924*
Y1512*
X5924*
Y1512*
X5924*
Y1512*
X5923*
Y1513*
X5923*
Y1513*
X5923*
Y1513*
X5923*
Y1513*
X5923*
Y1513*
X5922*
Y1514*
X5922*
Y1514*
X5922*
Y1514*
X5921*
Y1514*
X5921*
Y1514*
X5921*
Y1514*
X5921*
Y1515*
X5921*
Y1515*
X5920*
Y1515*
X5920*
Y1515*
X5920*
Y1515*
X5920*
Y1516*
X5919*
Y1516*
X5919*
Y1516*
X5919*
Y1516*
X5919*
Y1516*
X5919*
Y1516*
X5918*
Y1517*
X5918*
Y1517*
X5918*
Y1517*
X5918*
Y1517*
X5918*
Y1517*
X5917*
Y1518*
X5917*
Y1518*
X5917*
Y1518*
X5917*
Y1518*
X5916*
Y1518*
X5916*
Y1519*
X5916*
Y1519*
X5916*
Y1519*
X5916*
Y1519*
X5916*
Y1519*
X5915*
Y1519*
X5915*
Y1520*
X5915*
Y1520*
X5915*
Y1520*
X5914*
Y1520*
X5914*
Y1520*
X5914*
Y1521*
X5914*
Y1521*
X5914*
Y1521*
X5914*
Y1521*
X5913*
Y1521*
X5913*
Y1521*
X5913*
Y1522*
X5913*
Y1522*
X5913*
Y1522*
X5912*
Y1522*
X5912*
Y1523*
X5912*
Y1523*
X5912*
Y1523*
X5912*
Y1523*
X5912*
Y1523*
X5911*
Y1523*
X5911*
Y1524*
X5911*
Y1524*
X5911*
Y1524*
X5911*
Y1524*
X5910*
Y1524*
X5910*
Y1525*
X5910*
Y1525*
X5910*
Y1525*
X5910*
Y1525*
X5910*
Y1525*
X5909*
Y1526*
X5909*
Y1526*
X5909*
Y1526*
X5909*
Y1526*
X5909*
Y1527*
X5908*
Y1527*
X5908*
Y1527*
X5908*
Y1527*
X5908*
Y1527*
X5908*
Y1528*
X5908*
Y1528*
X5907*
Y1528*
X5907*
Y1528*
X5907*
Y1528*
X5907*
Y1529*
X5907*
Y1529*
X5906*
Y1529*
X5906*
Y1529*
X5906*
Y1529*
X5906*
Y1530*
X5906*
Y1530*
X5905*
Y1530*
X5905*
Y1530*
X5905*
Y1531*
X5905*
Y1531*
X5905*
Y1531*
X5905*
Y1531*
X5904*
Y1532*
X5904*
Y1532*
X5904*
Y1532*
X5904*
Y1532*
X5904*
Y1532*
X5903*
Y1532*
X5903*
Y1533*
X5903*
Y1533*
X5903*
Y1533*
X5903*
Y1533*
X5903*
Y1534*
X5902*
Y1534*
X5902*
Y1534*
X5902*
Y1534*
X5902*
Y1534*
X5902*
Y1535*
X5901*
Y1535*
X5901*
Y1535*
X5901*
Y1535*
X5901*
Y1536*
X5901*
Y1536*
X5901*
Y1536*
X5900*
Y1536*
X5900*
Y1536*
X5900*
Y1537*
X5900*
Y1537*
X5900*
Y1537*
X5899*
Y1537*
X5899*
Y1537*
X5899*
Y1538*
X5899*
Y1538*
X5899*
Y1538*
X5899*
Y1538*
X5898*
Y1538*
X5898*
Y1539*
X5898*
Y1539*
X5898*
Y1539*
X5898*
Y1539*
X5897*
Y1540*
X5897*
Y1540*
X5897*
Y1540*
X5897*
Y1540*
X5897*
Y1540*
X5897*
Y1541*
X5896*
Y1541*
X5896*
Y1541*
X5896*
Y1541*
X5896*
Y1542*
X5896*
Y1542*
X5895*
Y1542*
X5895*
Y1542*
X5895*
Y1542*
X5895*
Y1543*
X5895*
Y1543*
X5894*
Y1543*
X5894*
Y1543*
X5894*
Y1543*
X5894*
Y1544*
X5894*
Y1544*
X5894*
Y1544*
X5893*
Y1544*
X5893*
Y1545*
X5893*
Y1545*
X5893*
Y1545*
X5893*
Y1545*
X5892*
Y1545*
X5892*
Y1546*
X5892*
Y1546*
X5892*
Y1546*
X5892*
Y1546*
X5892*
Y1546*
X5891*
Y1547*
X5891*
Y1547*
X5891*
Y1547*
X5891*
Y1547*
X5891*
Y1547*
X5890*
Y1548*
X5890*
Y1548*
X5890*
Y1548*
X5890*
Y1548*
X5890*
Y1549*
X5890*
Y1549*
X5889*
Y1549*
X5889*
Y1549*
X5889*
Y1549*
X5889*
Y1550*
X5889*
Y1550*
X5888*
Y1550*
X5888*
Y1550*
X5888*
Y1550*
X5888*
Y1551*
X5888*
Y1551*
X5888*
Y1551*
X5887*
Y1551*
X5887*
Y1551*
X5887*
Y1552*
X5887*
Y1552*
X5887*
Y1552*
X5886*
Y1552*
X5886*
Y1553*
X5886*
Y1553*
X5886*
Y1553*
X5886*
Y1553*
X5886*
Y1554*
X5885*
Y1554*
X5885*
Y1554*
X5885*
Y1554*
X5885*
Y1554*
X5885*
Y1555*
X5884*
Y1555*
X5884*
Y1555*
X5884*
Y1555*
X5884*
Y1555*
X5884*
Y1556*
X5883*
Y1556*
X5883*
Y1556*
X5883*
Y1556*
X5883*
Y1556*
X5883*
Y1557*
X5883*
Y1557*
X5882*
Y1557*
X5882*
Y1557*
X5882*
Y1558*
X5882*
Y1558*
X5882*
Y1558*
X5881*
Y1558*
X5881*
Y1558*
X5881*
Y1559*
X5881*
Y1559*
X5881*
Y1559*
X5881*
Y1559*
X5880*
Y1559*
X5880*
Y1560*
X5880*
Y1560*
X5880*
Y1560*
X5880*
Y1560*
X5879*
Y1560*
X5879*
Y1561*
X5879*
Y1561*
X5879*
Y1561*
X5879*
Y1561*
X5879*
Y1562*
X5878*
Y1562*
X5878*
Y1562*
X5878*
Y1562*
X5878*
Y1562*
X5878*
Y1563*
X5877*
Y1563*
X5877*
Y1563*
X5877*
Y1563*
X5877*
Y1564*
X5877*
Y1564*
X5877*
Y1564*
X5876*
Y1564*
X5876*
Y1564*
X5876*
Y1565*
X5876*
Y1565*
X5876*
Y1565*
X5875*
Y1565*
X5875*
Y1565*
X5875*
Y1566*
X5875*
Y1566*
X5875*
Y1566*
X5875*
Y1566*
X5874*
Y1567*
X5874*
Y1567*
X5874*
Y1567*
X5874*
Y1567*
X5874*
Y1567*
X5873*
Y1568*
X5873*
Y1568*
X5873*
Y1568*
X5873*
Y1568*
X5873*
Y1569*
X5873*
Y1569*
X5872*
Y1569*
X5872*
Y1569*
X5872*
Y1569*
X5872*
Y1569*
X5872*
Y1570*
X5871*
Y1570*
X5871*
Y1570*
X5871*
Y1570*
X5871*
Y1571*
X5871*
Y1571*
X5870*
Y1571*
X5870*
Y1571*
X5870*
Y1571*
X5870*
Y1572*
X5870*
Y1572*
X5870*
Y1572*
X5869*
Y1572*
X5869*
Y1573*
X5869*
Y1573*
X5869*
Y1573*
X5869*
Y1573*
X5868*
Y1573*
X5868*
Y1574*
X5868*
Y1574*
X5868*
Y1574*
X5868*
Y1574*
X5868*
Y1574*
X5867*
Y1575*
X5867*
Y1575*
X5867*
Y1575*
X5867*
Y1575*
X5867*
Y1575*
X5866*
Y1576*
X5866*
Y1576*
X5866*
Y1576*
X5866*
Y1576*
X5866*
Y1577*
X5866*
Y1577*
X5865*
Y1577*
X5865*
Y1577*
X5865*
Y1577*
X5865*
Y1578*
X5865*
Y1578*
X5864*
Y1578*
X5864*
Y1578*
X5864*
Y1578*
X5864*
Y1579*
X5864*
Y1579*
X5864*
Y1579*
X5863*
Y1579*
X5863*
Y1580*
X5863*
Y1580*
X5863*
Y1580*
X5863*
Y1580*
X5862*
Y1580*
X5862*
Y1581*
X5862*
Y1581*
X5862*
Y1581*
X5862*
Y1581*
X5862*
Y1582*
X5861*
Y1582*
X5861*
Y1582*
X5861*
Y1582*
X5861*
Y1582*
X5861*
Y1583*
X5860*
Y1583*
X5860*
Y1583*
X5860*
Y1583*
X5860*
Y1583*
X5860*
Y1584*
X5859*
Y1584*
X5859*
Y1584*
X5859*
Y1584*
X5859*
Y1584*
X5859*
Y1585*
X5859*
Y1585*
X5858*
Y1585*
X5858*
Y1585*
X5858*
Y1586*
X5858*
Y1586*
X5858*
Y1586*
X5857*
Y1586*
X5857*
Y1586*
X5857*
Y1587*
X5857*
Y1587*
X5857*
Y1587*
X5857*
Y1587*
X5856*
Y1587*
X5856*
Y1588*
X5856*
Y1588*
X5856*
Y1588*
X5856*
Y1588*
X5855*
Y1589*
X5855*
Y1589*
X5855*
Y1589*
X5855*
Y1589*
X5855*
Y1589*
X5855*
Y1590*
X5854*
Y1590*
X5854*
Y1590*
X5854*
Y1590*
X5854*
Y1591*
X5854*
Y1591*
X5853*
Y1591*
X5853*
Y1591*
X5853*
Y1591*
X5853*
Y1592*
X5853*
Y1592*
X5853*
Y1592*
X5852*
Y1592*
X5852*
Y1592*
X5852*
Y1593*
X5852*
Y1593*
X5852*
Y1593*
X5851*
Y1593*
X5851*
Y1593*
X5851*
Y1594*
X5851*
Y1594*
X5851*
Y1594*
X5851*
Y1594*
X5850*
Y1595*
X5850*
Y1595*
X5850*
Y1595*
X5850*
Y1595*
X5850*
Y1595*
X5849*
Y1596*
X5849*
Y1596*
X5849*
Y1596*
X5849*
Y1596*
X5849*
Y1596*
X5848*
Y1597*
X5848*
Y1597*
X5848*
Y1597*
X5848*
Y1597*
X5848*
Y1597*
X5848*
Y1598*
X5847*
Y1598*
X5847*
Y1598*
X5847*
Y1598*
X5847*
Y1599*
X5847*
Y1599*
X5846*
Y1599*
X5846*
Y1599*
X5846*
Y1600*
X5846*
Y1600*
X5846*
Y1600*
X5846*
Y1600*
X5845*
Y1600*
X5845*
Y1601*
X5845*
Y1601*
X5845*
Y1601*
X5845*
Y1601*
X5844*
Y1601*
X5844*
Y1602*
X5844*
Y1602*
X5844*
Y1602*
X5844*
Y1602*
X5844*
Y1602*
X5843*
Y1603*
X5843*
Y1603*
X5843*
Y1603*
X5843*
Y1603*
X5843*
Y1604*
X5842*
Y1604*
X5842*
Y1604*
X5842*
Y1604*
X5842*
Y1604*
X5842*
Y1605*
X5842*
Y1605*
X5841*
Y1605*
X5841*
Y1605*
X5841*
Y1605*
X5841*
Y1606*
X5841*
Y1606*
X5840*
Y1606*
X5840*
Y1606*
X5840*
Y1606*
X5840*
Y1607*
X5840*
Y1607*
X5840*
Y1607*
X5839*
Y1607*
X5839*
Y1608*
X5839*
Y1608*
X5839*
Y1608*
X5839*
Y1608*
X5838*
Y1608*
X5838*
Y1609*
X5838*
Y1609*
X5838*
Y1609*
X5838*
Y1609*
X5837*
Y1610*
X5837*
Y1610*
X5837*
Y1610*
X5837*
Y1610*
X5837*
Y1610*
X5837*
Y1611*
X5836*
Y1611*
X5836*
Y1611*
X5836*
Y1611*
X5836*
Y1611*
X5836*
Y1612*
X5835*
Y1612*
X5835*
Y1612*
X5835*
Y1612*
X5835*
Y1613*
X5835*
Y1613*
X5835*
Y1613*
X5834*
Y1613*
X5834*
Y1613*
X5834*
Y1614*
X5834*
Y1614*
X5834*
Y1614*
X5833*
Y1614*
X5833*
Y1614*
X5833*
Y1615*
X5833*
Y1615*
X5833*
Y1615*
X5833*
Y1615*
X5832*
Y1615*
X5832*
Y1616*
X5832*
Y1616*
X5832*
Y1616*
X5832*
Y1616*
X5831*
Y1617*
X5831*
Y1617*
X5831*
Y1617*
X5831*
Y1617*
X5831*
Y1617*
X5831*
Y1618*
X5830*
Y1618*
X5830*
Y1618*
X5830*
Y1618*
X5830*
Y1619*
X5830*
Y1619*
X5829*
Y1619*
X5829*
Y1619*
X5829*
Y1619*
X5829*
Y1619*
X5829*
Y1620*
X5829*
Y1620*
X5828*
Y1620*
X5828*
Y1620*
X5828*
Y1621*
X5828*
Y1621*
X5828*
Y1621*
X5827*
Y1621*
X5827*
Y1621*
X5827*
Y1622*
X5827*
Y1622*
X5827*
Y1622*
X5827*
Y1622*
X5826*
Y1623*
X5826*
Y1623*
X5826*
Y1623*
X5826*
Y1623*
X5826*
Y1623*
X5825*
Y1624*
X5825*
Y1624*
X5825*
Y1624*
X5825*
Y1624*
X5825*
Y1624*
X5824*
Y1625*
X5824*
Y1625*
X5824*
Y1625*
X5824*
Y1625*
X5824*
Y1626*
X5824*
Y1626*
X5823*
Y1626*
X5823*
Y1626*
X5823*
Y1626*
X5823*
Y1627*
X5823*
Y1627*
X5822*
Y1627*
X5822*
Y1627*
X5822*
Y1628*
X5822*
Y1628*
X5822*
Y1628*
X5822*
Y1628*
X5821*
Y1628*
X5821*
Y1628*
X5821*
Y1629*
X5821*
Y1629*
X5821*
Y1629*
X5820*
Y1629*
X5820*
Y1630*
X5820*
Y1630*
X5820*
Y1630*
X5820*
Y1630*
X5820*
Y1630*
X5819*
Y1631*
X5819*
Y1631*
X5819*
Y1631*
X5819*
Y1631*
X5819*
Y1632*
X5818*
Y1632*
X5818*
Y1632*
X5818*
Y1632*
X5818*
Y1632*
X5818*
Y1632*
X5818*
Y1633*
X5817*
Y1633*
X5817*
Y1633*
X5817*
Y1633*
X5817*
Y1634*
X5817*
Y1634*
X5816*
Y1634*
X5816*
Y1634*
X5816*
Y1635*
X5816*
Y1635*
X5816*
Y1635*
X5816*
Y1635*
X5815*
Y1635*
X5815*
Y1636*
X5815*
Y1636*
X5815*
Y1636*
X5815*
Y1636*
X5814*
Y1637*
X5814*
Y1637*
X5814*
Y1637*
X5814*
Y1637*
X5814*
Y1637*
X5813*
Y1637*
X5813*
Y1638*
X5813*
Y1638*
X5813*
Y1638*
X5813*
Y1638*
X5813*
Y1639*
X5812*
Y1639*
X5812*
Y1639*
X5812*
Y1639*
X5812*
Y1639*
X5812*
Y1639*
X5811*
Y1640*
X5811*
Y1640*
X5811*
Y1640*
X5811*
Y1640*
X5811*
Y1640*
X5811*
Y1641*
X5810*
Y1641*
X5810*
Y1641*
X5810*
Y1641*
X5810*
Y1641*
X5810*
Y1641*
X5809*
Y1642*
X5809*
Y1642*
X5809*
Y1642*
X5809*
Y1642*
X5809*
Y1642*
X5808*
Y1643*
X5808*
Y1643*
X5808*
Y1643*
X5808*
Y1643*
X5807*
Y1643*
X5807*
Y1643*
X5807*
Y1644*
X5807*
Y1644*
X5807*
Y1644*
X5806*
Y1644*
X5806*
Y1644*
X5806*
Y1645*
X5806*
Y1645*
X5805*
Y1645*
X5805*
Y1645*
X5805*
Y1645*
X5805*
Y1646*
X5804*
Y1646*
X5804*
Y1646*
X5804*
Y1646*
X5803*
Y1646*
X5803*
Y1646*
X5803*
Y1647*
X5802*
Y1647*
X5802*
Y1647*
X5802*
Y1647*
X5802*
Y1647*
X5801*
Y1648*
X5801*
Y1648*
X5801*
Y1648*
X5800*
Y1648*
X5800*
Y1648*
X5800*
Y1648*
X5799*
Y1649*
X5799*
Y1649*
X5798*
Y1649*
X5798*
Y1649*
X5798*
Y1649*
X5797*
Y1650*
X5797*
Y1650*
X5796*
Y1650*
X5796*
Y1650*
X5795*
Y1650*
X5795*
Y1650*
X5794*
Y1651*
X5794*
Y1651*
X5793*
Y1651*
X5792*
Y1651*
X5791*
Y1651*
X5791*
Y1652*
X5789*
Y1652*
X5788*
Y1652*
X5783*
Y1500*
X5736*
Y1599*
X5713*
Y1599*
X5717*
Y1600*
X5729*
Y1599*
X5736*
Y1600*
X5736*
Y1600*
X5736*
Y1603*
X5736*
Y1690*
Y1691*
Y1698*
X5787*
Y1698*
X5791*
Y1698*
X5794*
Y1698*
X5796*
Y1698*
X5798*
Y1697*
X5799*
Y1697*
X5800*
Y1697*
X5802*
Y1697*
X5803*
Y1697*
X5804*
Y1696*
X5805*
Y1696*
X5806*
Y1696*
X5807*
Y1696*
X5807*
Y1696*
X5808*
Y1696*
X5809*
Y1695*
X5809*
Y1695*
X5810*
Y1695*
X5811*
Y1695*
X5811*
Y1695*
X5812*
Y1694*
X5812*
Y1694*
X5813*
Y1694*
X5813*
Y1694*
X5814*
Y1694*
X5814*
Y1694*
X5815*
Y1693*
X5816*
Y1693*
X5816*
Y1693*
X5816*
Y1693*
X5817*
Y1693*
X5817*
Y1692*
X5818*
Y1692*
X5818*
Y1692*
X5818*
Y1692*
X5819*
Y1692*
X5819*
Y1692*
X5820*
Y1691*
X5820*
Y1691*
X5820*
Y1691*
X5821*
Y1691*
X5821*
Y1691*
X5821*
Y1690*
X5822*
Y1690*
X5822*
Y1690*
X5822*
Y1690*
X5823*
Y1690*
X5823*
Y1689*
X5823*
Y1689*
X5824*
Y1689*
X5824*
Y1689*
X5824*
Y1689*
X5825*
Y1689*
X5825*
Y1688*
X5825*
Y1688*
X5826*
Y1688*
X5826*
Y1688*
X5826*
Y1688*
X5826*
Y1687*
X5827*
Y1687*
X5827*
Y1687*
X5827*
Y1687*
X5827*
Y1687*
X5828*
Y1687*
X5828*
Y1686*
X5828*
Y1686*
X5829*
Y1686*
X5829*
Y1686*
X5829*
Y1686*
X5829*
Y1685*
X5830*
Y1685*
X5830*
Y1685*
X5830*
Y1685*
X5830*
Y1685*
X5831*
Y1685*
X5831*
Y1684*
X5831*
Y1684*
X5831*
Y1684*
X5832*
Y1684*
X5832*
Y1684*
X5832*
Y1683*
X5832*
Y1683*
X5833*
Y1683*
X5833*
Y1683*
X5833*
Y1683*
X5833*
Y1683*
X5833*
Y1682*
X5834*
Y1682*
X5834*
Y1682*
X5834*
Y1682*
X5834*
Y1682*
X5835*
Y1681*
X5835*
Y1681*
X5835*
Y1681*
X5835*
Y1681*
X5835*
Y1681*
X5836*
Y1681*
X5836*
Y1680*
X5836*
Y1680*
X5836*
Y1680*
X5836*
Y1680*
X5837*
Y1680*
X5837*
Y1679*
X5837*
Y1679*
X5837*
Y1679*
X5837*
Y1679*
X5838*
Y1679*
X5838*
Y1678*
X5838*
Y1678*
X5838*
Y1678*
X5838*
Y1678*
X5839*
Y1678*
X5839*
Y1678*
X5839*
Y1677*
X5839*
Y1677*
X5839*
Y1677*
X5840*
Y1677*
X5840*
Y1677*
X5840*
Y1676*
X5840*
Y1676*
X5840*
Y1676*
X5840*
Y1676*
X5841*
Y1676*
X5841*
Y1676*
X5841*
Y1675*
X5841*
Y1675*
X5841*
Y1675*
X5842*
Y1675*
X5842*
Y1675*
X5842*
Y1674*
X5842*
Y1674*
X5842*
Y1674*
X5842*
Y1674*
X5843*
Y1674*
X5843*
Y1674*
X5843*
Y1673*
X5843*
Y1673*
X5843*
Y1673*
X5844*
Y1673*
X5844*
Y1673*
X5844*
Y1672*
X5844*
Y1672*
X5844*
Y1672*
X5844*
Y1672*
X5845*
Y1672*
X5845*
Y1671*
X5845*
Y1671*
X5845*
Y1671*
X5845*
Y1671*
X5846*
Y1671*
X5846*
Y1670*
X5846*
Y1670*
X5846*
Y1670*
X5846*
Y1670*
X5846*
Y1670*
X5847*
Y1669*
X5847*
Y1669*
X5847*
Y1669*
X5847*
Y1669*
X5847*
Y1668*
X5848*
Y1668*
X5848*
Y1668*
X5848*
Y1668*
X5848*
Y1667*
X5848*
Y1667*
X5848*
Y1667*
X5849*
Y1667*
X5849*
Y1667*
X5849*
Y1667*
X5849*
Y1666*
X5849*
Y1666*
X5850*
Y1666*
X5850*
Y1666*
X5850*
Y1665*
X5850*
Y1665*
X5850*
Y1665*
X5851*
Y1665*
X5851*
Y1665*
X5851*
Y1664*
X5851*
Y1664*
X5851*
Y1664*
X5851*
Y1664*
X5852*
Y1663*
X5852*
Y1663*
X5852*
Y1663*
X5852*
Y1663*
X5852*
Y1663*
X5853*
Y1663*
X5853*
Y1662*
X5853*
Y1662*
X5853*
Y1662*
X5853*
Y1662*
X5853*
Y1661*
X5854*
Y1661*
X5854*
Y1661*
X5854*
Y1661*
X5854*
Y1661*
X5854*
Y1660*
X5855*
Y1660*
X5855*
Y1660*
X5855*
Y1660*
X5855*
Y1660*
X5855*
Y1659*
X5855*
Y1659*
X5856*
Y1659*
X5856*
Y1659*
X5856*
Y1659*
X5856*
Y1658*
X5856*
Y1658*
X5857*
Y1658*
X5857*
Y1658*
X5857*
Y1657*
X5857*
Y1657*
X5857*
Y1657*
X5857*
Y1657*
X5858*
Y1657*
X5858*
Y1656*
X5858*
Y1656*
X5858*
Y1656*
X5858*
Y1656*
X5859*
Y1656*
X5859*
Y1655*
X5859*
Y1655*
X5859*
Y1655*
X5859*
Y1655*
X5859*
Y1654*
X5860*
Y1654*
X5860*
Y1654*
X5860*
Y1654*
X5860*
Y1654*
X5860*
Y1653*
X5861*
Y1653*
X5861*
Y1653*
X5861*
Y1653*
X5861*
Y1652*
X5861*
Y1652*
X5862*
Y1652*
X5862*
Y1652*
X5862*
Y1652*
X5862*
Y1652*
X5862*
Y1651*
X5862*
Y1651*
X5863*
Y1651*
X5863*
Y1651*
X5863*
Y1650*
X5863*
Y1650*
X5863*
Y1650*
X5864*
Y1650*
X5864*
Y1650*
X5864*
Y1649*
X5864*
Y1649*
X5864*
Y1649*
X5864*
Y1649*
X5865*
Y1649*
X5865*
Y1648*
X5865*
Y1648*
X5865*
Y1648*
X5865*
Y1648*
X5866*
Y1648*
X5866*
Y1647*
X5866*
Y1647*
X5866*
Y1647*
X5866*
Y1647*
X5866*
Y1646*
X5867*
Y1646*
X5867*
Y1646*
X5867*
Y1646*
X5867*
Y1646*
X5867*
Y1645*
X5868*
Y1645*
X5868*
Y1645*
X5868*
Y1645*
X5868*
Y1645*
X5868*
Y1644*
X5868*
Y1644*
X5869*
Y1644*
X5869*
Y1644*
X5869*
Y1643*
X5869*
Y1643*
X5869*
Y1643*
X5870*
Y1643*
X5870*
Y1643*
X5870*
Y1642*
X5870*
Y1642*
X5870*
Y1642*
X5870*
Y1642*
X5871*
Y1642*
X5871*
Y1641*
X5871*
Y1641*
X5871*
Y1641*
X5871*
Y1641*
X5872*
Y1641*
X5872*
Y1640*
X5872*
Y1640*
X5872*
Y1640*
X5872*
Y1640*
X5873*
Y1639*
X5873*
Y1639*
X5873*
Y1639*
X5873*
Y1639*
X5873*
Y1639*
X5873*
Y1638*
X5874*
Y1638*
X5874*
Y1638*
X5874*
Y1638*
X5874*
Y1638*
X5874*
Y1637*
X5875*
Y1637*
X5875*
Y1637*
X5875*
Y1637*
X5875*
Y1637*
X5875*
Y1636*
X5875*
Y1636*
X5876*
Y1636*
X5876*
Y1636*
X5876*
Y1635*
X5876*
Y1635*
X5876*
Y1635*
X5877*
Y1635*
X5877*
Y1635*
X5877*
Y1634*
X5877*
Y1634*
X5877*
Y1634*
X5877*
Y1634*
X5878*
Y1634*
X5878*
Y1633*
X5878*
Y1633*
X5878*
Y1633*
X5878*
Y1633*
X5879*
Y1632*
X5879*
Y1632*
X5879*
Y1632*
X5879*
Y1632*
X5879*
Y1632*
X5879*
Y1631*
X5880*
Y1631*
X5880*
Y1631*
X5880*
Y1631*
X5880*
Y1631*
X5880*
Y1630*
X5881*
Y1630*
X5881*
Y1630*
X5881*
Y1630*
X5881*
Y1630*
X5881*
Y1629*
X5881*
Y1629*
X5882*
Y1629*
X5882*
Y1629*
X5882*
Y1628*
X5882*
Y1628*
X5882*
Y1628*
X5883*
Y1628*
X5883*
Y1628*
X5883*
Y1627*
X5883*
Y1627*
X5883*
Y1627*
X5883*
Y1627*
X5884*
Y1627*
X5884*
Y1626*
X5884*
Y1626*
X5884*
Y1626*
X5884*
Y1626*
X5885*
Y1626*
X5885*
Y1625*
X5885*
Y1625*
X5885*
Y1625*
X5885*
Y1625*
X5886*
Y1624*
X5886*
Y1624*
X5886*
Y1624*
X5886*
Y1624*
X5886*
Y1624*
X5886*
Y1623*
X5887*
Y1623*
X5887*
Y1623*
X5887*
Y1623*
X5887*
Y1623*
X5887*
Y1622*
X5888*
Y1622*
X5888*
Y1622*
X5888*
Y1622*
X5888*
Y1621*
X5888*
Y1621*
X5888*
Y1621*
X5889*
Y1621*
X5889*
Y1621*
X5889*
Y1620*
X5889*
Y1620*
X5889*
Y1620*
X5890*
Y1620*
X5890*
Y1620*
X5890*
Y1619*
X5890*
Y1619*
X5890*
Y1619*
X5890*
Y1619*
X5891*
Y1619*
X5891*
Y1618*
X5891*
Y1618*
X5891*
Y1618*
X5891*
Y1618*
X5892*
Y1617*
X5892*
Y1617*
X5892*
Y1617*
X5892*
Y1617*
X5892*
Y1617*
X5892*
Y1616*
X5893*
Y1616*
X5893*
Y1616*
X5893*
Y1616*
X5893*
Y1616*
X5893*
Y1615*
X5894*
Y1615*
X5894*
Y1615*
X5894*
Y1615*
X5894*
Y1615*
X5894*
Y1614*
X5894*
Y1614*
X5895*
Y1614*
X5895*
Y1614*
X5895*
Y1613*
X5895*
Y1613*
X5895*
Y1613*
X5896*
Y1613*
X5896*
Y1613*
X5896*
Y1612*
X5896*
Y1612*
X5896*
Y1612*
X5897*
Y1612*
X5897*
Y1612*
X5897*
Y1611*
X5897*
Y1611*
X5897*
Y1611*
X5897*
Y1611*
X5898*
Y1611*
X5898*
Y1610*
X5898*
Y1610*
X5898*
Y1610*
X5898*
Y1610*
X5899*
Y1609*
X5899*
Y1609*
X5899*
Y1609*
X5899*
Y1609*
X5899*
Y1609*
X5899*
Y1608*
X5900*
Y1608*
X5900*
Y1608*
X5900*
Y1608*
X5900*
Y1608*
X5900*
Y1607*
X5901*
Y1607*
X5901*
Y1607*
X5901*
Y1607*
X5901*
Y1606*
X5901*
Y1606*
X5901*
Y1606*
X5902*
Y1606*
X5902*
Y1606*
X5902*
Y1605*
X5902*
Y1605*
X5902*
Y1605*
X5903*
Y1605*
X5903*
Y1605*
X5903*
Y1604*
X5903*
Y1604*
X5903*
Y1604*
X5903*
Y1604*
X5904*
Y1604*
X5904*
Y1603*
X5904*
Y1603*
X5904*
Y1603*
X5904*
Y1603*
X5905*
Y1602*
X5905*
Y1602*
X5905*
Y1602*
X5905*
Y1602*
X5905*
Y1602*
X5905*
Y1602*
X5906*
Y1601*
X5906*
Y1601*
X5906*
Y1601*
X5906*
Y1601*
X5906*
Y1600*
X5907*
Y1600*
X5907*
Y1600*
X5907*
Y1600*
X5907*
Y1600*
X5907*
Y1599*
X5908*
Y1599*
X5908*
Y1599*
X5908*
Y1599*
X5908*
Y1598*
X5908*
Y1598*
X5908*
Y1598*
X5909*
Y1598*
X5909*
Y1598*
X5909*
Y1597*
X5909*
Y1597*
X5909*
Y1597*
X5910*
Y1597*
X5910*
Y1597*
X5910*
Y1596*
X5910*
Y1596*
X5910*
Y1596*
X5910*
Y1596*
X5911*
Y1595*
X5911*
Y1595*
X5911*
Y1595*
X5911*
Y1595*
X5911*
Y1595*
X5912*
Y1595*
X5912*
Y1594*
X5912*
Y1594*
X5912*
Y1594*
X5912*
Y1594*
X5912*
Y1593*
X5913*
Y1593*
X5913*
Y1593*
X5913*
Y1593*
X5913*
Y1593*
X5913*
Y1592*
X5914*
Y1592*
X5914*
Y1592*
X5914*
Y1592*
X5914*
Y1591*
X5914*
Y1591*
X5914*
Y1591*
X5915*
Y1591*
X5915*
Y1591*
X5915*
Y1591*
X5915*
Y1590*
X5915*
Y1590*
X5916*
Y1590*
X5916*
Y1590*
X5916*
Y1589*
X5916*
Y1589*
X5916*
Y1589*
X5916*
Y1589*
X5917*
Y1589*
X5917*
Y1588*
X5917*
Y1588*
X5917*
Y1588*
X5917*
Y1588*
X5918*
Y1588*
X5918*
Y1587*
X5918*
Y1587*
X5918*
Y1587*
X5918*
Y1587*
X5919*
Y1586*
X5919*
Y1586*
X5919*
Y1586*
X5919*
Y1586*
X5919*
Y1586*
X5919*
Y1585*
X5920*
Y1585*
X5920*
Y1585*
X5920*
Y1585*
X5920*
Y1584*
X5920*
Y1584*
X5921*
Y1584*
X5921*
Y1584*
X5921*
Y1584*
X5921*
Y1584*
X5921*
Y1583*
X5921*
Y1583*
X5922*
Y1583*
X5922*
Y1583*
X5922*
Y1582*
X5922*
Y1582*
X5922*
Y1582*
X5923*
Y1582*
X5923*
Y1582*
X5923*
Y1581*
X5923*
Y1581*
X5923*
Y1581*
X5923*
Y1581*
X5924*
Y1580*
X5924*
Y1580*
X5924*
Y1580*
X5924*
Y1580*
X5924*
Y1580*
X5925*
Y1580*
X5925*
Y1579*
X5925*
Y1579*
X5925*
Y1579*
X5925*
Y1579*
X5925*
Y1578*
X5926*
Y1578*
X5926*
Y1578*
X5926*
Y1578*
X5926*
Y1578*
X5926*
Y1577*
X5927*
Y1577*
X5927*
Y1577*
X5927*
Y1577*
X5927*
Y1577*
X5927*
Y1576*
X5927*
Y1576*
X5928*
Y1576*
X5928*
Y1576*
X5928*
Y1575*
X5928*
Y1575*
X5928*
Y1575*
X5929*
Y1575*
X5929*
Y1575*
X5929*
Y1574*
X5929*
Y1574*
X5929*
Y1574*
X5929*
Y1574*
X5930*
Y1573*
X5930*
Y1573*
X5930*
Y1573*
X5930*
Y1573*
X5930*
Y1573*
X5931*
Y1573*
X5931*
Y1572*
X5931*
Y1572*
X5931*
Y1572*
X5931*
Y1572*
X5932*
Y1571*
X5932*
Y1571*
X5932*
Y1571*
X5932*
Y1571*
X5932*
Y1571*
X5932*
Y1570*
X5933*
Y1570*
X5933*
Y1570*
X5933*
Y1570*
X5933*
Y1570*
X5933*
Y1569*
X5934*
Y1569*
X5934*
Y1569*
X5934*
Y1569*
X5934*
Y1569*
X5934*
Y1568*
X5934*
Y1568*
X5935*
Y1568*
X5935*
Y1568*
X5935*
Y1567*
X5935*
Y1567*
X5935*
Y1567*
X5936*
Y1567*
X5936*
Y1567*
X5936*
Y1566*
X5936*
Y1566*
X5936*
Y1566*
X5936*
Y1566*
X5937*
Y1566*
X5937*
Y1565*
X5937*
Y1565*
X5937*
Y1565*
X5937*
Y1565*
X5938*
Y1565*
X5938*
Y1564*
X5938*
Y1564*
X5938*
Y1564*
X5938*
Y1564*
X5938*
Y1563*
X5939*
Y1563*
X5939*
Y1563*
X5939*
Y1563*
X5939*
Y1562*
X5939*
Y1562*
X5940*
Y1562*
X5940*
Y1562*
X5940*
Y1562*
X5940*
Y1562*
X5940*
Y1561*
X5940*
Y1561*
X5941*
Y1561*
X5941*
Y1561*
X5941*
Y1560*
X5941*
Y1560*
X5941*
Y1560*
X5942*
Y1560*
X5942*
Y1560*
X5942*
Y1559*
X5942*
Y1559*
X5942*
Y1559*
X5943*
Y1559*
X5943*
Y1559*
X5943*
Y1558*
X5943*
Y1558*
X5943*
Y1558*
X5943*
Y1558*
X5944*
Y1558*
X5944*
Y1558*
X5944*
Y1557*
X5944*
Y1557*
X5944*
Y1557*
X5945*
Y1557*
X5945*
Y1557*
X5945*
Y1556*
X5945*
Y1556*
X5945*
Y1556*
X5946*
Y1556*
X5946*
Y1556*
X5946*
Y1556*
X5946*
Y1555*
X5947*
Y1555*
X5947*
Y1555*
X5947*
Y1555*
X5947*
Y1555*
X5947*
Y1554*
X5948*
Y1554*
X5948*
Y1554*
X5948*
Y1554*
X5948*
Y1554*
X5949*
Y1554*
X5949*
Y1553*
X5949*
Y1553*
X5949*
Y1553*
X5950*
Y1553*
X5950*
Y1553*
X5950*
Y1552*
X5950*
Y1552*
X5951*
Y1552*
X5951*
Y1552*
X5951*
Y1552*
X5951*
Y1551*
X5952*
Y1551*
X5952*
Y1551*
X5952*
Y1551*
X5953*
Y1551*
X5953*
Y1551*
X5953*
Y1550*
X5954*
Y1550*
X5954*
Y1550*
X5954*
Y1550*
X5955*
Y1550*
X5955*
Y1549*
X5955*
Y1549*
X5956*
Y1549*
X5956*
Y1549*
X5956*
Y1549*
X5957*
Y1549*
X5957*
Y1548*
X5958*
Y1548*
X5958*
Y1548*
X5958*
Y1548*
X5959*
Y1548*
X5959*
Y1547*
X5960*
Y1547*
X5960*
Y1547*
X5961*
Y1547*
X5962*
Y1547*
X5962*
Y1547*
X5963*
Y1546*
X5965*
Y1546*
X5966*
Y1546*
X5969*
Y1546*
X5971*
Y1698*
X6019*
Y1500*
G37*
G36*
X5687Y1702D02*
X5687D01*
Y1702*
X5688*
Y1701*
X5688*
Y1701*
X5688*
Y1656*
X5461*
Y1655*
X5459*
Y1655*
X5458*
Y1655*
X5458*
Y1655*
X5457*
Y1655*
X5456*
Y1654*
X5456*
Y1654*
X5456*
Y1654*
X5455*
Y1654*
X5455*
Y1654*
X5455*
Y1654*
X5455*
Y1653*
X5454*
Y1653*
X5454*
Y1653*
X5454*
Y1653*
X5454*
Y1653*
X5454*
Y1652*
X5453*
Y1652*
X5453*
Y1652*
X5453*
Y1652*
X5453*
Y1651*
X5453*
Y1651*
X5452*
Y1651*
X5452*
Y1650*
X5452*
Y1650*
X5452*
Y1649*
X5452*
Y1648*
X5452*
Y1646*
X5451*
Y1559*
X5452*
Y1557*
X5452*
Y1556*
X5452*
Y1556*
X5452*
Y1555*
X5452*
Y1555*
X5452*
Y1554*
X5453*
Y1554*
X5453*
Y1554*
X5453*
Y1553*
X5453*
Y1553*
X5453*
Y1553*
X5454*
Y1553*
X5454*
Y1552*
X5454*
Y1552*
X5454*
Y1552*
X5454*
Y1552*
X5455*
Y1552*
X5455*
Y1551*
X5455*
Y1551*
X5455*
Y1551*
X5456*
Y1551*
X5456*
Y1551*
X5456*
Y1551*
X5457*
Y1550*
X5457*
Y1550*
X5458*
Y1550*
X5459*
Y1550*
X5460*
Y1550*
X5686*
Y1549*
X5689*
Y1503*
X5459*
Y1503*
X5455*
Y1504*
X5452*
Y1504*
X5450*
Y1504*
X5448*
Y1504*
X5447*
Y1504*
X5446*
Y1505*
X5444*
Y1505*
X5443*
Y1505*
X5442*
Y1505*
X5441*
Y1505*
X5441*
Y1505*
X5440*
Y1506*
X5439*
Y1506*
X5438*
Y1506*
X5437*
Y1506*
X5437*
Y1506*
X5436*
Y1507*
X5435*
Y1507*
X5435*
Y1507*
X5434*
Y1507*
X5434*
Y1507*
X5433*
Y1508*
X5432*
Y1508*
X5432*
Y1508*
X5431*
Y1508*
X5431*
Y1508*
X5430*
Y1508*
X5430*
Y1509*
X5429*
Y1509*
X5429*
Y1509*
X5428*
Y1509*
X5428*
Y1509*
X5428*
Y1510*
X5427*
Y1510*
X5427*
Y1510*
X5426*
Y1510*
X5426*
Y1510*
X5426*
Y1510*
X5425*
Y1511*
X5425*
Y1511*
X5425*
Y1511*
X5424*
Y1511*
X5424*
Y1511*
X5424*
Y1512*
X5423*
Y1512*
X5423*
Y1512*
X5423*
Y1512*
X5422*
Y1512*
X5422*
Y1512*
X5422*
Y1513*
X5421*
Y1513*
X5421*
Y1513*
X5421*
Y1513*
X5421*
Y1513*
X5420*
Y1514*
X5420*
Y1514*
X5420*
Y1514*
X5420*
Y1514*
X5419*
Y1514*
X5419*
Y1514*
X5419*
Y1515*
X5419*
Y1515*
X5418*
Y1515*
X5418*
Y1515*
X5418*
Y1515*
X5418*
Y1516*
X5417*
Y1516*
X5417*
Y1516*
X5417*
Y1516*
X5417*
Y1516*
X5417*
Y1516*
X5416*
Y1517*
X5416*
Y1517*
X5416*
Y1517*
X5416*
Y1517*
X5416*
Y1517*
X5415*
Y1518*
X5415*
Y1518*
X5415*
Y1518*
X5415*
Y1518*
X5415*
Y1518*
X5415*
Y1519*
X5414*
Y1519*
X5414*
Y1519*
X5414*
Y1519*
X5414*
Y1519*
X5414*
Y1519*
X5413*
Y1520*
X5413*
Y1520*
X5413*
Y1520*
X5413*
Y1520*
X5413*
Y1521*
X5413*
Y1521*
X5412*
Y1521*
X5412*
Y1521*
X5412*
Y1521*
X5412*
Y1522*
X5412*
Y1522*
X5411*
Y1522*
X5411*
Y1522*
X5411*
Y1523*
X5411*
Y1523*
X5411*
Y1523*
X5410*
Y1523*
X5410*
Y1524*
X5410*
Y1524*
X5410*
Y1524*
X5410*
Y1525*
X5410*
Y1525*
X5409*
Y1525*
X5409*
Y1525*
X5409*
Y1526*
X5409*
Y1526*
X5409*
Y1526*
X5408*
Y1527*
X5408*
Y1527*
X5408*
Y1527*
X5408*
Y1528*
X5408*
Y1528*
X5408*
Y1528*
X5407*
Y1529*
X5407*
Y1529*
X5407*
Y1530*
X5407*
Y1530*
X5407*
Y1531*
X5406*
Y1531*
X5406*
Y1532*
X5406*
Y1532*
X5406*
Y1532*
X5406*
Y1533*
X5406*
Y1534*
X5405*
Y1534*
X5405*
Y1535*
X5405*
Y1535*
X5405*
Y1536*
X5405*
Y1537*
X5404*
Y1537*
X5404*
Y1538*
X5404*
Y1539*
X5404*
Y1540*
X5404*
Y1541*
X5404*
Y1542*
X5403*
Y1544*
X5403*
Y1545*
X5403*
Y1548*
X5403*
Y1552*
X5403*
Y1654*
X5403*
Y1658*
X5403*
Y1660*
X5403*
Y1662*
X5403*
Y1663*
X5404*
Y1664*
X5404*
Y1665*
X5404*
Y1666*
X5404*
Y1667*
X5404*
Y1668*
X5404*
Y1669*
X5405*
Y1669*
X5405*
Y1670*
X5405*
Y1671*
X5405*
Y1671*
X5405*
Y1672*
X5406*
Y1672*
X5406*
Y1673*
X5406*
Y1673*
X5406*
Y1674*
X5406*
Y1674*
X5406*
Y1675*
X5407*
Y1675*
X5407*
Y1676*
X5407*
Y1676*
X5407*
Y1676*
X5407*
Y1677*
X5408*
Y1677*
X5408*
Y1678*
X5408*
Y1678*
X5408*
Y1678*
X5408*
Y1679*
X5408*
Y1679*
X5409*
Y1679*
X5409*
Y1680*
X5409*
Y1680*
X5409*
Y1680*
X5409*
Y1681*
X5410*
Y1681*
X5410*
Y1681*
X5410*
Y1681*
X5410*
Y1682*
X5410*
Y1682*
X5410*
Y1682*
X5411*
Y1682*
X5411*
Y1683*
X5411*
Y1683*
X5411*
Y1683*
X5411*
Y1683*
X5412*
Y1684*
X5412*
Y1684*
X5412*
Y1684*
X5412*
Y1684*
X5412*
Y1685*
X5413*
Y1685*
X5413*
Y1685*
X5413*
Y1685*
X5413*
Y1685*
X5413*
Y1686*
X5413*
Y1686*
X5414*
Y1686*
X5414*
Y1686*
X5414*
Y1686*
X5414*
Y1687*
X5414*
Y1687*
X5415*
Y1687*
X5415*
Y1687*
X5415*
Y1687*
X5415*
Y1687*
X5415*
Y1688*
X5415*
Y1688*
X5416*
Y1688*
X5416*
Y1688*
X5416*
Y1688*
X5416*
Y1689*
X5416*
Y1689*
X5417*
Y1689*
X5417*
Y1689*
X5417*
Y1689*
X5417*
Y1689*
X5417*
Y1690*
X5418*
Y1690*
X5418*
Y1690*
X5418*
Y1690*
X5419*
Y1690*
X5419*
Y1691*
X5419*
Y1691*
X5419*
Y1691*
X5419*
Y1691*
X5420*
Y1691*
X5420*
Y1692*
X5420*
Y1692*
X5421*
Y1692*
X5421*
Y1692*
X5421*
Y1692*
X5421*
Y1692*
X5422*
Y1693*
X5422*
Y1693*
X5422*
Y1693*
X5423*
Y1693*
X5423*
Y1693*
X5423*
Y1694*
X5423*
Y1694*
X5424*
Y1694*
X5424*
Y1694*
X5424*
Y1694*
X5425*
Y1694*
X5425*
Y1695*
X5426*
Y1695*
X5426*
Y1695*
X5426*
Y1695*
X5427*
Y1695*
X5427*
Y1696*
X5428*
Y1696*
X5428*
Y1696*
X5428*
Y1696*
X5429*
Y1696*
X5429*
Y1696*
X5430*
Y1697*
X5430*
Y1697*
X5430*
Y1697*
X5431*
Y1697*
X5432*
Y1697*
X5432*
Y1698*
X5432*
Y1698*
X5433*
Y1698*
X5434*
Y1698*
X5434*
Y1698*
X5435*
Y1698*
X5436*
Y1699*
X5436*
Y1699*
X5437*
Y1699*
X5438*
Y1699*
X5438*
Y1699*
X5439*
Y1700*
X5440*
Y1700*
X5441*
Y1700*
X5442*
Y1700*
X5443*
Y1700*
X5444*
Y1700*
X5445*
Y1701*
X5446*
Y1701*
X5448*
Y1701*
X5450*
Y1701*
X5452*
Y1701*
X5454*
Y1702*
X5458*
Y1702*
X5686*
Y1702*
X5687*
Y1702*
G37*
G36*
X6193Y1707D02*
X6194D01*
Y1707*
X6195*
Y1707*
X6195*
Y1706*
X6195*
Y1706*
X6196*
Y1706*
X6197*
Y1706*
X6197*
Y1706*
X6197*
Y1705*
X6198*
Y1705*
X6199*
Y1705*
X6199*
Y1705*
X6199*
Y1705*
X6200*
Y1705*
X6200*
Y1704*
X6201*
Y1704*
X6201*
Y1704*
X6201*
Y1704*
X6202*
Y1704*
X6202*
Y1703*
X6203*
Y1703*
X6203*
Y1703*
X6203*
Y1703*
X6204*
Y1703*
X6204*
Y1703*
X6205*
Y1702*
X6205*
Y1702*
X6205*
Y1702*
X6205*
Y1702*
X6206*
Y1702*
X6206*
Y1701*
X6207*
Y1701*
X6207*
Y1701*
X6207*
Y1701*
X6208*
Y1701*
X6208*
Y1700*
X6208*
Y1700*
X6208*
Y1700*
X6209*
Y1700*
X6209*
Y1700*
X6209*
Y1700*
X6210*
Y1699*
X6210*
Y1699*
X6210*
Y1699*
X6210*
Y1699*
X6211*
Y1699*
X6211*
Y1698*
X6211*
Y1698*
X6212*
Y1698*
X6212*
Y1698*
X6212*
Y1698*
X6212*
Y1698*
X6213*
Y1697*
X6213*
Y1697*
X6213*
Y1697*
X6213*
Y1697*
X6214*
Y1697*
X6214*
Y1696*
X6214*
Y1696*
X6214*
Y1696*
X6214*
Y1696*
X6215*
Y1696*
X6215*
Y1696*
X6215*
Y1695*
X6215*
Y1695*
X6216*
Y1695*
X6216*
Y1695*
X6216*
Y1695*
X6216*
Y1694*
X6216*
Y1694*
X6217*
Y1694*
X6217*
Y1694*
X6217*
Y1694*
X6217*
Y1694*
X6218*
Y1693*
X6218*
Y1693*
X6218*
Y1693*
X6218*
Y1693*
X6218*
Y1693*
X6219*
Y1692*
X6219*
Y1692*
X6219*
Y1692*
X6219*
Y1692*
X6219*
Y1692*
X6219*
Y1692*
X6220*
Y1691*
X6220*
Y1691*
X6220*
Y1691*
X6220*
Y1691*
X6220*
Y1691*
X6221*
Y1690*
X6221*
Y1690*
X6221*
Y1690*
X6221*
Y1690*
X6221*
Y1690*
X6221*
Y1689*
X6222*
Y1689*
X6222*
Y1689*
X6222*
Y1689*
X6222*
Y1689*
X6222*
Y1689*
X6223*
Y1688*
X6223*
Y1688*
X6223*
Y1688*
X6223*
Y1688*
X6223*
Y1687*
X6223*
Y1687*
X6224*
Y1687*
X6224*
Y1687*
X6224*
Y1687*
X6224*
Y1686*
X6224*
Y1686*
X6225*
Y1686*
X6225*
Y1686*
X6225*
Y1685*
X6225*
Y1685*
X6225*
Y1685*
X6225*
Y1685*
X6226*
Y1685*
X6226*
Y1684*
X6226*
Y1684*
X6226*
Y1684*
X6226*
Y1683*
X6227*
Y1683*
X6227*
Y1683*
X6227*
Y1683*
X6227*
Y1682*
X6227*
Y1682*
X6227*
Y1682*
X6228*
Y1682*
X6228*
Y1681*
X6228*
Y1681*
X6228*
Y1681*
X6228*
Y1680*
X6229*
Y1680*
X6229*
Y1680*
X6229*
Y1679*
X6229*
Y1679*
X6229*
Y1679*
X6230*
Y1678*
X6230*
Y1678*
X6230*
Y1678*
X6230*
Y1677*
X6230*
Y1677*
X6230*
Y1677*
X6231*
Y1676*
X6231*
Y1676*
X6231*
Y1676*
X6231*
Y1675*
X6231*
Y1675*
X6232*
Y1674*
X6232*
Y1674*
X6232*
Y1674*
X6232*
Y1673*
X6232*
Y1673*
X6232*
Y1672*
X6233*
Y1672*
X6233*
Y1671*
X6233*
Y1671*
X6233*
Y1670*
X6233*
Y1670*
X6234*
Y1669*
X6234*
Y1669*
X6234*
Y1668*
X6234*
Y1668*
X6234*
Y1667*
X6234*
Y1666*
X6235*
Y1666*
X6235*
Y1665*
X6235*
Y1664*
X6235*
Y1664*
X6235*
Y1663*
X6236*
Y1662*
X6236*
Y1661*
X6236*
Y1660*
X6236*
Y1658*
X6236*
Y1657*
X6236*
Y1654*
X6237*
Y1652*
X6223*
Y1652*
X6220*
Y1497*
X6220*
Y1494*
X6171*
Y1509*
X6171*
Y1646*
X6055*
Y1692*
X6058*
Y1692*
X6188*
Y1693*
X6188*
Y1694*
X6188*
Y1694*
X6188*
Y1695*
X6189*
Y1695*
X6189*
Y1696*
X6189*
Y1696*
X6189*
Y1697*
X6189*
Y1697*
X6190*
Y1698*
X6190*
Y1698*
X6190*
Y1699*
X6190*
Y1699*
X6190*
Y1700*
X6190*
Y1700*
X6191*
Y1701*
X6191*
Y1701*
X6191*
Y1702*
X6191*
Y1702*
X6191*
Y1703*
X6192*
Y1703*
X6192*
Y1704*
X6192*
Y1705*
X6192*
Y1705*
X6192*
Y1705*
X6192*
Y1706*
X6193*
Y1707*
X6193*
Y1707*
X6193*
Y1707*
G37*
G36*
X6037Y1452D02*
X6036D01*
Y1453*
X6037*
Y1452*
G37*
G36*
X6036Y1451D02*
X6035D01*
Y1452*
X6036*
Y1451*
G37*
G36*
X6026D02*
Y1450D01*
X6024*
Y1451*
X6021*
Y1450*
Y1448*
X6020*
Y1450*
X6019*
Y1451*
X6018*
Y1448*
X6015*
Y1450*
X6016*
Y1452*
X6019*
Y1451*
X6020*
Y1452*
X6024*
Y1451*
X6025*
Y1452*
X6026*
Y1451*
G37*
G36*
X6568Y1449D02*
X6561D01*
Y1453*
X6568*
Y1449*
G37*
G36*
X6438D02*
X6431D01*
Y1453*
X6438*
Y1449*
G37*
G36*
X6230D02*
X6223D01*
Y1453*
X6230*
Y1449*
G37*
G36*
X6142D02*
X6135D01*
Y1453*
X6142*
Y1449*
G37*
G36*
X5635D02*
X5627D01*
Y1453*
X5635*
Y1449*
G37*
G36*
X6044Y1454D02*
X6050D01*
Y1453*
X6053*
Y1452*
X6055*
Y1451*
X6058*
Y1450*
X6061*
Y1452*
X6064*
Y1453*
X6065*
Y1452*
X6067*
Y1450*
X6069*
Y1447*
X6067*
Y1448*
X6066*
Y1451*
X6062*
Y1448*
X6065*
Y1447*
X6060*
Y1448*
X6058*
Y1450*
X6055*
Y1451*
X6052*
Y1452*
X6049*
Y1453*
X6037*
Y1454*
X6041*
Y1456*
X6044*
Y1454*
G37*
G36*
X6361Y1447D02*
X6361D01*
Y1447*
X6333*
Y1447*
X6329*
Y1447*
X6327*
Y1447*
X6327*
Y1446*
X6327*
Y1446*
X6326*
Y1446*
X6326*
Y1445*
X6326*
Y1442*
X6361*
Y1436*
X6326*
Y1433*
X6326*
Y1432*
X6326*
Y1432*
X6327*
Y1431*
X6327*
Y1431*
X6327*
Y1431*
X6328*
Y1431*
X6361*
Y1425*
X6324*
Y1425*
X6324*
Y1425*
X6323*
Y1426*
X6323*
Y1426*
X6322*
Y1426*
X6322*
Y1426*
X6322*
Y1426*
X6321*
Y1427*
X6321*
Y1427*
X6321*
Y1427*
X6321*
Y1427*
X6321*
Y1427*
X6320*
Y1427*
X6320*
Y1428*
X6320*
Y1428*
X6320*
Y1428*
X6320*
Y1428*
X6319*
Y1429*
X6319*
Y1429*
X6319*
Y1430*
X6319*
Y1448*
X6319*
Y1449*
X6319*
Y1449*
X6319*
Y1450*
X6320*
Y1450*
X6320*
Y1450*
X6320*
Y1450*
X6320*
Y1451*
X6320*
Y1451*
X6321*
Y1451*
X6321*
Y1451*
X6321*
Y1451*
X6321*
Y1451*
X6322*
Y1452*
X6322*
Y1452*
X6322*
Y1452*
X6322*
Y1452*
X6323*
Y1452*
X6323*
Y1453*
X6324*
Y1453*
X6325*
Y1453*
X6361*
Y1447*
G37*
G36*
X6067Y1446D02*
X6066D01*
Y1447*
X6067*
Y1446*
G37*
G36*
X6558Y1441D02*
X6552D01*
Y1441*
X6551*
Y1441*
X6548*
Y1440*
X6547*
Y1440*
X6547*
Y1440*
X6547*
Y1440*
X6547*
Y1438*
X6547*
Y1425*
X6539*
Y1441*
X6540*
Y1442*
X6540*
Y1442*
X6540*
Y1443*
X6540*
Y1443*
X6540*
Y1443*
X6541*
Y1443*
X6541*
Y1444*
X6541*
Y1444*
X6541*
Y1444*
X6541*
Y1444*
X6541*
Y1444*
X6542*
Y1444*
X6542*
Y1445*
X6542*
Y1445*
X6542*
Y1445*
X6543*
Y1445*
X6543*
Y1445*
X6544*
Y1446*
X6544*
Y1446*
X6545*
Y1446*
X6558*
Y1441*
G37*
G36*
X5558Y1445D02*
Y1445D01*
Y1441*
X5552*
Y1441*
X5550*
Y1441*
X5547*
Y1440*
X5547*
Y1440*
X5547*
Y1440*
X5547*
Y1440*
X5546*
Y1439*
X5546*
Y1425*
X5539*
Y1441*
X5539*
Y1442*
X5540*
Y1442*
X5540*
Y1443*
X5540*
Y1443*
X5540*
Y1443*
X5540*
Y1443*
X5540*
Y1444*
X5541*
Y1444*
X5541*
Y1444*
X5541*
Y1444*
X5541*
Y1444*
X5541*
Y1444*
X5542*
Y1445*
X5542*
Y1445*
X5542*
Y1445*
X5542*
Y1445*
X5543*
Y1445*
X5543*
Y1446*
X5544*
Y1446*
X5545*
Y1446*
X5558*
Y1445*
G37*
G36*
X5520Y1441D02*
X5520D01*
Y1441*
X5502*
Y1441*
X5502*
Y1440*
X5502*
Y1439*
X5501*
Y1438*
X5501*
Y1432*
X5501*
Y1431*
X5502*
Y1431*
X5502*
Y1431*
X5502*
Y1431*
X5502*
Y1430*
X5520*
Y1425*
X5500*
Y1425*
X5499*
Y1425*
X5498*
Y1426*
X5498*
Y1426*
X5497*
Y1426*
X5497*
Y1426*
X5497*
Y1426*
X5496*
Y1427*
X5496*
Y1427*
X5496*
Y1427*
X5496*
Y1427*
X5496*
Y1427*
X5495*
Y1428*
X5495*
Y1428*
X5495*
Y1428*
X5495*
Y1428*
X5495*
Y1429*
X5494*
Y1429*
X5494*
Y1430*
X5494*
Y1441*
X5494*
Y1442*
X5494*
Y1442*
X5495*
Y1443*
X5495*
Y1443*
X5495*
Y1443*
X5495*
Y1443*
X5495*
Y1444*
X5496*
Y1444*
X5496*
Y1444*
X5496*
Y1444*
X5496*
Y1444*
X5496*
Y1444*
X5496*
Y1445*
X5497*
Y1445*
X5497*
Y1445*
X5497*
Y1445*
X5498*
Y1445*
X5498*
Y1446*
X5499*
Y1446*
X5500*
Y1446*
X5520*
Y1441*
G37*
G36*
X5487Y1446D02*
X5488D01*
Y1446*
X5488*
Y1445*
X5489*
Y1445*
X5489*
Y1445*
X5489*
Y1445*
X5489*
Y1445*
X5489*
Y1444*
X5489*
Y1444*
X5490*
Y1444*
X5490*
Y1444*
X5490*
Y1443*
X5490*
Y1443*
X5490*
Y1442*
X5491*
Y1437*
X5490*
Y1437*
X5490*
Y1436*
X5490*
Y1436*
X5490*
Y1436*
X5490*
Y1435*
X5489*
Y1435*
X5489*
Y1435*
X5489*
Y1435*
X5489*
Y1435*
X5489*
Y1434*
X5488*
Y1434*
X5488*
Y1434*
X5487*
Y1434*
X5485*
Y1434*
X5484*
Y1434*
X5470*
Y1433*
X5470*
Y1432*
X5470*
Y1431*
X5470*
Y1431*
X5470*
Y1431*
X5471*
Y1431*
X5471*
Y1430*
X5490*
Y1425*
X5468*
Y1425*
X5467*
Y1425*
X5467*
Y1426*
X5466*
Y1426*
X5466*
Y1426*
X5465*
Y1426*
X5465*
Y1426*
X5465*
Y1427*
X5465*
Y1427*
X5464*
Y1427*
X5464*
Y1427*
X5464*
Y1427*
X5464*
Y1428*
X5463*
Y1428*
X5463*
Y1428*
X5463*
Y1429*
X5463*
Y1430*
X5463*
Y1442*
X5463*
Y1442*
X5463*
Y1443*
X5463*
Y1443*
X5463*
Y1444*
X5464*
Y1444*
X5464*
Y1444*
X5464*
Y1444*
X5464*
Y1444*
X5464*
Y1444*
X5465*
Y1445*
X5465*
Y1445*
X5465*
Y1445*
X5465*
Y1445*
X5466*
Y1445*
X5466*
Y1446*
X5467*
Y1446*
X5468*
Y1446*
X5487*
Y1446*
G37*
G36*
X6595D02*
X6596D01*
Y1446*
X6596*
Y1445*
X6597*
Y1445*
X6597*
Y1445*
X6598*
Y1445*
X6598*
Y1445*
X6598*
Y1444*
X6599*
Y1444*
X6599*
Y1444*
X6599*
Y1444*
X6599*
Y1444*
X6599*
Y1444*
X6600*
Y1443*
X6600*
Y1443*
X6600*
Y1443*
X6600*
Y1443*
X6600*
Y1442*
X6600*
Y1442*
X6601*
Y1441*
X6601*
Y1439*
X6601*
Y1425*
X6593*
Y1440*
X6593*
Y1440*
X6593*
Y1440*
X6593*
Y1440*
X6592*
Y1441*
X6588*
Y1441*
X6587*
Y1441*
X6579*
Y1425*
X6571*
Y1446*
X6595*
Y1446*
G37*
G36*
X6568Y1428D02*
X6568D01*
Y1425*
X6561*
Y1430*
Y1430*
Y1446*
X6561*
Y1446*
X6568*
Y1428*
G37*
G36*
X6532Y1446D02*
X6532D01*
Y1446*
X6533*
Y1445*
X6533*
Y1445*
X6534*
Y1445*
X6534*
Y1445*
X6534*
Y1445*
X6534*
Y1444*
X6534*
Y1444*
X6534*
Y1444*
X6535*
Y1444*
X6535*
Y1443*
X6535*
Y1443*
X6535*
Y1442*
X6535*
Y1438*
X6535*
Y1437*
X6535*
Y1436*
X6535*
Y1436*
X6535*
Y1436*
X6534*
Y1435*
X6534*
Y1435*
X6534*
Y1435*
X6534*
Y1435*
X6534*
Y1435*
X6533*
Y1434*
X6533*
Y1434*
X6533*
Y1434*
X6532*
Y1434*
X6514*
Y1433*
X6515*
Y1432*
X6515*
Y1431*
X6515*
Y1431*
X6515*
Y1431*
X6515*
Y1431*
X6516*
Y1430*
X6535*
Y1425*
X6513*
Y1425*
X6512*
Y1425*
X6511*
Y1426*
X6511*
Y1426*
X6510*
Y1426*
X6510*
Y1426*
X6510*
Y1426*
X6510*
Y1427*
X6509*
Y1427*
X6509*
Y1427*
X6509*
Y1427*
X6509*
Y1427*
X6508*
Y1428*
X6508*
Y1428*
X6508*
Y1428*
X6508*
Y1429*
X6508*
Y1429*
X6508*
Y1433*
X6507*
Y1433*
X6508*
Y1442*
X6508*
Y1443*
X6508*
Y1443*
X6508*
Y1443*
X6508*
Y1444*
X6508*
Y1444*
X6509*
Y1444*
X6509*
Y1444*
X6509*
Y1444*
X6509*
Y1445*
X6510*
Y1445*
X6510*
Y1445*
X6510*
Y1445*
X6511*
Y1445*
X6511*
Y1446*
X6512*
Y1446*
X6513*
Y1446*
X6532*
Y1446*
G37*
G36*
X6500D02*
X6501D01*
Y1446*
X6501*
Y1445*
X6501*
Y1445*
X6501*
Y1445*
X6502*
Y1445*
X6502*
Y1445*
X6502*
Y1444*
X6502*
Y1444*
X6503*
Y1444*
X6503*
Y1444*
X6503*
Y1443*
X6503*
Y1442*
X6503*
Y1441*
X6503*
Y1439*
X6503*
Y1437*
X6503*
Y1437*
Y1437*
Y1437*
X6503*
Y1436*
X6503*
Y1436*
X6503*
Y1435*
X6502*
Y1435*
X6502*
Y1435*
X6502*
Y1435*
X6502*
Y1435*
X6502*
Y1435*
X6501*
Y1434*
X6501*
Y1434*
X6501*
Y1434*
X6500*
Y1434*
X6483*
Y1433*
X6483*
Y1431*
X6483*
Y1431*
X6483*
Y1431*
X6484*
Y1431*
X6484*
Y1430*
X6503*
Y1425*
X6481*
Y1425*
X6480*
Y1425*
X6479*
Y1426*
X6479*
Y1426*
X6478*
Y1426*
X6478*
Y1426*
X6478*
Y1426*
X6477*
Y1427*
X6477*
Y1427*
X6477*
Y1427*
X6477*
Y1427*
X6477*
Y1427*
X6477*
Y1427*
X6476*
Y1428*
X6476*
Y1428*
X6476*
Y1429*
X6476*
Y1429*
X6476*
Y1431*
X6475*
Y1441*
X6476*
Y1442*
X6476*
Y1443*
X6476*
Y1443*
X6476*
Y1443*
X6476*
Y1444*
X6477*
Y1444*
X6477*
Y1444*
X6477*
Y1444*
X6477*
Y1444*
X6477*
Y1445*
X6478*
Y1445*
X6478*
Y1445*
X6478*
Y1445*
X6479*
Y1445*
X6479*
Y1446*
X6480*
Y1446*
X6481*
Y1446*
X6500*
Y1446*
G37*
G36*
X6466D02*
X6467D01*
Y1446*
X6467*
Y1445*
X6468*
Y1445*
X6468*
Y1445*
X6469*
Y1445*
X6469*
Y1445*
X6469*
Y1444*
X6470*
Y1444*
X6470*
Y1444*
X6470*
Y1444*
X6470*
Y1444*
X6471*
Y1443*
X6471*
Y1443*
X6471*
Y1443*
X6471*
Y1442*
X6471*
Y1442*
X6471*
Y1442*
X6472*
Y1441*
X6472*
Y1440*
X6472*
Y1425*
X6465*
Y1425*
X6465*
Y1426*
X6464*
Y1440*
X6463*
Y1441*
X6450*
Y1436*
X6449*
Y1430*
X6450*
Y1425*
X6442*
Y1446*
X6466*
Y1446*
G37*
G36*
X6438Y1425D02*
X6431D01*
Y1446*
X6438*
Y1425*
G37*
G36*
X6388Y1446D02*
X6389D01*
Y1446*
X6390*
Y1445*
X6390*
Y1445*
X6391*
Y1445*
X6391*
Y1445*
X6391*
Y1445*
X6392*
Y1444*
X6392*
Y1444*
X6392*
Y1444*
X6392*
Y1444*
X6393*
Y1444*
X6393*
Y1443*
X6393*
Y1443*
X6393*
Y1443*
X6393*
Y1443*
X6394*
Y1442*
X6394*
Y1442*
X6394*
Y1441*
X6394*
Y1440*
X6394*
Y1425*
X6387*
Y1440*
X6385*
Y1441*
X6372*
Y1425*
X6365*
Y1430*
X6365*
Y1441*
X6365*
Y1446*
X6388*
Y1446*
G37*
G36*
X6291D02*
X6291D01*
Y1446*
X6292*
Y1445*
X6293*
Y1445*
X6293*
Y1445*
X6293*
Y1445*
X6294*
Y1445*
X6294*
Y1444*
X6294*
Y1444*
X6294*
Y1444*
X6295*
Y1444*
X6295*
Y1444*
X6295*
Y1444*
X6295*
Y1443*
X6295*
Y1443*
X6295*
Y1443*
X6296*
Y1443*
X6296*
Y1442*
X6296*
Y1442*
X6296*
Y1441*
X6296*
Y1439*
X6297*
Y1425*
X6289*
Y1440*
X6289*
Y1440*
X6289*
Y1440*
X6289*
Y1440*
X6288*
Y1441*
X6284*
Y1441*
X6282*
Y1441*
X6274*
Y1425*
X6267*
Y1446*
X6291*
Y1446*
G37*
G36*
X6257D02*
X6258D01*
Y1446*
X6259*
Y1445*
X6259*
Y1445*
X6260*
Y1445*
X6260*
Y1445*
X6260*
Y1445*
X6261*
Y1444*
X6261*
Y1444*
X6261*
Y1444*
X6262*
Y1444*
X6262*
Y1444*
X6262*
Y1443*
X6262*
Y1443*
X6262*
Y1443*
X6262*
Y1442*
X6263*
Y1442*
X6263*
Y1442*
X6263*
Y1441*
X6263*
Y1439*
X6263*
Y1432*
X6263*
Y1430*
X6263*
Y1429*
X6263*
Y1429*
X6263*
Y1429*
X6262*
Y1428*
X6262*
Y1428*
X6262*
Y1428*
X6262*
Y1427*
X6262*
Y1427*
X6262*
Y1427*
X6261*
Y1427*
X6261*
Y1427*
X6261*
Y1426*
X6260*
Y1426*
X6260*
Y1426*
X6260*
Y1426*
X6259*
Y1426*
X6259*
Y1425*
X6258*
Y1425*
X6257*
Y1425*
X6239*
Y1425*
X6238*
Y1425*
X6238*
Y1426*
X6237*
Y1426*
X6237*
Y1426*
X6237*
Y1426*
X6236*
Y1426*
X6236*
Y1427*
X6236*
Y1427*
X6236*
Y1427*
X6236*
Y1427*
X6235*
Y1427*
X6235*
Y1427*
X6235*
Y1428*
X6235*
Y1428*
X6235*
Y1428*
X6234*
Y1429*
X6234*
Y1429*
X6234*
Y1429*
X6234*
Y1430*
X6234*
Y1437*
Y1437*
Y1441*
X6234*
Y1442*
X6234*
Y1442*
X6234*
Y1442*
X6234*
Y1443*
X6235*
Y1443*
X6235*
Y1443*
X6235*
Y1444*
X6235*
Y1444*
X6235*
Y1444*
X6236*
Y1444*
X6236*
Y1444*
X6236*
Y1444*
X6236*
Y1445*
X6236*
Y1445*
X6237*
Y1445*
X6237*
Y1445*
X6237*
Y1445*
X6238*
Y1446*
X6238*
Y1446*
X6240*
Y1446*
X6257*
Y1446*
G37*
G36*
X6230D02*
X6230D01*
Y1439*
Y1439*
Y1425*
X6223*
Y1446*
X6230*
Y1446*
G37*
G36*
X6216Y1452D02*
X6216D01*
Y1446*
X6220*
Y1441*
X6216*
Y1425*
X6209*
Y1441*
X6205*
Y1446*
X6209*
Y1452*
X6215*
Y1452*
X6216*
Y1452*
G37*
G36*
X6198Y1446D02*
X6199D01*
Y1446*
X6199*
Y1445*
X6200*
Y1445*
X6200*
Y1445*
X6200*
Y1445*
X6201*
Y1445*
X6201*
Y1444*
X6201*
Y1444*
X6201*
Y1444*
X6202*
Y1444*
X6202*
Y1444*
X6202*
Y1443*
X6202*
Y1443*
X6202*
Y1443*
X6203*
Y1443*
X6203*
Y1442*
X6203*
Y1442*
X6203*
Y1441*
X6203*
Y1430*
X6203*
Y1429*
X6203*
Y1428*
X6203*
Y1428*
X6203*
Y1428*
X6202*
Y1427*
X6202*
Y1427*
X6202*
Y1427*
X6202*
Y1427*
X6202*
Y1427*
X6201*
Y1427*
X6201*
Y1426*
X6201*
Y1426*
X6201*
Y1426*
X6200*
Y1426*
X6200*
Y1426*
X6199*
Y1425*
X6199*
Y1425*
X6198*
Y1425*
X6179*
Y1425*
X6178*
Y1425*
X6178*
Y1426*
X6177*
Y1426*
X6177*
Y1426*
X6177*
Y1426*
X6177*
Y1426*
X6176*
Y1427*
X6176*
Y1427*
X6176*
Y1427*
X6176*
Y1428*
X6176*
Y1429*
X6175*
Y1433*
X6176*
Y1435*
X6176*
Y1435*
X6176*
Y1435*
X6176*
Y1436*
X6176*
Y1436*
X6177*
Y1436*
X6177*
Y1436*
X6177*
Y1436*
X6177*
Y1437*
X6178*
Y1437*
X6178*
Y1437*
X6179*
Y1437*
X6196*
Y1438*
X6196*
Y1439*
X6196*
Y1439*
X6196*
Y1440*
X6196*
Y1440*
X6195*
Y1440*
X6195*
Y1441*
X6190*
Y1441*
X6187*
Y1441*
X6177*
Y1441*
X6176*
Y1441*
X6176*
Y1442*
X6176*
Y1446*
X6198*
Y1446*
G37*
G36*
X6172Y1443D02*
X6172D01*
Y1441*
X6171*
Y1441*
X6155*
Y1440*
X6154*
Y1440*
X6154*
Y1440*
X6154*
Y1440*
X6153*
Y1439*
X6153*
Y1437*
X6153*
Y1434*
X6153*
Y1432*
X6153*
Y1431*
X6154*
Y1431*
X6154*
Y1431*
X6154*
Y1431*
X6155*
Y1430*
X6172*
Y1425*
X6152*
Y1425*
X6151*
Y1425*
X6150*
Y1426*
X6150*
Y1426*
X6149*
Y1426*
X6149*
Y1426*
X6149*
Y1426*
X6149*
Y1427*
X6148*
Y1427*
X6148*
Y1427*
X6148*
Y1427*
X6148*
Y1427*
X6147*
Y1428*
X6147*
Y1428*
X6147*
Y1428*
X6147*
Y1428*
X6147*
Y1429*
X6146*
Y1429*
X6146*
Y1430*
X6146*
Y1434*
X6146*
Y1437*
X6146*
Y1441*
X6146*
Y1442*
X6146*
Y1442*
X6147*
Y1443*
X6147*
Y1443*
X6147*
Y1443*
X6147*
Y1443*
X6147*
Y1444*
X6148*
Y1444*
X6148*
Y1444*
X6148*
Y1444*
X6148*
Y1444*
X6149*
Y1445*
X6149*
Y1445*
X6149*
Y1445*
X6149*
Y1445*
X6150*
Y1445*
X6150*
Y1446*
X6151*
Y1446*
X6152*
Y1446*
X6172*
Y1443*
G37*
G36*
X6142Y1427D02*
X6142D01*
Y1425*
X6135*
Y1427*
Y1427*
Y1446*
X6142*
Y1427*
G37*
G36*
X6125Y1446D02*
X6126D01*
Y1446*
X6127*
Y1445*
X6127*
Y1445*
X6128*
Y1445*
X6128*
Y1445*
X6128*
Y1445*
X6129*
Y1444*
X6129*
Y1444*
X6129*
Y1444*
X6129*
Y1444*
X6129*
Y1444*
X6130*
Y1444*
X6130*
Y1443*
X6130*
Y1443*
X6130*
Y1443*
X6130*
Y1442*
X6131*
Y1442*
X6131*
Y1441*
X6131*
Y1441*
X6131*
Y1439*
X6131*
Y1431*
Y1431*
Y1425*
X6124*
Y1439*
X6124*
Y1440*
X6123*
Y1440*
X6123*
Y1440*
X6123*
Y1441*
X6118*
Y1441*
X6117*
Y1441*
X6109*
Y1425*
X6102*
Y1446*
X6125*
Y1446*
G37*
G36*
X6001Y1446D02*
X6006D01*
Y1447*
Y1448*
Y1450*
X6007*
Y1451*
X6009*
Y1450*
X6010*
Y1448*
X6014*
Y1447*
X6010*
Y1446*
X6016*
Y1446*
X6016*
Y1447*
X6018*
Y1446*
X6019*
Y1445*
X6023*
Y1446*
X6021*
Y1447*
X6023*
Y1446*
X6026*
Y1446*
X6026*
Y1448*
X6027*
Y1446*
X6030*
Y1448*
X6032*
Y1450*
X6029*
Y1451*
X6027*
Y1452*
X6026*
Y1453*
X6027*
Y1452*
X6030*
Y1451*
X6035*
Y1447*
X6033*
Y1446*
X6036*
Y1448*
X6037*
Y1450*
X6038*
Y1451*
X6042*
Y1450*
X6043*
Y1452*
X6044*
Y1451*
X6046*
Y1448*
X6048*
Y1451*
X6049*
Y1448*
X6050*
Y1450*
X6052*
Y1448*
X6053*
Y1446*
X6055*
Y1447*
X6054*
Y1448*
X6056*
Y1447*
X6058*
Y1446*
X6059*
Y1446*
X6061*
Y1445*
X6062*
Y1445*
X6062*
Y1445*
X6064*
Y1446*
X6066*
Y1443*
X6067*
Y1442*
X6068*
Y1445*
X6076*
Y1431*
X6076*
Y1431*
X6077*
Y1430*
X6090*
Y1433*
X6090*
Y1445*
X6097*
Y1430*
X6097*
Y1429*
X6097*
Y1429*
X6097*
Y1429*
X6097*
Y1428*
X6096*
Y1428*
X6096*
Y1428*
X6096*
Y1427*
X6096*
Y1427*
X6096*
Y1427*
X6096*
Y1427*
X6095*
Y1427*
X6095*
Y1427*
X6095*
Y1426*
X6095*
Y1426*
X6094*
Y1426*
X6094*
Y1426*
X6094*
Y1426*
X6093*
Y1425*
X6093*
Y1425*
X6092*
Y1425*
X6074*
Y1425*
X6073*
Y1425*
X6073*
Y1426*
X6072*
Y1426*
X6072*
Y1426*
X6071*
Y1426*
X6071*
Y1426*
X6071*
Y1427*
X6071*
Y1427*
X6070*
Y1427*
X6070*
Y1427*
X6070*
Y1427*
X6070*
Y1427*
X6070*
Y1428*
X6070*
Y1428*
X6069*
Y1428*
X6069*
Y1428*
X6069*
Y1429*
X6069*
Y1429*
X6069*
Y1430*
X6068*
Y1431*
X6067*
Y1427*
X6069*
Y1423*
X6067*
Y1418*
X6066*
Y1414*
X6065*
Y1410*
X6066*
Y1408*
X6069*
Y1406*
X6067*
Y1405*
X6066*
Y1404*
X6065*
Y1401*
X6066*
Y1396*
X6065*
Y1395*
X6061*
Y1396*
X6054*
Y1393*
X6055*
Y1388*
X6058*
Y1387*
X6064*
Y1389*
X6065*
Y1390*
X6066*
Y1391*
X6067*
Y1393*
X6069*
Y1395*
X6070*
Y1394*
X6072*
Y1393*
X6075*
Y1391*
X6077*
Y1390*
X6079*
Y1388*
X6078*
Y1382*
X6077*
Y1379*
X6078*
Y1378*
X6079*
Y1377*
X6082*
Y1376*
X6086*
Y1377*
X6087*
Y1378*
X6088*
Y1379*
X6089*
Y1380*
X6090*
Y1382*
X6092*
Y1383*
X6093*
Y1382*
X6094*
Y1380*
X6095*
Y1379*
X6098*
Y1378*
X6099*
Y1377*
X6100*
Y1376*
X6101*
Y1373*
X6100*
Y1370*
X6099*
Y1368*
X6098*
Y1366*
X6096*
Y1365*
X6098*
Y1364*
X6099*
Y1362*
X6100*
Y1361*
X6102*
Y1360*
X6106*
Y1361*
X6109*
Y1362*
X6111*
Y1364*
X6115*
Y1361*
X6116*
Y1360*
X6117*
Y1357*
X6118*
Y1356*
X6119*
Y1353*
X6118*
Y1351*
X6117*
Y1350*
X6116*
Y1349*
X6115*
Y1348*
X6113*
Y1344*
X6115*
Y1342*
X6116*
Y1339*
X6124*
Y1341*
X6125*
Y1339*
X6127*
Y1341*
X6128*
Y1338*
X6129*
Y1336*
X6130*
Y1332*
X6132*
Y1331*
X6130*
Y1330*
X6129*
Y1328*
X6128*
Y1327*
X6125*
Y1326*
X6124*
Y1325*
X6123*
Y1321*
X6124*
Y1317*
X6125*
Y1315*
X6135*
Y1308*
X6136*
Y1302*
X6132*
Y1301*
X6128*
Y1299*
X6127*
Y1292*
X6128*
Y1291*
X6132*
Y1290*
X6136*
Y1286*
X6135*
Y1279*
X6125*
Y1278*
X6124*
Y1275*
X6123*
Y1269*
X6124*
Y1268*
X6125*
Y1267*
X6128*
Y1265*
X6129*
Y1264*
X6130*
Y1262*
X6129*
Y1258*
X6128*
Y1256*
X6127*
Y1253*
X6123*
Y1255*
X6118*
Y1256*
X6117*
Y1255*
X6115*
Y1252*
X6113*
Y1250*
X6112*
Y1247*
X6113*
Y1245*
X6115*
Y1244*
X6116*
Y1242*
X6117*
Y1239*
X6116*
Y1236*
X6115*
Y1234*
X6113*
Y1231*
X6109*
Y1233*
X6107*
Y1234*
X6104*
Y1235*
X6101*
Y1234*
X6100*
Y1233*
X6099*
Y1231*
X6098*
Y1230*
X6096*
Y1228*
X6098*
Y1225*
X6099*
Y1223*
X6100*
Y1219*
X6099*
Y1218*
X6098*
Y1217*
X6095*
Y1216*
X6094*
Y1215*
X6093*
Y1213*
X6089*
Y1215*
X6088*
Y1216*
X6087*
Y1217*
X6086*
Y1218*
X6084*
Y1219*
X6082*
Y1218*
X6081*
Y1217*
X6078*
Y1216*
X6077*
Y1215*
X6076*
Y1213*
X6077*
Y1208*
X6078*
Y1205*
X6076*
Y1204*
X6072*
Y1202*
X6070*
Y1201*
X6066*
Y1204*
X6065*
Y1205*
X6064*
Y1207*
X6062*
Y1208*
X6061*
Y1210*
X6060*
Y1208*
X6054*
Y1207*
X6053*
Y1206*
X6054*
Y1205*
X6053*
Y1198*
X6050*
Y1196*
X6041*
Y1198*
X6039*
Y1201*
X6038*
Y1205*
X6030*
Y1204*
X6029*
Y1200*
X6027*
Y1196*
X6016*
Y1198*
X6015*
Y1207*
X6013*
Y1208*
X6009*
Y1210*
X6007*
Y1208*
X6006*
Y1206*
X6004*
Y1205*
X6003*
Y1204*
X6002*
Y1202*
X6001*
Y1201*
X6000*
Y1202*
X5997*
Y1204*
X5993*
Y1205*
X5991*
Y1208*
X5992*
Y1217*
X5990*
Y1218*
X5989*
Y1219*
X5985*
Y1218*
X5984*
Y1217*
X5981*
Y1216*
X5979*
Y1215*
X5978*
Y1213*
X5976*
Y1215*
X5975*
Y1216*
X5974*
Y1217*
X5973*
Y1218*
X5972*
Y1219*
X5969*
Y1222*
X5970*
Y1225*
X5972*
Y1228*
X5973*
Y1230*
X5972*
Y1231*
X5970*
Y1233*
X5969*
Y1234*
X5968*
Y1235*
X5966*
Y1234*
X5962*
Y1233*
X5960*
Y1231*
X5957*
Y1233*
X5956*
Y1234*
X5955*
Y1236*
X5953*
Y1238*
X5952*
Y1239*
X5951*
Y1242*
X5952*
Y1244*
X5953*
Y1245*
X5955*
Y1246*
X5956*
Y1247*
X5957*
Y1251*
X5956*
Y1253*
X5955*
Y1256*
X5947*
Y1255*
X5943*
Y1256*
X5941*
Y1261*
X5940*
Y1263*
X5939*
Y1265*
X5940*
Y1267*
X5943*
Y1268*
X5945*
Y1269*
X5946*
Y1270*
X5947*
Y1274*
X5946*
Y1278*
X5945*
Y1279*
X5935*
Y1280*
X5934*
Y1291*
X5939*
Y1292*
X5944*
Y1301*
X5943*
Y1302*
X5940*
Y1303*
X5938*
Y1304*
X5934*
Y1315*
X5935*
Y1316*
X5945*
Y1317*
X5946*
Y1319*
X5947*
Y1324*
X5949*
Y1327*
X5946*
Y1328*
X5945*
Y1330*
X5943*
Y1331*
X5940*
Y1336*
X5941*
Y1338*
X5943*
Y1341*
X5944*
Y1343*
X5946*
Y1342*
X5951*
Y1341*
X5955*
Y1342*
X5956*
Y1343*
X5957*
Y1345*
X5958*
Y1347*
X5960*
Y1349*
X5958*
Y1350*
X5957*
Y1351*
X5956*
Y1353*
X5955*
Y1354*
X5953*
Y1355*
X5952*
Y1357*
X5953*
Y1359*
X5955*
Y1360*
X5956*
Y1361*
X5957*
Y1364*
X5958*
Y1365*
X5960*
Y1366*
X5961*
Y1365*
X5963*
Y1364*
X5964*
Y1362*
X5967*
Y1361*
X5968*
Y1360*
X5969*
Y1361*
X5970*
Y1362*
X5972*
Y1364*
X5973*
Y1365*
X5974*
Y1368*
X5973*
Y1371*
X5972*
Y1373*
X5970*
Y1377*
X5973*
Y1378*
X5974*
Y1379*
X5975*
Y1380*
X5978*
Y1382*
X5980*
Y1380*
X5981*
Y1379*
X5984*
Y1378*
X5985*
Y1377*
X5987*
Y1376*
X5989*
Y1377*
X5991*
Y1378*
X5992*
Y1379*
X5993*
Y1387*
X5992*
Y1390*
X5993*
Y1391*
X5996*
Y1393*
X6000*
Y1394*
X6002*
Y1395*
X6003*
Y1394*
X6004*
Y1391*
X6006*
Y1390*
X6007*
Y1388*
X6008*
Y1387*
X6012*
Y1388*
X6016*
Y1389*
X6018*
Y1397*
X6009*
Y1401*
X6010*
Y1402*
X6015*
Y1404*
X6016*
Y1408*
X6015*
Y1410*
X6013*
Y1408*
X6012*
Y1407*
X6009*
Y1408*
X6007*
Y1411*
X6004*
Y1407*
X6003*
Y1404*
X6001*
Y1402*
X6000*
Y1401*
X5998*
Y1400*
X5997*
Y1401*
X5996*
Y1402*
X5995*
Y1404*
X5992*
Y1407*
X5990*
Y1411*
X5991*
Y1412*
X5992*
Y1413*
X5990*
Y1414*
X5989*
Y1417*
X5990*
Y1418*
X5992*
Y1425*
X5990*
Y1427*
X5990*
Y1425*
X5983*
Y1446*
X5993*
Y1457*
X5995*
Y1459*
X5996*
Y1460*
X5997*
Y1462*
X6001*
Y1446*
G37*
G36*
X5973Y1446D02*
X5974D01*
Y1446*
X5974*
Y1445*
X5975*
Y1445*
X5975*
Y1445*
X5976*
Y1445*
X5976*
Y1445*
X5976*
Y1444*
X5977*
Y1444*
X5977*
Y1444*
X5977*
Y1444*
X5977*
Y1444*
X5978*
Y1443*
X5978*
Y1443*
X5978*
Y1443*
X5978*
Y1443*
X5978*
Y1442*
X5978*
Y1442*
X5979*
Y1441*
X5979*
Y1440*
X5979*
Y1431*
X5979*
Y1430*
X5979*
Y1429*
X5978*
Y1429*
X5978*
Y1428*
X5978*
Y1428*
X5978*
Y1428*
X5978*
Y1427*
X5978*
Y1427*
X5977*
Y1427*
X5977*
Y1427*
X5977*
Y1427*
X5977*
Y1427*
X5976*
Y1426*
X5976*
Y1426*
X5976*
Y1426*
X5975*
Y1426*
X5975*
Y1426*
X5974*
Y1425*
X5974*
Y1425*
X5973*
Y1425*
X5955*
Y1425*
X5954*
Y1425*
X5954*
Y1426*
X5953*
Y1426*
X5953*
Y1426*
X5952*
Y1426*
X5952*
Y1426*
X5952*
Y1427*
X5952*
Y1427*
X5951*
Y1427*
X5951*
Y1427*
X5951*
Y1427*
X5951*
Y1427*
X5951*
Y1428*
X5950*
Y1428*
X5950*
Y1428*
X5950*
Y1429*
X5950*
Y1429*
X5950*
Y1430*
X5949*
Y1432*
X5949*
Y1439*
X5949*
Y1441*
X5950*
Y1442*
X5950*
Y1442*
X5950*
Y1443*
X5950*
Y1443*
X5950*
Y1443*
X5951*
Y1444*
X5951*
Y1444*
X5951*
Y1444*
X5951*
Y1444*
X5951*
Y1444*
X5951*
Y1444*
X5952*
Y1445*
X5952*
Y1445*
X5952*
Y1445*
X5953*
Y1445*
X5953*
Y1445*
X5954*
Y1446*
X5954*
Y1446*
X5955*
Y1446*
X5973*
Y1446*
G37*
G36*
X5946Y1443D02*
X5946D01*
Y1441*
X5928*
Y1440*
X5928*
Y1440*
X5928*
Y1440*
X5927*
Y1440*
X5927*
Y1439*
X5927*
Y1432*
X5927*
Y1431*
X5927*
Y1431*
X5928*
Y1431*
X5928*
Y1431*
X5928*
Y1430*
X5946*
Y1430*
X5946*
Y1425*
X5925*
Y1425*
X5925*
Y1425*
X5924*
Y1426*
X5924*
Y1426*
X5923*
Y1426*
X5923*
Y1426*
X5923*
Y1426*
X5922*
Y1427*
X5922*
Y1427*
X5922*
Y1427*
X5922*
Y1427*
X5922*
Y1427*
X5921*
Y1427*
X5921*
Y1428*
X5921*
Y1428*
X5921*
Y1428*
X5921*
Y1428*
X5921*
Y1429*
X5920*
Y1429*
X5920*
Y1430*
X5920*
Y1441*
X5920*
Y1442*
X5920*
Y1442*
X5921*
Y1443*
X5921*
Y1443*
X5921*
Y1443*
X5921*
Y1443*
X5921*
Y1444*
X5921*
Y1444*
X5922*
Y1444*
X5922*
Y1444*
X5922*
Y1444*
X5922*
Y1444*
X5922*
Y1445*
X5923*
Y1445*
X5923*
Y1445*
X5923*
Y1445*
X5924*
Y1445*
X5924*
Y1446*
X5925*
Y1446*
X5925*
Y1446*
X5946*
Y1443*
G37*
G36*
X5913Y1446D02*
X5914D01*
Y1446*
X5914*
Y1445*
X5914*
Y1445*
X5915*
Y1445*
X5915*
Y1445*
X5915*
Y1445*
X5915*
Y1444*
X5916*
Y1444*
X5916*
Y1444*
X5916*
Y1443*
X5916*
Y1443*
X5916*
Y1442*
X5916*
Y1438*
X5916*
Y1437*
X5916*
Y1436*
X5916*
Y1436*
X5916*
Y1436*
X5916*
Y1435*
X5915*
Y1435*
X5915*
Y1435*
X5915*
Y1435*
X5915*
Y1435*
X5914*
Y1434*
X5914*
Y1434*
X5914*
Y1434*
X5913*
Y1434*
X5896*
Y1433*
X5896*
Y1432*
X5896*
Y1431*
X5896*
Y1431*
X5896*
Y1431*
X5897*
Y1431*
X5897*
Y1430*
X5916*
Y1425*
X5894*
Y1425*
X5893*
Y1425*
X5892*
Y1426*
X5892*
Y1426*
X5892*
Y1426*
X5891*
Y1426*
X5891*
Y1426*
X5891*
Y1427*
X5890*
Y1427*
X5890*
Y1427*
X5890*
Y1427*
X5890*
Y1427*
X5890*
Y1427*
X5890*
Y1428*
X5889*
Y1428*
X5889*
Y1428*
X5889*
Y1429*
X5889*
Y1430*
X5889*
Y1442*
X5889*
Y1442*
Y1442*
X5889*
Y1443*
X5889*
Y1443*
X5889*
Y1444*
X5890*
Y1444*
X5890*
Y1444*
X5890*
Y1444*
X5890*
Y1444*
X5890*
Y1444*
X5890*
Y1445*
X5891*
Y1445*
X5891*
Y1445*
X5891*
Y1445*
X5892*
Y1445*
X5892*
Y1446*
X5893*
Y1446*
X5894*
Y1446*
X5913*
Y1446*
G37*
G36*
X5885Y1441D02*
Y1441D01*
Y1425*
X5877*
Y1431*
X5877*
Y1448*
X5877*
Y1453*
X5885*
Y1441*
G37*
G36*
X5870Y1446D02*
X5870D01*
Y1446*
X5871*
Y1445*
X5871*
Y1445*
X5871*
Y1445*
X5872*
Y1445*
X5872*
Y1445*
X5872*
Y1444*
X5872*
Y1444*
X5873*
Y1444*
X5873*
Y1443*
X5873*
Y1443*
X5873*
Y1442*
Y1442*
X5873*
Y1437*
X5873*
Y1437*
X5873*
Y1436*
X5873*
Y1436*
X5873*
Y1435*
X5872*
Y1435*
X5872*
Y1435*
X5872*
Y1435*
X5872*
Y1435*
X5872*
Y1435*
X5871*
Y1434*
X5871*
Y1434*
X5871*
Y1434*
X5870*
Y1434*
X5853*
Y1432*
X5853*
Y1431*
X5853*
Y1431*
X5853*
Y1431*
X5853*
Y1431*
X5854*
Y1430*
X5873*
Y1425*
X5851*
Y1425*
X5850*
Y1425*
X5849*
Y1426*
X5849*
Y1426*
X5848*
Y1426*
X5848*
Y1426*
X5848*
Y1426*
X5847*
Y1427*
X5847*
Y1427*
X5847*
Y1427*
X5847*
Y1427*
X5847*
Y1427*
X5846*
Y1427*
X5846*
Y1428*
X5846*
Y1428*
X5846*
Y1428*
X5846*
Y1429*
X5846*
Y1430*
X5845*
Y1441*
X5846*
Y1442*
X5846*
Y1443*
X5846*
Y1443*
X5846*
Y1444*
X5846*
Y1444*
X5846*
Y1444*
X5847*
Y1444*
X5847*
Y1444*
X5847*
Y1444*
X5847*
Y1445*
X5848*
Y1445*
X5848*
Y1445*
X5848*
Y1445*
X5848*
Y1445*
X5849*
Y1446*
X5850*
Y1446*
X5851*
Y1446*
X5870*
Y1446*
G37*
G36*
X5845Y1447D02*
X5828D01*
Y1425*
X5820*
Y1430*
X5820*
Y1444*
X5820*
Y1447*
X5803*
Y1449*
Y1450*
Y1453*
X5845*
Y1447*
G37*
G36*
X5781Y1431D02*
X5781D01*
Y1430*
X5781*
Y1429*
X5781*
Y1429*
X5780*
Y1428*
X5780*
Y1428*
X5780*
Y1428*
X5780*
Y1427*
X5780*
Y1427*
X5779*
Y1427*
X5779*
Y1427*
X5779*
Y1427*
X5779*
Y1427*
X5778*
Y1426*
X5778*
Y1426*
X5778*
Y1426*
X5778*
Y1426*
X5777*
Y1426*
X5776*
Y1425*
X5776*
Y1425*
X5775*
Y1425*
X5757*
Y1425*
X5756*
Y1425*
X5756*
Y1426*
X5755*
Y1426*
X5755*
Y1426*
X5754*
Y1426*
X5754*
Y1426*
X5754*
Y1427*
X5754*
Y1427*
X5753*
Y1427*
X5753*
Y1427*
X5753*
Y1427*
X5753*
Y1427*
X5753*
Y1428*
X5752*
Y1428*
X5752*
Y1428*
X5752*
Y1429*
X5752*
Y1429*
X5752*
Y1430*
X5752*
Y1430*
Y1431*
Y1432*
X5751*
Y1439*
X5752*
Y1441*
X5752*
Y1442*
X5752*
Y1442*
X5752*
Y1443*
X5752*
Y1443*
X5752*
Y1443*
X5753*
Y1444*
X5753*
Y1444*
X5753*
Y1444*
X5753*
Y1444*
X5753*
Y1444*
X5754*
Y1444*
X5754*
Y1445*
X5754*
Y1445*
X5754*
Y1445*
X5755*
Y1445*
X5755*
Y1445*
X5756*
Y1446*
X5756*
Y1446*
X5757*
Y1446*
X5774*
Y1446*
X5774*
Y1453*
X5781*
Y1431*
G37*
G36*
X5741Y1446D02*
X5742D01*
Y1446*
X5743*
Y1445*
X5743*
Y1445*
X5744*
Y1445*
X5744*
Y1445*
X5744*
Y1445*
X5745*
Y1444*
X5745*
Y1444*
X5745*
Y1444*
X5745*
Y1444*
X5745*
Y1444*
X5746*
Y1444*
X5746*
Y1443*
X5746*
Y1443*
X5746*
Y1443*
X5746*
Y1442*
X5747*
Y1442*
X5747*
Y1441*
X5747*
Y1440*
X5747*
Y1439*
X5747*
Y1425*
X5740*
Y1440*
X5740*
Y1440*
X5738*
Y1441*
X5725*
Y1425*
X5718*
Y1446*
X5741*
Y1446*
G37*
G36*
X5709D02*
X5710D01*
Y1446*
X5710*
Y1445*
X5711*
Y1445*
X5711*
Y1445*
X5711*
Y1445*
X5712*
Y1445*
X5712*
Y1444*
X5712*
Y1444*
X5712*
Y1444*
X5713*
Y1444*
X5713*
Y1444*
X5713*
Y1443*
X5713*
Y1443*
X5713*
Y1443*
X5713*
Y1442*
X5714*
Y1442*
X5714*
Y1441*
X5714*
Y1440*
X5714*
Y1430*
X5714*
Y1429*
X5714*
Y1429*
X5714*
Y1428*
X5713*
Y1428*
X5713*
Y1427*
X5713*
Y1427*
X5713*
Y1427*
X5713*
Y1427*
X5713*
Y1427*
X5712*
Y1427*
X5712*
Y1426*
X5712*
Y1426*
X5712*
Y1426*
X5711*
Y1426*
X5711*
Y1426*
X5710*
Y1425*
X5710*
Y1425*
X5709*
Y1425*
X5690*
Y1425*
X5689*
Y1425*
X5689*
Y1426*
X5688*
Y1426*
X5688*
Y1426*
X5688*
Y1426*
X5687*
Y1426*
X5687*
Y1427*
X5687*
Y1427*
X5687*
Y1427*
X5687*
Y1428*
X5686*
Y1429*
X5686*
Y1434*
X5686*
Y1435*
X5687*
Y1435*
X5687*
Y1435*
X5687*
Y1436*
X5687*
Y1436*
X5687*
Y1436*
X5688*
Y1436*
X5688*
Y1436*
X5688*
Y1437*
X5688*
Y1437*
X5689*
Y1437*
X5689*
Y1437*
X5707*
Y1438*
X5707*
Y1439*
X5707*
Y1439*
X5707*
Y1440*
X5706*
Y1440*
X5706*
Y1440*
X5706*
Y1440*
X5706*
Y1441*
X5687*
Y1442*
X5686*
Y1446*
X5709*
Y1446*
G37*
G36*
X5664D02*
X5664D01*
Y1445*
X5664*
Y1441*
X5647*
Y1440*
X5647*
Y1440*
X5647*
Y1440*
X5646*
Y1440*
X5646*
Y1440*
X5646*
Y1438*
X5646*
Y1433*
X5646*
Y1431*
X5646*
Y1431*
X5646*
Y1431*
X5647*
Y1431*
X5647*
Y1430*
X5665*
Y1425*
X5645*
Y1425*
X5644*
Y1425*
X5643*
Y1426*
X5643*
Y1426*
X5642*
Y1426*
X5642*
Y1426*
X5641*
Y1426*
X5641*
Y1427*
X5641*
Y1427*
X5641*
Y1427*
X5640*
Y1427*
X5640*
Y1427*
X5640*
Y1427*
X5640*
Y1428*
X5640*
Y1428*
X5640*
Y1428*
X5639*
Y1429*
X5639*
Y1429*
X5639*
Y1430*
X5639*
Y1431*
X5639*
Y1440*
X5639*
Y1441*
X5639*
Y1442*
X5639*
Y1442*
X5639*
Y1443*
X5640*
Y1443*
X5640*
Y1443*
X5640*
Y1444*
X5640*
Y1444*
X5640*
Y1444*
X5640*
Y1444*
X5641*
Y1444*
X5641*
Y1444*
X5641*
Y1445*
X5641*
Y1445*
X5642*
Y1445*
X5642*
Y1445*
X5643*
Y1445*
X5643*
Y1446*
X5644*
Y1446*
X5645*
Y1446*
X5664*
Y1446*
G37*
G36*
X5635Y1425D02*
X5627D01*
Y1446*
X5635*
Y1425*
G37*
G36*
X5617Y1446D02*
X5618D01*
Y1446*
X5619*
Y1445*
X5619*
Y1445*
X5620*
Y1445*
X5620*
Y1445*
X5620*
Y1445*
X5621*
Y1444*
X5621*
Y1444*
X5621*
Y1444*
X5621*
Y1444*
X5622*
Y1444*
X5622*
Y1443*
X5622*
Y1443*
X5622*
Y1443*
X5622*
Y1442*
X5623*
Y1442*
X5623*
Y1442*
X5623*
Y1441*
X5623*
Y1440*
X5623*
Y1425*
X5616*
Y1440*
X5614*
Y1441*
X5601*
Y1438*
X5601*
Y1430*
X5601*
Y1425*
X5594*
Y1427*
Y1427*
Y1446*
X5617*
Y1446*
G37*
G36*
X5533Y1446D02*
X5537D01*
Y1441*
X5533*
Y1431*
Y1431*
Y1425*
X5525*
Y1431*
X5526*
Y1436*
X5525*
Y1441*
X5522*
Y1446*
X5525*
Y1452*
X5531*
Y1452*
X5533*
Y1446*
G37*
G36*
X5459Y1425D02*
X5451D01*
Y1435*
X5452*
Y1444*
X5451*
Y1448*
Y1448*
Y1453*
X5459*
Y1425*
G37*
G36*
X5448Y1447D02*
X5448D01*
Y1447*
X5414*
Y1447*
X5414*
Y1446*
X5413*
Y1446*
X5413*
Y1446*
X5413*
Y1445*
X5413*
Y1442*
X5447*
Y1436*
X5413*
Y1432*
X5413*
Y1432*
X5413*
Y1432*
X5413*
Y1431*
X5414*
Y1431*
X5415*
Y1431*
X5448*
Y1425*
X5412*
Y1425*
X5410*
Y1425*
X5410*
Y1426*
X5409*
Y1426*
X5409*
Y1426*
X5409*
Y1426*
X5408*
Y1426*
X5408*
Y1427*
X5408*
Y1427*
X5408*
Y1427*
X5408*
Y1427*
X5407*
Y1427*
X5407*
Y1427*
X5407*
Y1428*
X5407*
Y1428*
X5407*
Y1428*
X5406*
Y1428*
X5406*
Y1429*
X5406*
Y1429*
X5406*
Y1430*
X5406*
Y1448*
X5406*
Y1449*
X5406*
Y1449*
X5406*
Y1450*
X5406*
Y1450*
X5407*
Y1450*
Y1450*
X5407*
Y1450*
X5407*
Y1451*
X5407*
Y1451*
X5407*
Y1451*
X5408*
Y1451*
X5408*
Y1451*
X5408*
Y1451*
X5408*
Y1452*
X5408*
Y1452*
X5409*
Y1452*
X5409*
Y1452*
X5410*
Y1452*
X5410*
Y1453*
X5411*
Y1453*
X5412*
Y1453*
X5448*
Y1447*
G37*
G36*
X5584Y1446D02*
X5585D01*
Y1446*
X5586*
Y1445*
X5586*
Y1445*
X5586*
Y1445*
X5587*
Y1445*
X5587*
Y1445*
X5588*
Y1444*
X5588*
Y1444*
X5588*
Y1444*
X5588*
Y1444*
X5588*
Y1444*
X5588*
Y1444*
X5589*
Y1443*
X5589*
Y1443*
X5589*
Y1443*
X5589*
Y1442*
X5589*
Y1442*
X5590*
Y1441*
X5590*
Y1441*
X5590*
Y1439*
X5590*
Y1431*
X5590*
Y1430*
X5590*
Y1430*
X5590*
Y1429*
X5589*
Y1429*
X5589*
Y1428*
X5589*
Y1428*
X5589*
Y1428*
X5589*
Y1427*
X5588*
Y1427*
X5588*
Y1427*
X5588*
Y1427*
X5588*
Y1427*
X5588*
Y1426*
X5587*
Y1426*
X5587*
Y1426*
X5586*
Y1426*
X5586*
Y1426*
X5585*
Y1425*
X5585*
Y1425*
X5583*
Y1425*
X5581*
Y1425*
X5579*
Y1425*
X5566*
Y1425*
X5565*
Y1425*
X5565*
Y1426*
X5564*
Y1426*
X5564*
Y1426*
X5564*
Y1426*
X5563*
Y1426*
X5563*
Y1427*
X5563*
Y1427*
X5562*
Y1427*
X5562*
Y1427*
X5562*
Y1427*
X5562*
Y1427*
X5562*
Y1428*
X5561*
Y1428*
X5561*
Y1428*
X5561*
Y1428*
X5561*
Y1429*
X5561*
Y1429*
X5561*
Y1430*
X5560*
Y1440*
X5561*
Y1442*
X5561*
Y1442*
X5561*
Y1442*
X5561*
Y1443*
X5561*
Y1443*
X5561*
Y1443*
X5562*
Y1444*
X5562*
Y1444*
X5562*
Y1444*
X5562*
Y1444*
X5562*
Y1444*
X5563*
Y1444*
X5563*
Y1445*
X5563*
Y1445*
X5563*
Y1445*
X5564*
Y1445*
X5564*
Y1445*
X5565*
Y1446*
X5565*
Y1446*
X5566*
Y1446*
X5584*
Y1446*
G37*
G36*
X6629D02*
X6630D01*
Y1446*
X6631*
Y1445*
X6631*
Y1445*
X6632*
Y1445*
X6632*
Y1445*
X6633*
Y1445*
X6633*
Y1444*
X6633*
Y1444*
X6633*
Y1444*
X6633*
Y1444*
X6634*
Y1444*
X6634*
Y1443*
X6634*
Y1443*
X6634*
Y1443*
X6634*
Y1442*
X6635*
Y1442*
X6635*
Y1439*
X6635*
Y1434*
X6635*
Y1429*
X6635*
Y1426*
X6635*
Y1424*
X6635*
Y1423*
X6634*
Y1422*
X6634*
Y1422*
X6634*
Y1421*
X6634*
Y1421*
X6634*
Y1421*
X6633*
Y1421*
X6633*
Y1420*
X6633*
Y1420*
X6633*
Y1420*
X6633*
Y1420*
X6632*
Y1420*
X6632*
Y1419*
X6632*
Y1419*
X6631*
Y1419*
X6631*
Y1419*
X6630*
Y1419*
X6630*
Y1418*
X6629*
Y1418*
X6628*
Y1418*
X6606*
Y1420*
Y1420*
Y1423*
X6625*
Y1424*
X6626*
Y1424*
X6626*
Y1424*
X6627*
Y1424*
X6627*
Y1424*
X6627*
Y1425*
X6627*
Y1428*
X6609*
Y1428*
X6608*
Y1429*
X6608*
Y1429*
X6607*
Y1429*
X6607*
Y1429*
X6607*
Y1429*
X6607*
Y1429*
X6606*
Y1430*
X6606*
Y1430*
X6606*
Y1430*
X6606*
Y1430*
X6606*
Y1431*
X6606*
Y1431*
X6605*
Y1432*
X6605*
Y1442*
X6605*
Y1443*
X6606*
Y1443*
X6606*
Y1443*
X6606*
Y1444*
X6606*
Y1444*
X6606*
Y1444*
X6606*
Y1444*
X6607*
Y1444*
X6607*
Y1445*
X6607*
Y1445*
X6608*
Y1445*
X6608*
Y1445*
X6608*
Y1445*
X6609*
Y1446*
X6610*
Y1446*
X6611*
Y1446*
X6629*
Y1446*
G37*
G36*
X6422D02*
X6423D01*
Y1446*
X6423*
Y1445*
X6424*
Y1445*
X6425*
Y1445*
X6425*
Y1445*
X6425*
Y1445*
X6425*
Y1444*
X6426*
Y1444*
X6426*
Y1444*
X6426*
Y1444*
X6426*
Y1444*
X6427*
Y1443*
X6427*
Y1443*
X6427*
Y1443*
X6427*
Y1442*
X6427*
Y1441*
X6427*
Y1424*
X6427*
Y1423*
X6427*
Y1422*
X6427*
Y1422*
X6427*
Y1422*
X6427*
Y1421*
X6426*
Y1421*
X6426*
Y1421*
X6426*
Y1420*
X6426*
Y1420*
X6426*
Y1420*
X6425*
Y1420*
X6425*
Y1420*
X6425*
Y1420*
X6425*
Y1419*
X6425*
Y1419*
X6424*
Y1419*
X6424*
Y1419*
X6423*
Y1419*
X6423*
Y1418*
X6422*
Y1418*
X6421*
Y1418*
X6399*
Y1423*
X6417*
Y1424*
X6418*
Y1424*
X6419*
Y1424*
X6419*
Y1424*
X6420*
Y1427*
X6420*
Y1428*
X6420*
Y1428*
X6402*
Y1428*
X6401*
Y1429*
X6400*
Y1429*
X6400*
Y1429*
X6400*
Y1429*
X6400*
Y1429*
X6399*
Y1429*
X6399*
Y1430*
X6399*
Y1430*
X6399*
Y1430*
X6399*
Y1430*
X6398*
Y1431*
X6398*
Y1431*
X6398*
Y1432*
X6398*
Y1434*
X6398*
Y1439*
X6398*
Y1442*
X6398*
Y1443*
X6398*
Y1443*
X6398*
Y1444*
X6399*
Y1444*
X6399*
Y1444*
X6399*
Y1444*
X6399*
Y1444*
X6399*
Y1444*
X6400*
Y1445*
X6400*
Y1445*
X6400*
Y1445*
X6401*
Y1445*
X6401*
Y1445*
X6401*
Y1446*
X6402*
Y1446*
X6403*
Y1446*
X6422*
Y1446*
G37*
G36*
X5906Y1326D02*
X5905D01*
Y1322*
X5904*
Y1317*
X5903*
Y1324*
X5904*
Y1327*
X5905*
Y1328*
X5906*
Y1326*
G37*
G36*
X5903Y1316D02*
Y1315D01*
X5901*
Y1317*
X5903*
Y1316*
G37*
G36*
Y1311D02*
X5901D01*
Y1314*
X5903*
Y1311*
G37*
G36*
X6164Y1326D02*
X6165D01*
Y1320*
X6167*
Y1314*
X6168*
Y1305*
X6169*
Y1301*
X6170*
Y1293*
X6172*
Y1265*
X6170*
Y1263*
X6172*
Y1259*
X6173*
Y1253*
X6172*
Y1247*
X6170*
Y1245*
X6169*
Y1240*
X6168*
Y1239*
X6169*
Y1236*
X6168*
Y1235*
X6167*
Y1233*
X6165*
Y1230*
X6164*
Y1228*
X6163*
Y1225*
X6162*
Y1221*
X6161*
Y1219*
X6159*
Y1217*
X6158*
Y1215*
X6157*
Y1212*
X6156*
Y1211*
X6155*
Y1210*
X6153*
Y1207*
X6152*
Y1205*
X6151*
Y1204*
X6150*
Y1201*
X6149*
Y1200*
X6147*
Y1199*
X6146*
Y1198*
X6145*
Y1195*
X6144*
Y1194*
X6142*
Y1193*
X6141*
Y1189*
X6140*
Y1188*
X6139*
Y1187*
X6136*
Y1185*
X6133*
Y1184*
X6134*
Y1183*
X6133*
Y1182*
X6132*
Y1183*
X6129*
Y1182*
X6128*
Y1181*
X6130*
Y1179*
X6128*
Y1178*
X6129*
Y1177*
X6128*
Y1176*
X6127*
Y1175*
X6123*
Y1173*
X6122*
Y1172*
X6121*
Y1171*
X6118*
Y1170*
X6117*
Y1168*
X6115*
Y1167*
X6111*
Y1164*
X6110*
Y1162*
X6107*
Y1161*
X6106*
Y1162*
X6105*
Y1161*
X6106*
Y1159*
X6104*
Y1158*
X6102*
Y1159*
X6101*
Y1156*
X6099*
Y1155*
X6098*
Y1158*
X6096*
Y1156*
X6094*
Y1155*
X6098*
Y1154*
X6096*
Y1153*
X6095*
Y1152*
X6093*
Y1154*
X6090*
Y1153*
X6092*
Y1152*
X6093*
Y1150*
X6092*
Y1152*
X6090*
Y1150*
X6092*
Y1149*
X6090*
Y1148*
X6087*
Y1147*
X6083*
Y1145*
X6077*
Y1147*
X6076*
Y1144*
X6070*
Y1145*
X6067*
Y1147*
X6065*
Y1145*
X6064*
Y1144*
X6060*
Y1145*
X6058*
Y1147*
X6055*
Y1148*
X6052*
Y1149*
X6044*
Y1147*
X6047*
Y1145*
X6048*
Y1144*
X6049*
Y1141*
X6048*
Y1138*
X6047*
Y1137*
X6044*
Y1138*
X6043*
Y1141*
X6042*
Y1142*
X6041*
Y1143*
X6039*
Y1144*
X6037*
Y1145*
X6033*
Y1144*
X6032*
Y1143*
X6030*
Y1142*
X6029*
Y1141*
X6027*
Y1139*
X6026*
Y1138*
X6025*
Y1137*
X6024*
Y1136*
X6023*
Y1135*
X6021*
Y1132*
X6020*
Y1131*
X6019*
Y1135*
X6018*
Y1139*
X6016*
Y1142*
X6019*
Y1143*
X6021*
Y1144*
X6024*
Y1145*
X6026*
Y1148*
X6025*
Y1149*
X6019*
Y1148*
X6014*
Y1147*
X6010*
Y1145*
X6004*
Y1147*
X6002*
Y1148*
X5998*
Y1150*
X5997*
Y1149*
X5996*
Y1148*
X5998*
Y1147*
X6002*
Y1145*
X5996*
Y1147*
X5984*
Y1148*
X5983*
Y1149*
X5981*
Y1150*
X5980*
Y1152*
X5976*
Y1153*
X5975*
Y1154*
X5974*
Y1156*
X5968*
Y1158*
X5966*
Y1159*
X5964*
Y1160*
X5961*
Y1161*
X5958*
Y1164*
X5957*
Y1165*
X5955*
Y1166*
X5953*
Y1167*
X5952*
Y1170*
X5951*
Y1171*
X5950*
Y1172*
X5949*
Y1173*
X5946*
Y1175*
X5944*
Y1176*
X5943*
Y1177*
X5939*
Y1178*
X5938*
Y1179*
X5937*
Y1181*
X5935*
Y1182*
X5934*
Y1183*
X5933*
Y1185*
X5932*
Y1188*
X5929*
Y1189*
X5927*
Y1190*
X5928*
Y1193*
X5926*
Y1195*
X5924*
Y1199*
X5923*
Y1200*
X5922*
Y1201*
X5921*
Y1202*
X5920*
Y1205*
X5918*
Y1206*
X5917*
Y1207*
X5916*
Y1210*
X5915*
Y1213*
X5913*
Y1215*
X5912*
Y1216*
X5915*
Y1217*
X5911*
Y1218*
X5910*
Y1221*
X5911*
Y1224*
X5910*
Y1223*
X5907*
Y1224*
X5906*
Y1228*
X5905*
Y1233*
X5904*
Y1235*
X5903*
Y1238*
X5901*
Y1241*
X5903*
Y1244*
X5900*
Y1246*
X5899*
Y1248*
X5900*
Y1250*
X5899*
Y1252*
X5898*
Y1258*
X5899*
Y1288*
X5898*
Y1291*
X5899*
Y1304*
X5900*
Y1309*
X5901*
Y1310*
X5903*
Y1307*
X5901*
Y1299*
X5900*
Y1281*
X5901*
Y1265*
X5904*
Y1264*
X5905*
Y1261*
X5906*
Y1259*
X5907*
Y1257*
X5910*
Y1253*
X5911*
Y1250*
X5912*
Y1245*
X5915*
Y1241*
X5916*
Y1239*
X5918*
Y1238*
X5920*
Y1234*
X5922*
Y1231*
X5923*
Y1230*
X5924*
Y1227*
X5926*
Y1225*
X5927*
Y1224*
X5929*
Y1221*
X5930*
Y1219*
X5932*
Y1218*
X5933*
Y1217*
X5934*
Y1213*
X5938*
Y1211*
X5939*
Y1210*
X5940*
Y1207*
X5941*
Y1206*
X5943*
Y1205*
X5941*
Y1206*
X5940*
Y1205*
X5941*
Y1204*
X5943*
Y1202*
X5944*
Y1204*
X5946*
Y1202*
X5947*
Y1200*
X5949*
Y1199*
X5950*
Y1198*
X5951*
Y1196*
X5952*
Y1195*
X5953*
Y1193*
X5955*
Y1194*
X5956*
Y1193*
X5958*
Y1192*
X5960*
Y1190*
X5958*
Y1188*
X5960*
Y1189*
X5962*
Y1188*
X5964*
Y1187*
X5966*
Y1185*
X5967*
Y1184*
X5968*
Y1185*
X5970*
Y1183*
X5973*
Y1182*
X5974*
Y1181*
X5975*
Y1179*
X5980*
Y1178*
X5981*
Y1177*
X5983*
Y1176*
X5986*
Y1175*
X5989*
Y1173*
X5990*
Y1172*
X5992*
Y1173*
X5993*
Y1172*
X5996*
Y1171*
X5997*
Y1170*
X5998*
Y1166*
X6001*
Y1167*
X6003*
Y1166*
X6004*
Y1164*
X6006*
Y1159*
X6007*
Y1158*
X6012*
Y1156*
X6014*
Y1155*
X6016*
Y1154*
X6027*
Y1153*
X6031*
Y1152*
X6039*
Y1153*
X6046*
Y1154*
X6055*
Y1155*
X6058*
Y1156*
X6060*
Y1158*
X6062*
Y1159*
X6061*
Y1160*
X6062*
Y1162*
X6064*
Y1159*
X6065*
Y1161*
X6066*
Y1160*
X6067*
Y1161*
X6066*
Y1164*
X6065*
Y1162*
X6064*
Y1165*
X6065*
Y1166*
X6066*
Y1167*
X6069*
Y1166*
X6070*
Y1165*
X6071*
Y1166*
X6070*
Y1167*
X6071*
Y1166*
X6072*
Y1167*
X6071*
Y1168*
Y1170*
X6072*
Y1167*
X6073*
Y1170*
X6072*
Y1171*
X6075*
Y1167*
X6076*
Y1171*
X6075*
Y1172*
X6076*
Y1173*
X6077*
Y1172*
X6078*
Y1173*
X6079*
Y1175*
X6082*
Y1176*
X6086*
Y1177*
X6087*
Y1178*
X6089*
Y1179*
X6092*
Y1182*
X6095*
Y1183*
X6098*
Y1182*
X6099*
Y1179*
X6100*
Y1182*
X6099*
Y1183*
X6100*
Y1182*
X6101*
Y1183*
X6100*
Y1184*
X6101*
Y1187*
X6105*
Y1185*
X6106*
Y1187*
X6105*
Y1188*
X6107*
Y1189*
X6109*
Y1190*
X6110*
Y1193*
X6112*
Y1194*
X6113*
Y1195*
X6115*
Y1196*
X6116*
Y1198*
X6117*
Y1199*
X6118*
Y1200*
X6121*
Y1201*
X6122*
Y1202*
X6123*
Y1204*
X6124*
Y1205*
X6125*
Y1206*
X6127*
Y1208*
X6128*
Y1210*
X6129*
Y1211*
X6130*
Y1212*
X6132*
Y1213*
X6133*
Y1215*
X6134*
Y1217*
X6135*
Y1218*
X6136*
Y1219*
X6138*
Y1221*
X6139*
Y1222*
X6140*
Y1221*
X6141*
Y1222*
X6140*
Y1223*
X6141*
Y1224*
X6142*
Y1225*
X6144*
Y1227*
X6145*
Y1229*
X6146*
Y1230*
X6147*
Y1233*
X6149*
Y1234*
X6150*
Y1236*
X6151*
Y1238*
X6152*
Y1239*
X6151*
Y1240*
X6152*
Y1242*
X6153*
Y1244*
X6155*
Y1246*
X6156*
Y1247*
X6157*
Y1248*
X6158*
Y1251*
X6159*
Y1253*
X6161*
Y1257*
X6162*
Y1261*
X6163*
Y1262*
X6164*
Y1265*
X6167*
Y1269*
X6168*
Y1273*
X6169*
Y1275*
X6168*
Y1276*
X6169*
Y1297*
X6168*
Y1304*
X6167*
Y1311*
X6165*
Y1317*
X6164*
Y1325*
X6163*
Y1327*
X6164*
Y1326*
G37*
G36*
X5961Y1217D02*
X5962D01*
Y1216*
X5969*
Y1215*
X5972*
Y1213*
X5973*
Y1212*
X5974*
Y1208*
X5973*
Y1211*
X5972*
Y1212*
X5969*
Y1213*
X5967*
Y1215*
X5966*
Y1212*
X5967*
Y1211*
X5969*
Y1210*
X5970*
Y1208*
X5972*
Y1207*
X5973*
Y1206*
X5975*
Y1205*
X5978*
Y1204*
X5980*
Y1202*
X5981*
Y1201*
X5984*
Y1200*
X5985*
Y1199*
X5987*
Y1198*
X5990*
Y1196*
X5993*
Y1195*
X5997*
Y1196*
X5996*
Y1198*
X5995*
Y1199*
X5991*
Y1200*
X5996*
Y1199*
X5997*
Y1198*
X5998*
Y1194*
X6000*
Y1193*
X6003*
Y1192*
X6007*
Y1190*
X6013*
Y1189*
X6014*
Y1188*
X6012*
Y1185*
X6010*
Y1181*
X6009*
Y1177*
X6008*
Y1182*
X6003*
Y1183*
X6002*
Y1184*
X6001*
Y1188*
X6007*
Y1189*
X6004*
Y1190*
X6000*
Y1192*
X5998*
Y1190*
X5997*
Y1187*
X5996*
Y1182*
X5995*
Y1181*
X5993*
Y1185*
X5990*
Y1187*
X5989*
Y1188*
X5987*
Y1189*
X5986*
Y1190*
X5989*
Y1192*
X5990*
Y1193*
X5991*
Y1194*
X5990*
Y1195*
X5987*
Y1196*
X5984*
Y1194*
X5983*
Y1192*
X5981*
Y1188*
X5980*
Y1187*
X5978*
Y1189*
X5979*
Y1192*
X5976*
Y1193*
X5975*
Y1195*
X5974*
Y1198*
X5973*
Y1201*
X5974*
Y1202*
X5975*
Y1201*
X5976*
Y1204*
X5974*
Y1205*
X5973*
Y1204*
X5972*
Y1202*
X5970*
Y1200*
X5969*
Y1198*
X5968*
Y1195*
X5966*
Y1196*
X5967*
Y1200*
X5966*
Y1201*
X5963*
Y1202*
X5962*
Y1205*
X5961*
Y1206*
X5962*
Y1207*
X5963*
Y1208*
X5964*
Y1207*
X5967*
Y1206*
X5969*
Y1205*
X5972*
Y1206*
X5970*
Y1207*
X5969*
Y1208*
X5967*
Y1210*
X5966*
Y1211*
X5963*
Y1212*
X5960*
Y1211*
X5958*
Y1210*
X5957*
Y1207*
X5956*
Y1206*
X5955*
Y1205*
X5952*
Y1206*
X5953*
Y1208*
X5955*
Y1210*
X5956*
Y1211*
X5957*
Y1212*
X5958*
Y1213*
X5960*
Y1216*
X5958*
Y1217*
X5960*
Y1218*
X5961*
Y1217*
G37*
G36*
X6107Y1212D02*
X6109D01*
Y1211*
X6110*
Y1210*
X6111*
Y1207*
X6112*
Y1206*
X6113*
Y1205*
X6115*
Y1202*
X6113*
Y1204*
X6112*
Y1205*
X6111*
Y1206*
X6110*
Y1207*
X6109*
Y1210*
X6107*
Y1211*
X6106*
Y1212*
X6105*
Y1215*
X6107*
Y1212*
G37*
G36*
X6098Y1206D02*
X6096D01*
Y1205*
X6098*
Y1202*
X6099*
Y1201*
X6100*
Y1200*
X6101*
Y1198*
X6102*
Y1196*
X6104*
Y1194*
X6105*
Y1193*
X6106*
Y1192*
X6105*
Y1190*
X6104*
Y1192*
X6099*
Y1193*
X6102*
Y1194*
X6101*
Y1196*
X6100*
Y1198*
X6099*
Y1199*
X6098*
Y1198*
X6096*
Y1196*
X6094*
Y1195*
X6093*
Y1194*
X6090*
Y1199*
X6089*
Y1200*
X6087*
Y1199*
X6084*
Y1198*
X6086*
Y1195*
X6087*
Y1192*
X6088*
Y1189*
X6089*
Y1187*
X6088*
Y1188*
X6087*
Y1190*
X6086*
Y1193*
X6081*
Y1192*
X6079*
Y1190*
X6081*
Y1189*
X6077*
Y1192*
X6078*
Y1193*
X6079*
Y1194*
X6084*
Y1196*
X6083*
Y1198*
X6082*
Y1196*
X6079*
Y1195*
X6077*
Y1194*
X6075*
Y1193*
X6072*
Y1192*
X6073*
Y1187*
X6075*
Y1183*
X6076*
Y1182*
X6073*
Y1185*
X6072*
Y1184*
X6071*
Y1183*
X6069*
Y1182*
X6066*
Y1183*
X6064*
Y1187*
X6062*
Y1189*
X6060*
Y1188*
X6059*
Y1187*
X6060*
Y1179*
X6061*
Y1177*
X6059*
Y1179*
X6050*
Y1181*
X6049*
Y1184*
X6052*
Y1185*
X6058*
Y1187*
X6056*
Y1188*
X6055*
Y1187*
X6046*
Y1184*
X6044*
Y1183*
X6046*
Y1173*
X6044*
Y1177*
X6043*
Y1181*
X6035*
Y1179*
X6037*
Y1178*
X6039*
Y1177*
X6042*
Y1176*
X6038*
Y1177*
X6036*
Y1178*
X6035*
Y1179*
X6033*
Y1181*
X6032*
Y1182*
X6036*
Y1185*
X6031*
Y1187*
X6032*
Y1188*
X6052*
Y1189*
X6058*
Y1190*
X6061*
Y1192*
X6062*
Y1193*
X6061*
Y1195*
X6062*
Y1196*
X6066*
Y1194*
X6065*
Y1195*
X6064*
Y1193*
X6065*
Y1192*
X6067*
Y1190*
X6065*
Y1188*
X6067*
Y1187*
X6065*
Y1184*
X6070*
Y1185*
X6071*
Y1187*
X6072*
Y1190*
X6071*
Y1192*
X6069*
Y1193*
X6070*
Y1194*
X6072*
Y1195*
X6075*
Y1196*
X6078*
Y1198*
X6081*
Y1199*
X6082*
Y1200*
X6084*
Y1201*
X6087*
Y1202*
X6089*
Y1204*
X6090*
Y1205*
X6093*
Y1206*
X6094*
Y1207*
X6095*
Y1208*
X6098*
Y1206*
G37*
G36*
X6099Y1190D02*
X6098D01*
Y1192*
X6099*
Y1190*
G37*
G36*
X6039D02*
X6038D01*
Y1192*
X6039*
Y1190*
G37*
G36*
X6132Y1181D02*
X6130D01*
Y1182*
X6132*
Y1181*
G37*
G36*
X5963Y1149D02*
X5967D01*
Y1148*
X5969*
Y1145*
X5970*
Y1141*
X5969*
Y1133*
X5972*
Y1132*
X5974*
Y1131*
X5978*
Y1130*
X5981*
Y1129*
X5986*
Y1127*
X5990*
Y1126*
X5995*
Y1125*
X6001*
Y1124*
X6007*
Y1122*
X6016*
Y1121*
X6050*
Y1122*
X6058*
Y1124*
X6065*
Y1125*
X6070*
Y1126*
X6075*
Y1127*
X6079*
Y1129*
X6083*
Y1130*
X6088*
Y1131*
X6090*
Y1132*
X6095*
Y1133*
X6098*
Y1143*
X6099*
Y1147*
X6100*
Y1148*
X6102*
Y1149*
X6117*
Y1148*
X6121*
Y1147*
X6122*
Y1144*
X6123*
Y1138*
X6124*
Y1132*
X6125*
Y1124*
X6124*
Y1121*
X6123*
Y1120*
X6121*
Y1119*
X6119*
Y1118*
X6117*
Y1116*
X6115*
Y1115*
X6112*
Y1114*
X6110*
Y1113*
X6107*
Y1112*
X6105*
Y1110*
X6102*
Y1109*
X6099*
Y1108*
X6095*
Y1107*
X6093*
Y1106*
X6088*
Y1104*
X6083*
Y1103*
X6078*
Y1102*
X6075*
Y1101*
X6069*
Y1099*
X6064*
Y1098*
X6058*
Y1097*
X6049*
Y1096*
X6018*
Y1097*
X6009*
Y1098*
X6003*
Y1099*
X5998*
Y1101*
X5992*
Y1102*
X5987*
Y1103*
X5981*
Y1104*
X5978*
Y1106*
X5974*
Y1107*
X5969*
Y1108*
X5967*
Y1109*
X5964*
Y1110*
X5962*
Y1112*
X5958*
Y1113*
X5956*
Y1114*
X5953*
Y1115*
X5952*
Y1116*
X5950*
Y1118*
X5949*
Y1119*
X5946*
Y1120*
X5945*
Y1121*
X5944*
Y1122*
X5943*
Y1135*
X5944*
Y1141*
X5945*
Y1145*
X5946*
Y1148*
X5947*
Y1149*
X5950*
Y1150*
X5963*
Y1149*
G37*
%LNpcb2-2*%
%LPC*%
G36*
X5483Y1441D02*
X5470D01*
Y1441*
X5470*
Y1440*
X5470*
Y1440*
X5470*
Y1437*
X5469*
Y1437*
X5473*
Y1437*
X5480*
Y1437*
X5483*
Y1438*
X5483*
Y1440*
X5483*
Y1441*
G37*
G36*
X6522D02*
X6518D01*
Y1441*
X6516*
Y1440*
X6515*
Y1440*
X6515*
Y1440*
X6515*
Y1440*
X6515*
Y1439*
X6515*
Y1438*
X6514*
Y1437*
X6527*
Y1437*
X6527*
Y1438*
X6528*
Y1438*
X6528*
Y1438*
X6528*
Y1439*
X6528*
Y1440*
X6528*
Y1440*
X6528*
Y1440*
X6528*
Y1440*
X6527*
Y1440*
X6527*
Y1441*
X6522*
Y1441*
G37*
G36*
X6485D02*
X6483D01*
Y1441*
X6483*
Y1440*
X6483*
Y1439*
X6483*
Y1438*
X6483*
Y1437*
X6482*
Y1437*
X6495*
Y1437*
X6496*
Y1438*
X6496*
Y1438*
X6496*
Y1439*
X6496*
Y1439*
X6496*
Y1439*
X6496*
Y1440*
X6496*
Y1440*
X6496*
Y1440*
X6496*
Y1440*
X6495*
Y1441*
X6485*
Y1441*
G37*
G36*
X6253D02*
X6251D01*
Y1441*
X6248*
Y1441*
X6244*
Y1441*
X6242*
Y1440*
X6242*
Y1440*
X6241*
Y1440*
X6241*
Y1440*
X6241*
Y1438*
X6241*
Y1433*
X6241*
Y1431*
X6241*
Y1431*
X6241*
Y1431*
X6242*
Y1431*
X6242*
Y1430*
X6245*
Y1430*
X6247*
Y1430*
X6251*
Y1430*
X6251*
Y1430*
X6252*
Y1430*
X6253*
Y1430*
X6255*
Y1431*
X6255*
Y1431*
X6256*
Y1431*
X6256*
Y1433*
X6256*
Y1438*
X6256*
Y1440*
X6256*
Y1440*
X6255*
Y1440*
X6255*
Y1441*
X6253*
Y1441*
G37*
G36*
X6197Y1434D02*
X6196D01*
Y1434*
X6193*
Y1434*
X6186*
Y1434*
X6183*
Y1434*
X6182*
Y1430*
X6184*
Y1430*
X6195*
Y1430*
X6195*
Y1431*
X6196*
Y1431*
X6196*
Y1431*
X6196*
Y1431*
X6196*
Y1432*
X6196*
Y1433*
X6197*
Y1434*
G37*
G36*
X6052Y1447D02*
X6050D01*
Y1446*
X6052*
Y1447*
G37*
G36*
X6041Y1450D02*
X6039D01*
Y1448*
X6038*
Y1447*
X6042*
Y1446*
X6049*
Y1447*
X6046*
Y1448*
X6043*
Y1447*
X6042*
Y1448*
X6041*
Y1450*
G37*
G36*
X6009D02*
X6008D01*
Y1448*
X6007*
Y1446*
X6009*
Y1447*
Y1448*
Y1450*
G37*
G36*
X5998Y1459D02*
X5997D01*
Y1458*
X5996*
Y1456*
X5995*
Y1446*
X5998*
Y1459*
G37*
G36*
X6064Y1443D02*
X6063D01*
Y1443*
X6064*
Y1443*
X6064*
Y1443*
G37*
G36*
X6026Y1445D02*
X6024D01*
Y1443*
X6025*
Y1442*
X6026*
Y1445*
G37*
G36*
X6024Y1443D02*
X6020D01*
Y1443*
X6020*
Y1443*
X6021*
Y1443*
X6021*
Y1442*
X6021*
Y1442*
X6021*
Y1442*
X6021*
Y1441*
X6024*
Y1443*
G37*
G36*
X6033Y1441D02*
X6033D01*
Y1440*
X6033*
Y1441*
G37*
G36*
X6011Y1441D02*
X6010D01*
Y1440*
X6009*
Y1441*
X6007*
Y1440*
X6009*
Y1439*
X6013*
Y1440*
X6012*
Y1441*
X6011*
Y1441*
G37*
G36*
X6041Y1441D02*
X6036D01*
Y1440*
X6038*
Y1439*
X6041*
Y1441*
G37*
G36*
X6054Y1441D02*
X6052D01*
Y1441*
X6052*
Y1440*
X6049*
Y1437*
X6049*
Y1439*
X6053*
Y1440*
X6056*
Y1440*
X6056*
Y1441*
X6054*
Y1441*
G37*
G36*
X6026Y1440D02*
X6024D01*
Y1437*
X6025*
Y1439*
X6026*
Y1440*
G37*
G36*
X6023Y1439D02*
X6022D01*
Y1436*
X6023*
Y1439*
G37*
G36*
X6014Y1437D02*
X6013D01*
Y1436*
X6012*
Y1437*
X6008*
Y1436*
X6009*
Y1435*
X6010*
Y1434*
X6013*
Y1435*
X6014*
Y1435*
X6014*
Y1437*
G37*
G36*
X6057Y1439D02*
X6054D01*
Y1437*
X6050*
Y1436*
X6057*
Y1439*
G37*
G36*
X6036Y1440D02*
X6035D01*
Y1437*
X6033*
Y1435*
X6035*
Y1434*
X6041*
Y1437*
X6038*
Y1439*
X6036*
Y1440*
G37*
G36*
X6026Y1435D02*
X6025D01*
Y1433*
X6026*
Y1435*
G37*
G36*
X6066Y1442D02*
X6064D01*
Y1442*
X6064*
Y1442*
X6065*
Y1441*
X6065*
Y1440*
X6066*
Y1435*
X6065*
Y1431*
X6066*
Y1433*
X6067*
Y1435*
X6068*
Y1440*
X6067*
Y1441*
X6066*
Y1442*
G37*
G36*
X6033Y1433D02*
X6033D01*
Y1431*
X6033*
Y1433*
G37*
G36*
X6024Y1434D02*
X6022D01*
Y1431*
X6023*
Y1433*
X6024*
Y1434*
G37*
G36*
X5993Y1441D02*
X5990D01*
Y1429*
X5990*
Y1430*
X5991*
Y1431*
X5993*
Y1441*
G37*
G36*
X5998D02*
X5995D01*
Y1429*
X5996*
Y1430*
X5997*
Y1429*
X5998*
Y1441*
G37*
G36*
X6025Y1431D02*
X6024D01*
Y1430*
X6023*
Y1429*
X6022*
Y1428*
X6024*
Y1429*
X6025*
Y1428*
X6026*
Y1430*
X6026*
Y1430*
X6025*
Y1431*
G37*
G36*
X5992Y1429D02*
X5991D01*
Y1427*
X5992*
Y1428*
Y1429*
G37*
G36*
X5998Y1428D02*
X5996D01*
Y1427*
X5995*
Y1425*
X5998*
Y1426*
Y1426*
Y1428*
G37*
G36*
X5996Y1423D02*
X5995D01*
Y1422*
X5996*
Y1423*
G37*
G36*
X5998Y1420D02*
X5997D01*
Y1419*
X5998*
Y1420*
G37*
G36*
X5996D02*
X5995D01*
Y1419*
X5996*
Y1420*
G37*
G36*
X6002Y1417D02*
X6001D01*
Y1416*
X6002*
Y1417*
G37*
G36*
X5995Y1416D02*
X5993D01*
Y1414*
X5995*
Y1416*
G37*
G36*
X5992D02*
X5990D01*
Y1414*
X5992*
Y1413*
X5993*
Y1414*
X5992*
Y1416*
G37*
G36*
X6003Y1424D02*
X6002D01*
Y1423*
X6001*
Y1419*
X6002*
Y1418*
X6003*
Y1417*
X6004*
Y1414*
X6003*
Y1413*
X6007*
Y1412*
X6008*
Y1411*
X6009*
Y1410*
X6010*
Y1411*
X6012*
Y1412*
X6010*
Y1414*
X6009*
Y1416*
X6008*
Y1420*
X6007*
Y1422*
X6004*
Y1423*
X6003*
Y1424*
G37*
G36*
X6002Y1411D02*
X6001D01*
Y1410*
X6002*
Y1411*
G37*
G36*
X5993D02*
X5992D01*
Y1410*
X5993*
Y1411*
G37*
G36*
X6054Y1410D02*
X6053D01*
Y1408*
X6054*
Y1410*
G37*
G36*
X6039Y1413D02*
X6038D01*
Y1412*
X6036*
Y1411*
X6035*
Y1410*
X6031*
Y1408*
X6026*
Y1406*
X6027*
Y1404*
X6026*
Y1400*
X6029*
Y1399*
X6030*
Y1395*
X6031*
Y1391*
X6032*
Y1390*
X6038*
Y1389*
X6039*
Y1391*
X6041*
Y1394*
X6042*
Y1396*
Y1397*
X6043*
Y1399*
X6036*
Y1402*
X6037*
Y1404*
X6039*
Y1405*
X6041*
Y1404*
X6043*
Y1405*
X6044*
Y1407*
X6043*
Y1408*
X6042*
Y1411*
X6041*
Y1412*
X6039*
Y1413*
G37*
G36*
X6049Y1416D02*
X6044D01*
Y1414*
X6042*
Y1412*
X6043*
Y1410*
X6044*
Y1408*
X6046*
Y1404*
X6044*
Y1402*
X6038*
Y1401*
X6044*
Y1400*
X6050*
Y1406*
X6053*
Y1405*
X6052*
Y1404*
X6053*
Y1402*
X6056*
Y1408*
X6055*
Y1407*
X6054*
Y1406*
X6053*
Y1407*
X6052*
Y1408*
X6050*
Y1411*
X6052*
Y1414*
X6049*
Y1416*
G37*
G36*
X5998Y1417D02*
X5996D01*
Y1408*
X5992*
Y1407*
X5996*
Y1406*
X5995*
Y1405*
X5996*
Y1402*
X5998*
Y1404*
X6000*
Y1406*
X5998*
Y1407*
X6002*
Y1408*
X5998*
Y1414*
X6000*
Y1416*
X5998*
Y1417*
G37*
G36*
X6007Y1439D02*
X6006D01*
Y1425*
X6004*
Y1424*
X6006*
Y1423*
X6009*
Y1419*
X6010*
Y1416*
X6012*
Y1413*
X6013*
Y1412*
X6015*
Y1417*
X6016*
Y1413*
X6018*
Y1407*
X6019*
Y1402*
X6016*
Y1401*
X6012*
Y1399*
X6013*
Y1400*
X6024*
Y1404*
X6025*
Y1405*
X6024*
Y1410*
X6025*
Y1412*
X6026*
Y1414*
X6027*
Y1417*
X6029*
Y1419*
X6030*
Y1414*
X6029*
Y1413*
X6027*
Y1411*
X6032*
Y1412*
X6035*
Y1413*
X6037*
Y1414*
X6039*
Y1416*
X6042*
Y1417*
X6043*
Y1418*
X6047*
Y1419*
X6049*
Y1418*
X6050*
Y1417*
X6052*
Y1416*
X6053*
Y1414*
X6054*
Y1412*
X6055*
Y1411*
X6056*
Y1410*
X6058*
Y1408*
X6059*
Y1405*
Y1404*
Y1402*
X6058*
Y1401*
X6052*
Y1400*
X6054*
Y1399*
X6055*
Y1400*
X6056*
Y1399*
X6058*
Y1397*
X6059*
Y1399*
X6060*
Y1397*
X6064*
Y1406*
X6066*
Y1407*
X6064*
Y1410*
X6062*
Y1413*
X6064*
Y1417*
X6065*
Y1422*
X6066*
Y1429*
X6065*
Y1425*
X6058*
Y1425*
X6057*
Y1434*
X6054*
Y1435*
X6053*
Y1434*
X6049*
Y1425*
X6041*
Y1433*
X6039*
Y1431*
X6036*
Y1430*
X6033*
Y1428*
X6033*
Y1425*
X6026*
Y1425*
X6025*
Y1427*
X6024*
Y1425*
X6023*
Y1424*
X6021*
Y1425*
X6020*
Y1424*
X6019*
Y1425*
X6014*
Y1426*
X6014*
Y1429*
X6014*
Y1430*
X6014*
Y1433*
X6009*
Y1434*
X6007*
Y1439*
G37*
G36*
X6047Y1366D02*
X6024D01*
Y1365*
X6018*
Y1364*
X6014*
Y1362*
X6010*
Y1361*
X6007*
Y1360*
X6004*
Y1359*
X6002*
Y1357*
X6001*
Y1356*
X5998*
Y1355*
X5996*
Y1354*
X5995*
Y1353*
X5993*
Y1351*
X5991*
Y1350*
X5990*
Y1349*
X5989*
Y1348*
X5987*
Y1347*
X5986*
Y1345*
X5985*
Y1344*
X5984*
Y1343*
X5983*
Y1342*
X5981*
Y1341*
X5980*
Y1338*
X5979*
Y1337*
X5978*
Y1336*
X5976*
Y1333*
X5975*
Y1332*
X5974*
Y1330*
X5973*
Y1327*
X5972*
Y1325*
X5970*
Y1321*
X5969*
Y1317*
X5968*
Y1314*
X5967*
Y1308*
X5966*
Y1287*
X5967*
Y1280*
X5968*
Y1276*
X5969*
Y1274*
X5970*
Y1270*
X5972*
Y1268*
X5973*
Y1265*
X5974*
Y1263*
X5975*
Y1261*
X5976*
Y1259*
X5978*
Y1257*
X5979*
Y1256*
X5980*
Y1253*
X5981*
Y1252*
X5983*
Y1251*
X5984*
Y1250*
X5985*
Y1248*
X5986*
Y1247*
X5987*
Y1246*
X5989*
Y1245*
X5990*
Y1244*
X5992*
Y1242*
X5993*
Y1241*
X5995*
Y1240*
X5997*
Y1239*
X5998*
Y1238*
X6001*
Y1236*
X6003*
Y1235*
X6006*
Y1234*
X6008*
Y1233*
X6012*
Y1231*
X6015*
Y1230*
X6019*
Y1229*
X6029*
Y1228*
X6043*
Y1229*
X6050*
Y1230*
X6055*
Y1231*
X6059*
Y1233*
X6062*
Y1234*
X6065*
Y1235*
X6067*
Y1236*
X6070*
Y1238*
X6072*
Y1239*
X6073*
Y1240*
X6075*
Y1241*
X6077*
Y1242*
X6078*
Y1244*
X6079*
Y1245*
X6082*
Y1246*
X6083*
Y1247*
X6084*
Y1248*
X6086*
Y1250*
X6087*
Y1251*
X6088*
Y1253*
X6089*
Y1255*
X6090*
Y1256*
X6092*
Y1258*
X6093*
Y1259*
X6094*
Y1262*
X6095*
Y1263*
X6096*
Y1265*
X6098*
Y1269*
X6099*
Y1270*
X6100*
Y1274*
X6101*
Y1278*
X6102*
Y1282*
X6104*
Y1288*
X6105*
Y1291*
X6104*
Y1293*
X6105*
Y1297*
X6104*
Y1298*
X6105*
Y1299*
X6104*
Y1304*
X6105*
Y1305*
X6104*
Y1311*
X6102*
Y1316*
X6101*
Y1320*
X6100*
Y1324*
X6099*
Y1326*
X6098*
Y1328*
X6096*
Y1331*
X6095*
Y1332*
X6094*
Y1334*
X6093*
Y1336*
X6092*
Y1338*
X6090*
Y1339*
X6089*
Y1341*
X6088*
Y1343*
X6087*
Y1344*
X6086*
Y1345*
X6084*
Y1347*
X6083*
Y1348*
X6082*
Y1349*
X6079*
Y1350*
X6078*
Y1351*
X6077*
Y1353*
X6076*
Y1354*
X6073*
Y1355*
X6072*
Y1356*
X6070*
Y1357*
X6067*
Y1359*
X6065*
Y1360*
X6062*
Y1361*
X6060*
Y1362*
X6056*
Y1364*
X6052*
Y1365*
X6047*
Y1366*
G37*
%LNpcb2-3*%
%LPD*%
G36*
X6014Y1428D02*
X6013D01*
Y1427*
X6012*
Y1424*
X6010*
Y1423*
X6009*
Y1425*
X6010*
Y1428*
X6012*
Y1429*
X6014*
Y1428*
G37*
G36*
X6044Y1361D02*
X6050D01*
Y1360*
X6055*
Y1359*
X6058*
Y1357*
X6061*
Y1356*
X6062*
Y1355*
X6065*
Y1354*
X6067*
Y1353*
X6070*
Y1351*
X6071*
Y1350*
X6072*
Y1349*
X6075*
Y1348*
X6076*
Y1347*
X6077*
Y1345*
X6078*
Y1344*
X6079*
Y1343*
X6081*
Y1342*
X6082*
Y1341*
X6083*
Y1339*
X6084*
Y1338*
X6086*
Y1337*
X6087*
Y1334*
X6088*
Y1333*
X6089*
Y1331*
X6090*
Y1328*
X6092*
Y1326*
X6093*
Y1324*
X6094*
Y1321*
X6095*
Y1317*
X6096*
Y1314*
X6098*
Y1309*
X6099*
Y1299*
X6100*
Y1292*
X6099*
Y1285*
X6098*
Y1280*
X6096*
Y1275*
X6095*
Y1273*
X6094*
Y1269*
X6093*
Y1267*
X6092*
Y1265*
X6090*
Y1263*
X6089*
Y1262*
X6088*
Y1259*
X6087*
Y1258*
X6086*
Y1256*
X6084*
Y1255*
X6083*
Y1253*
X6082*
Y1252*
X6081*
Y1251*
X6079*
Y1250*
X6078*
Y1248*
X6077*
Y1247*
X6075*
Y1246*
X6073*
Y1245*
X6071*
Y1244*
X6070*
Y1242*
X6067*
Y1241*
X6065*
Y1240*
X6062*
Y1239*
X6060*
Y1238*
X6058*
Y1236*
X6053*
Y1235*
X6049*
Y1234*
X6041*
Y1233*
X6031*
Y1234*
X6020*
Y1235*
X6016*
Y1236*
X6012*
Y1238*
X6009*
Y1239*
X6006*
Y1240*
X6004*
Y1241*
X6002*
Y1242*
X6000*
Y1244*
X5998*
Y1245*
X5997*
Y1246*
X5995*
Y1247*
X5993*
Y1248*
X5992*
Y1250*
X5991*
Y1251*
X5990*
Y1252*
X5989*
Y1253*
X5987*
Y1255*
X5986*
Y1256*
X5985*
Y1258*
X5984*
Y1259*
X5983*
Y1261*
X5981*
Y1263*
X5980*
Y1265*
X5979*
Y1268*
X5978*
Y1270*
X5976*
Y1271*
X5975*
Y1275*
X5974*
Y1279*
X5973*
Y1284*
X5972*
Y1288*
X5970*
Y1303*
Y1304*
Y1309*
X5972*
Y1315*
X5973*
Y1319*
X5974*
Y1322*
X5975*
Y1325*
X5976*
Y1327*
X5978*
Y1330*
X5979*
Y1331*
X5980*
Y1333*
X5981*
Y1336*
X5983*
Y1337*
X5984*
Y1338*
X5985*
Y1339*
X5986*
Y1342*
X5987*
Y1343*
X5989*
Y1344*
X5990*
Y1345*
X5991*
Y1347*
X5992*
Y1348*
X5995*
Y1349*
X5996*
Y1350*
X5997*
Y1351*
X5998*
Y1353*
X6001*
Y1354*
X6003*
Y1355*
X6006*
Y1356*
X6008*
Y1357*
X6012*
Y1359*
X6014*
Y1360*
X6019*
Y1361*
X6025*
Y1362*
X6042*
Y1361*
X6043*
Y1362*
X6044*
Y1361*
G37*
%LNpcb2-4*%
%LPC*%
G36*
X6014Y1349D02*
X6013D01*
Y1348*
X6014*
Y1349*
G37*
G36*
X6033Y1351D02*
X6032D01*
Y1347*
X6033*
Y1348*
Y1351*
G37*
G36*
X6054Y1347D02*
X6053D01*
Y1345*
X6054*
Y1347*
G37*
G36*
X6033Y1345D02*
X6032D01*
Y1344*
X6033*
Y1345*
G37*
G36*
X6016D02*
X6015D01*
Y1344*
X6016*
Y1345*
G37*
G36*
X6054Y1344D02*
X6052D01*
Y1343*
X6054*
Y1344*
G37*
G36*
X6035Y1343D02*
X6032D01*
Y1342*
X6035*
Y1343*
G37*
G36*
X6054Y1342D02*
X6053D01*
Y1341*
X6054*
Y1342*
G37*
G36*
X6018D02*
X6016D01*
Y1341*
X6018*
Y1342*
G37*
G36*
X6016Y1341D02*
X6015D01*
Y1339*
X6016*
Y1341*
G37*
G36*
X6032D02*
X6031D01*
Y1339*
X6029*
Y1338*
X6035*
Y1339*
X6032*
Y1341*
G37*
G36*
X6020Y1339D02*
X6018D01*
Y1338*
X6020*
Y1339*
G37*
G36*
X5997D02*
X5996D01*
Y1338*
X5997*
Y1339*
G37*
G36*
X6076Y1338D02*
X6075D01*
Y1337*
X6076*
Y1338*
G37*
G36*
X6052Y1341D02*
X6049D01*
Y1339*
X6050*
Y1338*
X6054*
Y1337*
X6055*
Y1338*
X6054*
Y1339*
X6052*
Y1341*
G37*
G36*
X6073Y1337D02*
X6072D01*
Y1336*
X6073*
Y1337*
G37*
G36*
X6072Y1336D02*
X6070D01*
Y1334*
X6072*
Y1336*
G37*
G36*
X6036Y1337D02*
X6029D01*
Y1334*
X6035*
Y1336*
X6036*
Y1337*
G37*
G36*
X6018Y1338D02*
X6016D01*
Y1337*
X6018*
Y1336*
X6016*
Y1334*
X6018*
X6019Y1336*
X6021*
Y1337*
X6018*
Y1338*
G37*
G36*
X6000Y1336D02*
X5998D01*
Y1334*
X6000*
Y1336*
G37*
G36*
X6050Y1338D02*
X6047D01*
Y1337*
X6048*
Y1336*
X6050*
Y1334*
X6053*
Y1333*
X6054*
Y1336*
X6053*
Y1337*
X6050*
Y1338*
G37*
G36*
X6047Y1334D02*
X6046D01*
Y1333*
X6047*
Y1334*
G37*
G36*
X6070D02*
X6069D01*
Y1333*
X6070*
Y1332*
X6071*
Y1333*
X6070*
Y1334*
G37*
G36*
X6023D02*
X6020D01*
Y1333*
X6018*
Y1332*
X6021*
Y1333*
X6023*
Y1334*
G37*
G36*
X6000Y1333D02*
X5998D01*
Y1332*
X6000*
Y1333*
G37*
G36*
X6035D02*
X6029D01*
Y1332*
X6030*
Y1331*
X6031*
Y1332*
X6035*
Y1333*
G37*
G36*
X6018Y1332D02*
X6016D01*
Y1331*
X6018*
Y1332*
G37*
G36*
X6067Y1333D02*
X6066D01*
Y1331*
X6067*
Y1330*
X6066*
Y1331*
X6064*
Y1330*
X6065*
Y1328*
X6066*
Y1327*
X6067*
Y1326*
X6069*
Y1328*
X6067*
Y1330*
X6069*
Y1328*
X6070*
Y1331*
X6069*
Y1332*
X6067*
Y1333*
G37*
G36*
X6052D02*
X6048D01*
Y1332*
X6050*
Y1331*
X6052*
Y1330*
X6053*
Y1332*
X6052*
Y1333*
G37*
G36*
X6027Y1332D02*
X6023D01*
Y1331*
X6020*
Y1330*
X6018*
Y1328*
X6016*
Y1327*
X6019*
Y1328*
X6021*
Y1330*
X6025*
Y1331*
X6027*
Y1332*
G37*
G36*
X6062Y1330D02*
X6060D01*
Y1328*
X6061*
Y1327*
X6062*
Y1326*
X6061*
Y1327*
X6059*
Y1328*
X6058*
Y1326*
X6059*
Y1325*
X6061*
Y1322*
X6062*
Y1321*
X6064*
Y1324*
X6062*
Y1326*
X6064*
Y1325*
X6066*
Y1326*
X6065*
Y1327*
X6064*
Y1328*
X6062*
Y1330*
G37*
G36*
X6049Y1331D02*
X6048D01*
Y1328*
X6049*
Y1327*
X6050*
Y1326*
X6053*
Y1327*
X6054*
Y1328*
X6052*
Y1330*
X6049*
Y1331*
G37*
G36*
X6010Y1327D02*
X6009D01*
Y1326*
X6010*
Y1327*
G37*
G36*
X6030Y1326D02*
X6025D01*
Y1325*
X6030*
Y1326*
G37*
G36*
X6009D02*
X6008D01*
Y1325*
X6009*
Y1326*
G37*
G36*
X6007Y1331D02*
X6006D01*
Y1330*
X6007*
Y1328*
X6006*
Y1327*
X6004*
Y1325*
X6006*
Y1326*
X6007*
Y1327*
X6008*
Y1330*
X6007*
Y1331*
G37*
G36*
X6025Y1325D02*
X6023D01*
Y1324*
X6025*
Y1322*
X6023*
Y1321*
X6027*
Y1322*
X6029*
Y1324*
X6025*
Y1325*
G37*
G36*
X6052D02*
X6050D01*
Y1324*
X6052*
Y1322*
X6053*
Y1321*
X6054*
Y1320*
X6052*
Y1321*
X6050*
Y1320*
X6052*
Y1319*
X6053*
Y1317*
X6054*
Y1316*
X6055*
Y1315*
X6056*
Y1313*
X6058*
Y1311*
X6059*
Y1308*
X6060*
Y1304*
X6061*
Y1292*
X6062*
Y1304*
X6064*
Y1293*
X6065*
Y1307*
X6064*
Y1310*
X6062*
Y1314*
X6061*
Y1315*
X6060*
Y1313*
X6061*
Y1310*
X6062*
Y1308*
Y1307*
X6064*
Y1305*
X6062*
Y1307*
X6061*
Y1309*
X6060*
Y1313*
X6059*
Y1314*
X6058*
Y1315*
X6056*
Y1317*
X6055*
Y1319*
X6054*
Y1320*
X6055*
Y1319*
X6056*
Y1317*
X6058*
Y1316*
X6059*
Y1319*
X6058*
Y1320*
X6056*
Y1321*
X6055*
Y1322*
X6054*
Y1324*
X6052*
Y1325*
G37*
G36*
X6032Y1330D02*
X6026D01*
Y1328*
X6023*
Y1327*
X6020*
Y1326*
X6018*
Y1325*
X6015*
Y1324*
X6014*
Y1322*
X6013*
Y1321*
X6012*
Y1320*
X6010*
Y1319*
X6009*
Y1321*
X6010*
Y1322*
X6012*
Y1324*
X6013*
Y1325*
X6014*
Y1326*
X6012*
Y1325*
X6010*
Y1324*
X6009*
Y1322*
X6008*
Y1325*
X6007*
Y1324*
X6006*
Y1321*
X6007*
Y1322*
X6008*
Y1321*
X6007*
Y1320*
X6008*
Y1319*
X6009*
Y1316*
X6008*
Y1315*
X6007*
Y1313*
X6008*
Y1314*
X6009*
Y1315*
X6010*
Y1313*
X6009*
Y1311*
X6008*
Y1309*
X6009*
Y1310*
X6010*
Y1308*
X6009*
Y1303*
X6010*
Y1307*
X6012*
Y1310*
X6010*
Y1313*
X6012*
Y1314*
X6013*
Y1313*
Y1311*
X6014*
Y1313*
X6015*
Y1310*
X6014*
Y1309*
X6013*
Y1307*
X6014*
Y1303*
X6015*
Y1305*
X6016*
Y1304*
X6018*
Y1301*
X6019*
Y1304*
X6018*
Y1305*
X6016*
Y1308*
X6018*
Y1307*
X6019*
Y1308*
X6020*
Y1307*
X6021*
Y1308*
X6023*
Y1309*
X6021*
Y1310*
X6023*
Y1311*
X6020*
Y1313*
X6019*
Y1311*
X6018*
Y1310*
X6016*
Y1313*
X6015*
Y1315*
X6016*
Y1316*
X6018*
Y1317*
X6019*
Y1319*
X6018*
Y1317*
X6016*
Y1316*
X6015*
Y1315*
X6014*
Y1314*
X6013*
Y1316*
X6012*
Y1315*
X6010*
Y1317*
X6012*
Y1319*
X6013*
Y1316*
X6014*
Y1317*
X6015*
Y1319*
X6016*
Y1320*
X6018*
Y1321*
X6020*
Y1320*
X6019*
Y1319*
X6021*
Y1320*
X6023*
Y1321*
X6020*
Y1322*
X6018*
Y1321*
X6016*
Y1320*
X6014*
Y1321*
X6015*
Y1322*
X6016*
Y1324*
X6019*
Y1325*
X6021*
Y1326*
X6024*
Y1327*
X6027*
Y1328*
X6032*
Y1330*
G37*
G36*
X6024Y1319D02*
X6023D01*
Y1317*
X6024*
Y1319*
G37*
G36*
X6087Y1317D02*
X6084D01*
Y1316*
X6087*
Y1317*
G37*
G36*
X6083D02*
X6082D01*
Y1316*
X6083*
Y1317*
G37*
G36*
X6053D02*
X6052D01*
Y1316*
X6053*
Y1317*
G37*
G36*
X5986Y1320D02*
X5985D01*
Y1317*
X5986*
Y1316*
X5987*
Y1317*
X5986*
Y1320*
G37*
G36*
X6060Y1316D02*
X6059D01*
Y1315*
X6060*
Y1316*
G37*
G36*
X6081Y1319D02*
X6079D01*
Y1317*
Y1316*
Y1315*
X6081*
Y1319*
G37*
G36*
X6025Y1316D02*
X6023D01*
Y1315*
X6025*
Y1316*
G37*
G36*
X6020D02*
X6019D01*
Y1315*
X6020*
Y1316*
G37*
G36*
X5992Y1317D02*
X5991D01*
Y1315*
X5990*
Y1317*
X5989*
Y1315*
X5990*
Y1314*
X5992*
Y1317*
G37*
G36*
X6077D02*
X6076D01*
Y1315*
X6077*
Y1314*
X6078*
Y1316*
X6077*
Y1317*
G37*
G36*
X6023Y1315D02*
X6021D01*
Y1314*
X6023*
Y1315*
G37*
G36*
X6019D02*
X6018D01*
Y1314*
X6019*
Y1315*
G37*
G36*
X6053Y1314D02*
X6052D01*
Y1313*
X6053*
Y1314*
G37*
G36*
X6021D02*
X6020D01*
Y1313*
X6021*
Y1314*
G37*
G36*
X6018D02*
X6016D01*
Y1313*
X6018*
Y1314*
G37*
G36*
X6002Y1316D02*
X6001D01*
Y1315*
X6000*
Y1313*
X5998*
Y1316*
X5997*
Y1314*
X5996*
Y1311*
X5995*
Y1310*
X5997*
Y1311*
Y1313*
X5998*
Y1308*
X6000*
Y1310*
X6001*
Y1314*
X6002*
Y1316*
G37*
G36*
X5996Y1317D02*
X5995D01*
Y1316*
X5993*
Y1313*
X5995*
Y1314*
Y1315*
X5996*
Y1317*
G37*
G36*
X6024Y1313D02*
X6023D01*
Y1311*
X6024*
Y1313*
G37*
G36*
X6075Y1316D02*
X6073D01*
Y1315*
Y1313*
X6075*
Y1310*
X6076*
Y1315*
X6075*
Y1316*
G37*
G36*
X6071D02*
X6070D01*
Y1314*
X6071*
Y1313*
Y1310*
X6072*
Y1315*
X6071*
Y1316*
G37*
G36*
X6013Y1311D02*
X6012D01*
Y1310*
X6013*
Y1311*
G37*
G36*
X6067Y1317D02*
X6066D01*
Y1314*
X6067*
Y1311*
X6069*
Y1310*
Y1309*
Y1308*
X6070*
Y1313*
X6069*
Y1315*
X6067*
Y1317*
G37*
G36*
X6050Y1309D02*
X6049D01*
Y1308*
X6050*
Y1309*
G37*
G36*
X6024Y1307D02*
X6023D01*
Y1305*
X6024*
Y1307*
G37*
G36*
X6008Y1308D02*
X6007D01*
Y1307*
Y1305*
X6008*
Y1308*
G37*
G36*
X6006Y1316D02*
X6004D01*
Y1315*
X6003*
Y1313*
X6002*
Y1309*
X6001*
Y1308*
X6003*
Y1307*
X6004*
Y1305*
X6006*
Y1309*
X6007*
Y1310*
Y1313*
X6006*
Y1310*
X6004*
Y1308*
X6003*
Y1311*
X6004*
Y1314*
X6006*
Y1316*
G37*
G36*
X6020Y1305D02*
X6019D01*
Y1304*
X6020*
Y1305*
G37*
G36*
X6049Y1307D02*
X6048D01*
Y1304*
X6049*
Y1302*
X6050*
Y1301*
X6052*
Y1302*
X6050*
Y1304*
X6049*
Y1305*
Y1307*
G37*
G36*
X6023Y1305D02*
X6021D01*
Y1303*
X6023*
Y1302*
X6024*
Y1299*
X6025*
Y1302*
X6024*
Y1304*
X6023*
Y1305*
G37*
G36*
X6013D02*
X6012D01*
Y1302*
X6013*
Y1299*
X6015*
Y1302*
X6013*
Y1305*
G37*
G36*
X6083Y1299D02*
X6082D01*
Y1298*
X6083*
Y1299*
G37*
G36*
X6043Y1302D02*
X6042D01*
Y1301*
X6043*
Y1298*
X6046*
Y1299*
X6044*
Y1301*
X6043*
Y1302*
G37*
G36*
X5991Y1299D02*
X5990D01*
Y1298*
X5991*
Y1299*
G37*
G36*
X6052Y1298D02*
X6050D01*
Y1297*
X6052*
Y1298*
G37*
G36*
X6024D02*
X6023D01*
Y1297*
X6024*
Y1298*
G37*
G36*
X6021D02*
X6019D01*
Y1297*
X6021*
Y1298*
G37*
G36*
X6018D02*
X6016D01*
Y1297*
X6018*
Y1298*
G37*
G36*
X6090Y1297D02*
X6089D01*
Y1296*
X6090*
Y1297*
G37*
G36*
X6088Y1298D02*
X6084D01*
Y1296*
X6086*
Y1297*
X6087*
Y1296*
X6088*
Y1298*
G37*
G36*
X6037Y1348D02*
X6036D01*
Y1344*
X6037*
Y1339*
X6038*
Y1334*
X6037*
Y1331*
X6036*
Y1328*
X6035*
Y1327*
X6033*
Y1325*
X6032*
Y1322*
X6031*
Y1321*
X6030*
Y1319*
X6029*
Y1317*
X6027*
Y1314*
X6026*
Y1307*
X6027*
Y1304*
X6029*
Y1303*
X6030*
Y1302*
X6031*
Y1301*
X6032*
Y1298*
X6033*
Y1296*
X6036*
Y1299*
X6037*
Y1301*
X6038*
Y1302*
X6039*
Y1303*
X6041*
Y1304*
X6043*
Y1305*
X6044*
Y1307*
X6046*
Y1309*
X6047*
Y1311*
X6048*
Y1325*
X6047*
Y1330*
X6046*
Y1331*
X6044*
Y1333*
X6043*
Y1336*
X6042*
Y1337*
Y1338*
X6041*
Y1341*
X6039*
Y1342*
X6038*
Y1344*
X6037*
Y1348*
G37*
G36*
X6026Y1297D02*
X6025D01*
Y1296*
X6026*
Y1297*
G37*
G36*
X6007Y1303D02*
X6006D01*
Y1297*
Y1296*
X6007*
Y1303*
G37*
G36*
X5998Y1299D02*
X5997D01*
Y1296*
X5998*
Y1297*
Y1299*
G37*
G36*
X5983Y1298D02*
X5980D01*
X5979Y1297*
Y1296*
X5980*
Y1297*
X5983*
Y1298*
G37*
G36*
X6093Y1296D02*
X6092D01*
Y1294*
X6093*
Y1296*
G37*
G36*
X6081Y1298D02*
X6079D01*
Y1297*
X6081*
Y1294*
X6082*
Y1297*
X6081*
Y1298*
G37*
G36*
X6049Y1301D02*
X6048D01*
Y1297*
Y1296*
Y1294*
X6049*
Y1301*
G37*
G36*
X6044Y1296D02*
X6043D01*
Y1294*
X6044*
Y1296*
G37*
G36*
X6042Y1301D02*
X6041D01*
Y1294*
X6042*
Y1301*
G37*
G36*
X5993D02*
X5992D01*
Y1298*
Y1297*
Y1294*
X5993*
Y1301*
G37*
G36*
X5989Y1298D02*
X5987D01*
Y1297*
Y1296*
X5990*
Y1294*
X5991*
Y1296*
X5990*
Y1297*
X5989*
Y1298*
G37*
G36*
X5985D02*
X5984D01*
Y1294*
X5985*
Y1296*
X5986*
Y1297*
X5985*
Y1298*
G37*
G36*
X6052Y1294D02*
X6050D01*
Y1293*
X6052*
Y1294*
G37*
G36*
X6021D02*
X6020D01*
Y1293*
X6021*
Y1294*
G37*
G36*
X6019D02*
X6018D01*
Y1293*
X6019*
Y1294*
G37*
G36*
X5996Y1299D02*
X5995D01*
Y1293*
X5996*
Y1298*
Y1299*
G37*
G36*
X6075Y1301D02*
X6073D01*
Y1292*
Y1291*
X6075*
Y1293*
X6076*
Y1292*
X6078*
Y1298*
X6077*
Y1294*
X6076*
Y1296*
X6075*
Y1297*
X6076*
Y1299*
X6075*
Y1301*
G37*
G36*
X6050Y1293D02*
X6049D01*
Y1292*
X6050*
Y1293*
G37*
G36*
X6039Y1298D02*
X6038D01*
Y1294*
X6037*
Y1293*
X6036*
Y1292*
X6032*
Y1296*
X6031*
Y1298*
X6029*
Y1294*
X6030*
Y1293*
Y1292*
X6031*
Y1291*
X6033*
Y1290*
X6037*
Y1291*
X6038*
Y1293*
X6039*
Y1298*
G37*
G36*
X6012Y1302D02*
X6010D01*
Y1293*
X6012*
Y1292*
X6014*
Y1293*
X6015*
Y1294*
X6013*
Y1293*
X6012*
Y1294*
Y1296*
Y1302*
G37*
G36*
X6009Y1303D02*
X6008D01*
Y1292*
X6009*
Y1303*
G37*
G36*
X6072Y1302D02*
X6071D01*
Y1293*
X6070*
Y1291*
X6071*
Y1292*
X6072*
Y1298*
Y1299*
Y1302*
G37*
G36*
X6059Y1294D02*
X6056D01*
Y1291*
X6058*
Y1293*
X6059*
Y1294*
G37*
G36*
X6052Y1311D02*
X6050D01*
Y1309*
X6052*
Y1307*
X6053*
Y1304*
X6054*
Y1293*
X6053*
Y1292*
X6054*
Y1291*
X6055*
Y1296*
X6056*
Y1297*
X6055*
Y1304*
X6054*
Y1308*
X6053*
Y1310*
X6052*
Y1311*
G37*
G36*
X6001Y1301D02*
X6000D01*
Y1293*
Y1292*
Y1291*
X6001*
Y1301*
G37*
G36*
X6056Y1326D02*
X6055D01*
Y1324*
X6056*
Y1322*
X6058*
Y1321*
X6059*
Y1320*
X6060*
Y1319*
X6061*
Y1316*
X6062*
Y1315*
X6064*
Y1311*
X6065*
Y1309*
X6066*
Y1303*
X6067*
Y1291*
X6066*
Y1286*
X6067*
Y1290*
X6069*
Y1303*
X6067*
Y1309*
X6066*
Y1311*
X6065*
Y1315*
X6064*
Y1319*
X6062*
Y1320*
X6061*
Y1321*
X6060*
Y1322*
X6059*
Y1324*
X6058*
Y1325*
X6056*
Y1326*
G37*
G36*
X6047Y1291D02*
X6042D01*
Y1290*
X6041*
Y1288*
X6039*
Y1287*
X6035*
Y1286*
X6033*
Y1287*
X6030*
Y1288*
X6029*
Y1290*
X6027*
Y1291*
X6024*
Y1290*
X6018*
Y1288*
X6008*
Y1287*
X6009*
Y1285*
X6010*
Y1284*
X6012*
Y1282*
X6013*
Y1281*
X6014*
Y1280*
X6015*
Y1279*
X6018*
Y1278*
X6021*
Y1276*
X6025*
Y1275*
X6026*
Y1276*
X6027*
Y1275*
X6042*
Y1276*
X6043*
Y1275*
X6044*
Y1276*
X6048*
Y1278*
X6050*
Y1279*
X6053*
Y1280*
X6054*
Y1281*
X6055*
Y1282*
X6056*
Y1284*
X6058*
Y1286*
X6059*
Y1287*
X6054*
Y1288*
X6050*
Y1290*
X6047*
Y1291*
G37*
G36*
X6070Y1288D02*
X6069D01*
Y1285*
X6070*
Y1288*
G37*
G36*
X6064Y1287D02*
X6062D01*
Y1285*
X6064*
Y1287*
G37*
G36*
X6062Y1285D02*
X6061D01*
Y1282*
X6062*
Y1285*
G37*
G36*
X6002Y1290D02*
X6001D01*
Y1286*
X5998*
Y1282*
X5997*
Y1284*
X5996*
Y1281*
X5995*
Y1282*
X5993*
Y1280*
X5995*
Y1278*
X5998*
Y1276*
X6001*
Y1278*
X6002*
Y1276*
X6003*
Y1280*
X6004*
Y1279*
X6006*
Y1278*
X6007*
Y1280*
X6006*
Y1281*
X6004*
Y1284*
X6003*
Y1287*
X6002*
Y1290*
G37*
G36*
X6078Y1282D02*
X6077D01*
Y1281*
X6078*
Y1282*
G37*
G36*
X6083Y1281D02*
X6082D01*
Y1280*
X6083*
Y1281*
G37*
G36*
X6079Y1280D02*
X6078D01*
Y1279*
X6079*
Y1280*
G37*
G36*
X6077Y1281D02*
X6076D01*
Y1279*
X6077*
Y1280*
Y1281*
G37*
G36*
X6076Y1284D02*
X6073D01*
Y1282*
Y1280*
X6072*
Y1279*
X6075*
Y1282*
X6076*
Y1284*
G37*
G36*
X6072Y1287D02*
X6071D01*
Y1284*
X6070*
Y1281*
X6069Y1280*
Y1279*
X6070*
Y1280*
X6071*
Y1282*
X6072*
Y1287*
G37*
G36*
X6066Y1286D02*
X6065D01*
Y1284*
X6064*
Y1281*
X6062*
Y1280*
X6061*
Y1282*
X6060*
Y1281*
X6059*
Y1280*
X6058*
Y1279*
X6056*
Y1278*
X6055*
Y1276*
X6054*
Y1275*
X6056*
Y1276*
X6058*
Y1278*
X6059*
Y1279*
X6060*
Y1280*
X6061*
Y1278*
X6062*
Y1279*
X6064*
Y1280*
X6065*
Y1282*
X6066*
Y1279*
X6067*
Y1281*
X6069*
Y1285*
X6067*
Y1282*
X6066*
Y1286*
G37*
G36*
X5992Y1281D02*
X5991D01*
Y1279*
X5992*
Y1276*
X5993*
Y1280*
X5992*
Y1281*
G37*
G36*
X5991Y1279D02*
X5990D01*
Y1276*
X5991*
Y1279*
G37*
G36*
X5987Y1278D02*
X5985D01*
Y1276*
X5986*
Y1275*
X5987*
Y1278*
G37*
G36*
X6081Y1281D02*
X6079D01*
Y1280*
X6081*
Y1278*
X6079*
Y1276*
X6087*
Y1275*
X6089*
Y1274*
X6090*
Y1275*
X6089*
Y1276*
X6087*
Y1278*
X6084*
Y1279*
X6083*
Y1278*
X6082*
Y1280*
X6081*
Y1281*
G37*
G36*
X5985Y1275D02*
X5984D01*
Y1274*
X5985*
Y1275*
G37*
G36*
X6062Y1274D02*
X6061D01*
Y1273*
X6062*
Y1274*
G37*
G36*
X6061Y1278D02*
X6060D01*
Y1276*
X6059*
Y1275*
X6058*
Y1273*
X6059*
Y1274*
X6060*
Y1275*
X6061*
Y1278*
G37*
G36*
X5984Y1274D02*
X5983D01*
Y1273*
X5984*
Y1274*
G37*
G36*
X6065D02*
X6064D01*
Y1271*
X6065*
Y1274*
G37*
G36*
X6061Y1273D02*
X6060D01*
Y1271*
X6061*
Y1273*
G37*
G36*
X6058D02*
X6055D01*
Y1271*
X6058*
Y1273*
G37*
G36*
X6064Y1271D02*
X6062D01*
Y1270*
X6064*
Y1271*
G37*
G36*
X6060D02*
X6059D01*
Y1270*
X6060*
Y1271*
G37*
G36*
X6055D02*
X6054D01*
Y1270*
X6055*
Y1271*
G37*
G36*
X6041Y1273D02*
X6027D01*
Y1270*
X6041*
Y1273*
G37*
G36*
X6020Y1274D02*
X6018D01*
Y1273*
X6020*
Y1271*
X6021*
Y1270*
X6025*
Y1271*
X6021*
Y1273*
X6020*
Y1274*
G37*
G36*
X6062Y1270D02*
X6061D01*
Y1269*
X6062*
Y1270*
G37*
G36*
X6004Y1302D02*
X6003D01*
Y1298*
X6002*
Y1293*
X6003*
Y1288*
X6004*
Y1285*
X6006*
Y1282*
X6007*
Y1281*
X6008*
Y1279*
X6009*
Y1278*
X6010*
Y1276*
X6012*
Y1275*
X6013*
Y1274*
X6014*
Y1273*
X6015*
Y1271*
X6018*
Y1270*
X6019*
Y1269*
X6020*
Y1270*
X6019*
Y1271*
X6018*
Y1273*
X6016*
Y1274*
X6015*
Y1275*
X6014*
Y1276*
X6013*
Y1278*
X6012*
Y1279*
X6010*
Y1280*
X6009*
Y1282*
X6008*
Y1284*
X6007*
Y1286*
X6006*
Y1288*
X6004*
Y1302*
G37*
G36*
X6009Y1276D02*
X6007D01*
Y1275*
X6008*
Y1273*
X6010*
Y1271*
X6012*
Y1270*
X6009*
Y1269*
X6008*
Y1270*
X6007*
Y1269*
X6008*
Y1268*
X6010*
Y1267*
X6012*
Y1265*
X6013*
Y1269*
X6015*
Y1270*
X6014*
Y1271*
X6013*
Y1273*
X6010*
Y1275*
X6009*
Y1276*
G37*
G36*
X6003Y1270D02*
X6002D01*
Y1269*
X6003*
Y1270*
G37*
G36*
X6061Y1269D02*
X6060D01*
Y1268*
X6061*
Y1269*
G37*
G36*
X6059Y1270D02*
X6056D01*
Y1269*
X6055*
Y1268*
X6058*
Y1269*
X6059*
Y1270*
G37*
G36*
X6054Y1275D02*
X6050D01*
Y1274*
X6047*
Y1273*
X6044*
Y1271*
X6043*
Y1270*
X6048*
Y1269*
X6046*
Y1268*
X6050*
Y1269*
X6053*
Y1270*
X6048*
Y1271*
X6050*
Y1273*
X6053*
Y1274*
X6054*
Y1275*
G37*
G36*
X6060Y1268D02*
X6059D01*
Y1267*
X6060*
Y1268*
G37*
G36*
X6054D02*
X6052D01*
Y1267*
X6054*
Y1268*
G37*
G36*
X6044D02*
X6024D01*
Y1267*
X6044*
Y1268*
G37*
G36*
X6003D02*
X6001D01*
Y1267*
X6003*
Y1268*
G37*
G36*
X6069Y1267D02*
X6067D01*
Y1265*
X6069*
Y1267*
G37*
G36*
X6018Y1269D02*
X6016D01*
Y1268*
X6018Y1267*
X6019*
Y1265*
X6020*
Y1268*
X6018*
Y1269*
G37*
G36*
X6009Y1267D02*
X6008D01*
Y1264*
X6009*
Y1267*
G37*
G36*
X6007Y1265D02*
X6006D01*
Y1264*
X6007*
Y1265*
G37*
G36*
X6014Y1264D02*
X6013D01*
Y1263*
X6014*
Y1264*
G37*
G36*
X6007Y1263D02*
X6003D01*
Y1262*
X6007*
Y1263*
G37*
G36*
X6054Y1264D02*
X6021D01*
Y1263*
X6023*
Y1262*
X6024*
Y1263*
X6035*
Y1262*
X6024*
Y1261*
X6037*
Y1262*
X6036*
Y1263*
X6054*
Y1264*
G37*
G36*
X6016Y1263D02*
X6015D01*
Y1261*
X6018*
Y1262*
X6016*
Y1263*
G37*
G36*
X6001Y1265D02*
X5998D01*
Y1264*
X5997*
Y1263*
Y1262*
X5996*
Y1261*
X6003*
Y1262*
X6002*
Y1263*
X6001*
Y1265*
G37*
G36*
X6053Y1261D02*
X6052D01*
Y1259*
X6046*
Y1261*
X6044*
Y1259*
X6038*
Y1258*
X6053*
Y1261*
G37*
G36*
X6071D02*
X6070D01*
Y1259*
X6062*
Y1258*
X6071*
Y1261*
G37*
G36*
X6036Y1259D02*
X6032D01*
Y1258*
X6036*
Y1259*
G37*
G36*
X6031D02*
X6029D01*
Y1258*
X6031*
Y1259*
G37*
G36*
X6016Y1267D02*
X6015D01*
Y1265*
X6016*
Y1264*
X6018Y1263*
X6019*
Y1262*
X6020*
Y1261*
X6021*
Y1259*
X6023*
Y1258*
X6024*
Y1259*
X6023*
Y1261*
X6021*
Y1262*
X6020*
Y1263*
X6019*
Y1264*
X6018*
Y1265*
X6016*
Y1267*
G37*
G36*
X6020Y1259D02*
X6019D01*
Y1258*
X6020*
Y1259*
G37*
G36*
X6008D02*
X5995D01*
Y1258*
X6008*
Y1259*
G37*
G36*
X6060Y1262D02*
X6059D01*
Y1259*
Y1258*
Y1257*
X6060*
Y1262*
G37*
G36*
X6018Y1258D02*
X6016D01*
Y1257*
X6018*
Y1258*
G37*
G36*
X6053Y1257D02*
X6049D01*
Y1256*
X6053*
Y1257*
G37*
G36*
X6048D02*
X6047D01*
Y1256*
X6048*
Y1257*
G37*
G36*
X6046D02*
X6035D01*
Y1256*
X6046*
Y1257*
G37*
G36*
X6032D02*
X6030D01*
Y1256*
X6032*
Y1257*
G37*
G36*
X6023Y1258D02*
X6021D01*
Y1256*
X6024*
Y1257*
X6023*
Y1258*
G37*
G36*
X6015D02*
X6014D01*
Y1257*
Y1255*
X6015*
Y1258*
G37*
G36*
X6007Y1257D02*
X6004D01*
Y1255*
X6006*
Y1256*
X6007*
Y1257*
G37*
G36*
X6072D02*
X6062D01*
Y1256*
X6070*
Y1255*
Y1253*
X6071*
Y1256*
X6072*
Y1257*
G37*
G36*
X6053Y1255D02*
X6048D01*
Y1253*
X6053*
Y1255*
G37*
G36*
X6047D02*
X6032D01*
Y1253*
X6047*
Y1255*
G37*
G36*
X6026D02*
X6018D01*
Y1253*
X6026*
Y1255*
G37*
G36*
X6001D02*
X5997D01*
Y1253*
X6001*
Y1255*
G37*
G36*
X6071Y1252D02*
X6066D01*
Y1251*
X6065*
Y1252*
X6061*
Y1250*
X6070*
Y1251*
X6071*
Y1252*
G37*
G36*
X6030D02*
X6018D01*
Y1251*
X6030*
Y1252*
G37*
G36*
X6002D02*
X6000D01*
Y1251*
X6002*
Y1252*
G37*
G36*
X6059D02*
X6058D01*
Y1251*
Y1250*
X6059*
Y1252*
G37*
G36*
X6049D02*
X6036D01*
Y1251*
X6044*
Y1250*
X6047*
Y1251*
X6049*
Y1252*
G37*
G36*
X6013Y1251D02*
X6012D01*
Y1250*
X6013*
Y1251*
G37*
G36*
X6016D02*
X6015D01*
Y1248*
X6016*
Y1250*
Y1251*
G37*
G36*
X6000Y1250D02*
X5998D01*
Y1248*
X6000*
Y1250*
G37*
G36*
X6066Y1248D02*
X6065D01*
Y1247*
X6066*
Y1248*
G37*
G36*
X6049D02*
X6046D01*
Y1247*
X6049*
Y1248*
G37*
G36*
X6044D02*
X6042D01*
Y1247*
X6044*
Y1248*
G37*
G36*
X6027Y1257D02*
X6026D01*
Y1256*
X6027*
Y1255*
X6029*
Y1253*
X6030*
Y1252*
X6031*
Y1251*
X6032*
Y1250*
X6033*
Y1248*
X6035*
Y1247*
X6036*
Y1248*
X6035*
Y1251*
X6032*
Y1253*
X6030*
Y1255*
X6029*
Y1256*
X6027*
Y1257*
G37*
G36*
X6032Y1248D02*
X6031D01*
Y1247*
X6032*
Y1248*
G37*
%LNpcb2-5*%
%LPD*%
G36*
X6014Y1319D02*
X6013D01*
Y1320*
X6014*
Y1319*
G37*
G36*
X6020Y1309D02*
X6021D01*
Y1308*
X6020*
Y1309*
X6019*
Y1308*
X6018*
Y1310*
X6019*
Y1311*
X6020*
Y1309*
G37*
G36*
X6016Y1308D02*
X6015D01*
Y1307*
X6014*
Y1308*
Y1309*
X6015*
Y1310*
X6016*
Y1308*
G37*
G36*
X6002Y1282D02*
X6003D01*
Y1281*
Y1280*
X6002*
Y1282*
X6001*
Y1284*
Y1286*
X6002*
Y1282*
G37*
G36*
X5997Y1280D02*
Y1279D01*
X5996*
Y1281*
X5997*
Y1280*
G37*
G36*
X6000Y1281D02*
Y1280D01*
X6001*
Y1278*
X6000*
Y1280*
X5998*
Y1282*
X6000*
Y1281*
G37*
G36*
X6013Y1269D02*
X6012D01*
Y1270*
X6013*
Y1269*
G37*
G36*
X6000Y1263D02*
Y1262D01*
X5998*
Y1264*
X6000*
Y1263*
G37*
%LNpcb2-6*%
%LPC*%
G36*
X5969Y1441D02*
X5967D01*
Y1441*
X5963*
Y1441*
X5960*
Y1441*
X5958*
Y1440*
X5957*
Y1440*
X5957*
Y1440*
X5957*
Y1440*
X5957*
Y1439*
Y1439*
Y1438*
X5956*
Y1437*
X5957*
Y1437*
X5956*
Y1433*
X5957*
Y1432*
X5957*
Y1431*
X5957*
Y1431*
X5957*
Y1431*
X5957*
Y1431*
X5958*
Y1430*
X5960*
Y1430*
X5962*
Y1430*
X5967*
Y1430*
X5967*
Y1430*
X5968*
Y1430*
X5969*
Y1430*
X5971*
Y1431*
X5971*
Y1431*
X5971*
Y1431*
X5971*
Y1432*
X5972*
Y1439*
X5971*
Y1440*
X5971*
Y1440*
X5971*
Y1441*
X5969*
Y1441*
G37*
G36*
X5909D02*
X5897D01*
Y1441*
X5896*
Y1440*
X5896*
Y1438*
X5895*
Y1437*
X5899*
Y1437*
X5905*
Y1437*
X5909*
Y1438*
X5909*
Y1440*
X5909*
Y1441*
G37*
G36*
X5866D02*
X5853D01*
Y1441*
X5853*
Y1440*
X5853*
Y1440*
X5853*
Y1440*
X5852*
Y1437*
X5856*
Y1437*
X5862*
Y1437*
X5866*
Y1437*
X5866*
Y1439*
Y1439*
Y1440*
X5866*
Y1441*
G37*
G36*
X5767D02*
X5763D01*
Y1441*
X5760*
Y1440*
X5759*
Y1440*
X5759*
Y1440*
X5759*
Y1439*
X5759*
Y1438*
X5759*
Y1433*
X5759*
Y1432*
X5759*
Y1431*
X5759*
Y1431*
X5759*
Y1431*
X5760*
Y1430*
X5762*
Y1430*
X5765*
Y1430*
X5769*
Y1430*
X5769*
Y1430*
X5770*
Y1430*
X5771*
Y1430*
X5772*
Y1431*
X5773*
Y1431*
X5773*
Y1431*
X5774*
Y1432*
X5774*
Y1437*
Y1437*
Y1441*
X5767*
Y1441*
G37*
G36*
X5707Y1434D02*
X5707D01*
Y1434*
X5704*
Y1434*
X5697*
Y1434*
X5693*
Y1430*
X5695*
Y1430*
X5706*
Y1430*
X5706*
Y1431*
X5706*
Y1431*
X5707*
Y1431*
X5707*
Y1431*
X5707*
Y1432*
X5707*
Y1433*
X5707*
Y1434*
X5707*
Y1434*
G37*
G36*
X5580Y1441D02*
X5579D01*
Y1441*
X5578*
Y1441*
X5578*
Y1441*
X5574*
Y1441*
X5571*
Y1441*
X5569*
Y1440*
X5568*
Y1440*
X5568*
Y1440*
X5568*
Y1440*
X5568*
Y1439*
X5568*
Y1433*
X5568*
Y1431*
X5568*
Y1431*
X5568*
Y1431*
X5568*
Y1431*
X5569*
Y1430*
X5571*
Y1430*
X5574*
Y1430*
X5578*
Y1430*
X5578*
Y1430*
X5579*
Y1430*
X5580*
Y1430*
X5581*
Y1431*
X5582*
Y1431*
X5582*
Y1431*
X5583*
Y1433*
X5583*
Y1438*
X5583*
Y1440*
X5582*
Y1440*
X5582*
Y1440*
X5581*
Y1441*
X5580*
Y1441*
G37*
G36*
X6614D02*
X6613D01*
Y1440*
X6613*
Y1440*
X6613*
Y1439*
X6612*
Y1437*
X6612*
Y1436*
X6612*
Y1435*
X6613*
Y1434*
X6613*
Y1434*
X6613*
Y1434*
X6613*
Y1434*
X6613*
Y1433*
X6627*
Y1436*
X6627*
Y1440*
X6626*
Y1441*
X6614*
Y1441*
G37*
G36*
X6407D02*
X6406D01*
Y1441*
X6405*
Y1440*
X6405*
Y1439*
X6405*
Y1435*
X6405*
Y1434*
X6405*
Y1433*
X6406*
Y1433*
X6406*
Y1433*
X6420*
Y1440*
X6419*
Y1441*
X6407*
Y1441*
G37*
G36*
X6165Y1259D02*
X6164D01*
Y1258*
X6165*
Y1259*
G37*
G36*
X5905Y1261D02*
X5900D01*
Y1258*
X5903*
Y1259*
X5905*
Y1261*
G37*
G36*
X6172Y1258D02*
X6170D01*
Y1257*
X6172*
Y1258*
G37*
G36*
X6165Y1256D02*
X6164D01*
Y1255*
X6165*
Y1256*
G37*
G36*
X5907D02*
X5906D01*
Y1255*
X5907*
Y1256*
G37*
G36*
X6168Y1253D02*
X6167D01*
Y1252*
X6168*
Y1253*
G37*
G36*
X5904Y1255D02*
X5903D01*
Y1253*
X5901*
Y1252*
X5904*
Y1255*
G37*
G36*
X5906Y1252D02*
X5905D01*
Y1251*
Y1250*
X5906*
Y1252*
G37*
G36*
X6164Y1250D02*
X6163D01*
Y1248*
X6164*
Y1250*
G37*
G36*
X5910D02*
X5907D01*
Y1248*
X5906*
Y1247*
X5909*
Y1248*
X5910*
Y1250*
G37*
G36*
X5904D02*
X5903D01*
Y1247*
X5904*
Y1250*
G37*
G36*
X6168Y1248D02*
X6167D01*
Y1247*
Y1246*
X6168*
Y1248*
G37*
G36*
X6164Y1246D02*
X6163D01*
Y1245*
X6164*
Y1246*
G37*
G36*
X6162D02*
X6159D01*
Y1244*
X6161*
Y1245*
X6162*
Y1246*
G37*
G36*
X5912Y1245D02*
X5911D01*
Y1244*
X5912*
Y1245*
G37*
G36*
X5905Y1246D02*
X5904D01*
Y1244*
X5905*
Y1245*
Y1246*
G37*
G36*
X6163Y1244D02*
X6162D01*
Y1242*
X6163*
Y1244*
G37*
G36*
X6159D02*
X6156D01*
Y1242*
X6157*
Y1241*
X6158*
Y1242*
X6159*
Y1244*
G37*
G36*
X5913Y1242D02*
X5912D01*
Y1241*
X5913*
Y1242*
G37*
G36*
X5909Y1244D02*
X5907D01*
Y1242*
Y1241*
X5909*
Y1244*
G37*
G36*
X6168D02*
X6167D01*
Y1242*
X6165*
Y1241*
Y1240*
X6167*
Y1241*
X6168*
Y1244*
G37*
G36*
X6164Y1240D02*
X6162D01*
Y1239*
Y1238*
X6163*
Y1239*
X6164*
Y1240*
G37*
G36*
X5916Y1239D02*
X5915D01*
Y1238*
X5916*
Y1239*
G37*
G36*
X5906Y1241D02*
X5905D01*
Y1240*
X5906*
Y1238*
X5907*
Y1240*
X5906*
Y1241*
G37*
G36*
Y1238D02*
X5905D01*
Y1236*
X5906*
Y1238*
G37*
G36*
X5912Y1239D02*
X5911D01*
Y1238*
X5910*
Y1236*
X5911*
Y1235*
X5912*
Y1239*
G37*
G36*
X6164Y1235D02*
X6163D01*
Y1234*
X6164*
Y1235*
G37*
G36*
X6159Y1240D02*
X6158D01*
Y1239*
X6157*
Y1236*
Y1235*
Y1234*
X6158*
Y1238*
X6159*
Y1240*
G37*
G36*
X6155Y1234D02*
X6153D01*
Y1233*
X6155*
Y1234*
G37*
G36*
X5920D02*
X5918D01*
Y1233*
X5920*
Y1234*
G37*
G36*
X5916D02*
X5915D01*
Y1231*
X5917*
Y1233*
X5916*
Y1234*
G37*
G36*
X5910Y1235D02*
X5909D01*
Y1231*
X5910*
Y1235*
G37*
G36*
X6161Y1233D02*
X6158D01*
Y1231*
X6157*
Y1230*
X6159*
Y1231*
X6161*
Y1233*
G37*
G36*
X5913Y1231D02*
X5912D01*
Y1230*
X5913*
Y1231*
G37*
G36*
X6155Y1230D02*
X6153D01*
Y1229*
X6155*
Y1230*
G37*
G36*
X5907Y1233D02*
X5906D01*
Y1231*
Y1230*
Y1229*
X5907*
Y1233*
G37*
G36*
X6163Y1230D02*
X6162D01*
Y1229*
X6161*
Y1228*
X6162*
X6163Y1229*
Y1230*
G37*
G36*
X5922D02*
X5921D01*
Y1229*
Y1228*
X5923*
Y1229*
X5922*
Y1230*
G37*
G36*
X6147Y1228D02*
X6146D01*
Y1227*
X6147*
Y1228*
G37*
G36*
X5916Y1229D02*
X5913D01*
Y1228*
X5915*
Y1227*
X5917*
Y1228*
X5916*
Y1229*
G37*
G36*
X6157D02*
X6156D01*
Y1228*
X6155*
Y1225*
X6156*
Y1227*
X6157*
Y1229*
G37*
G36*
X6159Y1225D02*
X6158D01*
Y1224*
X6159*
Y1225*
G37*
G36*
X6152Y1229D02*
X6151D01*
Y1228*
X6150*
Y1227*
Y1225*
Y1224*
X6152*
Y1229*
G37*
G36*
X5920D02*
X5918D01*
Y1228*
Y1225*
X5920*
Y1224*
X5921*
Y1227*
X5920*
Y1229*
G37*
G36*
X5913Y1227D02*
X5912D01*
Y1225*
Y1224*
X5913*
Y1227*
G37*
G36*
X5924Y1225D02*
X5923D01*
Y1224*
X5924*
Y1223*
X5926*
Y1224*
X5924Y1225*
G37*
G36*
X6158Y1224D02*
X6157D01*
Y1222*
X6158*
Y1224*
G37*
G36*
X6145D02*
X6144D01*
Y1222*
X6145*
Y1223*
Y1224*
G37*
G36*
X6157Y1222D02*
X6156D01*
Y1221*
X6157*
Y1222*
G37*
G36*
X6149Y1223D02*
X6147D01*
Y1222*
X6146*
Y1219*
X6147*
Y1221*
X6149*
Y1222*
Y1223*
G37*
G36*
X5918Y1224D02*
X5916D01*
Y1222*
X5917*
Y1221*
X5918*
Y1219*
X5922*
Y1221*
X5920*
Y1222*
X5918*
Y1224*
G37*
G36*
X6153Y1221D02*
X6152D01*
Y1218*
X6153*
Y1221*
G37*
G36*
X6157Y1218D02*
X6156D01*
Y1217*
X6157*
Y1218*
G37*
G36*
X6152D02*
X6151D01*
Y1217*
X6152*
Y1218*
G37*
G36*
X5923Y1222D02*
X5922D01*
Y1221*
X5923*
Y1219*
X5922*
Y1217*
X5924*
Y1221*
X5923*
Y1222*
G37*
G36*
X5916Y1221D02*
X5913D01*
Y1219*
X5915*
Y1218*
X5916*
Y1217*
X5918*
Y1218*
X5916*
Y1221*
G37*
G36*
X6156Y1217D02*
X6155D01*
Y1216*
X6156*
Y1217*
G37*
G36*
X5922D02*
X5920D01*
Y1216*
X5922*
Y1217*
G37*
G36*
X6144Y1216D02*
X6142D01*
Y1215*
X6144*
Y1216*
G37*
G36*
X5932D02*
X5930D01*
Y1215*
Y1213*
X5933*
Y1215*
X5932*
Y1216*
G37*
G36*
X6149D02*
X6146D01*
Y1215*
Y1213*
X6147*
Y1212*
X6149*
Y1216*
G37*
G36*
X6144Y1213D02*
X6142D01*
Y1212*
X6144*
Y1213*
G37*
G36*
X6140Y1217D02*
X6139D01*
Y1216*
X6138*
Y1212*
X6139*
Y1213*
X6140*
Y1217*
G37*
G36*
X5927D02*
X5926D01*
Y1216*
X5927*
Y1213*
X5928*
Y1212*
X5929*
Y1213*
X5928Y1215*
Y1216*
X5927*
Y1217*
G37*
G36*
X6146Y1212D02*
X6145D01*
Y1211*
X6146*
Y1212*
G37*
G36*
X6135Y1211D02*
X6133D01*
Y1210*
X6135*
Y1211*
G37*
G36*
X5920Y1215D02*
X5917D01*
Y1212*
X5918*
Y1211*
X5920*
Y1210*
X5921*
Y1212*
X5920*
Y1215*
G37*
G36*
X6140Y1210D02*
X6139D01*
Y1208*
X6140*
Y1210*
G37*
G36*
X5938Y1211D02*
X5937D01*
Y1208*
X5938*
Y1211*
G37*
G36*
X6145Y1208D02*
X6144D01*
Y1207*
X6145*
Y1208*
G37*
G36*
X6139D02*
X6138D01*
Y1207*
X6139*
Y1208*
G37*
G36*
X5932Y1212D02*
X5930D01*
Y1210*
X5932*
Y1208*
X5933*
Y1207*
X5935*
Y1208*
X5934*
Y1210*
X5933*
Y1211*
X5932*
Y1212*
G37*
G36*
X5928Y1211D02*
X5924D01*
Y1210*
X5926*
Y1208*
X5927*
Y1207*
X5928*
Y1208*
X5929*
Y1210*
X5928*
Y1211*
G37*
G36*
X6130Y1208D02*
X6129D01*
Y1207*
X6128*
Y1206*
X6130*
Y1208*
G37*
G36*
X5923D02*
X5922D01*
Y1206*
X5924*
Y1207*
X5923*
Y1208*
G37*
G36*
X5920Y1207D02*
X5918D01*
Y1206*
X5920*
Y1207*
G37*
G36*
X6149Y1206D02*
X6147D01*
Y1205*
X6149*
Y1206*
G37*
G36*
X6145D02*
X6144D01*
Y1205*
X6145*
Y1206*
G37*
G36*
X6144Y1205D02*
X6142D01*
Y1204*
X6144*
Y1205*
G37*
G36*
X6139D02*
X6138D01*
Y1204*
X6139*
Y1205*
G37*
G36*
X6133Y1206D02*
X6132D01*
Y1204*
X6133*
Y1205*
Y1206*
G37*
G36*
X5938D02*
X5935D01*
Y1205*
X5937*
Y1204*
X5938*
Y1206*
G37*
G36*
X5929Y1205D02*
X5927D01*
Y1204*
X5929*
Y1205*
G37*
G36*
X5922Y1206D02*
X5921D01*
Y1205*
X5922*
Y1204*
X5923*
Y1205*
X5922*
Y1206*
G37*
G36*
X6138Y1204D02*
X6136D01*
Y1202*
X6138*
Y1204*
G37*
G36*
X5933Y1206D02*
X5932D01*
Y1205*
X5933*
Y1204*
X5932*
Y1202*
X5935*
Y1204*
X5934*
Y1205*
X5933*
Y1206*
G37*
G36*
X6136Y1202D02*
X6135D01*
Y1201*
X6136*
Y1202*
G37*
G36*
X6133D02*
X6130D01*
Y1201*
X6133*
Y1202*
G37*
G36*
X5939D02*
X5938D01*
Y1201*
X5939*
Y1202*
G37*
G36*
X5924D02*
X5923D01*
Y1201*
X5924*
Y1202*
G37*
G36*
X6142D02*
X6140D01*
Y1201*
X6139*
Y1200*
X6141*
Y1199*
X6142*
Y1200*
X6141*
Y1201*
X6142*
Y1202*
G37*
G36*
X5937Y1200D02*
X5935D01*
Y1199*
X5937*
Y1200*
G37*
G36*
X5930Y1202D02*
X5929D01*
Y1201*
X5930*
Y1200*
X5932*
Y1199*
X5933*
Y1200*
X5932*
Y1201*
X5930Y1202*
G37*
G36*
X5928Y1201D02*
X5927D01*
Y1200*
X5928*
Y1199*
X5929*
Y1200*
X5928*
Y1201*
G37*
G36*
X6141Y1199D02*
X6140D01*
Y1198*
X6141*
Y1199*
G37*
G36*
X6124D02*
X6122D01*
Y1198*
X6124*
Y1199*
G37*
G36*
X5946Y1201D02*
X5945D01*
Y1199*
X5946*
Y1198*
X5947*
Y1200*
X5946*
Y1201*
G37*
G36*
X6136Y1199D02*
X6134D01*
Y1196*
X6136*
Y1199*
G37*
G36*
X6132D02*
X6130D01*
Y1198*
X6129*
Y1196*
X6130*
X6132Y1198*
Y1199*
G37*
G36*
X5938Y1198D02*
X5937D01*
Y1196*
X5938*
Y1198*
G37*
G36*
X6125Y1196D02*
X6124D01*
Y1195*
X6125*
Y1196*
G37*
G36*
X6122D02*
X6121D01*
Y1195*
X6122*
Y1196*
G37*
G36*
X6142D02*
X6140D01*
Y1195*
X6139*
Y1194*
X6141*
Y1195*
X6142*
Y1196*
G37*
G36*
X5935D02*
X5933D01*
Y1195*
Y1194*
X5934*
Y1195*
X5935*
Y1196*
G37*
G36*
X6139Y1194D02*
X6138D01*
Y1193*
X6139*
Y1194*
G37*
G36*
X5943Y1198D02*
X5940D01*
Y1196*
X5941*
Y1195*
X5943*
Y1194*
X5944*
Y1193*
X5945*
Y1195*
X5944*
Y1196*
X5943*
Y1198*
G37*
G36*
X6136Y1195D02*
X6135D01*
Y1194*
X6133*
Y1193*
X6132*
Y1192*
X6135*
Y1193*
X6136*
Y1195*
G37*
G36*
X5950Y1196D02*
X5949D01*
Y1194*
X5950*
Y1193*
X5951*
Y1192*
X5952*
Y1193*
X5951*
Y1194*
X5950*
Y1196*
G37*
G36*
X6127Y1192D02*
X6125D01*
Y1190*
X6127*
Y1192*
G37*
G36*
X5957D02*
X5956D01*
Y1190*
X5957*
Y1192*
G37*
G36*
X5949Y1194D02*
X5946D01*
Y1193*
X5947*
Y1192*
X5949*
Y1190*
X5950*
Y1192*
X5949*
Y1194*
G37*
G36*
X5939D02*
X5937D01*
Y1193*
X5938*
Y1192*
X5939*
Y1190*
X5940*
Y1192*
X5939*
Y1194*
G37*
G36*
X6139Y1190D02*
X6136D01*
Y1189*
X6139*
Y1190*
G37*
G36*
X6134D02*
X6133D01*
Y1189*
X6134*
Y1190*
G37*
G36*
X6130D02*
X6129D01*
Y1189*
X6130*
Y1190*
G37*
G36*
X5943Y1192D02*
X5941D01*
Y1189*
X5943*
Y1192*
G37*
G36*
X5933Y1193D02*
X5932D01*
Y1190*
X5933*
Y1189*
X5934*
Y1190*
X5933*
Y1192*
Y1193*
G37*
G36*
X6125Y1189D02*
X6123D01*
Y1188*
X6125*
Y1189*
G37*
G36*
X6116D02*
X6115D01*
Y1188*
X6116*
Y1189*
G37*
G36*
X5946Y1190D02*
X5944D01*
Y1189*
X5945*
Y1188*
X5946*
Y1190*
G37*
G36*
X6136Y1189D02*
X6135D01*
Y1188*
X6134*
Y1187*
X6135*
X6136Y1188*
Y1189*
G37*
G36*
X6121D02*
X6119D01*
Y1188*
X6117*
Y1187*
X6121*
Y1189*
G37*
G36*
X6113Y1188D02*
X6112D01*
Y1187*
X6113*
Y1188*
G37*
G36*
X5952Y1189D02*
X5951D01*
Y1187*
X5952*
Y1185*
X5955*
Y1187*
X5953*
Y1188*
X5952*
Y1189*
G37*
G36*
X6130Y1187D02*
X6128D01*
Y1184*
X6129*
Y1185*
X6130*
Y1187*
G37*
G36*
X6124Y1185D02*
X6122D01*
Y1184*
X6124*
Y1185*
G37*
G36*
X5940Y1188D02*
X5939D01*
Y1187*
Y1184*
X5940*
Y1188*
G37*
G36*
X6116Y1184D02*
X6115D01*
Y1183*
X6116*
Y1184*
G37*
G36*
X5963Y1187D02*
X5962D01*
Y1184*
X5963*
Y1183*
X5966*
Y1184*
X5964*
Y1185*
X5963*
Y1187*
G37*
G36*
X5944D02*
X5943D01*
Y1184*
X5945*
Y1183*
X5947*
Y1184*
X5946*
Y1185*
X5944*
Y1187*
G37*
G36*
X5937Y1184D02*
X5935D01*
Y1183*
X5937*
Y1184*
G37*
G36*
X6127Y1183D02*
X6125D01*
Y1182*
X6127*
Y1183*
G37*
G36*
X6122Y1184D02*
X6121D01*
Y1183*
X6119*
Y1182*
X6122*
Y1184*
G37*
G36*
X6112D02*
X6110D01*
Y1183*
X6109*
Y1182*
X6111*
Y1183*
X6112*
Y1184*
G37*
G36*
X6105Y1185D02*
X6104D01*
Y1182*
X6106*
Y1183*
X6105*
Y1185*
G37*
G36*
X5960D02*
X5957D01*
Y1184*
X5958*
Y1183*
X5960*
Y1182*
X5961*
Y1183*
Y1184*
X5960*
Y1185*
G37*
G36*
X5956Y1183D02*
X5955D01*
Y1182*
X5956*
Y1183*
G37*
G36*
X6115D02*
X6113D01*
Y1181*
X6117*
Y1182*
X6115*
Y1183*
G37*
G36*
X5952D02*
X5951D01*
Y1182*
X5952*
Y1181*
X5955*
Y1182*
X5952*
Y1183*
G37*
G36*
X6123Y1181D02*
X6121D01*
Y1179*
X6123*
Y1181*
G37*
G36*
X6110D02*
X6109D01*
Y1179*
X6110*
Y1181*
G37*
G36*
X5943Y1183D02*
X5941D01*
Y1181*
X5943*
Y1179*
X5944*
Y1182*
X5943*
Y1183*
G37*
G36*
X6112Y1179D02*
X6111D01*
Y1178*
X6112*
Y1179*
G37*
G36*
X5968D02*
X5967D01*
Y1178*
X5968*
Y1179*
G37*
G36*
X5950Y1181D02*
X5949D01*
Y1178*
X5950*
Y1179*
Y1181*
G37*
G36*
X5946Y1179D02*
X5945D01*
Y1178*
X5946*
Y1179*
G37*
G36*
X6117Y1178D02*
X6116D01*
Y1177*
X6117*
Y1178*
G37*
G36*
X6111D02*
X6110D01*
Y1177*
X6111*
Y1178*
G37*
G36*
X5975D02*
X5974D01*
Y1177*
X5975*
Y1178*
G37*
G36*
X5964Y1179D02*
X5963D01*
Y1178*
X5964*
Y1177*
X5966*
Y1178*
X5964*
Y1179*
G37*
G36*
X6127Y1178D02*
X6125D01*
X6124Y1177*
Y1176*
X6125*
Y1177*
X6127*
Y1178*
G37*
G36*
X6123D02*
X6121D01*
Y1177*
X6119*
Y1176*
X6122*
Y1177*
X6123*
Y1178*
G37*
G36*
X6105D02*
X6104D01*
Y1176*
X6105*
Y1178*
G37*
G36*
X6094D02*
X6092D01*
Y1176*
X6093*
Y1177*
X6094*
Y1178*
G37*
G36*
X6089Y1177D02*
X6088D01*
Y1176*
X6089*
Y1177*
G37*
G36*
X5957Y1181D02*
X5956D01*
Y1179*
X5955*
Y1178*
X5957*
Y1177*
X5958*
Y1178*
X5960Y1177*
Y1176*
X5962*
Y1177*
X5961*
Y1178*
X5960*
Y1179*
X5957*
Y1181*
G37*
G36*
X5949Y1177D02*
X5946D01*
Y1176*
X5949*
Y1177*
G37*
G36*
X6119Y1176D02*
X6118D01*
Y1175*
X6119*
Y1176*
G37*
G36*
X6115D02*
X6112D01*
Y1175*
X6115*
Y1176*
G37*
G36*
X6109Y1177D02*
X6107D01*
Y1176*
X6109*
Y1175*
X6110*
Y1176*
X6109*
Y1177*
G37*
G36*
X6095Y1181D02*
X6094D01*
Y1179*
X6095Y1178*
Y1175*
X6096*
Y1178*
X6098*
Y1179*
X6095*
Y1181*
G37*
G36*
X6092Y1176D02*
X6090D01*
Y1175*
X6092*
Y1176*
G37*
G36*
X5981Y1177D02*
X5978D01*
Y1176*
X5979*
Y1175*
X5980*
Y1176*
X5981*
Y1173*
X5983*
Y1176*
X5981*
Y1177*
G37*
G36*
X6104Y1176D02*
X6101D01*
Y1175*
Y1173*
X6102*
Y1175*
X6104*
Y1176*
G37*
G36*
X6088D02*
X6087D01*
Y1175*
X6086*
Y1173*
X6088*
Y1176*
G37*
G36*
X5970Y1177D02*
X5969D01*
Y1176*
X5970*
Y1175*
X5972*
Y1173*
X5974*
Y1175*
X5973*
Y1176*
X5970*
Y1177*
G37*
G36*
X6112Y1175D02*
X6111D01*
Y1173*
X6112*
Y1172*
X6113*
Y1173*
X6112*
Y1175*
G37*
G36*
X6111Y1173D02*
X6110D01*
Y1172*
X6111*
Y1173*
G37*
G36*
X5963D02*
X5962D01*
Y1172*
X5963*
Y1173*
G37*
G36*
X5956Y1177D02*
X5953D01*
Y1175*
X5955*
Y1173*
X5956*
Y1172*
X5958*
Y1173*
X5956*
Y1175*
X5958*
Y1176*
X5956*
Y1175*
X5955*
Y1176*
X5956*
Y1177*
G37*
G36*
X5951Y1173D02*
X5950D01*
Y1172*
X5951*
Y1173*
G37*
G36*
X6117D02*
X6116D01*
Y1172*
X6115*
Y1171*
X6117*
Y1173*
G37*
G36*
X6100Y1175D02*
X6099D01*
Y1173*
X6098*
Y1172*
X6096*
Y1171*
X6099*
Y1172*
X6100*
Y1173*
Y1175*
G37*
G36*
X5966Y1172D02*
X5964D01*
Y1171*
X5966*
Y1172*
G37*
G36*
X6107D02*
X6105D01*
Y1171*
X6102*
Y1170*
X6106*
Y1171*
X6107*
Y1172*
G37*
G36*
X6095D02*
X6094D01*
Y1170*
X6095*
Y1172*
G37*
G36*
X6093Y1173D02*
X6092D01*
Y1172*
X6090*
Y1170*
X6092*
Y1171*
X6093*
Y1173*
G37*
G36*
X6082Y1172D02*
X6079D01*
Y1170*
X6081*
Y1171*
X6082*
Y1172*
G37*
G36*
X5989D02*
X5986D01*
Y1171*
X5989*
Y1170*
X5990*
Y1171*
X5989*
Y1172*
G37*
G36*
X6113Y1171D02*
X6111D01*
Y1168*
X6112*
Y1170*
X6113*
Y1171*
G37*
G36*
X6079Y1170D02*
X6078D01*
Y1168*
X6079*
Y1170*
G37*
G36*
X5996D02*
X5993D01*
Y1168*
X5996*
Y1170*
G37*
G36*
X5986D02*
X5985D01*
Y1168*
X5986*
Y1170*
G37*
G36*
X5972Y1172D02*
X5969D01*
Y1170*
X5970*
Y1171*
X5972*
Y1168*
X5973*
Y1171*
X5972*
Y1172*
G37*
G36*
X5979Y1173D02*
X5978D01*
Y1171*
X5980*
Y1170*
X5981*
Y1168*
X5983*
Y1167*
X5984*
Y1168*
X5983*
Y1171*
X5981*
Y1172*
X5979*
Y1173*
G37*
G36*
X5956Y1172D02*
X5952D01*
Y1171*
X5953*
Y1168*
X5956*
Y1167*
X5960*
Y1170*
X5955*
Y1171*
X5956*
Y1172*
G37*
G36*
X6109Y1168D02*
X6106D01*
Y1166*
X6107*
Y1167*
X6109*
Y1168*
G37*
G36*
X6104Y1167D02*
X6102D01*
Y1166*
X6101*
Y1167*
X6100*
Y1166*
X6101*
Y1165*
X6104*
Y1167*
G37*
G36*
X6084D02*
X6082D01*
Y1166*
X6084*
Y1167*
G37*
G36*
X5978Y1168D02*
X5975D01*
Y1166*
X5978*
Y1168*
G37*
G36*
X5969D02*
X5967D01*
Y1167*
X5968*
Y1166*
X5970*
Y1167*
X5969*
Y1168*
G37*
G36*
X6094Y1170D02*
X6093D01*
Y1167*
X6096*
Y1166*
X6094*
Y1165*
X6098*
Y1166*
Y1167*
Y1168*
X6094*
Y1170*
G37*
G36*
X6082Y1166D02*
X6079D01*
Y1165*
X6082*
Y1166*
G37*
G36*
X5997D02*
X5995D01*
Y1165*
X5997*
Y1166*
G37*
G36*
X5958D02*
X5957D01*
Y1165*
X5958*
Y1166*
G37*
G36*
X6089Y1167D02*
X6088D01*
Y1166*
X6089*
Y1165*
X6088*
Y1164*
X6087*
Y1165*
X6086*
Y1164*
X6087*
Y1162*
X6089*
Y1164*
X6090*
Y1166*
X6089*
Y1167*
G37*
G36*
X6079Y1165D02*
X6078D01*
Y1164*
X6079*
Y1165*
G37*
G36*
X6067D02*
X6066D01*
Y1164*
X6067*
Y1165*
G37*
G36*
X5989Y1166D02*
X5986D01*
Y1165*
X5987*
Y1164*
X5990*
Y1165*
X5989*
Y1166*
G37*
G36*
X5981D02*
X5980D01*
Y1165*
X5979*
Y1164*
X5983*
Y1165*
X5981*
Y1166*
G37*
G36*
X5973Y1165D02*
X5972D01*
Y1164*
X5973*
Y1165*
G37*
G36*
X5963Y1166D02*
X5961D01*
Y1165*
X5962*
X5963Y1164*
X5966*
Y1165*
X5963*
Y1166*
G37*
G36*
X6098Y1164D02*
X6096D01*
Y1162*
X6098*
Y1164*
G37*
G36*
X6086D02*
X6084D01*
Y1162*
X6086*
Y1164*
G37*
G36*
X6003Y1165D02*
X6001D01*
Y1161*
X6002*
Y1160*
X6003*
Y1161*
X6002*
Y1164*
X6003*
Y1162*
X6004*
Y1164*
X6003*
Y1165*
G37*
G36*
X6083Y1162D02*
X6082D01*
Y1161*
X6083*
Y1162*
G37*
G36*
X6075Y1165D02*
X6073D01*
Y1164*
X6072*
Y1161*
X6075*
Y1162*
X6076*
Y1164*
X6075*
Y1165*
G37*
G36*
X5995D02*
X5993D01*
Y1164*
X5995*
Y1162*
X5996*
Y1161*
X5997*
Y1162*
X5996*
Y1164*
X5995*
Y1165*
G37*
G36*
X5961Y1164D02*
X5960D01*
Y1162*
X5961*
Y1161*
X5962*
Y1162*
X5961*
Y1164*
G37*
G36*
X6102Y1162D02*
X6101D01*
Y1161*
X6100*
Y1160*
X6102*
Y1161*
Y1162*
G37*
G36*
X6072Y1161D02*
X6071D01*
Y1160*
X6072*
Y1161*
G37*
G36*
X5986D02*
X5985D01*
Y1160*
X5984*
Y1161*
X5983*
Y1160*
X5984*
Y1159*
X5987*
Y1160*
X5986*
Y1161*
G37*
G36*
X5979Y1162D02*
X5976D01*
Y1161*
Y1160*
X5978*
Y1161*
X5979*
Y1162*
G37*
G36*
X6094Y1164D02*
X6092D01*
Y1162*
X6090*
X6089Y1161*
Y1160*
X6090*
Y1159*
X6092*
Y1160*
X6090*
Y1161*
X6093*
Y1162*
X6094*
Y1164*
G37*
G36*
X6000Y1161D02*
X5998D01*
Y1160*
X6000*
Y1159*
X6001*
Y1160*
X6000*
Y1161*
G37*
G36*
X5992D02*
X5990D01*
Y1160*
X5992*
Y1159*
X5993*
Y1160*
X5992Y1161*
G37*
G36*
X5970D02*
X5966D01*
Y1160*
X5967*
Y1159*
X5969*
Y1160*
X5970*
Y1161*
G37*
G36*
X6095Y1159D02*
X6094D01*
Y1158*
X6095*
Y1159*
G37*
G36*
X6083D02*
X6082D01*
Y1158*
X6083*
Y1159*
G37*
G36*
X6078Y1161D02*
X6076D01*
Y1159*
X6075*
Y1158*
X6077*
Y1160*
X6078*
Y1161*
G37*
G36*
X5998Y1159D02*
X5997D01*
Y1158*
X5998*
Y1159*
G37*
G36*
X5975D02*
X5974D01*
Y1158*
X5975*
Y1159*
G37*
G36*
X5973D02*
X5970D01*
Y1158*
X5973*
Y1159*
G37*
G36*
X6081D02*
X6079D01*
Y1156*
X6082*
Y1158*
X6081*
Y1159*
G37*
G36*
X5990Y1158D02*
X5989D01*
Y1156*
X5990*
Y1158*
G37*
G36*
X5980Y1159D02*
X5979D01*
Y1156*
X5980*
Y1159*
G37*
G36*
X6088D02*
X6086D01*
Y1156*
X6088*
Y1155*
X6090*
Y1156*
X6088*
Y1158*
Y1159*
G37*
G36*
X6079Y1155D02*
X6078D01*
Y1154*
X6079*
Y1155*
G37*
G36*
X5996Y1156D02*
X5995D01*
Y1155*
X5996*
Y1154*
X5997*
Y1155*
X5996Y1156*
G37*
G36*
X6084Y1155D02*
X6083D01*
Y1154*
X6084*
Y1153*
X6086*
Y1154*
X6084Y1155*
G37*
G36*
X6073Y1158D02*
X6067D01*
Y1156*
X6066*
Y1154*
Y1153*
X6069*
Y1154*
X6071*
Y1155*
X6072*
Y1156*
X6073*
Y1158*
G37*
G36*
X5985Y1154D02*
X5984D01*
Y1153*
X5985*
Y1154*
G37*
G36*
X6062Y1155D02*
X6060D01*
Y1154*
X6058*
Y1153*
X6054*
Y1152*
X6052*
Y1153*
X6050*
Y1152*
X6046*
Y1150*
X6054*
Y1149*
X6056*
Y1148*
X6059*
Y1147*
X6064*
Y1149*
X6062*
Y1150*
Y1155*
G37*
G36*
X6000Y1153D02*
X5998D01*
Y1152*
X6000*
Y1153*
G37*
G36*
X5993Y1154D02*
X5989D01*
Y1153*
X5991*
Y1152*
X5993*
Y1154*
G37*
G36*
X5980Y1155D02*
X5976D01*
Y1154*
X5979*
Y1153*
X5980*
Y1152*
X5981*
Y1153*
X5980*
Y1155*
G37*
G36*
X6077Y1153D02*
X6072D01*
Y1152*
X6073*
Y1150*
X6076*
Y1152*
X6077*
Y1153*
G37*
G36*
X6044Y1152D02*
X6043D01*
Y1150*
X6044*
Y1152*
G37*
G36*
X6002D02*
X6001D01*
Y1150*
X6002*
Y1152*
G37*
G36*
X5985D02*
X5984D01*
Y1150*
X5985*
Y1152*
G37*
G36*
X6088Y1150D02*
X6084D01*
Y1149*
X6088*
Y1150*
G37*
G36*
X6010Y1156D02*
X6007D01*
Y1154*
X6008*
Y1150*
X6007*
Y1148*
X6010*
Y1149*
X6013*
Y1150*
X6018*
Y1152*
X6024*
Y1150*
X6029*
Y1149*
X6031*
Y1150*
X6030*
Y1152*
X6024*
Y1153*
X6015*
Y1154*
X6013*
Y1155*
X6010*
Y1156*
G37*
G36*
X6084Y1149D02*
X6083D01*
Y1148*
X6084*
Y1149*
G37*
G36*
X6078D02*
X6076D01*
Y1148*
X6078*
Y1149*
G37*
G36*
X6041Y1150D02*
X6037D01*
X6036Y1149*
X6035*
Y1148*
X6037*
Y1149*
X6041*
Y1150*
G37*
G36*
X5991Y1149D02*
X5990D01*
Y1148*
X5991*
Y1149*
G37*
G36*
X5989D02*
X5986D01*
Y1148*
X5989*
Y1149*
G37*
G36*
X6081Y1148D02*
X6079D01*
Y1147*
X6081*
Y1148*
G37*
G36*
X6071Y1150D02*
X6067D01*
Y1149*
X6070*
Y1148*
X6069*
Y1147*
X6071*
Y1148*
X6072*
Y1147*
X6073*
Y1149*
X6071*
Y1150*
G37*
G36*
X6035Y1148D02*
X6032D01*
Y1147*
X6035*
Y1148*
G37*
G36*
X6032Y1147D02*
X6030D01*
Y1145*
X6032*
Y1147*
G37*
G36*
X6043D02*
X6038D01*
Y1145*
X6041*
Y1144*
X6043*
Y1143*
X6044*
Y1142*
X6046*
Y1141*
X6047*
Y1144*
X6046*
Y1145*
X6043*
Y1147*
G37*
G36*
X6030Y1145D02*
X6027D01*
Y1144*
X6025*
Y1143*
X6024*
Y1142*
X6021*
Y1141*
X6020*
Y1137*
X6021*
Y1138*
X6023*
Y1139*
X6024*
Y1141*
X6025*
Y1142*
X6026*
Y1143*
X6029*
Y1144*
X6030*
Y1145*
G37*
%LNpcb2-7*%
%LPD*%
G36*
X6069Y1154D02*
X6067D01*
Y1155*
X6069*
Y1154*
G37*
%LNpcb2-8*%
%LPC*%
G36*
X5967Y1206D02*
X5963D01*
Y1204*
X5964*
Y1202*
X5967*
Y1201*
X5969*
Y1204*
X5968*
Y1205*
X5967*
Y1206*
G37*
G36*
X5981Y1200D02*
X5979D01*
Y1199*
X5976*
Y1200*
X5974*
Y1198*
X5978*
Y1195*
X5976*
Y1194*
X5979*
Y1193*
X5981*
Y1195*
X5983*
Y1199*
X5981*
Y1200*
G37*
G36*
X6009Y1188D02*
X6008D01*
Y1187*
X6009*
Y1188*
G37*
G36*
X5996Y1193D02*
X5992D01*
Y1192*
X5991*
Y1190*
X5990*
Y1188*
X5992*
Y1187*
X5995*
Y1189*
X5996*
Y1193*
G37*
G36*
X6007Y1187D02*
X6002D01*
Y1184*
X6006*
Y1183*
X6009*
Y1184*
X6008*
Y1185*
X6007*
Y1187*
G37*
G36*
X6095Y1204D02*
X6093D01*
Y1202*
X6090*
Y1200*
X6092*
Y1198*
X6094*
Y1199*
X6096*
Y1200*
X6098*
Y1201*
X6096*
Y1202*
X6095*
Y1204*
G37*
G36*
X6043Y1185D02*
X6039D01*
Y1183*
X6043*
Y1185*
G37*
G36*
X6055Y1184D02*
X6053D01*
Y1183*
X6052*
Y1182*
Y1181*
X6056*
Y1182*
X6058*
Y1183*
X6055*
Y1184*
G37*
G36*
X5963Y1148D02*
X5962D01*
Y1147*
X5963*
Y1148*
G37*
G36*
X6105Y1147D02*
X6102D01*
Y1145*
X6101*
Y1143*
X6105*
Y1147*
G37*
G36*
X5968D02*
X5964D01*
Y1143*
X5967*
Y1144*
X5968*
Y1147*
G37*
G36*
X5961Y1145D02*
X5956D01*
Y1144*
X5960*
Y1143*
X5961*
Y1145*
G37*
G36*
X5960Y1149D02*
X5952D01*
Y1148*
X5950*
Y1147*
X5949*
Y1144*
X5950*
Y1143*
X5952*
Y1147*
X5955*
Y1148*
X5960*
Y1149*
G37*
G36*
X6115Y1148D02*
X6113D01*
Y1147*
X6115*
Y1145*
X6116*
Y1144*
X6117*
Y1143*
X6116*
Y1142*
X6118*
Y1143*
X6119*
Y1144*
X6121*
Y1145*
X6118*
Y1147*
X6115*
Y1148*
G37*
G36*
X6112Y1145D02*
X6110D01*
Y1144*
X6107*
Y1142*
X6110*
Y1143*
X6113*
Y1144*
X6112*
Y1145*
G37*
G36*
X5957Y1143D02*
X5953D01*
Y1141*
X5956*
Y1139*
X5958*
Y1138*
X5961*
Y1137*
X5964*
Y1136*
X5968*
Y1138*
X5967*
Y1139*
X5968*
Y1142*
X5964*
Y1141*
X5962*
Y1142*
X5957*
Y1143*
G37*
G36*
X6101Y1142D02*
X6100D01*
Y1137*
X6099*
Y1136*
X6100*
Y1135*
X6101*
Y1136*
X6104*
Y1137*
X6107*
Y1138*
X6111*
Y1139*
X6113*
Y1141*
X6110*
Y1139*
X6105*
Y1141*
X6101*
Y1142*
G37*
G36*
X5949Y1143D02*
X5946D01*
Y1139*
X5945*
Y1132*
X5944*
Y1124*
X5945*
Y1122*
X5946*
Y1121*
X5947*
Y1120*
X5950*
Y1119*
X5951*
Y1118*
X5953*
Y1116*
X5955*
Y1115*
X5957*
Y1114*
X5960*
Y1113*
X5963*
Y1112*
X5966*
Y1110*
X5969*
Y1109*
X5972*
Y1108*
X5975*
Y1107*
X5980*
Y1106*
X5984*
Y1104*
X5990*
Y1103*
X5995*
Y1102*
X6000*
Y1101*
X6007*
Y1099*
X6018*
Y1098*
X6052*
Y1099*
X6060*
Y1101*
X6065*
Y1102*
X6071*
Y1103*
X6076*
Y1104*
X6081*
Y1106*
X6086*
Y1107*
X6089*
Y1108*
X6093*
Y1109*
X6095*
Y1110*
X6100*
Y1112*
X6102*
Y1113*
X6105*
Y1114*
X6107*
Y1115*
X6110*
Y1116*
X6112*
Y1118*
X6115*
Y1119*
X6117*
Y1120*
X6118*
Y1121*
X6121*
Y1122*
X6122*
Y1124*
X6123*
Y1136*
X6122*
Y1141*
X6121*
Y1142*
X6119*
Y1141*
X6118*
Y1139*
X6116*
Y1138*
X6113*
Y1137*
X6110*
Y1136*
X6107*
Y1135*
X6104*
Y1133*
X6100*
Y1132*
X6096*
Y1131*
X6093*
Y1130*
X6089*
Y1129*
X6086*
Y1127*
X6081*
Y1126*
X6077*
Y1125*
X6072*
Y1124*
X6067*
Y1122*
X6062*
Y1121*
X6054*
Y1120*
X6013*
Y1121*
X6006*
Y1122*
X6000*
Y1124*
X5993*
Y1125*
X5987*
Y1126*
X5984*
Y1127*
X5980*
Y1129*
X5976*
Y1130*
X5973*
Y1131*
X5969*
Y1132*
X5967*
Y1133*
X5964*
Y1135*
X5961*
Y1136*
X5960*
Y1137*
X5956*
Y1138*
X5953*
Y1139*
X5952*
Y1141*
X5950*
Y1142*
X5949*
Y1143*
G37*
%LNpcb2-9*%
%LPD*%
G36*
X6110Y1119D02*
X6107D01*
Y1122*
X6106*
Y1116*
X6104*
Y1121*
X6102*
Y1125*
X6101*
Y1114*
X6100*
Y1113*
X6095*
Y1118*
X6094*
Y1122*
X6093*
Y1121*
X6092*
Y1118*
X6093*
Y1110*
X6090*
Y1113*
X6089*
Y1115*
X6090*
Y1116*
X6089*
Y1120*
X6086*
Y1122*
X6088*
Y1124*
X6092*
Y1125*
X6093*
Y1124*
X6094*
Y1125*
X6096*
Y1120*
X6098*
Y1116*
X6099*
Y1126*
X6101*
Y1129*
X6102*
Y1127*
X6104*
Y1129*
X6106*
Y1127*
X6107*
Y1126*
X6109*
Y1127*
X6107*
Y1130*
X6109*
Y1131*
X6110*
Y1119*
G37*
G36*
X6115Y1129D02*
X6116D01*
Y1126*
X6117*
Y1124*
X6118*
Y1121*
X6116*
Y1122*
X6113*
Y1120*
X6112*
Y1119*
X6111*
Y1127*
X6112*
Y1129*
Y1132*
X6115*
Y1129*
G37*
G36*
X5979Y1122D02*
X5978D01*
Y1119*
X5976*
Y1116*
X5975*
Y1114*
X5974*
Y1113*
X5973*
Y1120*
X5972*
Y1125*
X5974*
Y1121*
X5976*
Y1124*
X5978*
Y1125*
X5979*
Y1122*
G37*
G36*
X5953Y1133D02*
X5955D01*
Y1132*
X5953*
Y1125*
X5956*
Y1132*
X5958*
Y1125*
X5957*
Y1122*
X5956*
Y1121*
X5952*
Y1122*
X5951*
Y1124*
Y1133*
X5952*
Y1135*
X5953*
Y1133*
G37*
G36*
X5962Y1129D02*
X5963D01*
Y1126*
X5964*
Y1129*
X5967*
Y1124*
Y1122*
Y1120*
X5966*
Y1116*
X5963*
Y1122*
X5962*
Y1119*
X5961*
Y1118*
X5960*
Y1130*
X5961*
Y1131*
X5962*
Y1129*
G37*
G36*
X6077Y1119D02*
X6078D01*
Y1110*
X6079*
Y1107*
X6077*
Y1109*
X6076*
Y1112*
X6075*
Y1107*
X6072*
Y1112*
X6071*
Y1107*
X6070*
Y1106*
X6066*
Y1108*
X6065*
Y1116*
X6066*
Y1118*
X6067*
Y1119*
X6070*
Y1118*
X6071*
Y1115*
X6072*
Y1119*
X6075*
Y1120*
X6077*
Y1119*
G37*
G36*
X6062Y1115D02*
Y1113D01*
X6064*
Y1107*
X6065*
Y1104*
X6064*
Y1103*
X6062*
Y1104*
X6061*
Y1107*
X6060*
Y1106*
X6059*
Y1109*
X6058*
Y1104*
X6056*
Y1103*
X6055*
Y1116*
X6058*
Y1114*
X6059*
Y1115*
X6060*
Y1116*
X6062*
Y1115*
G37*
G36*
X5970Y1125D02*
Y1124D01*
Y1115*
X5969*
Y1114*
X5968*
Y1126*
X5970*
Y1125*
G37*
G36*
X6084Y1120D02*
X6086D01*
Y1118*
X6087*
Y1114*
X6088*
Y1109*
X6087*
Y1110*
X6086*
Y1113*
X6084*
Y1112*
X6083*
Y1109*
X6082*
Y1108*
X6081*
Y1113*
Y1114*
Y1120*
X6082*
Y1121*
X6084*
Y1120*
G37*
G36*
X6000Y1118D02*
X6002D01*
Y1115*
X5998*
Y1114*
X6000*
Y1113*
X6001*
Y1112*
X6002*
Y1107*
X5996*
Y1108*
X5995*
Y1112*
X5997*
Y1109*
X6000*
Y1110*
X5998*
Y1113*
X5997*
Y1114*
X5996*
Y1116*
Y1118*
X5997*
Y1119*
X6000*
Y1118*
G37*
G36*
X5981Y1122D02*
X5986D01*
Y1121*
X5987*
Y1120*
X5992*
Y1119*
X5995*
Y1115*
Y1114*
Y1113*
X5993*
Y1107*
X5992*
Y1108*
X5991*
Y1112*
X5989*
Y1108*
X5986*
Y1116*
X5987*
Y1120*
X5981*
Y1118*
X5984*
Y1116*
X5985*
Y1114*
X5983*
Y1115*
X5981*
Y1114*
Y1113*
X5985*
Y1109*
X5984*
Y1110*
X5979*
Y1112*
X5978*
Y1113*
X5979*
Y1120*
X5980*
Y1124*
X5981*
Y1122*
G37*
G36*
X6039Y1114D02*
X6041D01*
Y1106*
Y1104*
X6039*
Y1103*
X6035*
Y1106*
X6033*
Y1113*
X6035*
Y1115*
X6039*
Y1114*
G37*
G36*
X6016Y1115D02*
X6019D01*
Y1114*
X6020*
Y1112*
X6021*
Y1113*
X6023*
Y1115*
X6025*
Y1113*
X6024*
Y1112*
X6023*
Y1109*
X6021*
Y1108*
X6023*
Y1107*
X6021*
Y1103*
X6019*
Y1110*
X6018*
Y1114*
X6013*
Y1108*
Y1107*
Y1104*
X6010*
Y1106*
X6009*
Y1109*
X6010*
Y1114*
X6008*
Y1115*
X6007*
Y1109*
X6006*
Y1106*
X6003*
Y1112*
X6004*
Y1116*
X6016*
Y1115*
G37*
G36*
X6049Y1113D02*
X6046D01*
Y1112*
X6044*
Y1110*
X6048*
Y1108*
X6046*
Y1107*
X6044*
Y1106*
X6046*
Y1103*
X6044*
Y1102*
X6043*
Y1108*
X6042*
Y1114*
X6043*
Y1115*
X6049*
Y1113*
G37*
%LNpcb2-10*%
%LPC*%
G36*
X6076Y1116D02*
X6075D01*
Y1114*
X6076*
Y1115*
Y1116*
G37*
G36*
X6069D02*
X6067D01*
Y1109*
X6070*
Y1113*
Y1114*
Y1115*
X6069*
Y1116*
G37*
G36*
X6084D02*
X6083D01*
Y1114*
X6084*
Y1115*
Y1116*
G37*
G36*
X5991Y1118D02*
X5990D01*
Y1116*
X5989*
Y1115*
X5990*
Y1114*
X5992*
Y1116*
X5991*
Y1118*
G37*
G36*
X6038Y1113D02*
X6036D01*
Y1110*
Y1109*
Y1106*
X6038*
Y1113*
G37*
%LNpcb2-11*%
%LPD*%
G54D10*
X6466Y4200D02*
D01*
D01*
G75*
G03X6458I-3J0D01*
G74*G01*
D01*
G75*
G03X6466I3J0D01*
G74*G01*
X3433Y1975D02*
D01*
D01*
G75*
G03X3417I-7J0D01*
G74*G01*
D01*
G75*
G03X3433I7J0D01*
G74*G01*
X4464Y3718D02*
D01*
D01*
G75*
G03X4456I-3J0D01*
G74*G01*
D01*
G75*
G03X4464I3J0D01*
G74*G01*
X5272Y1128D02*
D01*
D01*
G75*
G03X5278Y1137I-76J52D01*
G74*G01*
X5113Y1141D02*
D01*
D01*
G75*
G03X5120Y1128I83J38D01*
G74*G01*
X5278Y1224D02*
D01*
D01*
G75*
G03X5113Y1220I-81J-43D01*
G74*G01*
X4763Y4547D02*
D01*
D01*
G75*
G03X4370I-196J0D01*
G74*G01*
D01*
G75*
G03X4763I196J0D01*
G74*G01*
X5120Y1128D02*
X5272D01*
X5244Y1529D02*
Y1777D01*
X5149Y1529D02*
Y1777D01*
X5170*
X5223Y1529D02*
X5244D01*
X5223Y1777D02*
X5244D01*
X5149Y1529D02*
X5170D01*
X6640Y3588D02*
X6661D01*
X6566Y3340D02*
X6587D01*
X6566Y3588D02*
X6587D01*
X6640Y3340D02*
X6661D01*
Y3588*
X6566Y3340D02*
Y3588D01*
X5039Y3866D02*
Y4165D01*
X4094Y3866D02*
X5039D01*
X4094D02*
Y4165D01*
X5039*
X6798Y3588D02*
X6818D01*
X6724Y3340D02*
X6745D01*
X6724Y3588D02*
X6745D01*
X6798Y3340D02*
X6818D01*
Y3588*
X6724Y3340D02*
Y3588D01*
X5535Y2333D02*
X5945D01*
X5535Y2233D02*
Y2333D01*
Y2233D02*
X5945D01*
Y2333*
X3642Y3874D02*
Y4629D01*
X3287D02*
X3642D01*
X3287Y3874D02*
Y4629D01*
Y3874D02*
X3642D01*
G54D11*
X6926Y1960D02*
D01*
D01*
G75*
G03X6453I-236J0D01*
G74*G01*
D01*
G75*
G03X6926I236J0D01*
G74*G01*
X5532Y3339D02*
X6228D01*
X5532Y2842D02*
Y3339D01*
X6228Y2842D02*
Y3339D01*
X5532Y2842D02*
X6228D01*
X5532Y2587D02*
Y2842D01*
X6228Y2587D02*
Y2842D01*
X5532Y2587D02*
X6228D01*
X5740Y4592D02*
X6004D01*
Y4439D02*
Y4592D01*
X5740Y4439D02*
Y4592D01*
Y4439D02*
X6004D01*
X5317Y2587D02*
X5532D01*
X6228*
X6440*
X5317D02*
Y4592D01*
X6440Y2587D02*
Y4592D01*
X5317D02*
X5740D01*
X6004*
X6440*
Y2587D02*
Y4592D01*
X5317D02*
X6440D01*
X5317Y2587D02*
X6440D01*
X5317D02*
Y4592D01*
X4980Y1161D02*
Y2185D01*
X3484Y1161D02*
X4980D01*
X3484D02*
Y2185D01*
X4980*
X4960Y2322D02*
Y3661D01*
X4173Y2322D02*
X4960D01*
X4173D02*
Y3661D01*
X4960*
X3877Y2515D02*
Y3468D01*
X3523Y2515D02*
Y3468D01*
X3752D02*
X3877D01*
X3523D02*
X3648D01*
X3746Y2515D02*
X3877D01*
X3523D02*
X3655D01*
X6665Y1685D02*
X6715D01*
X6690Y2235D02*
Y2285D01*
X6665Y2260D02*
X6715D01*
G54D12*
X5597Y2624D02*
Y2739D01*
Y2624D02*
X5707D01*
Y2734*
X5797*
Y2624D02*
Y2734D01*
Y2624D02*
X5907D01*
Y2729*
X6012*
Y2619D02*
Y2729D01*
Y2619D02*
X6117D01*
X6122Y2614D02*
Y2779D01*
Y2614D02*
X6187D01*
Y2794*
X3662Y4754D02*
Y4714D01*
X3642Y4694*
X3622Y4714*
Y4754*
X3602Y4694D02*
X3582D01*
X3592*
Y4754*
X3602Y4744*
X6664Y3119D02*
Y3179D01*
X6634*
X6624Y3169*
Y3149*
X6634Y3139*
X6664*
X6644D02*
X6624Y3119D01*
X6604Y3169D02*
X6594Y3179D01*
X6574*
X6564Y3169*
Y3159*
X6574Y3149*
X6564Y3139*
Y3129*
X6574Y3119*
X6594*
X6604Y3129*
Y3139*
X6594Y3149*
X6604Y3159*
Y3169*
X6594Y3149D02*
X6574D01*
X5404Y1702D02*
Y1762D01*
X5374*
X5364Y1752*
Y1732*
X5374Y1722*
X5404*
X5384D02*
X5364Y1702D01*
X5304Y1762D02*
X5324Y1752D01*
X5344Y1732*
Y1712*
X5334Y1702*
X5314*
X5304Y1712*
Y1722*
X5314Y1732*
X5344*
X4843Y1289D02*
Y1229D01*
X4803*
X4783D02*
X4763D01*
X4773*
Y1289*
X4783Y1279*
X3464Y2470D02*
X3504D01*
Y2440*
X3484*
X3504*
Y2410*
X3444D02*
X3424D01*
X3434*
Y2470*
X3444Y2460*
X4734Y4823D02*
X4744Y4833D01*
X4764*
X4774Y4823*
Y4783*
X4764Y4773*
X4744*
X4734Y4783*
X4674Y4773D02*
X4714D01*
X4674Y4813*
Y4823*
X4684Y4833*
X4704*
X4714Y4823*
X4173Y4231D02*
X4163Y4221D01*
X4143*
X4133Y4231*
Y4271*
X4143Y4281*
X4163*
X4173Y4271*
X4193Y4281D02*
X4213D01*
X4203*
Y4221*
X4193Y4231*
X6207Y4480D02*
Y4430D01*
X6197Y4420*
X6177*
X6167Y4430*
Y4480*
X6147Y4420D02*
X6127D01*
X6137*
Y4480*
X6147Y4470*
X6821Y3119D02*
Y3179D01*
X6791*
X6781Y3169*
Y3149*
X6791Y3139*
X6821*
X6801D02*
X6781Y3119D01*
X6761Y3179D02*
X6721D01*
Y3169*
X6761Y3129*
Y3119*
X5354Y1358D02*
Y1318D01*
X5344Y1308*
X5324*
X5314Y1318*
Y1358*
X5324Y1368*
X5344*
X5334Y1348D02*
X5354Y1368D01*
X5344D02*
X5354Y1358D01*
X5374Y1368D02*
X5394D01*
X5384*
Y1308*
X5374Y1318*
X4400Y3434D02*
Y3494D01*
X4370*
X4360Y3484*
Y3464*
X4370Y3454*
X4400*
X4300Y3484D02*
X4310Y3494D01*
X4330*
X4340Y3484*
Y3474*
X4330Y3464*
X4310*
X4300Y3454*
Y3444*
X4310Y3434*
X4330*
X4340Y3444*
X4280Y3434D02*
X4260D01*
X4270*
Y3494*
X4280Y3484*
X6762Y1998D02*
Y1938D01*
X6722*
X6662Y1988D02*
X6672Y1998D01*
X6692*
X6702Y1988*
Y1978*
X6692Y1968*
X6672*
X6662Y1958*
Y1948*
X6672Y1938*
X6692*
X6702Y1948*
X6642Y1938D02*
X6622D01*
X6632*
Y1998*
X6642Y1988*
X5758Y2155D02*
X5778D01*
X5768*
Y2105*
X5778Y2095*
X5788*
X5798Y2105*
X5708Y2095D02*
Y2155D01*
X5738Y2125*
X5698*
X3385Y3809D02*
X3405D01*
X3395*
Y3759*
X3405Y3749*
X3415*
X3425Y3759*
X3365Y3749D02*
X3345D01*
X3355*
Y3809*
X3365Y3799*
G54D57*
X3940Y4810D02*
D01*
D01*
G75*
G03X3915Y4785I0J-25D01*
G74*G01*
X4090Y4480D02*
D01*
D01*
G75*
G03X4115Y4505I0J25D01*
G74*G01*
X4240D02*
D01*
D01*
G75*
G03X4265Y4530I0J25D01*
G74*G01*
Y4760D02*
D01*
D01*
G75*
G03X4240Y4785I-25J0D01*
G74*G01*
X3790D02*
D01*
D01*
G75*
G03X3765Y4760I0J-25D01*
G74*G01*
Y4530D02*
D01*
D01*
G75*
G03X3790Y4505I25J0D01*
G74*G01*
X3765Y4530D02*
Y4760D01*
X3870Y4480D02*
X4090D01*
X3940Y4810D02*
X4160D01*
X3910Y4505D02*
X4240D01*
X3790Y4785D02*
X4120D01*
X4265Y4530D02*
Y4760D01*
X3790Y4505D02*
X3820D01*
X4210Y4785D02*
X4240D01*
G54D59*
X5353Y1181D02*
D01*
D01*
G75*
G03X5343I-4J0D01*
G74*G01*
D01*
G75*
G03X5353I4J0D01*
G74*G01*
X3495Y3846D02*
D01*
D01*
G75*
G03X3485I-4J0D01*
G74*G01*
D01*
G75*
G03X3495I4J0D01*
G74*G01*
G54D60*
X5396Y2665D03*
X6361D03*
X5396Y4514D03*
X6361D03*
G54D61*
X3815Y4765D02*
X4015D01*
Y4525D02*
X4215D01*
X4015Y4540D02*
X4115D01*
X3915Y4750D02*
X4015D01*
G54D62*
X4566Y4287D02*
Y4326D01*
X4586Y4306D02*
X4546D01*
M02*