%FSLAX23Y23*%
%MOIN*%
%SFA1B1*%

%IPPOS*%
%ADD30C,0.061020*%
%ADD31R,0.061020X0.061020*%
%ADD34C,0.107480*%
%ADD35R,0.107480X0.107480*%
%ADD40C,0.078740*%
%ADD41R,0.078740X0.078740*%
%ADD42C,0.072000*%
%ADD43R,0.072000X0.072000*%
%ADD44R,0.059370X0.059370*%
%ADD45C,0.059370*%
%ADD46O,0.060000X0.120000*%
%ADD47R,0.055120X0.055120*%
%ADD48C,0.055120*%
%ADD49R,0.053150X0.053150*%
%ADD50C,0.053150*%
%ADD51R,0.055120X0.055120*%
%ADD52C,0.064960*%
%ADD53C,0.077950*%
%ADD54R,0.053150X0.053150*%
%ADD55C,0.053470*%
%ADD58O,0.061020X0.023620*%
%LNpcb2-1*%
%LPD*%
G54D30*
X4167Y4015D03*
G54D31*
X4966Y4015D03*
G54D34*
X3489Y4376D03*
G54D35*
X3489Y4126D03*
G54D40*
X5377Y2800D03*
Y2900D03*
Y3000D03*
Y3100D03*
Y3200D03*
Y3500D03*
Y3600D03*
Y4000D03*
Y4100D03*
X6377Y2800D03*
Y3000D03*
Y3100D03*
Y3600D03*
Y3700D03*
Y3900D03*
X5377Y4200D03*
Y3900D03*
Y3800D03*
Y3700D03*
Y3400D03*
Y3300D03*
X6377Y2900D03*
Y3200D03*
Y3300D03*
Y3400D03*
Y3500D03*
Y3800D03*
Y4000D03*
Y4100D03*
G54D41*
X6377Y4200D03*
G54D42*
X3818Y1377D03*
X4645D03*
Y1968D03*
G54D43*
X3818Y1968D03*
G54D44*
X4468Y3570D03*
X6781Y3809D03*
Y2785D03*
G54D45*
X4665Y3570D03*
X4263Y2413D03*
X4870D03*
X6604Y4064D03*
Y3809D03*
X6781Y4064D03*
X6604Y3041D03*
Y2785D03*
X6781Y3041D03*
G54D46*
X4165Y4760D03*
X3865Y4530D03*
G54D47*
X5299Y1181D03*
X4566Y4448D03*
G54D48*
X5094Y1181D03*
X5196D03*
X5218Y4566D03*
X5118D03*
X5318D03*
X5096Y3070D03*
X4566Y2519D03*
Y4645D03*
X5590Y2283D03*
X5790D03*
X5690D03*
X5096Y2204D03*
X5196D03*
X5690Y2519D03*
X5984Y3070D03*
X4280D03*
G54D49*
X5196Y1830D03*
X6614Y3287D03*
X6771D03*
X5118Y3444D03*
G54D50*
X5196Y1476D03*
X6614Y3641D03*
X6771D03*
X6791Y2519D03*
X5118Y3799D03*
X6082Y3307D03*
Y3543D03*
Y3779D03*
G54D51*
X5018Y4566D03*
X5196Y3070D03*
X4666Y2519D03*
X5890Y2283D03*
X5296Y2204D03*
X5590Y2519D03*
X6084Y3070D03*
X4380D03*
G54D52*
X6299Y1814D03*
Y2122D03*
G54D53*
X3700Y2549D03*
Y3435D03*
G54D54*
X6437Y2519D03*
X5728Y3307D03*
Y3543D03*
Y3779D03*
G54D55*
X6690Y1810D03*
Y2109D03*
G54D58*
X7007Y4803D03*
X3307D03*
Y1102D03*
X7007D03*
M02*