%FSLAX23Y23*%
%MOIN*%
%SFA1B1*%

%IPPOS*%
%ADD11C,0.005000*%
%LNpcb2-1*%
%LPD*%
G54D11*
X5357Y2800D02*
X5398D01*
X5377Y2780D02*
Y2820D01*
X5357Y2900D02*
X5398D01*
X5377Y2880D02*
Y2920D01*
X5357Y3000D02*
X5398D01*
X5377Y2980D02*
Y3020D01*
X5357Y3100D02*
X5398D01*
X5377Y3080D02*
Y3120D01*
X5357Y3200D02*
X5398D01*
X5377Y3180D02*
Y3220D01*
X5357Y3500D02*
X5398D01*
X5377Y3480D02*
Y3520D01*
X5357Y3600D02*
X5398D01*
X5377Y3580D02*
Y3620D01*
X5357Y4000D02*
X5398D01*
X5377Y3980D02*
Y4020D01*
X5357Y4100D02*
X5398D01*
X5377Y4080D02*
Y4120D01*
X6357Y2800D02*
X6398D01*
X6377Y2780D02*
Y2820D01*
X6357Y3000D02*
X6398D01*
X6377Y2980D02*
Y3020D01*
X6357Y3100D02*
X6398D01*
X6377Y3080D02*
Y3120D01*
X6357Y3600D02*
X6398D01*
X6377Y3580D02*
Y3620D01*
X6357Y3700D02*
X6398D01*
X6377Y3680D02*
Y3720D01*
X6357Y3900D02*
X6398D01*
X6377Y3880D02*
Y3920D01*
X5357Y4200D02*
X5398D01*
X5377Y4180D02*
Y4220D01*
X5357Y3900D02*
X5398D01*
X5377Y3880D02*
Y3920D01*
X5357Y3800D02*
X5398D01*
X5377Y3780D02*
Y3820D01*
X5357Y3700D02*
X5398D01*
X5377Y3680D02*
Y3720D01*
X5357Y3400D02*
X5398D01*
X5377Y3380D02*
Y3420D01*
X5357Y3300D02*
X5398D01*
X5377Y3280D02*
Y3320D01*
X6357Y2900D02*
X6398D01*
X6377Y2880D02*
Y2920D01*
X6357Y3200D02*
X6398D01*
X6377Y3180D02*
Y3220D01*
X6357Y3300D02*
X6398D01*
X6377Y3280D02*
Y3320D01*
X6357Y3400D02*
X6398D01*
X6377Y3380D02*
Y3420D01*
X6357Y3500D02*
X6398D01*
X6377Y3480D02*
Y3520D01*
X6357Y3800D02*
X6398D01*
X6377Y3780D02*
Y3820D01*
X6357Y4000D02*
X6398D01*
X6377Y3980D02*
Y4020D01*
X6357Y4100D02*
X6398D01*
X6377Y4080D02*
Y4120D01*
X6357Y4200D02*
X6398D01*
X6377Y4180D02*
Y4220D01*
X3794Y1377D02*
X3842D01*
X3818Y1353D02*
Y1401D01*
X4621Y1377D02*
X4669D01*
X4645Y1353D02*
Y1401D01*
X3794Y1968D02*
X3842D01*
X3818Y1944D02*
Y1992D01*
X4621Y1968D02*
X4669D01*
X4645Y1944D02*
Y1992D01*
X4448Y3570D02*
X4488D01*
X4468Y3551D02*
Y3590D01*
X4645Y3570D02*
X4685D01*
X4665Y3551D02*
Y3590D01*
X4244Y2413D02*
X4283D01*
X4263Y2393D02*
Y2433D01*
X4850Y2413D02*
X4889D01*
X4870Y2393D02*
Y2433D01*
X4145Y4760D02*
X4185D01*
X4165Y4740D02*
Y4780D01*
X3845Y4530D02*
X3885D01*
X3865Y4510D02*
Y4550D01*
X5281Y1181D02*
X5316D01*
X5299Y1163D02*
Y1198D01*
X5076Y1181D02*
X5112D01*
X5094Y1163D02*
Y1198D01*
X5179Y1181D02*
X5214D01*
X5196Y1163D02*
Y1198D01*
X5180Y1830D02*
X5213D01*
X5196Y1813D02*
Y1847D01*
X5180Y1476D02*
X5213D01*
X5196Y1459D02*
Y1493D01*
X5201Y4566D02*
X5235D01*
X5218Y4550D02*
Y4583D01*
X5101Y4566D02*
X5135D01*
X5118Y4550D02*
Y4583D01*
X5001Y4566D02*
X5035D01*
X5018Y4550D02*
Y4583D01*
X5301Y4566D02*
X5335D01*
X5318Y4550D02*
Y4583D01*
X6276Y1814D02*
X6321D01*
X6299Y1792D02*
Y1837D01*
X6276Y2122D02*
X6321D01*
X6299Y2099D02*
Y2144D01*
X5179Y3070D02*
X5214D01*
X5196Y3053D02*
Y3088D01*
X5079Y3070D02*
X5114D01*
X5096Y3053D02*
Y3088D01*
X6597Y3641D02*
X6630D01*
X6614Y3625D02*
Y3658D01*
X6597Y3287D02*
X6630D01*
X6614Y3270D02*
Y3304D01*
X4549Y2519D02*
X4584D01*
X4566Y2501D02*
Y2537D01*
X4649Y2519D02*
X4684D01*
X4666Y2501D02*
Y2537D01*
X3674Y2549D02*
X3726D01*
X3700Y2523D02*
Y2575D01*
X3674Y3435D02*
X3726D01*
X3700Y3409D02*
Y3461D01*
X6948Y4803D02*
X7066D01*
X7007Y4744D02*
Y4862D01*
X3248Y4803D02*
X3366D01*
X3307Y4744D02*
Y4862D01*
X4549Y4645D02*
X4584D01*
X4566Y4627D02*
Y4663D01*
X4549Y4448D02*
X4584D01*
X4566Y4431D02*
Y4466D01*
X4147Y4015D02*
X4187D01*
X4167Y3996D02*
Y4035D01*
X4946Y4015D02*
X4986D01*
X4966Y3996D02*
Y4035D01*
X6584Y4064D02*
X6624D01*
X6604Y4045D02*
Y4084D01*
X6584Y3809D02*
X6624D01*
X6604Y3789D02*
Y3828D01*
X6761Y4064D02*
X6801D01*
X6781Y4045D02*
Y4084D01*
X6761Y3809D02*
X6801D01*
X6781Y3789D02*
Y3828D01*
X6584Y3041D02*
X6624D01*
X6604Y3021D02*
Y3061D01*
X6584Y2785D02*
X6624D01*
X6604Y2765D02*
Y2805D01*
X6761Y3041D02*
X6801D01*
X6781Y3021D02*
Y3061D01*
X6761Y2785D02*
X6801D01*
X6781Y2765D02*
Y2805D01*
X6754Y3641D02*
X6788D01*
X6771Y3625D02*
Y3658D01*
X6754Y3287D02*
X6788D01*
X6771Y3270D02*
Y3304D01*
X6774Y2519D02*
X6808D01*
X6791Y2502D02*
Y2536D01*
X6420Y2519D02*
X6453D01*
X6437Y2502D02*
Y2536D01*
X5101Y3799D02*
X5134D01*
X5118Y3782D02*
Y3815D01*
X5101Y3444D02*
X5134D01*
X5118Y3428D02*
Y3461D01*
X6065Y3307D02*
X6099D01*
X6082Y3290D02*
Y3323D01*
X5711Y3307D02*
X5745D01*
X5728Y3290D02*
Y3323D01*
X6065Y3543D02*
X6099D01*
X6082Y3526D02*
Y3560D01*
X5711Y3543D02*
X5745D01*
X5728Y3526D02*
Y3560D01*
X6065Y3779D02*
X6099D01*
X6082Y3762D02*
Y3796D01*
X5711Y3779D02*
X5745D01*
X5728Y3762D02*
Y3796D01*
X6673Y1810D02*
X6706D01*
X6690Y1793D02*
Y1827D01*
X6673Y2109D02*
X6706D01*
X6690Y2092D02*
Y2126D01*
X5573Y2283D02*
X5607D01*
X5590Y2266D02*
Y2300D01*
X5873Y2283D02*
X5907D01*
X5890Y2266D02*
Y2300D01*
X5773Y2283D02*
X5807D01*
X5790Y2266D02*
Y2300D01*
X5673Y2283D02*
X5707D01*
X5690Y2266D02*
Y2300D01*
X3454Y4376D02*
X3524D01*
X3489Y4341D02*
Y4412D01*
X3454Y4126D02*
X3524D01*
X3489Y4091D02*
Y4162D01*
X5079Y2204D02*
X5113D01*
X5096Y2187D02*
Y2221D01*
X5179Y2204D02*
X5213D01*
X5196Y2187D02*
Y2221D01*
X5279Y2204D02*
X5313D01*
X5296Y2187D02*
Y2221D01*
X5672Y2519D02*
X5708D01*
X5690Y2501D02*
Y2537D01*
X5572Y2519D02*
X5608D01*
X5590Y2501D02*
Y2537D01*
X6066Y3070D02*
X6101D01*
X6084Y3053D02*
Y3088D01*
X5966Y3070D02*
X6001D01*
X5984Y3053D02*
Y3088D01*
X4262Y3070D02*
X4298D01*
X4280Y3053D02*
Y3088D01*
X4362Y3070D02*
X4398D01*
X4380Y3053D02*
Y3088D01*
X3248Y1102D02*
X3366D01*
X3307Y1043D02*
Y1161D01*
X6948Y1102D02*
X7066D01*
X7007Y1043D02*
Y1161D01*
X6191Y3084D02*
X6219D01*
X6205Y3070D02*
Y3098D01*
X5026Y2282D02*
X5054D01*
X5040Y2268D02*
Y2296D01*
X6183Y2457D02*
X6211D01*
X6197Y2443D02*
Y2471D01*
X5809Y3466D02*
X5837D01*
X5823Y3452D02*
Y3480D01*
X5867Y3859D02*
X5895D01*
X5881Y3845D02*
Y3873D01*
M02*